<svg width="143" height="16" viewBox="0 0 143 16" fill="none" xmlns="http://www.w3.org/2000/svg">
<path d="M34.6804 0.329492C32.7764 0.371247 30.5626 1.81951 30.5626 4.17819C30.5626 6.53668 31.721 7.57174 34.163 8.41986C37.0185 9.41363 37.184 10.3237 37.1636 11.3373C37.1422 12.1854 36.5422 13.2825 35.2594 13.3446C33.8316 13.4067 33.0041 12.7027 32.9426 11.5239H30.2728C30.3973 13.903 32.5079 15.7449 35.0115 15.7449C37.9905 15.7449 39.522 13.7173 39.563 11.5855C39.6048 9.64125 39.1292 8.04812 35.694 6.90927C33.7284 6.20603 32.9213 5.73024 32.9213 4.38514C32.9213 3.16453 33.853 2.52285 34.8042 2.52285C35.7359 2.52285 36.6046 3.14357 36.6872 4.03344H39.2944C39.3354 2.33702 37.8668 0.267344 34.6804 0.329492ZM63.3379 0.329492C61.4337 0.371247 59.2201 1.81951 59.2201 4.17819C59.2201 6.53668 60.3786 7.57174 62.8206 8.41986C65.676 9.41363 65.8414 10.3237 65.8208 11.3373C65.7996 12.1854 65.1996 13.2825 63.9166 13.3446C62.489 13.4067 61.6614 12.7027 61.6001 11.5239H58.9303C59.0546 13.903 61.1652 15.7449 63.6687 15.7449C66.6487 15.7449 68.1795 13.7173 68.2205 11.5855C68.2827 9.64125 67.7865 8.04812 64.3515 6.90927C62.3859 6.20603 61.5785 5.73024 61.5785 4.38514C61.5785 3.16453 62.5103 2.52285 63.4618 2.52285C64.3934 2.52285 65.2616 3.14357 65.3444 4.03344H67.952C67.9929 2.33702 66.5242 0.267344 63.3379 0.329492ZM4.47106 0.76434C3.60158 0.76434 1.36738 0.764449 0.953125 0.847183V15.2482C1.40835 15.3309 3.64346 15.3513 4.59547 15.3513C6.9124 15.3513 7.78183 15.0827 8.69209 14.2756C9.43708 13.6133 9.80971 12.5996 9.80971 11.3373C9.80971 9.1858 8.81646 8.21318 7.53351 7.73678V7.67549C8.50533 7.15811 9.25045 6.26837 9.25045 4.44766C9.25045 3.28842 8.87794 2.46052 8.1747 1.86041C7.32659 1.05405 6.16746 0.76434 4.61611 0.76434H4.47106ZM16.472 0.76434V15.2482H24.417V13.1795H18.8517L18.7476 13.0754V8.99915L18.8517 8.89628H23.4863V6.78576H18.8517L18.7476 6.68168V2.9577L18.8517 2.85422H24.417V0.76434H16.472ZM44.2811 0.76434V2.85422L48.1501 2.83298L48.2539 2.9577V15.2482H50.5301V2.9577L50.633 2.83298L54.5023 2.85422V0.76434H44.2811ZM74.8631 0.76434V15.2482H82.7878V13.158H77.2215L77.1178 13.0551V8.99915L77.2215 8.89628H81.8562V6.78576H77.2215L77.1178 6.68168V2.9577L77.2215 2.85422H82.7878V0.76434H74.8631ZM90.236 0.76434V15.2482H98.2026V13.1795L92.616 13.158L92.5128 13.0551V0.76434H90.236ZM103.975 0.76434V15.2482H111.921V13.1795H106.355L106.252 13.0551V0.76434H103.975ZM118.232 0.76434V15.2482H126.177V13.158H120.611L120.508 13.0551V8.99915L120.611 8.89628H125.246V6.78576H120.611L120.508 6.68168V2.9577L120.611 2.85422H126.177V0.76434H118.232ZM136.978 0.76434C136.089 0.76434 133.895 0.764449 133.481 0.847183V15.2482H135.757V9.10323L135.86 8.99915H136.978C138.013 8.99915 138.385 9.68213 138.84 10.6751C139.461 12.0406 139.75 13.262 140.33 15.2482H142.813C142.586 14.4826 141.737 11.958 141.013 9.99235C140.578 8.83408 140.02 8.19205 139.358 8.02658V7.96468C140.558 7.48906 141.861 6.66126 141.923 4.53019C141.964 3.45447 141.716 2.4819 141.033 1.81945C140.165 0.991917 138.799 0.76434 136.978 0.76434ZM3.33311 2.83298H3.70545H4.76086C6.47845 2.83298 6.99518 3.68199 6.99518 4.69558C6.99518 5.93736 6.49889 6.76513 4.86403 6.76513C4.82305 6.78571 3.33311 6.78576 3.33311 6.78576L3.22902 6.66104V2.93706L3.33311 2.83298ZM135.86 2.85422H137.309C138.985 2.85422 139.585 3.9303 139.585 4.77842C139.585 6.47543 138.468 6.80615 137.33 6.78576H135.86L135.757 6.68168V2.9577L135.86 2.85422ZM3.33311 8.89628H4.74022C6.33333 8.89628 7.42973 9.66149 7.42973 11.1303C7.42973 12.2895 6.91236 13.1795 4.86403 13.1795H3.95367H3.33311L3.22902 13.0754V8.99915L3.33311 8.89628Z" fill="white"/>
</svg>
