<svg width="1280" height="192" viewBox="0 0 1280 192" fill="none" xmlns="http://www.w3.org/2000/svg">
<g clip-path="url(#clip0_5323_4887)">
<path d="M919.37 0C915.883 0.233333 912.59 0.96 909.49 2.18C902.43 4.95 898.99 15.27 896.25 22.82C885.917 51.28 875.503 79.9733 865.01 108.9C863.5 113.08 860.93 117.5 855.83 117.3C855.33 117.28 855.143 117.03 855.27 116.55C856.677 111.13 857.147 105.29 856.68 99.03C855.41 82.13 843.7 71.1 827.69 66.96C825.263 66.3333 825.277 65.7567 827.73 65.23C840.09 62.59 849.46 53.25 850.8 40.4C853.22 17.2 836.47 3.4 815.05 0.96C808.237 0.186667 802.48 -0.00333336 797.78 0.39C787.893 1.21667 777.667 1.81333 767.1 2.18C756.35 2.55 746.57 1.25 735.9 0.35C731.573 -0.0166667 726.79 0.326667 721.55 1.38C715.45 2.62 710.09 6.36 709.05 12.83C708.197 18.11 709.107 22.61 711.78 26.33C715.84 31.99 721.75 30.85 727.57 29.28C734.5 27.41 734.23 38.05 734.23 42.15C734.21 63.7633 734.193 85.33 734.18 106.85C734.18 109.323 733.913 111.733 733.38 114.08C731.77 121.17 723.16 115.87 718.5 116.63C710.48 117.95 707.96 126.84 709 134C709.91 140.31 714.6 144.31 720.53 145.62C730.57 147.85 741.51 146.37 751.96 145.12C758.86 144.3 766.47 144.58 773.45 145.14C779.503 145.627 785.427 146.067 791.22 146.46C805.56 147.44 819.72 146.39 832.93 140.71C835.19 139.737 837.243 138.587 839.09 137.26C839.483 136.973 839.767 137.06 839.94 137.52C842.21 143.62 846.87 147.15 853.5 147.13C863.66 147.1 876.93 144.1 888.75 145.63C895.057 146.443 900.633 146.937 905.48 147.11C910.6 147.297 914.61 145.47 917.51 141.63C922.17 135.47 920.86 120.41 911.31 119.14C909.423 118.887 907.573 118.653 905.76 118.44C902.98 118.113 901.8 116.543 902.22 113.73C902.94 108.98 904.17 101.52 909.99 101.35C919.697 101.063 930.067 100.86 941.1 100.74C944.447 100.7 946.503 102.16 947.27 105.12C948.01 107.947 948.647 110.53 949.18 112.87C950.19 117.29 947.64 119.54 943.39 118.81C937.903 117.87 934.063 119.853 931.87 124.76C927.45 134.62 931.5 146.29 943.53 146.68C948.337 146.833 954.393 146.413 961.7 145.42C969.78 144.32 977.06 144.64 984.92 145.89C990.02 146.697 994.67 146.9 998.87 146.5C1001.9 146.213 1004.86 146.197 1007.77 146.45C1013.88 146.97 1020.61 146.727 1027.95 145.72C1035.51 144.68 1043.25 144.4 1050.75 144.9C1069.94 146.18 1089.03 148.97 1107.86 143.18C1126.89 137.32 1138.55 124.05 1138.46 103.04C1138.4 88.9867 1132.61 78.5867 1121.09 71.84C1117 69.4467 1112.85 67.7933 1108.63 66.88C1106.87 66.5067 1106.86 66.08 1108.59 65.6C1126.32 60.6867 1134.23 49.0133 1132.32 30.58C1132.27 30.1533 1132.47 29.9367 1132.9 29.93C1138.14 29.81 1140.95 35.72 1143.38 39.68C1152.68 54.8 1162.42 70.5967 1172.61 87.07C1175.28 91.3833 1176.83 94.5267 1177.27 96.5C1177.93 99.5133 1178.17 104.54 1177.98 111.58C1177.87 115.58 1176.16 118.48 1171.68 118.09C1168.38 117.803 1165.17 117.45 1162.04 117.03C1154.41 116.01 1149.92 121.85 1149.23 128.73C1148.09 140.09 1154.16 145.87 1164.67 146.83C1167.2 147.063 1168.98 147.163 1170.01 147.13C1177.58 146.87 1185.72 146.31 1194.43 145.45C1206.26 144.29 1218.78 146.72 1229.89 147.11C1237.98 147.397 1243.08 143.69 1245.17 135.99C1246.62 130.65 1245.83 125.747 1242.78 121.28C1240.6 118.08 1237.7 116.647 1234.09 116.98C1231.07 117.267 1227.82 117.613 1224.34 118.02C1218.92 118.667 1215.94 116.563 1215.41 111.71C1215.09 108.77 1214.99 104.97 1215.1 100.31C1215.23 95.28 1217.52 90.89 1220.09 86.76C1229.56 71.5533 1239.24 56.0533 1249.12 40.26C1250.69 37.76 1252.3 35.4067 1253.96 33.2C1259.87 25.32 1269.22 35.33 1275.91 27.89C1277.94 25.6233 1279.31 22.9033 1280 19.73" stroke="black" stroke-width="2"/>
<path d="M0 18.09C0.813333 23.3966 3.36 26.3533 7.64 26.96C10.22 27.33 12.8 26.51 15.32 26C17.2467 25.62 18.43 26.3133 18.87 28.08C19.3967 30.1466 19.6667 32.37 19.68 34.75C19.8867 66.2433 19.99 97.7333 19.99 129.22C19.99 135.74 20.42 143.49 28.21 145.28C34.88 146.81 43.85 145.59 45.1 137.54C45.36 135.83 45 134.21 44.76 132.52C44.48 130.493 44.84 130.37 45.84 132.15C53.8 146.33 69.3 151.63 85 149.58C112.65 145.98 124.21 119.49 125.07 94.6C125.477 82.86 124.147 72.6166 121.08 63.87C120.92 63.41 121.08 63.2166 121.56 63.29C123.873 63.63 126.42 63.33 129.2 62.39C130.413 61.9833 131.513 62.0866 132.5 62.7C132.82 62.8933 133.023 63.1733 133.11 63.54C133.817 66.54 134.183 69.86 134.21 73.5C134.283 85.36 134.26 97.4 134.14 109.62C134.06 117.48 134.657 123.573 135.93 127.9C143.21 152.69 173.37 154.36 192.53 143.91C197.77 141.05 202.067 137.307 205.42 132.68C205.92 131.993 206.183 132.077 206.21 132.93C206.27 134.643 206.263 136.423 206.19 138.27C205.96 144.23 209 147.67 215.56 146.98C219.98 146.51 224.28 144.91 228.69 145.24C231.943 145.487 235.083 145.987 238.11 146.74C239.063 146.98 239.063 147.213 238.11 147.44C230.46 149.29 224.42 155.76 223.83 163.78C223.14 173.1 228.1 181.24 236.25 185.86C249.5 193.36 266.07 193.46 279.6 187.62C301.16 178.3 314.86 151.86 322.49 131.17C328.183 115.723 335.293 96.1266 343.82 72.38C344.87 69.48 347.63 62.58 351.8 63.59C356.44 64.72 361.48 64.72 364.09 60.02C366.25 56.12 366.66 51.6666 365.32 46.66C363.627 40.3466 359.347 37.34 352.48 37.64C348.833 37.7933 345.107 38.2 341.3 38.86C335.47 39.86 329.7 40.01 323.86 38.92C315.54 37.37 306.2 35.24 302.66 45.74C301.05 50.51 301.87 56.81 306.72 59.36C308.533 60.3066 310.467 61.1533 312.52 61.9C312.983 62.0704 313.378 62.387 313.645 62.8021C313.912 63.2171 314.037 63.7078 314 64.2C313.873 65.8933 313.543 67.5366 313.01 69.13C308.543 82.49 303.51 97.4066 297.91 113.88C297.57 114.873 297.24 114.873 296.92 113.88C291.64 97.4266 286.78 82.21 282.34 68.23C281.74 66.3366 281.583 64.59 281.87 62.99C282.7 58.44 293.72 61.76 294.9 53.27C295.94 45.74 293.94 38.21 285.34 37.51C281.113 37.17 276.57 37.42 271.71 38.26C264.97 39.43 258.53 39.81 251.84 38.67C246.55 37.76 240.94 36.95 235.58 37.79C234.087 38.03 232.57 38.0133 231.03 37.74C227.13 37.05 222.85 37.67 218.96 38.65C209.74 40.96 200.88 36.43 191.62 37.57C182.43 38.69 180.44 49.05 182.28 56.78C183.233 60.78 185.673 63.14 189.6 63.86C192.16 64.33 194.81 63.01 197.33 62.5C200.85 61.78 201.32 67.2 201.37 69.45C201.59 79.35 201.613 88.4133 201.44 96.64C201.26 105.76 197.51 116.28 188.7 120.17C180.57 123.76 170.71 120.45 168.79 111.35C168.13 108.23 167.797 104.88 167.79 101.3C167.77 82.6066 167.763 63.2033 167.77 43.09C167.77 40.77 166.917 38.9066 165.21 37.5C164.923 37.2666 164.597 37.1466 164.23 37.14C159.743 37.0933 155.347 37.63 151.04 38.75C149.23 39.22 146.85 39.27 145.01 39.01C138.36 38.06 131.39 36.63 124.6 37.35C118.48 37.99 114.72 43.05 114.75 49.21C114.757 49.7366 114.58 49.8066 114.22 49.42C112.93 48.03 111.78 46.36 110.48 45.03C100.827 35.1766 88.8767 31.8 74.63 34.9C66.8233 36.6066 60.39 40.6666 55.33 47.08C54.8367 47.7066 54.5933 47.62 54.6 46.82C54.6933 36.2 54.7 25.01 54.62 13.25C54.58 6.77998 54.72 -0.910024 46.01 0.299976C42.0567 0.839976 37.9767 1.38331 33.77 1.92998C27.63 2.71998 21.85 1.39998 15.73 0.529976C6.63667 -0.763357 1.39333 2.96664 0 11.72" stroke="black" stroke-width="2"/>
<path d="M397.03 131.42C401.78 138.73 407.02 144.32 415.1 147.31C428.99 152.43 446.36 150.36 457.74 140.61C470.2 129.94 476 112.96 476.71 96.75C477.21 85.45 476.61 74.93 472.86 63.96C472.72 63.5467 472.87 63.3534 473.31 63.38C476.116 63.5467 479.076 63.1634 482.19 62.23C483.87 61.72 485.28 62.73 485.55 64.47C486.116 68.1034 486.41 71.5467 486.43 74.8C486.536 88.0534 486.55 101.443 486.47 114.97C486.36 134.59 496.75 148.22 516.87 149.78C528.816 150.707 539.68 147.717 549.46 140.81C552.586 138.603 555.176 136.053 557.23 133.16C558.243 131.733 558.72 131.893 558.66 133.64C558.6 135.22 558.53 136.83 558.45 138.47C558.15 144.57 561.29 147.76 567.97 146.96C572.36 146.44 576.65 144.8 581.08 145.24C584.246 145.553 587.406 146.077 590.56 146.81C591.293 146.977 591.29 147.14 590.55 147.3C581.48 149.25 575.18 156.81 575.6 166.18C576.06 176.52 582.59 183.87 592.05 187.88C601.496 191.887 611.576 192.783 622.29 190.57C649.71 184.89 665.44 154.74 674.37 130.87C681.916 110.683 689.353 90.51 696.68 70.35C697.75 67.41 699.74 62.83 703.64 63.65C705.386 64.01 707.07 64.18 708.69 64.16C720.09 64.03 719.83 46.07 713.52 40.4C708.91 36.27 700.7 37.58 695.18 38.55C689.92 39.48 684.23 40.16 678.88 39.34C675.093 38.76 671.363 38.24 667.69 37.78C660.776 36.9 656.343 39.6367 654.39 45.99C652.89 50.89 653.81 57.02 658.72 59.46C660.54 60.36 662.423 61.1934 664.37 61.96C664.841 62.1471 665.239 62.4814 665.505 62.9137C665.772 63.3459 665.893 63.853 665.85 64.36C665.703 66.04 665.393 67.5734 664.92 68.96C659.693 84.32 654.623 99.35 649.71 114.05C649.676 114.143 649.626 114.227 649.56 114.3C649.493 114.373 649.413 114.423 649.32 114.45C649.231 114.475 649.136 114.463 649.054 114.419C648.973 114.374 648.91 114.299 648.88 114.21C644.113 99.5434 639.533 85.2934 635.14 71.46C634.11 68.23 631.38 61.97 636.42 60.62C640.24 59.59 644.72 59.23 646.21 55.05C646.99 52.85 647.203 50.2 646.85 47.1C646.18 41.1 641.75 37.4 635.89 37.37C630.876 37.3367 624.973 37.8767 618.18 38.99C610.33 40.27 602.6 38.27 594.81 37.53C592.576 37.3167 590.34 37.3667 588.1 37.68C584.22 38.21 580.59 37.08 576.63 37.64C571.38 38.39 566.74 39.93 561.28 39.12C552.52 37.8 538.5 33.49 534.43 45.33C533.183 48.9567 533.083 52.8567 534.13 57.03C535.076 60.7967 537.416 63.0634 541.15 63.83C543.86 64.38 546.6 63 549.31 62.47C549.887 62.3586 550.484 62.4567 550.994 62.7466C551.504 63.0364 551.893 63.4988 552.09 64.05C552.843 66.1234 553.233 68.3767 553.26 70.81C553.373 80.9634 553.353 89.8167 553.2 97.37C553.066 103.997 551.086 109.807 547.26 114.8C541.42 122.43 529.93 124.5 523.18 116.81C521.433 114.817 520.373 111.793 520 107.74C519.46 102.05 519.64 97.25 519.67 91.85C519.77 75.7367 519.89 59.6967 520.03 43.73C520.05 41.16 519 37.22 515.84 37.18C511.72 37.12 507.436 37.66 502.99 38.8C501.32 39.23 499.5 39.23 497.81 39.04C490.97 38.28 484.24 36.68 477.21 37.32C470.8 37.91 466.92 42.97 466.89 49.37C466.883 50.0634 466.646 50.1534 466.18 49.64C464.1 47.35 462.39 44.75 460 42.74C449.593 34 437.413 31.6534 423.46 35.7C417.306 37.48 411.853 41.2734 407.1 47.08C406.573 47.72 406.316 47.6267 406.33 46.8C406.54 35.87 406.45 24.28 406.43 12.5C406.423 8.78669 406.18 6.11669 405.7 4.49003C404.03 -1.19997 397.34 0.130026 393.11 0.890026C388.936 1.64336 385.02 2.06336 381.36 2.15003C370.84 2.39003 356.15 -5.39997 352.32 9.73003C351.09 14.61 351.25 22.19 355.75 25.54C359.09 28.04 363.26 26.88 367.03 26.01C371.16 25.06 371.41 30.29 371.44 32.99C371.746 60.6767 371.853 88.33 371.76 115.95C371.74 121.65 372.07 127.32 371.99 133.08C371.93 137.1 373.32 142.56 377.46 144.31C385.14 147.56 398.47 146.03 396.86 134.39C396.726 133.463 396.61 132.533 396.51 131.6C396.423 130.807 396.596 130.747 397.03 131.42Z" stroke="black" stroke-width="2"/>
<path d="M1276.78 131.31C1276.78 127.443 1275.24 123.735 1272.51 121C1269.77 118.266 1266.07 116.73 1262.2 116.73C1260.28 116.73 1258.39 117.107 1256.62 117.84C1254.85 118.573 1253.24 119.647 1251.89 121C1250.54 122.354 1249.46 123.962 1248.73 125.73C1248 127.499 1247.62 129.395 1247.62 131.31C1247.62 133.225 1248 135.121 1248.73 136.89C1249.46 138.658 1250.54 140.266 1251.89 141.62C1253.24 142.973 1254.85 144.047 1256.62 144.78C1258.39 145.513 1260.28 145.89 1262.2 145.89C1266.07 145.89 1269.77 144.354 1272.51 141.62C1275.24 138.885 1276.78 135.177 1276.78 131.31Z" stroke="black" stroke-width="2"/>
<path d="M941.49 0C950.99 0.12 956.967 4.29 959.42 12.51C970.794 50.7567 980.517 83.0733 988.59 109.46C989.61 112.78 991.01 116.72 994.59 116.83C997.54 116.92 1000.41 115.71 1003.31 116.54C1005.61 117.213 1008.08 117.653 1010.72 117.86C1015.27 118.21 1015.73 110.71 1015.75 107.75C1015.95 87.7567 1016.08 66.7133 1016.14 44.62C1016.15 41.8333 1015.99 38.7133 1015.67 35.26C1015.36 31.95 1013.65 28.29 1009.74 29.25C1003.32 30.83 997.11 32.17 993 25.39C991.134 22.3033 990.324 18.8367 990.57 14.99C991.14 6.27 997.42 2.22 1005.37 1C1010.72 0.173333 1015.12 -0.03 1018.58 0.39C1033.97 2.23667 1048.14 2.66667 1061.11 1.68C1067.73 1.18 1074.27 0.74 1080.72 0.36C1092.22 -0.32 1104.73 1.18 1114.71 6.36C1115.15 6.59333 1115.53 6.51333 1115.84 6.12C1120.91 -0.24 1128.64 -0.35 1136.06 0.68C1144.83 1.9 1151.89 2.37 1157.24 2.09C1162.11 1.83667 1167.57 1.27333 1173.63 0.4C1183.21 -0.99 1189.28 2.85 1191.23 12.46C1192.29 17.72 1191.92 23.3 1186.79 26.21C1185.15 27.14 1182.42 28.09 1181.91 30C1181.23 32.55 1182.93 35.9 1184.11 38.16C1188.1 45.8133 1192.26 53.7467 1196.59 61.96C1196.63 62.0418 1196.7 62.1103 1196.78 62.1583C1196.86 62.2064 1196.95 62.2323 1197.04 62.2333C1197.14 62.2343 1197.23 62.2104 1197.31 62.1641C1197.39 62.1178 1197.45 62.0508 1197.5 61.97C1201.99 53.93 1206.7 45.5333 1211.63 36.78C1212.97 34.4 1213.53 32.13 1213.31 29.97C1213.28 29.65 1213.16 29.36 1212.96 29.1C1212.49 28.4933 1211.9 28 1211.19 27.62C1208.3 26.0867 1206.45 24.5333 1205.63 22.96C1201.96 15.93 1204.62 4.17 1212.59 1.25C1214.68 0.476667 1218.16 0.393333 1223.01 1C1227.68 1.58667 1232.49 2.05333 1237.45 2.4C1245.61 2.98 1253.55 1.66 1262.25 0.76C1272.16 -0.273333 1278.08 3.93333 1280 13.38" stroke="black" stroke-width="2"/>
<path d="M923.79 44.68C921.296 53.4467 918.823 62.0733 916.37 70.56C916.267 70.9172 916.287 71.2986 916.426 71.6431C916.566 71.9876 916.817 72.2752 917.14 72.46C918.213 73.0733 919.353 73.4 920.56 73.44C925.893 73.62 931.166 73.59 936.38 73.35C936.807 73.3312 937.224 73.2189 937.604 73.0209C937.983 72.8229 938.314 72.544 938.574 72.2038C938.834 71.8636 939.017 71.4703 939.109 71.0516C939.202 70.6329 939.202 70.1989 939.11 69.78L929.68 26.71C929.546 26.0967 929.386 26.09 929.2 26.69C927.306 32.6567 925.503 38.6533 923.79 44.68Z" stroke="black" stroke-width="2"/>
<path d="M808.991 47.39C813.141 39.25 808.661 32.11 800.651 29.35C793.197 26.7833 785.627 26.43 777.941 28.29C773.961 29.26 772.811 33.79 772.851 37.44C772.891 42.5133 773.031 47.4566 773.271 52.27C773.331 53.4366 773.694 54.4866 774.361 55.42C774.574 55.72 774.861 55.9 775.221 55.96C778.387 56.5133 781.987 56.68 786.021 56.46C793.671 56.04 805.051 55.14 808.991 47.39Z" stroke="black" stroke-width="2"/>
<path d="M1084.67 53.48C1093.57 49.69 1096.37 38.89 1088.63 32.32C1082.11 26.79 1069.8 26.42 1061.93 27.9C1058.04 28.6333 1055.98 31 1055.75 35C1055.4 40.94 1055.36 46.99 1055.63 53.15C1055.68 54.48 1056.32 55.92 1057.81 56.09C1066.35 57.08 1077.32 56.6 1084.67 53.48Z" stroke="black" stroke-width="2"/>
<path d="M800.749 85.63C792.749 83.41 784.482 82.86 775.949 83.98C773.579 84.29 773.369 87.52 773.329 89.3C773.242 92.7 773.166 96.3667 773.099 100.3C772.939 109.14 772.429 116.38 783.289 118.43C792.359 120.14 802.359 119.9 809.799 114.63C813.039 112.337 814.989 109.313 815.649 105.56C817.499 95.01 810.199 88.26 800.749 85.63Z" stroke="black" stroke-width="2"/>
<path d="M1097.97 100.18C1096.13 84.28 1072.4 82.95 1060.63 83.6C1056.1 83.85 1055.61 85.76 1055.55 89.79C1055.47 95.1233 1055.46 100.89 1055.51 107.09C1055.6 117.06 1062.84 118.54 1070.99 119.21C1077.41 119.737 1082.93 119.04 1087.56 117.12C1095 114.03 1098.92 108.32 1097.97 100.18Z" stroke="black" stroke-width="2"/>
<path d="M77.1293 120.44C90.4693 116.88 90.4793 96.32 89.8593 85.87C89.2893 76.1 84.5393 63.1 73.4893 62.51C65.8793 62.1 59.5593 69.01 57.0493 75.83C53.7826 84.6833 53.2993 94.4167 55.5993 105.03C56.8059 110.59 59.0926 114.707 62.4593 117.38C66.8459 120.86 71.7359 121.88 77.1293 120.44Z" stroke="black" stroke-width="2"/>
<path d="M253.421 125.41C256.361 132.48 255.361 144.25 246.191 146.76C245.431 146.967 245.424 147.197 246.171 147.45C254.404 150.263 257.827 156.227 256.441 165.34C256.374 165.807 256.547 166.157 256.961 166.39C265.181 170.97 273.481 160.98 276.761 154.15C277.881 151.81 278.244 149.653 277.851 147.68C276.744 142.147 274.847 136.267 272.161 130.04C262.891 108.58 254.091 87.44 245.481 67.06C243.321 61.95 239.471 63.9 235.411 63.99C235.017 63.9967 234.821 64.1967 234.821 64.59C234.781 79.73 234.784 94.8067 234.831 109.82C234.837 113.113 235.267 116.447 236.121 119.82C237.051 123.49 241.381 121.46 243.771 120.86C247.611 119.88 251.951 121.88 253.421 125.41Z" stroke="black" stroke-width="2"/>
<path d="M429.949 63.43C420.429 59.08 411.609 69.1 409.009 77.22C406.416 85.3334 405.959 93.9367 407.639 103.03C409.339 112.26 413.699 119.8 423.869 121.01C426.809 121.357 429.706 120.7 432.559 119.04C443.219 112.82 442.879 92.81 441.569 82.06C440.689 74.81 436.829 66.57 429.949 63.43Z" stroke="black" stroke-width="2"/>
<path d="M587.39 64.17C587.223 64.1966 587.14 64.2966 587.14 64.47C587.16 79.75 587.147 94.9433 587.1 110.05C587.087 113.363 587.46 116.593 588.22 119.74C588.66 121.56 589.753 122.283 591.5 121.91C594.59 121.24 597.83 119.86 600.91 121.13C604.35 122.55 606.273 125.393 606.68 129.66C607.41 137.16 606.12 144.92 597.75 146.94C597.29 147.053 597.283 147.187 597.73 147.34C606.183 150.273 609.713 156.273 608.32 165.34C608.247 165.8 608.413 166.147 608.82 166.38C616.58 170.92 624.88 161.1 628.2 154.87C629.887 151.717 630.183 148.257 629.09 144.49C627.83 140.143 626.587 136.513 625.36 133.6C617.04 113.813 608.567 93.68 599.94 73.2C598.65 70.15 596.72 63.32 592.54 63.57C590.86 63.67 589.143 63.87 587.39 64.17Z" stroke="black" stroke-width="2"/>
<path d="M1274.73 131.34C1274.73 128.014 1273.41 124.825 1271.06 122.473C1268.71 120.121 1265.52 118.8 1262.19 118.8C1258.86 118.8 1255.67 120.121 1253.32 122.473C1250.97 124.825 1249.65 128.014 1249.65 131.34C1249.65 134.666 1250.97 137.855 1253.32 140.207C1255.67 142.559 1258.86 143.88 1262.19 143.88C1265.52 143.88 1268.71 142.559 1271.06 140.207C1273.41 137.855 1274.73 134.666 1274.73 131.34Z" stroke="black" stroke-width="2"/>
<path d="M1259.51 135.74C1259.51 135.435 1259.61 135.138 1259.78 134.888C1259.95 134.638 1260.2 134.447 1260.49 134.341C1260.77 134.234 1261.08 134.218 1261.38 134.292C1261.67 134.367 1261.94 134.53 1262.14 134.76C1262.94 135.687 1263.65 136.667 1264.28 137.7C1264.79 138.533 1265.52 139.003 1266.48 139.11L1267.98 139.28C1269.08 139.407 1269.35 138.993 1268.78 138.04C1268.09 136.893 1267.31 135.873 1266.43 134.98C1266.33 134.882 1266.26 134.764 1266.21 134.633C1266.16 134.502 1266.14 134.363 1266.15 134.223C1266.16 134.084 1266.2 133.948 1266.27 133.825C1266.33 133.702 1266.43 133.594 1266.54 133.51C1268.87 131.763 1269.59 129.567 1268.69 126.92C1268.06 125.07 1266.27 123.83 1264.33 123.79C1261.98 123.73 1259.52 123.73 1256.95 123.79C1256.53 123.803 1256.31 124.02 1256.28 124.44C1255.96 129.147 1255.89 133.877 1256.06 138.63C1256.09 139.257 1256.41 139.53 1257.03 139.45L1258.69 139.23C1259.23 139.157 1259.5 138.85 1259.5 138.31L1259.51 135.74Z" stroke="black" stroke-width="2"/>
<path d="M1260.06 127.41V130.57C1260.06 130.666 1260.08 130.761 1260.12 130.849C1260.15 130.938 1260.21 131.018 1260.27 131.086C1260.34 131.154 1260.42 131.208 1260.51 131.244C1260.6 131.281 1260.69 131.3 1260.79 131.3H1261.39C1262.55 131.3 1263.67 131.079 1264.49 130.685C1265.32 130.291 1265.78 129.757 1265.78 129.2V128.78C1265.78 128.223 1265.32 127.689 1264.49 127.295C1263.67 126.901 1262.55 126.68 1261.39 126.68H1260.79C1260.6 126.68 1260.41 126.757 1260.27 126.894C1260.14 127.031 1260.06 127.216 1260.06 127.41Z" stroke="black" stroke-width="2"/>
<path d="M919.37 0H941.49C950.99 0.12 956.967 4.29 959.42 12.51C970.793 50.7567 980.517 83.0733 988.59 109.46C989.61 112.78 991.01 116.72 994.59 116.83C997.54 116.92 1000.41 115.71 1003.31 116.54C1005.61 117.213 1008.08 117.653 1010.72 117.86C1015.27 118.21 1015.73 110.71 1015.75 107.75C1015.95 87.7567 1016.08 66.7133 1016.14 44.62C1016.15 41.8333 1015.99 38.7133 1015.67 35.26C1015.36 31.95 1013.65 28.29 1009.74 29.25C1003.32 30.83 997.11 32.17 993 25.39C991.133 22.3033 990.323 18.8367 990.57 14.99C991.14 6.27 997.42 2.22 1005.37 1C1010.72 0.173333 1015.12 -0.03 1018.58 0.39C1033.97 2.23667 1048.14 2.66667 1061.11 1.68C1067.73 1.18 1074.27 0.74 1080.72 0.36C1092.22 -0.32 1104.73 1.18 1114.71 6.36C1115.15 6.59333 1115.53 6.51333 1115.84 6.12C1120.91 -0.24 1128.64 -0.35 1136.06 0.68C1144.83 1.9 1151.89 2.37 1157.24 2.09C1162.11 1.83667 1167.57 1.27333 1173.63 0.4C1183.21 -0.99 1189.28 2.85 1191.23 12.46C1192.29 17.72 1191.92 23.3 1186.79 26.21C1185.15 27.14 1182.42 28.09 1181.91 30C1181.23 32.55 1182.93 35.9 1184.11 38.16C1188.1 45.8133 1192.26 53.7467 1196.59 61.96C1196.63 62.0418 1196.7 62.1103 1196.78 62.1583C1196.86 62.2064 1196.95 62.2323 1197.04 62.2333C1197.13 62.2343 1197.23 62.2104 1197.31 62.1641C1197.39 62.1178 1197.45 62.0508 1197.5 61.97C1201.99 53.93 1206.7 45.5333 1211.63 36.78C1212.97 34.4 1213.53 32.13 1213.31 29.97C1213.28 29.65 1213.16 29.36 1212.96 29.1C1212.49 28.4933 1211.9 28 1211.19 27.62C1208.3 26.0867 1206.45 24.5333 1205.63 22.96C1201.96 15.93 1204.62 4.17 1212.59 1.25C1214.68 0.476667 1218.16 0.393333 1223.01 1C1227.68 1.58667 1232.49 2.05333 1237.45 2.4C1245.61 2.98 1253.55 1.66 1262.25 0.76C1272.16 -0.273333 1278.08 3.93333 1280 13.38V19.73C1279.31 22.9033 1277.94 25.6233 1275.91 27.89C1269.22 35.33 1259.87 25.32 1253.96 33.2C1252.3 35.4067 1250.69 37.76 1249.12 40.26C1239.24 56.0533 1229.56 71.5533 1220.09 86.76C1217.52 90.89 1215.23 95.28 1215.1 100.31C1214.99 104.97 1215.09 108.77 1215.41 111.71C1215.94 116.563 1218.92 118.667 1224.34 118.02C1227.82 117.613 1231.07 117.267 1234.09 116.98C1237.7 116.647 1240.6 118.08 1242.78 121.28C1245.83 125.747 1246.62 130.65 1245.17 135.99C1243.08 143.69 1237.98 147.397 1229.89 147.11C1218.78 146.72 1206.26 144.29 1194.43 145.45C1185.72 146.31 1177.58 146.87 1170.01 147.13C1168.98 147.163 1167.2 147.063 1164.67 146.83C1154.16 145.87 1148.09 140.09 1149.23 128.73C1149.92 121.85 1154.41 116.01 1162.04 117.03C1165.17 117.45 1168.38 117.803 1171.68 118.09C1176.16 118.48 1177.87 115.58 1177.98 111.58C1178.17 104.54 1177.93 99.5133 1177.27 96.5C1176.83 94.5267 1175.28 91.3833 1172.61 87.07C1162.42 70.5967 1152.68 54.8 1143.38 39.68C1140.95 35.72 1138.14 29.81 1132.9 29.93C1132.47 29.9367 1132.27 30.1533 1132.32 30.58C1134.23 49.0133 1126.32 60.6867 1108.59 65.6C1106.86 66.08 1106.87 66.5067 1108.63 66.88C1112.85 67.7933 1117 69.4467 1121.09 71.84C1132.61 78.5867 1138.4 88.9867 1138.46 103.04C1138.55 124.05 1126.89 137.32 1107.86 143.18C1089.03 148.97 1069.94 146.18 1050.75 144.9C1043.25 144.4 1035.51 144.68 1027.95 145.72C1020.61 146.727 1013.88 146.97 1007.77 146.45C1004.86 146.197 1001.9 146.213 998.87 146.5C994.67 146.9 990.02 146.697 984.92 145.89C977.06 144.64 969.78 144.32 961.7 145.42C954.393 146.413 948.337 146.833 943.53 146.68C931.5 146.29 927.45 134.62 931.87 124.76C934.063 119.853 937.903 117.87 943.39 118.81C947.64 119.54 950.19 117.29 949.18 112.87C948.647 110.53 948.01 107.947 947.27 105.12C946.503 102.16 944.447 100.7 941.1 100.74C930.067 100.86 919.697 101.063 909.99 101.35C904.17 101.52 902.94 108.98 902.22 113.73C901.8 116.543 902.98 118.113 905.76 118.44C907.573 118.653 909.423 118.887 911.31 119.14C920.86 120.41 922.17 135.47 917.51 141.63C914.61 145.47 910.6 147.297 905.48 147.11C900.633 146.937 895.057 146.443 888.75 145.63C876.93 144.1 863.66 147.1 853.5 147.13C846.87 147.15 842.21 143.62 839.94 137.52C839.767 137.06 839.483 136.973 839.09 137.26C837.243 138.587 835.19 139.737 832.93 140.71C819.72 146.39 805.56 147.44 791.22 146.46C785.427 146.067 779.503 145.627 773.45 145.14C766.47 144.58 758.86 144.3 751.96 145.12C741.51 146.37 730.57 147.85 720.53 145.62C714.6 144.31 709.91 140.31 709 134C707.96 126.84 710.48 117.95 718.5 116.63C723.16 115.87 731.77 121.17 733.38 114.08C733.913 111.733 734.18 109.323 734.18 106.85C734.193 85.33 734.21 63.7633 734.23 42.15C734.23 38.05 734.5 27.41 727.57 29.28C721.75 30.85 715.84 31.99 711.78 26.33C709.107 22.61 708.197 18.11 709.05 12.83C710.09 6.36 715.45 2.62 721.55 1.38C726.79 0.326667 731.573 -0.0166667 735.9 0.35C746.57 1.25 756.35 2.55 767.1 2.18C777.667 1.81333 787.893 1.21667 797.78 0.39C802.48 -0.00333336 808.237 0.186667 815.05 0.96C836.47 3.4 853.22 17.2 850.8 40.4C849.46 53.25 840.09 62.59 827.73 65.23C825.277 65.7567 825.263 66.3333 827.69 66.96C843.7 71.1 855.41 82.13 856.68 99.03C857.147 105.29 856.677 111.13 855.27 116.55C855.143 117.03 855.33 117.28 855.83 117.3C860.93 117.5 863.5 113.08 865.01 108.9C875.503 79.9733 885.917 51.28 896.25 22.82C898.99 15.27 902.43 4.95 909.49 2.18C912.59 0.96 915.883 0.233333 919.37 0ZM923.79 44.68C921.297 53.4467 918.823 62.0733 916.37 70.56C916.267 70.9172 916.287 71.2986 916.427 71.6431C916.566 71.9876 916.817 72.2752 917.14 72.46C918.213 73.0733 919.353 73.4 920.56 73.44C925.893 73.62 931.167 73.59 936.38 73.35C936.807 73.3312 937.225 73.2189 937.604 73.0209C937.983 72.8229 938.314 72.544 938.574 72.2038C938.835 71.8636 939.017 71.4704 939.11 71.0516C939.202 70.6329 939.202 70.1989 939.11 69.78L929.68 26.71C929.547 26.0967 929.387 26.09 929.2 26.69C927.307 32.6567 925.503 38.6533 923.79 44.68ZM808.99 47.39C813.14 39.25 808.66 32.11 800.65 29.35C793.197 26.7833 785.627 26.43 777.94 28.29C773.96 29.26 772.81 33.79 772.85 37.44C772.89 42.5133 773.03 47.4567 773.27 52.27C773.33 53.4367 773.693 54.4867 774.36 55.42C774.573 55.72 774.86 55.9 775.22 55.96C778.387 56.5133 781.987 56.68 786.02 56.46C793.67 56.04 805.05 55.14 808.99 47.39ZM1084.67 53.48C1093.57 49.69 1096.37 38.89 1088.63 32.32C1082.11 26.79 1069.8 26.42 1061.93 27.9C1058.04 28.6333 1055.98 31 1055.75 35C1055.4 40.94 1055.36 46.99 1055.63 53.15C1055.68 54.48 1056.32 55.92 1057.81 56.09C1066.35 57.08 1077.32 56.6 1084.67 53.48ZM800.75 85.63C792.75 83.41 784.483 82.86 775.95 83.98C773.58 84.29 773.37 87.52 773.33 89.3C773.243 92.7 773.167 96.3667 773.1 100.3C772.94 109.14 772.43 116.38 783.29 118.43C792.36 120.14 802.36 119.9 809.8 114.63C813.04 112.337 814.99 109.313 815.65 105.56C817.5 95.01 810.2 88.26 800.75 85.63ZM1097.97 100.18C1096.13 84.28 1072.4 82.95 1060.63 83.6C1056.1 83.85 1055.61 85.76 1055.55 89.79C1055.47 95.1233 1055.46 100.89 1055.51 107.09C1055.6 117.06 1062.84 118.54 1070.99 119.21C1077.41 119.737 1082.93 119.04 1087.56 117.12C1095 114.03 1098.92 108.32 1097.97 100.18Z" fill="black"/>
<path d="M0 18.09V11.72C1.39333 2.96664 6.63667 -0.763357 15.73 0.529976C21.85 1.39998 27.63 2.71998 33.77 1.92998C37.9767 1.38331 42.0567 0.839976 46.01 0.299976C54.72 -0.910024 54.58 6.77998 54.62 13.25C54.7 25.01 54.6933 36.2 54.6 46.82C54.5933 47.62 54.8367 47.7066 55.33 47.08C60.39 40.6666 66.8233 36.6066 74.63 34.9C88.8767 31.8 100.827 35.1766 110.48 45.03C111.78 46.36 112.93 48.03 114.22 49.42C114.58 49.8066 114.757 49.7366 114.75 49.21C114.72 43.05 118.48 37.99 124.6 37.35C131.39 36.63 138.36 38.06 145.01 39.01C146.85 39.27 149.23 39.22 151.04 38.75C155.347 37.63 159.743 37.0933 164.23 37.14C164.597 37.1466 164.923 37.2666 165.21 37.5C166.917 38.9066 167.77 40.77 167.77 43.09C167.763 63.2033 167.77 82.6066 167.79 101.3C167.797 104.88 168.13 108.23 168.79 111.35C170.71 120.45 180.57 123.76 188.7 120.17C197.51 116.28 201.26 105.76 201.44 96.64C201.613 88.4133 201.59 79.35 201.37 69.45C201.32 67.2 200.85 61.78 197.33 62.5C194.81 63.01 192.16 64.33 189.6 63.86C185.673 63.14 183.233 60.78 182.28 56.78C180.44 49.05 182.43 38.69 191.62 37.57C200.88 36.43 209.74 40.96 218.96 38.65C222.85 37.67 227.13 37.05 231.03 37.74C232.57 38.0133 234.087 38.03 235.58 37.79C240.94 36.95 246.55 37.76 251.84 38.67C258.53 39.81 264.97 39.43 271.71 38.26C276.57 37.42 281.113 37.17 285.34 37.51C293.94 38.21 295.94 45.74 294.9 53.27C293.72 61.76 282.7 58.44 281.87 62.99C281.583 64.59 281.74 66.3366 282.34 68.23C286.78 82.21 291.64 97.4266 296.92 113.88C297.24 114.873 297.57 114.873 297.91 113.88C303.51 97.4066 308.543 82.49 313.01 69.13C313.543 67.5366 313.873 65.8933 314 64.2C314.037 63.7078 313.912 63.2171 313.645 62.8021C313.378 62.387 312.983 62.0704 312.52 61.9C310.467 61.1533 308.533 60.3066 306.72 59.36C301.87 56.81 301.05 50.51 302.66 45.74C306.2 35.24 315.54 37.37 323.86 38.92C329.7 40.01 335.47 39.86 341.3 38.86C345.107 38.2 348.833 37.7933 352.48 37.64C359.347 37.34 363.627 40.3466 365.32 46.66C366.66 51.6666 366.25 56.12 364.09 60.02C361.48 64.72 356.44 64.72 351.8 63.59C347.63 62.58 344.87 69.48 343.82 72.38C335.293 96.1266 328.183 115.723 322.49 131.17C314.86 151.86 301.16 178.3 279.6 187.62C266.07 193.46 249.5 193.36 236.25 185.86C228.1 181.24 223.14 173.1 223.83 163.78C224.42 155.76 230.46 149.29 238.11 147.44C239.063 147.213 239.063 146.98 238.11 146.74C235.083 145.987 231.943 145.487 228.69 145.24C224.28 144.91 219.98 146.51 215.56 146.98C209 147.67 205.96 144.23 206.19 138.27C206.263 136.423 206.27 134.643 206.21 132.93C206.183 132.077 205.92 131.993 205.42 132.68C202.067 137.307 197.77 141.05 192.53 143.91C173.37 154.36 143.21 152.69 135.93 127.9C134.657 123.573 134.06 117.48 134.14 109.62C134.26 97.4 134.283 85.36 134.21 73.5C134.183 69.86 133.817 66.54 133.11 63.54C133.023 63.1733 132.82 62.8933 132.5 62.7C131.513 62.0866 130.413 61.9833 129.2 62.39C126.42 63.33 123.873 63.63 121.56 63.29C121.08 63.2166 120.92 63.41 121.08 63.87C124.147 72.6166 125.477 82.86 125.07 94.6C124.21 119.49 112.65 145.98 85 149.58C69.3 151.63 53.8 146.33 45.84 132.15C44.84 130.37 44.48 130.493 44.76 132.52C45 134.21 45.36 135.83 45.1 137.54C43.85 145.59 34.88 146.81 28.21 145.28C20.42 143.49 19.99 135.74 19.99 129.22C19.99 97.7333 19.8867 66.2433 19.68 34.75C19.6667 32.37 19.3967 30.1466 18.87 28.08C18.43 26.3133 17.2467 25.62 15.32 26C12.8 26.51 10.22 27.33 7.64 26.96C3.36 26.3533 0.813333 23.3966 0 18.09ZM77.13 120.44C90.47 116.88 90.48 96.32 89.86 85.87C89.29 76.1 84.54 63.1 73.49 62.51C65.88 62.1 59.56 69.01 57.05 75.83C53.7833 84.6833 53.3 94.4166 55.6 105.03C56.8067 110.59 59.0933 114.707 62.46 117.38C66.8467 120.86 71.7367 121.88 77.13 120.44ZM253.42 125.41C256.36 132.48 255.36 144.25 246.19 146.76C245.43 146.967 245.423 147.197 246.17 147.45C254.403 150.263 257.827 156.227 256.44 165.34C256.373 165.807 256.547 166.157 256.96 166.39C265.18 170.97 273.48 160.98 276.76 154.15C277.88 151.81 278.243 149.653 277.85 147.68C276.743 142.147 274.847 136.267 272.16 130.04C262.89 108.58 254.09 87.44 245.48 67.06C243.32 61.95 239.47 63.9 235.41 63.99C235.017 63.9966 234.82 64.1966 234.82 64.59C234.78 79.73 234.783 94.8066 234.83 109.82C234.837 113.113 235.267 116.447 236.12 119.82C237.05 123.49 241.38 121.46 243.77 120.86C247.61 119.88 251.95 121.88 253.42 125.41Z" fill="black"/>
<path d="M396.51 131.6C396.61 132.533 396.726 133.463 396.86 134.39C398.47 146.03 385.14 147.56 377.46 144.31C373.32 142.56 371.93 137.1 371.99 133.08C372.07 127.32 371.74 121.65 371.76 115.95C371.853 88.33 371.746 60.6767 371.44 32.99C371.41 30.29 371.16 25.06 367.03 26.01C363.26 26.88 359.09 28.04 355.75 25.54C351.25 22.19 351.09 14.61 352.32 9.73003C356.15 -5.39997 370.84 2.39003 381.36 2.15003C385.02 2.06336 388.936 1.64336 393.11 0.890026C397.34 0.130026 404.03 -1.19997 405.7 4.49003C406.18 6.11669 406.423 8.78669 406.43 12.5C406.45 24.28 406.54 35.87 406.33 46.8C406.316 47.6267 406.573 47.72 407.1 47.08C411.853 41.2734 417.306 37.48 423.46 35.7C437.413 31.6534 449.593 34 460 42.74C462.39 44.75 464.1 47.35 466.18 49.64C466.646 50.1534 466.883 50.0634 466.89 49.37C466.92 42.97 470.8 37.91 477.21 37.32C484.24 36.68 490.97 38.28 497.81 39.04C499.5 39.23 501.32 39.23 502.99 38.8C507.436 37.66 511.72 37.12 515.84 37.18C519 37.22 520.05 41.16 520.03 43.73C519.89 59.6967 519.77 75.7367 519.67 91.85C519.64 97.25 519.46 102.05 520 107.74C520.373 111.793 521.433 114.817 523.18 116.81C529.93 124.5 541.42 122.43 547.26 114.8C551.086 109.807 553.066 103.997 553.2 97.37C553.353 89.8167 553.373 80.9634 553.26 70.81C553.233 68.3767 552.843 66.1234 552.09 64.05C551.893 63.4988 551.504 63.0364 550.994 62.7466C550.484 62.4567 549.887 62.3586 549.31 62.47C546.6 63 543.86 64.38 541.15 63.83C537.416 63.0634 535.076 60.7967 534.13 57.03C533.083 52.8567 533.183 48.9567 534.43 45.33C538.5 33.49 552.52 37.8 561.28 39.12C566.74 39.93 571.38 38.39 576.63 37.64C580.59 37.08 584.22 38.21 588.1 37.68C590.34 37.3667 592.576 37.3167 594.81 37.53C602.6 38.27 610.33 40.27 618.18 38.99C624.973 37.8767 630.876 37.3367 635.89 37.37C641.75 37.4 646.18 41.1 646.85 47.1C647.203 50.2 646.99 52.85 646.21 55.05C644.72 59.23 640.24 59.59 636.42 60.62C631.38 61.97 634.11 68.23 635.14 71.46C639.533 85.2934 644.113 99.5434 648.88 114.21C648.91 114.299 648.973 114.374 649.054 114.419C649.136 114.463 649.231 114.475 649.32 114.45C649.413 114.423 649.493 114.373 649.56 114.3C649.626 114.227 649.676 114.143 649.71 114.05C654.623 99.35 659.693 84.32 664.92 68.96C665.393 67.5734 665.703 66.04 665.85 64.36C665.893 63.853 665.772 63.3459 665.505 62.9137C665.239 62.4814 664.841 62.1471 664.37 61.96C662.423 61.1934 660.54 60.36 658.72 59.46C653.81 57.02 652.89 50.89 654.39 45.99C656.343 39.6367 660.776 36.9 667.69 37.78C671.363 38.24 675.093 38.76 678.88 39.34C684.23 40.16 689.92 39.48 695.18 38.55C700.7 37.58 708.91 36.27 713.52 40.4C719.83 46.07 720.09 64.03 708.69 64.16C707.07 64.18 705.386 64.01 703.64 63.65C699.74 62.83 697.75 67.41 696.68 70.35C689.353 90.51 681.916 110.683 674.37 130.87C665.44 154.74 649.71 184.89 622.29 190.57C611.576 192.783 601.496 191.887 592.05 187.88C582.59 183.87 576.06 176.52 575.6 166.18C575.18 156.81 581.48 149.25 590.55 147.3C591.29 147.14 591.293 146.977 590.56 146.81C587.406 146.077 584.246 145.553 581.08 145.24C576.65 144.8 572.36 146.44 567.97 146.96C561.29 147.76 558.15 144.57 558.45 138.47C558.53 136.83 558.6 135.22 558.66 133.64C558.72 131.893 558.243 131.733 557.23 133.16C555.176 136.053 552.586 138.603 549.46 140.81C539.68 147.717 528.816 150.707 516.87 149.78C496.75 148.22 486.36 134.59 486.47 114.97C486.55 101.443 486.536 88.0534 486.43 74.8C486.41 71.5467 486.116 68.1034 485.55 64.47C485.28 62.73 483.87 61.72 482.19 62.23C479.076 63.1634 476.116 63.5467 473.31 63.38C472.87 63.3534 472.72 63.5467 472.86 63.96C476.61 74.93 477.21 85.45 476.71 96.75C476 112.96 470.2 129.94 457.74 140.61C446.36 150.36 428.99 152.43 415.1 147.31C407.02 144.32 401.78 138.73 397.03 131.42C396.596 130.747 396.423 130.807 396.51 131.6ZM429.95 63.43C420.43 59.08 411.61 69.1 409.01 77.22C406.416 85.3334 405.96 93.9367 407.64 103.03C409.34 112.26 413.7 119.8 423.87 121.01C426.81 121.357 429.706 120.7 432.56 119.04C443.22 112.82 442.88 92.81 441.57 82.06C440.69 74.81 436.83 66.57 429.95 63.43ZM587.39 64.17C587.223 64.1967 587.14 64.2967 587.14 64.47C587.16 79.75 587.146 94.9434 587.1 110.05C587.086 113.363 587.46 116.593 588.22 119.74C588.66 121.56 589.753 122.283 591.5 121.91C594.59 121.24 597.83 119.86 600.91 121.13C604.35 122.55 606.273 125.393 606.68 129.66C607.41 137.16 606.12 144.92 597.75 146.94C597.29 147.053 597.283 147.187 597.73 147.34C606.183 150.273 609.713 156.273 608.32 165.34C608.246 165.8 608.413 166.147 608.82 166.38C616.58 170.92 624.88 161.1 628.2 154.87C629.886 151.717 630.183 148.257 629.09 144.49C627.83 140.143 626.586 136.513 625.36 133.6C617.04 113.813 608.566 93.68 599.94 73.2C598.65 70.15 596.72 63.32 592.54 63.57C590.86 63.67 589.143 63.87 587.39 64.17Z" fill="black"/>
<path d="M1276.78 131.31C1276.78 135.177 1275.24 138.885 1272.51 141.62C1269.77 144.354 1266.07 145.89 1262.2 145.89C1260.28 145.89 1258.39 145.513 1256.62 144.78C1254.85 144.047 1253.24 142.973 1251.89 141.62C1250.54 140.266 1249.46 138.658 1248.73 136.89C1248 135.121 1247.62 133.225 1247.62 131.31C1247.62 129.395 1248 127.499 1248.73 125.73C1249.46 123.962 1250.54 122.354 1251.89 121C1253.24 119.647 1254.85 118.573 1256.62 117.84C1258.39 117.107 1260.28 116.73 1262.2 116.73C1266.07 116.73 1269.77 118.266 1272.51 121C1275.24 123.735 1276.78 127.443 1276.78 131.31ZM1274.73 131.34C1274.73 128.014 1273.41 124.825 1271.06 122.473C1268.7 120.121 1265.51 118.8 1262.19 118.8C1258.86 118.8 1255.67 120.121 1253.32 122.473C1250.97 124.825 1249.65 128.014 1249.65 131.34C1249.65 134.666 1250.97 137.855 1253.32 140.207C1255.67 142.559 1258.86 143.88 1262.19 143.88C1265.51 143.88 1268.7 142.559 1271.06 140.207C1273.41 137.855 1274.73 134.666 1274.73 131.34Z" fill="black"/>
<path d="M1259.51 135.74L1259.5 138.31C1259.5 138.85 1259.23 139.157 1258.69 139.23L1257.03 139.45C1256.41 139.53 1256.09 139.257 1256.06 138.63C1255.89 133.877 1255.96 129.147 1256.28 124.44C1256.31 124.02 1256.53 123.803 1256.95 123.79C1259.52 123.73 1261.98 123.73 1264.33 123.79C1266.27 123.83 1268.06 125.07 1268.69 126.92C1269.59 129.567 1268.87 131.763 1266.54 133.51C1266.43 133.594 1266.33 133.702 1266.27 133.825C1266.2 133.948 1266.16 134.084 1266.15 134.223C1266.14 134.363 1266.16 134.502 1266.21 134.633C1266.26 134.764 1266.33 134.882 1266.43 134.98C1267.31 135.873 1268.09 136.893 1268.78 138.04C1269.35 138.993 1269.08 139.407 1267.98 139.28L1266.48 139.11C1265.52 139.003 1264.79 138.533 1264.28 137.7C1263.65 136.667 1262.94 135.687 1262.14 134.76C1261.94 134.53 1261.67 134.367 1261.38 134.292C1261.08 134.218 1260.77 134.234 1260.49 134.341C1260.2 134.447 1259.95 134.638 1259.78 134.888C1259.61 135.138 1259.51 135.435 1259.51 135.74ZM1260.06 127.41V130.57C1260.06 130.666 1260.08 130.761 1260.12 130.849C1260.15 130.938 1260.21 131.018 1260.27 131.086C1260.34 131.154 1260.42 131.208 1260.51 131.244C1260.6 131.281 1260.69 131.3 1260.79 131.3H1261.39C1262.55 131.3 1263.67 131.079 1264.49 130.685C1265.32 130.291 1265.78 129.757 1265.78 129.2V128.78C1265.78 128.223 1265.32 127.689 1264.49 127.295C1263.67 126.901 1262.55 126.68 1261.39 126.68H1260.79C1260.6 126.68 1260.41 126.757 1260.27 126.894C1260.14 127.031 1260.06 127.216 1260.06 127.41Z" fill="black"/>
</g>
<defs>
<clipPath id="clip0_5323_4887">
<rect width="1280" height="192" fill="white"/>
</clipPath>
</defs>
</svg>
