<svg width="144" height="23" viewBox="0 0 144 23" fill="none" xmlns="http://www.w3.org/2000/svg">
<path fill-rule="evenodd" clip-rule="evenodd" d="M105.799 0.851562H103.329C102.94 0.877618 102.572 0.958763 102.226 1.095C101.473 1.39034 101.089 2.4543 100.789 3.28374L100.747 3.39981C99.5934 6.57787 98.4305 9.78197 97.2588 13.0121C97.0902 13.4789 96.8032 13.9725 96.2337 13.9501C96.1779 13.9479 96.157 13.92 96.1712 13.8664C96.3283 13.2612 96.3808 12.609 96.3286 11.91C96.1868 10.0228 94.8792 8.79111 93.0914 8.32881C92.8204 8.25883 92.8219 8.19444 93.0958 8.13563C94.4761 7.84082 95.5224 6.79785 95.672 5.36292C95.9422 2.77224 94.0718 1.23123 91.6799 0.958763C90.9191 0.872407 90.2762 0.85119 89.7514 0.895113C88.6474 0.987425 87.5054 1.05405 86.3254 1.095C85.3837 1.12741 84.5086 1.04505 83.5999 0.959523L83.5998 0.959513L83.5992 0.959453C83.3498 0.935985 83.0979 0.912281 82.8414 0.890646C82.3582 0.849701 81.8241 0.888041 81.239 1.00566C80.5578 1.14413 79.9593 1.56177 79.8432 2.28425C79.7479 2.87386 79.8495 3.37636 80.148 3.79176C80.6014 4.4238 81.2613 4.2965 81.9112 4.12118C82.6584 3.91956 82.6561 5.02028 82.655 5.5085L82.6549 5.55834C82.6527 7.97184 82.6508 10.3801 82.6494 12.7832C82.6494 13.0594 82.6195 13.3285 82.56 13.5906C82.4385 14.1257 81.9598 14.0287 81.5016 13.9359C81.282 13.8914 81.067 13.8478 80.8984 13.8753C80.0028 14.0227 79.7214 15.0155 79.8376 15.815C79.9392 16.5196 80.4629 16.9663 81.1251 17.1126C82.1954 17.3503 83.3573 17.2104 84.4758 17.0758L84.6348 17.0567C85.4053 16.9652 86.2551 16.9964 87.0345 17.059C87.7105 17.1133 88.372 17.1625 89.0189 17.2064C90.6202 17.3158 92.2014 17.1985 93.6765 16.5643C93.9289 16.4556 94.1581 16.3272 94.3644 16.179C94.4083 16.147 94.44 16.1567 94.4593 16.2081C94.7128 16.8892 95.2332 17.2834 95.9735 17.2812C96.4015 17.2799 96.8788 17.2315 97.3782 17.1808C98.2029 17.0971 99.0877 17.0073 99.9098 17.1137C100.614 17.2045 101.237 17.2596 101.778 17.2789C102.35 17.2998 102.798 17.0958 103.121 16.667C103.642 15.9791 103.495 14.2974 102.429 14.1556C102.218 14.1274 102.012 14.1012 101.809 14.0774C101.499 14.0409 101.367 13.8656 101.414 13.5515C101.494 13.0211 101.632 12.188 102.282 12.1691C103.366 12.137 104.524 12.1143 105.756 12.1009C106.129 12.0965 106.359 12.2595 106.445 12.59C106.527 12.9057 106.598 13.1942 106.658 13.4555C106.771 13.949 106.486 14.2003 106.011 14.1188C105.399 14.0138 104.97 14.2352 104.725 14.7832C104.231 15.8842 104.684 17.1874 106.027 17.2309C106.564 17.248 107.24 17.2011 108.056 17.0902C108.958 16.9674 109.771 17.0031 110.649 17.1427C111.218 17.2328 111.738 17.2555 112.207 17.2108C112.545 17.1788 112.875 17.177 113.2 17.2052C113.883 17.2633 114.634 17.2362 115.454 17.1237C116.298 17.0076 117.162 16.9763 118 17.0322C118.323 17.0537 118.645 17.079 118.967 17.1044C120.784 17.2472 122.591 17.3893 124.377 16.8401C126.502 16.1857 127.804 14.7039 127.794 12.3578C127.788 10.7885 127.141 9.62713 125.855 8.87375C125.398 8.60649 124.934 8.42186 124.463 8.31988C124.267 8.27819 124.266 8.23054 124.459 8.17694C126.439 7.62829 127.322 6.32475 127.109 4.26635C127.103 4.2187 127.125 4.19452 127.173 4.19377C127.692 4.1819 127.997 4.69835 128.249 5.12381C128.281 5.17867 128.313 5.23202 128.344 5.28252C129.382 6.97093 130.47 8.73491 131.608 10.5744C131.906 11.0561 132.079 11.4071 132.128 11.6275C132.202 11.964 132.229 12.5253 132.207 13.3114C132.195 13.7581 132.004 14.0819 131.504 14.0384C131.135 14.0063 130.777 13.9669 130.427 13.92C129.575 13.8061 129.074 14.4582 128.997 15.2265C128.87 16.495 129.547 17.1405 130.721 17.2477C131.004 17.2737 131.202 17.2849 131.317 17.2812C132.163 17.2521 133.072 17.1896 134.044 17.0936C134.902 17.0095 135.792 17.0943 136.65 17.1761C137.114 17.2203 137.569 17.2637 138.004 17.2789C138.907 17.311 139.477 16.897 139.71 16.0372C139.872 15.4409 139.784 14.8934 139.443 14.3946C139.2 14.0372 138.876 13.8772 138.473 13.9144C138.136 13.9465 137.773 13.9851 137.384 14.0305C136.779 14.1028 136.446 13.8678 136.387 13.3259C136.351 12.9976 136.34 12.5733 136.352 12.0529C136.367 11.4912 136.623 11.001 136.91 10.5398C137.967 8.84173 139.048 7.11089 140.151 5.34729C140.327 5.06812 140.506 4.80534 140.692 4.55892C141.025 4.11482 141.456 4.17957 141.897 4.24586C142.33 4.31092 142.773 4.37747 143.143 3.96597C143.37 3.71285 143.523 3.40911 143.6 3.05476V2.34567C143.385 1.29079 142.724 0.82104 141.618 0.93643C141.415 0.957406 141.216 0.980426 141.019 1.00313C140.275 1.08922 139.569 1.17081 138.848 1.11956C138.294 1.08085 137.757 1.02874 137.236 0.96323C136.694 0.895485 136.306 0.904791 136.072 0.991147C135.182 1.31722 134.885 2.63042 135.295 3.41545C135.387 3.59113 135.593 3.7646 135.916 3.93582C135.995 3.97825 136.061 4.03333 136.113 4.10108C136.136 4.13012 136.149 4.1625 136.153 4.19823C136.177 4.43944 136.115 4.69292 135.965 4.95869C135.414 5.93615 134.888 6.87378 134.387 7.77159C134.382 7.78061 134.375 7.78809 134.366 7.79326C134.357 7.79843 134.346 7.8011 134.336 7.80099C134.326 7.80088 134.316 7.79799 134.307 7.79262C134.298 7.78726 134.29 7.77961 134.285 7.77047C133.802 6.85332 133.337 5.96741 132.892 5.11279C132.76 4.86042 132.57 4.48634 132.646 4.20158C132.692 4.03151 132.895 3.9296 133.068 3.84264C133.112 3.82054 133.154 3.79941 133.191 3.77836C133.764 3.45341 133.805 2.83031 133.687 2.24294C133.469 1.16981 132.791 0.741012 131.722 0.896229C131.045 0.993752 130.435 1.05666 129.891 1.08495C129.294 1.11621 128.506 1.06373 127.526 0.927496C126.698 0.812479 125.834 0.824762 125.268 1.53497C125.234 1.57889 125.191 1.58782 125.142 1.56177C124.028 0.98333 122.631 0.815829 121.347 0.891763C120.626 0.934196 119.896 0.98333 119.157 1.03916C117.708 1.14934 116.126 1.10133 114.408 0.895113C114.021 0.848212 113.53 0.870918 112.932 0.96323C112.045 1.09946 111.343 1.55172 111.28 2.52546C111.252 2.95501 111.343 3.34211 111.551 3.6868C112.01 4.4439 112.704 4.29427 113.42 4.11783C113.857 4.01063 114.048 4.41933 114.083 4.78895C114.118 5.17457 114.136 5.52298 114.135 5.83416C114.128 8.30126 114.114 10.6511 114.092 12.8837C114.089 13.2143 114.038 14.0518 113.53 14.0127C113.235 13.9896 112.959 13.9404 112.702 13.8653C112.505 13.8088 112.309 13.8369 112.112 13.8652C111.985 13.8833 111.857 13.9016 111.729 13.8977C111.329 13.8854 111.173 13.4454 111.059 13.0747C110.157 10.1281 109.071 6.51943 107.801 2.24852C107.527 1.33062 106.86 0.864963 105.799 0.851562ZM102.994 8.73081C103.268 7.78312 103.544 6.81982 103.823 5.84086C104.014 5.16787 104.215 4.49825 104.427 3.83196C104.448 3.76496 104.465 3.76571 104.48 3.8342L105.533 8.64371C105.544 8.69049 105.544 8.73895 105.533 8.78571C105.523 8.83247 105.503 8.87638 105.473 8.91437C105.444 8.95236 105.408 8.9835 105.365 9.00561C105.323 9.02772 105.276 9.04027 105.229 9.04236C104.646 9.06916 104.057 9.07251 103.462 9.05241C103.327 9.04795 103.2 9.01147 103.08 8.94298C103.044 8.92234 103.016 8.89023 103 8.85176C102.985 8.81329 102.983 8.7707 102.994 8.73081ZM90.0719 4.129C90.9663 4.4372 91.4666 5.23451 91.0032 6.14348C90.5632 7.0089 89.2925 7.1094 88.4382 7.1563C87.9878 7.18087 87.5858 7.16225 87.2322 7.10047C87.192 7.09377 87.1599 7.07367 87.1362 7.04017C87.0617 6.93595 87.0211 6.8187 87.0144 6.68842C86.9876 6.15093 86.972 5.59891 86.9675 5.03239C86.9631 4.6248 87.0915 4.11895 87.5359 4.01063C88.3943 3.80293 89.2396 3.84238 90.0719 4.129ZM122.23 4.46065C123.094 5.19431 122.782 6.40031 121.788 6.82353C120.967 7.17194 119.742 7.22554 118.788 7.11499C118.622 7.096 118.55 6.9352 118.545 6.78668C118.515 6.09881 118.519 5.42322 118.558 4.75992C118.584 4.31325 118.814 4.04897 119.248 3.96708C120.127 3.80181 121.502 3.84313 122.23 4.46065ZM87.3137 10.2294C88.2666 10.1043 89.1897 10.1657 90.0831 10.4136C91.1383 10.7073 91.9535 11.4611 91.7469 12.6392C91.6732 13.0583 91.4554 13.3959 91.0936 13.652C90.2628 14.2405 89.1462 14.2673 88.1333 14.0763C86.9603 13.8549 86.9752 13.0912 86.9936 12.1481L86.9955 12.0518C87.0029 11.6126 87.0114 11.2031 87.0211 10.8235C87.0256 10.6247 87.0491 10.264 87.3137 10.2294ZM119.103 10.187C120.418 10.1144 123.067 10.2629 123.273 12.0384C123.379 12.9474 122.941 13.585 122.11 13.93C121.593 14.1444 120.977 14.2223 120.26 14.1634C119.35 14.0886 118.541 13.9233 118.531 12.81C118.526 12.1177 118.527 11.4737 118.536 10.8782C118.543 10.4282 118.597 10.2149 119.103 10.187ZM0.664062 2.87181V2.16049C0.819652 1.18303 1.40516 0.766509 2.42059 0.910932C2.54947 0.929254 2.67701 0.949363 2.80371 0.969341C3.34887 1.0553 3.87874 1.13885 4.43507 1.06727C4.90482 1.00622 5.36042 0.945549 5.80188 0.885248C6.7545 0.752909 6.75909 1.57396 6.76308 2.28662L6.76333 2.33134C6.77227 3.64455 6.77152 4.89411 6.7611 6.08002C6.76035 6.16935 6.78753 6.17902 6.84262 6.10905C7.40766 5.39288 8.12604 4.93951 8.9978 4.74894C10.5887 4.40277 11.9231 4.77983 13.0011 5.88013C13.079 5.95988 13.1521 6.05057 13.2254 6.1415C13.2887 6.2199 13.352 6.29848 13.4187 6.37035C13.4589 6.41352 13.4787 6.40571 13.4779 6.3469C13.4745 5.65903 13.8944 5.09399 14.5778 5.02253C15.2081 4.95569 15.8523 5.05476 16.4783 5.15103L16.4784 5.15104L16.4784 5.15105L16.4784 5.15105C16.6054 5.17059 16.7317 5.19 16.8569 5.20789C17.0624 5.23693 17.3282 5.23135 17.5303 5.17886C18.0113 5.05379 18.5021 4.99386 19.0032 4.99908C19.0442 4.99981 19.0806 5.01321 19.1126 5.03928C19.3032 5.19635 19.3985 5.40443 19.3985 5.6635C19.3977 7.9095 19.3985 10.0762 19.4007 12.1637C19.4015 12.5634 19.4387 12.9375 19.5124 13.2859C19.7268 14.3021 20.8278 14.6717 21.7357 14.2708C22.7195 13.8364 23.1382 12.6617 23.1583 11.6433C23.1777 10.7246 23.1751 9.71256 23.1505 8.60705C23.1449 8.3558 23.0925 7.75056 22.6994 7.83096C22.6137 7.8483 22.5267 7.87401 22.4391 7.89992C22.2388 7.95912 22.0351 8.01934 21.8362 7.98283C21.3977 7.90243 21.1252 7.63889 21.0188 7.19222C20.8133 6.32904 21.0355 5.17216 22.0618 5.04709C22.5311 4.98931 22.9913 5.06199 23.4502 5.13446C24.0023 5.22165 24.5525 5.30855 25.1148 5.1677C25.5491 5.05826 26.0271 4.98903 26.4626 5.06608C26.6345 5.0966 26.8039 5.09846 26.9707 5.07166C27.5692 4.97786 28.1957 5.06831 28.7864 5.16993C29.5334 5.29723 30.2526 5.2548 31.0052 5.12414C31.5479 5.03034 32.0552 5.00243 32.5272 5.04039C33.4876 5.11856 33.7109 5.95942 33.5948 6.80027C33.5185 7.34889 33.0743 7.45589 32.6956 7.54712C32.4198 7.61354 32.1788 7.67161 32.1397 7.88568C32.1077 8.06435 32.1252 8.25939 32.1922 8.47082C32.688 10.0319 33.2307 11.7311 33.8203 13.5684C33.8561 13.6793 33.8929 13.6793 33.9309 13.5684C34.5562 11.7289 35.1182 10.0632 35.6171 8.57132C35.6766 8.39339 35.7134 8.20988 35.7276 8.0208C35.7318 7.96583 35.7178 7.91104 35.688 7.8647C35.6582 7.81834 35.6141 7.78299 35.5623 7.76396C35.3331 7.68058 35.1171 7.58603 34.9147 7.48033C34.3731 7.19557 34.2815 6.49207 34.4613 5.95942C34.8437 4.82509 35.8324 5.01077 36.7376 5.18078L36.8287 5.19784C37.4808 5.31956 38.1251 5.30281 38.7761 5.19114C39.2013 5.11744 39.6173 5.07203 40.0246 5.05491C40.7914 5.02141 41.2693 5.35715 41.4584 6.06215C41.608 6.62122 41.5622 7.11852 41.321 7.55403C41.0296 8.07886 40.4668 8.07886 39.9486 7.95268C39.483 7.8399 39.1748 8.6104 39.0575 8.93423C38.1054 11.586 37.3114 13.7742 36.6757 15.4992C35.8237 17.8096 34.2938 20.762 31.8863 21.8028C30.3754 22.4549 28.5251 22.4438 27.0455 21.6062C26.1354 21.0903 25.5815 20.1814 25.6586 19.1406C25.7245 18.2451 26.3989 17.5226 27.2532 17.316C27.3596 17.2906 27.3596 17.2646 27.2532 17.2378C26.9152 17.1537 26.5645 17.0979 26.2013 17.0703C25.8918 17.0472 25.5872 17.1091 25.281 17.1714L25.281 17.1714C25.1 17.2082 24.9185 17.2451 24.7351 17.2646C24.0025 17.3417 23.6631 16.9575 23.6888 16.292C23.6969 16.0857 23.6977 15.887 23.691 15.6957C23.688 15.6004 23.6586 15.5911 23.6028 15.6678C23.2284 16.1845 22.7485 16.6024 22.1634 16.9218C20.0238 18.0887 16.6559 17.9022 15.843 15.134C15.7009 14.6508 15.6342 13.9704 15.6431 13.0927C15.6565 11.7282 15.6591 10.3837 15.6509 9.0593C15.6479 8.65283 15.6071 8.2821 15.5281 7.9471C15.5184 7.90615 15.4957 7.87488 15.46 7.8533C15.3498 7.7848 15.2269 7.77326 15.0915 7.81868C14.7811 7.92365 14.4966 7.95715 14.2383 7.91918C14.1847 7.91098 14.1669 7.93258 14.1847 7.98395C14.5272 8.96066 14.6757 10.1045 14.6303 11.4155C14.5343 14.1949 13.2434 17.153 10.1558 17.555C8.40261 17.7839 6.67177 17.192 5.7829 15.6086C5.67123 15.4098 5.63103 15.4236 5.66229 15.6499C5.66688 15.6822 5.67185 15.7142 5.6768 15.7461L5.67681 15.7462L5.67681 15.7462C5.70082 15.9008 5.72433 16.0522 5.70026 16.2105C5.56068 17.1094 4.55902 17.2456 3.8142 17.0748C2.94431 16.8749 2.89629 16.0095 2.89629 15.2814C2.89629 11.7654 2.88476 8.24897 2.86168 4.73219C2.86019 4.46642 2.83004 4.21814 2.77123 3.98737C2.72209 3.79009 2.58996 3.71267 2.37481 3.7551C2.31869 3.76646 2.2623 3.7792 2.2057 3.79198C1.97849 3.84329 1.74785 3.89538 1.5172 3.8623C1.03926 3.79455 0.754885 3.46439 0.664062 2.87181ZM9.27697 14.301C10.7666 13.9034 10.7677 11.6076 10.6985 10.4406C10.6348 9.34964 10.1044 7.89796 8.8705 7.83208C8.02071 7.78629 7.31497 8.55792 7.03469 9.31949C6.6699 10.3081 6.61593 11.395 6.87277 12.5802C7.00752 13.201 7.26286 13.6608 7.63881 13.9593C8.12866 14.3479 8.67471 14.4618 9.27697 14.301ZM28.9628 14.856C29.2911 15.6454 29.1794 16.9598 28.1555 17.2401C28.0706 17.2632 28.0698 17.2889 28.1532 17.3171C29.0726 17.6312 29.4549 18.2972 29.3 19.3148C29.2926 19.367 29.312 19.4061 29.3581 19.4321C30.276 19.9435 31.2029 18.828 31.5691 18.0653C31.6942 17.804 31.7347 17.5631 31.6908 17.3428C31.5672 16.7249 31.3555 16.0683 31.0555 15.373C30.3091 13.6453 29.5901 11.9361 28.8866 10.264L28.8863 10.2632C28.6142 9.6163 28.3443 8.97493 28.0762 8.34016C27.887 7.89267 27.5818 7.93003 27.2402 7.97184C27.1462 7.98334 27.0495 7.99518 26.9517 7.99735C26.9078 7.99808 26.8858 8.02042 26.8858 8.06435C26.8813 9.75499 26.8817 11.4386 26.8869 13.1151C26.8877 13.4828 26.9357 13.8551 27.031 14.2317C27.119 14.5791 27.4797 14.4692 27.7502 14.3868C27.7988 14.372 27.8445 14.3581 27.8852 14.3479C28.314 14.2384 28.7987 14.4618 28.9628 14.856ZM44.9807 15.8588C44.9657 15.7553 44.9528 15.6514 44.9416 15.5472C44.9319 15.4587 44.9512 15.452 44.9997 15.5271C45.5301 16.3434 46.1152 16.9676 47.0175 17.3015C48.5686 17.8733 50.5082 17.6421 51.779 16.5534C53.1704 15.3619 53.818 13.4658 53.8973 11.6556C53.9532 10.3938 53.8862 9.21905 53.4674 7.99405C53.4518 7.9479 53.4685 7.92632 53.5177 7.92929C53.831 7.9479 54.1615 7.9051 54.5093 7.80087C54.6969 7.74392 54.8543 7.8567 54.8845 8.05101C54.9477 8.45674 54.9805 8.84124 54.9827 9.20453C54.9946 10.6845 54.9961 12.1797 54.9872 13.6902C54.9749 15.8811 56.1351 17.4031 58.3819 17.5773C59.7159 17.6809 60.929 17.347 62.0211 16.5757C62.3702 16.3292 62.6594 16.0445 62.8888 15.7214C63.0019 15.5621 63.0552 15.58 63.0485 15.775C63.0418 15.9515 63.034 16.1313 63.025 16.3144C62.9915 16.9956 63.3422 17.3518 64.0881 17.2624C64.2602 17.2421 64.4309 17.2063 64.6014 17.1705C64.9166 17.1044 65.231 17.0385 65.5521 17.0704C65.9056 17.1053 66.2585 17.1638 66.6107 17.2457C66.6925 17.2643 66.6922 17.2825 66.6095 17.3004C65.5967 17.5182 64.8932 18.3624 64.9401 19.4087C64.9915 20.5633 65.7207 21.3841 66.777 21.8319C67.8318 22.2793 68.9575 22.3794 70.1539 22.1323C73.2158 21.498 74.9723 18.1312 75.9695 15.4657C76.8121 13.2115 77.6426 10.9588 78.4608 8.70761C78.5803 8.37931 78.8025 7.86787 79.238 7.95944C79.433 7.99964 79.621 8.01862 79.8019 8.01639C81.0749 8.00187 81.0459 5.99633 80.3413 5.36317C79.8265 4.90199 78.9097 5.04827 78.2933 5.15659C77.7059 5.26044 77.0705 5.33637 76.4731 5.2448C76.0502 5.18004 75.6337 5.12197 75.2236 5.0706C74.4515 4.97234 73.9565 5.27794 73.7384 5.98739C73.5709 6.53456 73.6736 7.21908 74.2219 7.49155C74.4251 7.59205 74.6354 7.68512 74.8528 7.77072C74.9054 7.79161 74.9499 7.82894 74.9796 7.87722C75.0094 7.92548 75.0229 7.98211 75.0181 8.03872C75.0017 8.22632 74.9671 8.39755 74.9142 8.55239C74.3306 10.2676 73.7644 11.946 73.2158 13.5875C73.212 13.5979 73.2064 13.6072 73.199 13.6154C73.1916 13.6235 73.1826 13.6291 73.1722 13.6321C73.1623 13.6349 73.1517 13.6336 73.1425 13.6287C73.1335 13.6237 73.1264 13.6153 73.1231 13.6053C72.5908 11.9676 72.0793 10.3763 71.5888 8.83156C71.5774 8.79599 71.5643 8.75712 71.5502 8.71582L71.55 8.71521C71.4219 8.33769 71.2247 7.7569 71.7317 7.62109C71.7975 7.60334 71.8651 7.58737 71.933 7.57134C72.3047 7.4835 72.6842 7.39384 72.825 6.9991C72.912 6.75343 72.9358 6.45751 72.8964 6.11134C72.8216 5.44134 72.3269 5.02817 71.6725 5.02482C71.1126 5.0211 70.4535 5.0814 69.6949 5.20572C69.0619 5.30894 68.4358 5.22115 67.8092 5.13327C67.5681 5.09947 67.3269 5.06565 67.0852 5.04269C66.8358 5.01887 66.5861 5.02445 66.336 5.05944C66.1216 5.08871 65.9141 5.07263 65.7056 5.05647C65.4926 5.03996 65.2786 5.02337 65.0551 5.05497C64.8995 5.0772 64.7487 5.10564 64.5997 5.13375C64.1874 5.21152 63.7889 5.28668 63.341 5.22024C63.2191 5.20187 63.0881 5.17832 62.9513 5.15371C61.9899 4.98089 60.7406 4.75631 60.3428 5.91369C60.2035 6.31868 60.1924 6.75418 60.3093 7.2202C60.4149 7.64082 60.6762 7.89393 61.0932 7.97954C61.3036 8.02225 61.5157 7.96073 61.7272 7.89938C61.8198 7.87252 61.9122 7.84569 62.0044 7.82767C62.0688 7.81523 62.1355 7.82619 62.1924 7.85856C62.2494 7.89092 62.2928 7.94255 62.3148 8.00411C62.3989 8.23564 62.4425 8.48726 62.4455 8.75898C62.4581 9.89278 62.4559 10.8814 62.4388 11.7249C62.4238 12.4649 62.2027 13.1137 61.7755 13.6712C61.1233 14.5232 59.8403 14.7544 59.0865 13.8957C58.8914 13.6731 58.7731 13.3354 58.7314 12.8829C58.6818 12.3597 58.6866 11.9039 58.6918 11.4226V11.4225V11.4225L58.6918 11.4209C58.6929 11.3182 58.694 11.2144 58.6946 11.1085C58.7057 9.30913 58.7191 7.51798 58.7348 5.73502C58.737 5.44804 58.6197 5.00807 58.2669 5.0036C57.8068 4.9969 57.3284 5.0572 56.8319 5.1845C56.6455 5.23252 56.4422 5.23252 56.2535 5.2113C56.0453 5.18817 55.8379 5.15805 55.6306 5.12794C55.0774 5.04761 54.5242 4.96725 53.9532 5.01924C53.2374 5.08512 52.8041 5.65016 52.8008 6.36483C52.8 6.44226 52.7735 6.45231 52.7215 6.39498C52.6404 6.30571 52.5643 6.21222 52.4883 6.11879L52.4883 6.11876C52.3466 5.94456 52.2051 5.77056 52.0314 5.62447C50.8692 4.6485 49.5091 4.38646 47.951 4.83833C47.2638 5.0371 46.6549 5.4607 46.1242 6.10911C46.0653 6.18058 46.0366 6.17016 46.0382 6.07784C46.0571 5.09091 46.0542 4.05579 46.0512 3.00023V2.99877V2.99729C46.0505 2.74842 46.0498 2.49842 46.0493 2.24765C46.0486 1.833 46.0214 1.53484 45.9678 1.3532C45.7851 0.730692 45.0643 0.86063 44.591 0.945964L44.5619 0.951196C44.0958 1.03532 43.6585 1.08222 43.2498 1.0919C42.9468 1.09881 42.6128 1.04606 42.2766 0.99296C41.3095 0.840218 40.3244 0.684632 40.007 1.93834C39.8697 2.48327 39.8875 3.32971 40.39 3.70379C40.743 3.96798 41.179 3.86616 41.5815 3.77213L41.6497 3.75628C42.1108 3.65019 42.1388 4.23421 42.1421 4.53572C42.1763 7.62742 42.1882 10.7154 42.1778 13.7996C42.1768 14.0923 42.184 14.3842 42.1913 14.6767V14.6768V14.677C42.1998 15.0207 42.2083 15.3651 42.2035 15.7125C42.1968 16.1614 42.352 16.7711 42.8143 16.9665C43.6719 17.3294 45.1605 17.1586 44.9807 15.8588ZM46.3374 9.47476C46.6278 8.56803 47.6127 7.44912 48.6758 7.93487C49.444 8.28551 49.8751 9.20565 49.9733 10.0152C50.1196 11.2157 50.1576 13.4501 48.9672 14.1447C48.6485 14.3301 48.3251 14.4034 47.9968 14.3647C46.8612 14.2296 46.3743 13.3876 46.1845 12.3569C45.9969 11.3415 46.0478 10.3808 46.3374 9.47476ZM66.2288 8.05101C66.2288 8.03165 66.238 8.02049 66.2567 8.0175C66.4524 7.984 66.6442 7.96167 66.8318 7.9505C67.2328 7.92652 67.4483 8.4861 67.5925 8.8602C67.6161 8.92154 67.6378 8.97789 67.6581 9.02586C68.6213 11.3128 69.5676 13.561 70.4967 15.7706C70.6336 16.0959 70.7725 16.5012 70.9132 16.9866C71.0353 17.4073 71.0021 17.7936 70.8138 18.1457C70.4431 18.8414 69.5162 19.938 68.6497 19.431C68.6043 19.405 68.5856 19.3663 68.5939 19.3149C68.7494 18.3024 68.3552 17.6324 67.4113 17.3049C67.3614 17.2878 67.3622 17.2728 67.4135 17.2602C68.3482 17.0346 68.4923 16.1681 68.4107 15.3306C68.3653 14.8541 68.1506 14.5366 67.7664 14.3781C67.4928 14.2653 67.208 14.3397 66.9292 14.4125C66.8575 14.4312 66.7862 14.4499 66.7156 14.4652C66.5205 14.5068 66.3985 14.4261 66.3493 14.2229C66.2645 13.8714 66.2227 13.5108 66.2243 13.1408C66.2294 11.4539 66.231 9.75728 66.2288 8.05101ZM143.241 15.5148C143.241 15.9466 143.069 16.3607 142.764 16.6661C142.458 16.9714 142.045 17.1429 141.612 17.1429C141.398 17.1429 141.187 17.1008 140.989 17.019C140.792 16.9371 140.612 16.8172 140.461 16.6661C140.31 16.5149 140.19 16.3354 140.108 16.1379C140.027 15.9404 139.984 15.7287 139.984 15.5148C139.984 15.301 140.027 15.0893 140.108 14.8917C140.19 14.6943 140.31 14.5147 140.461 14.3635C140.612 14.2125 140.792 14.0925 140.989 14.0107C141.187 13.9288 141.398 13.8867 141.612 13.8867C142.045 13.8867 142.458 14.0582 142.764 14.3635C143.069 14.6689 143.241 15.083 143.241 15.5148ZM143.012 15.5182C143.012 15.1468 142.864 14.7907 142.602 14.528C142.338 14.2654 141.982 14.1179 141.611 14.1179C141.24 14.1179 140.883 14.2654 140.621 14.528C140.358 14.7907 140.211 15.1468 140.211 15.5182C140.211 15.8896 140.358 16.2457 140.621 16.5083C140.883 16.771 141.24 16.9185 141.611 16.9185C141.982 16.9185 142.338 16.771 142.602 16.5083C142.864 16.2457 143.012 15.8896 143.012 15.5182ZM141.308 16.2964L141.309 16.0094C141.309 15.9753 141.321 15.9421 141.339 15.9142C141.358 15.8863 141.386 15.865 141.419 15.8531C141.45 15.8412 141.485 15.8394 141.518 15.8477C141.551 15.8561 141.581 15.8743 141.603 15.8999C141.692 16.0035 141.772 16.1129 141.842 16.2282C141.899 16.3213 141.98 16.3737 142.088 16.3857L142.255 16.4047C142.378 16.4189 142.408 16.3726 142.344 16.2662C142.267 16.1381 142.18 16.0242 142.082 15.9245C142.071 15.9136 142.063 15.9004 142.058 15.8858C142.052 15.8711 142.05 15.8556 142.051 15.84C142.052 15.8245 142.056 15.8093 142.064 15.7955C142.071 15.7818 142.082 15.7697 142.094 15.7604C142.355 15.5653 142.435 15.32 142.334 15.0245C142.264 14.8179 142.064 14.6794 141.848 14.6749C141.585 14.6682 141.31 14.6682 141.023 14.6749C140.977 14.6764 140.952 14.7006 140.949 14.7475C140.913 15.2731 140.905 15.8013 140.924 16.3321C140.927 16.4021 140.963 16.4326 141.032 16.4237L141.218 16.3991C141.278 16.3909 141.308 16.3567 141.308 16.2964ZM141.371 15.4321V15.0792C141.371 15.0575 141.38 15.0369 141.394 15.0216C141.41 15.0063 141.431 14.9977 141.452 14.9977H141.519C141.649 14.9977 141.774 15.0223 141.865 15.0663C141.958 15.1103 142.01 15.17 142.01 15.2322V15.2791C142.01 15.3413 141.958 15.4009 141.865 15.4449C141.774 15.4889 141.649 15.5136 141.519 15.5136H141.452C141.441 15.5136 141.431 15.5114 141.421 15.5073C141.411 15.5033 141.402 15.4973 141.394 15.4897C141.388 15.4821 141.381 15.4731 141.377 15.4632C141.375 15.458 141.373 15.4525 141.372 15.4469C141.371 15.442 141.371 15.437 141.371 15.4321Z" fill="white"/>
</svg>
