<?xml version="1.0" encoding="UTF-8"?>
<svg width="40px" height="40px" viewBox="0 0 40 40" version="1.1" xmlns="http://www.w3.org/2000/svg" xmlns:xlink="http://www.w3.org/1999/xlink">
    <title>Shape</title>
    <g id="Page-1" stroke="none" stroke-width="1" fill="none" fill-rule="evenodd">
        <g id="Extra-Large" transform="translate(-773.000000, -1756.000000)" fill="#064E3B" fill-rule="nonzero">
            <g id="cancel_FILL1_wght400_GRAD0_opsz48" transform="translate(773.000000, 1756.000000)">
                <path d="M12.5,29.6 L20,22.1 L27.5,29.6 L29.6,27.5 L22.1,20 L29.6,12.5 L27.5,10.4 L20,17.9 L12.5,10.4 L10.4,12.5 L17.9,20 L10.4,27.5 L12.5,29.6 Z M20,40 C17.2666667,40 14.6833333,39.475 12.25,38.425 C9.81666667,37.375 7.69166667,35.9416667 5.875,34.125 C4.05833333,32.3083333 2.625,30.1833333 1.575,27.75 C0.525,25.3166667 0,22.7333333 0,20 C0,17.2333333 0.525,14.6333333 1.575,12.2 C2.625,9.76666667 4.05833333,7.65 5.875,5.85 C7.69166667,4.05 9.81666667,2.625 12.25,1.575 C14.6833333,0.525 17.2666667,0 20,0 C22.7666667,0 25.3666667,0.525 27.8,1.575 C30.2333333,2.625 32.35,4.05 34.15,5.85 C35.95,7.65 37.375,9.76666667 38.425,12.2 C39.475,14.6333333 40,17.2333333 40,20 C40,22.7333333 39.475,25.3166667 38.425,27.75 C37.375,30.1833333 35.95,32.3083333 34.15,34.125 C32.35,35.9416667 30.2333333,37.375 27.8,38.425 C25.3666667,39.475 22.7666667,40 20,40 Z" id="Shape"></path>
            </g>
        </g>
    </g>
</svg>