<svg width="37" height="37" viewBox="0 0 37 37" fill="none" xmlns="http://www.w3.org/2000/svg">
<path d="M9.20625 25.7326L15.3063 19.6326L19.3062 23.6326L26.9062 16.0826V19.9326H29.9062V10.9326H20.9062V13.9326H24.7563L19.3062 19.3826L15.3063 15.3826L7.10625 23.6326L9.20625 25.7326ZM3.40625 36.4326C2.60625 36.4326 1.90625 36.1326 1.30625 35.5326C0.70625 34.9326 0.40625 34.2326 0.40625 33.4326V3.43262C0.40625 2.63262 0.70625 1.93262 1.30625 1.33262C1.90625 0.732617 2.60625 0.432617 3.40625 0.432617H33.4062C34.2063 0.432617 34.9063 0.732617 35.5063 1.33262C36.1063 1.93262 36.4062 2.63262 36.4062 3.43262V33.4326C36.4062 34.2326 36.1063 34.9326 35.5063 35.5326C34.9063 36.1326 34.2063 36.4326 33.4062 36.4326H3.40625ZM3.40625 33.4326H33.4062V3.43262H3.40625V33.4326Z" fill="#047857"/>
</svg>
