<svg width="37" height="37" viewBox="0 0 37 37" fill="none" xmlns="http://www.w3.org/2000/svg">
<path d="M15.7712 26.9175L28.86 13.8288L26.7325 11.7475L15.7712 22.7087L10.2213 17.1587L8.14 19.24L15.7712 26.9175ZM18.5 37C15.9717 37 13.5821 36.5144 11.3313 35.5431C9.08042 34.5719 7.11479 33.246 5.43438 31.5656C3.75396 29.8852 2.42812 27.9196 1.45687 25.6688C0.485625 23.4179 0 21.0283 0 18.5C0 15.9408 0.485625 13.5358 1.45687 11.285C2.42812 9.03417 3.75396 7.07625 5.43438 5.41125C7.11479 3.74625 9.08042 2.42812 11.3313 1.45687C13.5821 0.485625 15.9717 0 18.5 0C21.0592 0 23.4642 0.485625 25.715 1.45687C27.9658 2.42812 29.9238 3.74625 31.5888 5.41125C33.2538 7.07625 34.5719 9.03417 35.5431 11.285C36.5144 13.5358 37 15.9408 37 18.5C37 21.0283 36.5144 23.4179 35.5431 25.6688C34.5719 27.9196 33.2538 29.8852 31.5888 31.5656C29.9238 33.246 27.9658 34.5719 25.715 35.5431C23.4642 36.5144 21.0592 37 18.5 37Z" fill="#064E3B"/>
</svg>
