<svg width="32" height="44" viewBox="0 0 32 44" fill="none" xmlns="http://www.w3.org/2000/svg">
<path d="M9.2 31.2L0 22L9.2 12.8L11.3 15L4.3 22L11.3 29L9.2 31.2ZM2 32.7H5V36.5H27V32.7H30V41C30 41.8 29.7 42.5 29.1 43.1C28.5 43.7 27.8 44 27 44H5C4.2 44 3.5 43.7 2.9 43.1C2.3 42.5 2 41.8 2 41V32.7ZM5 10.7H2V3C2 2.2 2.3 1.5 2.9 0.9C3.5 0.3 4.2 0 5 0H27C27.8 0 28.5 0.3 29.1 0.9C29.7 1.5 30 2.2 30 3V10.7H27V7.5H5V10.7ZM5 39.5V41H27V39.5H5ZM5 4.5H27V3H5V4.5ZM22.8 31.2L20.7 29L27.7 22L20.7 15L22.8 12.8L32 22L22.8 31.2ZM5 4.5V3V4.5ZM5 39.5V41V39.5Z" fill="white"/>
</svg>
