<svg width="141" height="106" viewBox="0 0 141 106" fill="none" xmlns="http://www.w3.org/2000/svg">
<path d="M124 5.05128C124 2.26154 126.262 0 129.051 0H141V106H129.051C126.262 106 124 103.738 124 100.949V5.05128Z" fill="white"/>
<path d="M2.91259 48.3042H7.5426C8.88599 48.3042 10.0326 48.0386 10.9823 47.5075C11.9321 46.9702 12.66 46.1985 13.1661 45.1925C13.6722 44.1803 13.9253 42.965 13.9253 41.5466V41.5279C13.9253 40.1095 13.6691 38.8973 13.1567 37.8914C12.6506 36.8854 11.9227 36.1168 10.9729 35.5857C10.0232 35.0484 8.87974 34.7797 7.5426 34.7797H2.91259V48.3042ZM4.59964 46.7859V36.298H7.43013C8.42986 36.298 9.28588 36.5074 9.99819 36.926C10.7105 37.3384 11.2541 37.9351 11.629 38.7161C12.0102 39.4972 12.2007 40.4407 12.2007 41.5466V41.5654C12.2007 42.6588 12.0133 43.5961 11.6384 44.3771C11.2635 45.1582 10.7199 45.7549 10.0076 46.1673C9.29526 46.5797 8.43611 46.7859 7.43013 46.7859H4.59964ZM20.6735 48.4823C21.6295 48.4823 22.4511 48.273 23.1384 47.8543C23.832 47.4294 24.3662 46.8296 24.7411 46.0548C25.1223 45.2738 25.3129 44.349 25.3129 43.2805V43.2618C25.3129 42.1871 25.1223 41.2623 24.7411 40.4875C24.3662 39.7065 23.832 39.1067 23.1384 38.688C22.4449 38.2694 21.6232 38.0601 20.6735 38.0601C19.7237 38.0601 18.9021 38.2694 18.2085 38.688C17.5149 39.1067 16.9776 39.7065 16.5964 40.4875C16.2215 41.2623 16.0341 42.1871 16.0341 43.2618V43.2805C16.0341 44.349 16.2215 45.2738 16.5964 46.0548C16.9776 46.8296 17.5149 47.4294 18.2085 47.8543C18.9021 48.273 19.7237 48.4823 20.6735 48.4823ZM20.6735 47.0389C20.0424 47.0389 19.505 46.8921 19.0614 46.5984C18.624 46.2985 18.2866 45.8705 18.0492 45.3144C17.818 44.752 17.7024 44.0741 17.7024 43.2805V43.2618C17.7024 42.4683 17.818 41.7934 18.0492 41.2373C18.2866 40.675 18.624 40.247 19.0614 39.9533C19.505 39.6534 20.0424 39.5034 20.6735 39.5034C21.2983 39.5034 21.8325 39.6534 22.2762 39.9533C22.7198 40.247 23.0572 40.675 23.2884 41.2373C23.5258 41.7934 23.6445 42.4683 23.6445 43.2618V43.2805C23.6445 44.0741 23.5258 44.752 23.2884 45.3144C23.0572 45.8705 22.7198 46.2985 22.2762 46.5984C21.8388 46.8921 21.3045 47.0389 20.6735 47.0389ZM31.1144 48.4823C31.608 48.4823 32.0486 48.4167 32.4359 48.2855C32.8296 48.1542 33.167 47.9637 33.4482 47.7137C33.7294 47.4576 33.9512 47.1576 34.1136 46.814H34.2542V48.3042H35.885V38.2475H34.2542V44.1897C34.2542 44.6333 34.1949 45.0301 34.0761 45.38C33.9637 45.7299 33.7918 46.0298 33.5606 46.2797C33.3295 46.5234 33.0452 46.7109 32.7077 46.8421C32.3703 46.9733 31.9829 47.0389 31.5456 47.0389C30.7458 47.0389 30.1678 46.8202 29.8116 46.3828C29.4617 45.9392 29.2868 45.2706 29.2868 44.3771V38.2475H27.656V44.7614C27.656 45.5487 27.7841 46.2204 28.0402 46.7765C28.3027 47.3326 28.6901 47.7575 29.2024 48.0511C29.721 48.3386 30.3584 48.4823 31.1144 48.4823ZM43.8235 48.4823C44.6733 48.4823 45.4137 48.2698 46.0448 47.8449C46.6821 47.4138 47.1758 46.8077 47.5257 46.0267C47.8756 45.2456 48.0505 44.3303 48.0505 43.2805V43.2618C48.0505 42.2121 47.8756 41.2998 47.5257 40.525C47.1758 39.744 46.6853 39.1379 46.0542 38.7068C45.4231 38.2756 44.6795 38.0601 43.8235 38.0601C43.3612 38.0601 42.9269 38.135 42.5208 38.285C42.1146 38.4287 41.7522 38.6349 41.4335 38.9036C41.1211 39.166 40.8712 39.4784 40.6837 39.8408H40.5432V34.2642H38.9123V48.3042H40.5432V46.6921H40.6837C40.8899 47.067 41.1461 47.3888 41.4523 47.6575C41.7647 47.9199 42.1209 48.123 42.5208 48.2667C42.9206 48.4104 43.3549 48.4823 43.8235 48.4823ZM43.458 47.0389C42.8519 47.0389 42.3271 46.8858 41.8834 46.5797C41.446 46.2735 41.1055 45.8392 40.8618 45.2769C40.6244 44.7145 40.5057 44.0491 40.5057 43.2805V43.2618C40.5057 42.487 40.6244 41.8216 40.8618 41.2655C41.1055 40.7031 41.446 40.2688 41.8834 39.9627C42.3271 39.6565 42.8519 39.5034 43.458 39.5034C44.0703 39.5034 44.5921 39.6565 45.0232 39.9627C45.4606 40.2626 45.7949 40.6937 46.0261 41.2561C46.2635 41.8122 46.3822 42.4808 46.3822 43.2618V43.2805C46.3822 44.0553 46.2635 44.727 46.0261 45.2956C45.7949 45.858 45.4606 46.2891 45.0232 46.589C44.5921 46.889 44.0703 47.0389 43.458 47.0389ZM50.5717 48.3042H52.2025V34.2642H50.5717V48.3042ZM59.335 48.4823C59.9224 48.4823 60.4535 48.4073 60.9283 48.2573C61.4032 48.1011 61.8156 47.8949 62.1655 47.6388C62.5154 47.3763 62.7997 47.0827 63.0184 46.7577C63.2433 46.4328 63.3996 46.0954 63.487 45.7455L63.5058 45.6705H61.875L61.8468 45.7549C61.7531 45.9611 61.5969 46.1641 61.3782 46.3641C61.1595 46.5578 60.8815 46.7171 60.5441 46.8421C60.2129 46.9671 59.8224 47.0295 59.3725 47.0295C58.7602 47.0295 58.2291 46.8952 57.7792 46.6265C57.3355 46.3578 56.9919 45.9704 56.7482 45.4643C56.5045 44.9582 56.3827 44.3459 56.3827 43.6273V42.9806C56.3827 42.2308 56.5076 41.5997 56.7576 41.0874C57.0075 40.5688 57.3449 40.1782 57.7698 39.9158C58.1947 39.6471 58.6789 39.5128 59.2225 39.5128C59.7599 39.5128 60.2379 39.6409 60.6565 39.8971C61.0752 40.147 61.4001 40.5282 61.6313 41.0405C61.8687 41.5466 61.9874 42.1933 61.9874 42.9806V43.6273L62.7935 42.437H55.5579V43.7398H63.6276V43.1025C63.6276 42.1027 63.4495 41.2248 63.0934 40.4688C62.7435 39.7127 62.2405 39.1223 61.5844 38.6974C60.9283 38.2725 60.1442 38.0601 59.2319 38.0601C58.3197 38.0601 57.523 38.2819 56.8419 38.7255C56.1671 39.1691 55.6454 39.7846 55.2767 40.5719C54.9081 41.3529 54.7237 42.2621 54.7237 43.2993V43.3087C54.7237 44.3646 54.9081 45.28 55.2767 46.0548C55.6454 46.8296 56.1734 47.4294 56.8607 47.8543C57.548 48.273 58.3728 48.4823 59.335 48.4823ZM76.9647 48.6135C77.9269 48.6135 78.7892 48.4448 79.5515 48.1074C80.32 47.7637 80.9542 47.2857 81.4541 46.6734C81.9602 46.061 82.2882 45.3394 82.4382 44.5083V44.4802H80.7324L80.7137 44.5083C80.57 45.0394 80.3231 45.4956 79.9732 45.8767C79.6233 46.2579 79.1922 46.5515 78.6798 46.7577C78.1675 46.9577 77.5958 47.0577 76.9647 47.0577C76.0962 47.0577 75.3432 46.8327 74.7059 46.3828C74.0686 45.933 73.575 45.2956 73.225 44.4708C72.8814 43.6461 72.7096 42.6745 72.7096 41.556V41.5373C72.7096 40.4063 72.8814 39.4316 73.225 38.613C73.575 37.7883 74.0686 37.1509 74.7059 36.701C75.3432 36.2512 76.093 36.0262 76.9553 36.0262C77.5864 36.0262 78.155 36.1418 78.6611 36.373C79.1672 36.598 79.5983 36.9197 79.9545 37.3384C80.3107 37.757 80.5637 38.2538 80.7137 38.8286L80.7324 38.8755H82.4288L82.4382 38.8474C82.3007 37.9851 81.979 37.2259 81.4728 36.5698C80.9667 35.9138 80.3231 35.4014 79.5421 35.0327C78.7673 34.6578 77.905 34.4704 76.9553 34.4704C75.7306 34.4704 74.6715 34.7578 73.778 35.3327C72.8845 35.9075 72.1941 36.7229 71.7067 37.7789C71.2193 38.8349 70.9756 40.0876 70.9756 41.5373V41.556C70.9756 42.9994 71.2193 44.249 71.7067 45.305C72.1941 46.361 72.8845 47.1764 73.778 47.7512C74.6778 48.3261 75.74 48.6135 76.9647 48.6135ZM85.0625 48.3042H86.6933V34.2642H85.0625V48.3042ZM89.7581 48.3042H91.3889V38.2475H89.7581V48.3042ZM90.5829 36.3261C90.8891 36.3261 91.1515 36.2168 91.3702 35.9981C91.5889 35.7794 91.6982 35.5201 91.6982 35.2202C91.6982 34.9078 91.5889 34.6453 91.3702 34.4329C91.1515 34.2142 90.8891 34.1049 90.5829 34.1049C90.2767 34.1049 90.0143 34.2142 89.7956 34.4329C89.5769 34.6453 89.4676 34.9078 89.4676 35.2202C89.4676 35.5201 89.5769 35.7794 89.7956 35.9981C90.0143 36.2168 90.2767 36.3261 90.5829 36.3261ZM98.4839 48.4823C99.29 48.4823 99.9804 48.3479 100.555 48.0793C101.13 47.8043 101.592 47.4294 101.942 46.9546C102.292 46.4797 102.533 45.9392 102.664 45.3331L102.683 45.2394H101.071L101.052 45.305C100.871 45.8611 100.565 46.2891 100.133 46.589C99.7086 46.889 99.1556 47.0389 98.4746 47.0389C97.881 47.0389 97.3624 46.8858 96.9187 46.5797C96.4751 46.2672 96.1314 45.8267 95.8877 45.2581C95.6503 44.6895 95.5316 44.021 95.5316 43.2524V43.2337C95.5316 42.4714 95.6503 41.8122 95.8877 41.2561C96.1252 40.7 96.4657 40.2688 96.9093 39.9627C97.353 39.6565 97.8747 39.5034 98.4746 39.5034C99.1994 39.5034 99.7805 39.6815 100.218 40.0377C100.655 40.3876 100.936 40.8125 101.061 41.3123L101.071 41.3404H102.692L102.683 41.2842C102.583 40.6906 102.355 40.1501 101.999 39.6628C101.649 39.1754 101.177 38.788 100.583 38.5006C99.996 38.2069 99.2931 38.0601 98.4746 38.0601C97.5373 38.0601 96.7219 38.2756 96.0283 38.7068C95.3348 39.1316 94.8005 39.7315 94.4256 40.5063C94.0507 41.2748 93.8633 42.184 93.8633 43.2337V43.2524C93.8633 44.3146 94.0507 45.2394 94.4256 46.0267C94.8068 46.8077 95.341 47.4138 96.0283 47.8449C96.7219 48.2698 97.5404 48.4823 98.4839 48.4823ZM105.073 48.3042H106.704V34.2642H105.073V48.3042ZM111.409 48.3042H113.442L108.681 42.3433L107.491 43.393L111.409 48.3042ZM106.479 44.7052L108.034 43.2056L108.391 42.8682L113.171 38.2475H111.193L106.835 42.6432H106.413L106.479 44.7052ZM63.5995 71.3886C63.762 71.3886 63.9213 71.3792 64.0775 71.3604C64.2337 71.3479 64.3868 71.3292 64.5367 71.3042V69.9264C64.393 69.9389 64.2712 69.9483 64.1712 69.9546C64.0712 69.9608 63.9525 69.9639 63.8151 69.9639C63.2965 69.9639 62.9247 69.839 62.6997 69.589C62.4748 69.3329 62.3623 68.9142 62.3623 68.3331V62.5972H64.5367V61.2475H62.3623V58.6232H60.6753V61.2475H59.1101V62.5972H60.6753V68.6986C60.6753 69.6546 60.9065 70.342 61.3688 70.7606C61.8375 71.1792 62.581 71.3886 63.5995 71.3886ZM70.8913 71.4823C71.8473 71.4823 72.6689 71.273 73.3563 70.8543C74.0498 70.4294 74.5841 69.8296 74.959 69.0548C75.3401 68.2738 75.5307 67.349 75.5307 66.2805V66.2618C75.5307 65.1871 75.3401 64.2623 74.959 63.4875C74.5841 62.7065 74.0498 62.1067 73.3563 61.688C72.6627 61.2694 71.841 61.0601 70.8913 61.0601C69.9416 61.0601 69.1199 61.2694 68.4263 61.688C67.7328 62.1067 67.1954 62.7065 66.8143 63.4875C66.4394 64.2623 66.2519 65.1871 66.2519 66.2618V66.2805C66.2519 67.349 66.4394 68.2738 66.8143 69.0548C67.1954 69.8296 67.7328 70.4294 68.4263 70.8543C69.1199 71.273 69.9416 71.4823 70.8913 71.4823ZM70.8913 70.0389C70.2602 70.0389 69.7229 69.8921 69.2792 69.5984C68.8418 69.2985 68.5044 68.8705 68.267 68.3144C68.0358 67.752 67.9202 67.0741 67.9202 66.2805V66.2618C67.9202 65.4683 68.0358 64.7934 68.267 64.2373C68.5044 63.675 68.8418 63.247 69.2792 62.9533C69.7229 62.6534 70.2602 62.5034 70.8913 62.5034C71.5161 62.5034 72.0504 62.6534 72.494 62.9533C72.9376 63.247 73.275 63.675 73.5062 64.2373C73.7437 64.7934 73.8624 65.4683 73.8624 66.2618V66.2805C73.8624 67.0741 73.7437 67.752 73.5062 68.3144C73.275 68.8705 72.9376 69.2985 72.494 69.5984C72.0566 69.8921 71.5224 70.0389 70.8913 70.0389ZM84.2471 66.4774H88.4647C89.3145 66.4774 90.0643 66.293 90.7141 65.9244C91.364 65.5557 91.8732 65.0434 92.2418 64.3873C92.6167 63.7312 92.8042 62.9752 92.8042 62.1192V62.1004C92.8042 61.2444 92.6167 60.4915 92.2418 59.8416C91.8732 59.1918 91.364 58.6857 90.7141 58.3233C90.0643 57.9609 89.3145 57.7797 88.4647 57.7797H84.2471V59.2793H88.0336C89.0021 59.2793 89.7519 59.5292 90.283 60.0291C90.8141 60.529 91.0797 61.2256 91.0797 62.1192V62.1379C91.0797 63.0252 90.8141 63.7218 90.283 64.228C89.7519 64.7278 89.0021 64.9778 88.0336 64.9778H84.2471V66.4774ZM83.4036 71.3042H85.0906V57.7797H83.4036V71.3042ZM97.6123 71.4823C98.0684 71.4823 98.4871 71.4167 98.8682 71.2855C99.2493 71.1542 99.5899 70.9637 99.8898 70.7137C100.196 70.4638 100.455 70.1608 100.668 69.8046H100.808V71.3042H102.439V64.406C102.439 63.7125 102.289 63.1158 101.989 62.6159C101.689 62.116 101.255 61.7318 100.686 61.4631C100.118 61.1944 99.4243 61.0601 98.6058 61.0601C97.881 61.0601 97.2374 61.1757 96.675 61.4068C96.1127 61.6318 95.6566 61.9442 95.3067 62.3441C94.963 62.744 94.7474 63.2126 94.66 63.75L94.6506 63.8062H96.2814L96.2908 63.7687C96.4157 63.3751 96.6719 63.0658 97.0593 62.8408C97.4467 62.6159 97.9434 62.5034 98.5495 62.5034C99.2993 62.5034 99.8617 62.669 100.237 63.0002C100.618 63.3313 100.808 63.8062 100.808 64.4248V67.5458C100.808 68.0269 100.683 68.4581 100.433 68.8392C100.19 69.2141 99.8523 69.5141 99.4212 69.739C98.9963 69.9577 98.5058 70.067 97.9497 70.067C97.3624 70.067 96.8781 69.9264 96.497 69.6453C96.1158 69.3578 95.9252 68.9611 95.9252 68.455V68.4362C95.9252 67.9426 96.1002 67.5583 96.4501 67.2834C96.8063 67.0085 97.3624 66.8491 98.1184 66.8054L101.624 66.5898V65.2871L97.9216 65.512C97.1468 65.5557 96.4845 65.6994 95.9346 65.9431C95.3848 66.1868 94.9661 66.5211 94.6787 66.946C94.3975 67.3709 94.2569 67.8801 94.2569 68.4737V68.4925C94.2569 69.0985 94.4038 69.6265 94.6974 70.0764C94.9911 70.5263 95.391 70.8731 95.8971 71.1167C96.4032 71.3604 96.975 71.4823 97.6123 71.4823ZM105.841 74.8189C106.441 74.8189 106.944 74.7314 107.35 74.5565C107.763 74.3815 108.119 74.0816 108.419 73.6567C108.719 73.2381 109.006 72.6601 109.281 71.9228L113.208 61.2475H111.493L108.428 70.4794L109.037 69.5328H108.306L108.916 70.4794L105.841 61.2475H104.098L107.819 71.3136L107.631 71.904C107.45 72.4851 107.21 72.8913 106.91 73.1225C106.61 73.3537 106.226 73.4692 105.757 73.4692C105.651 73.4692 105.538 73.463 105.42 73.4505C105.307 73.4443 105.201 73.4349 105.101 73.4224V74.7533C105.213 74.772 105.335 74.7876 105.466 74.8001C105.604 74.8126 105.729 74.8189 105.841 74.8189Z" fill="white"/>
</svg>
