<svg width="21" height="21" viewBox="0 0 21 21" fill="none" xmlns="http://www.w3.org/2000/svg">
<path d="M10.0195 15.1155C10.3029 15.1155 10.5404 15.0196 10.732 14.828C10.9237 14.6363 11.0195 14.3988 11.0195 14.1155C11.0195 13.8321 10.9237 13.5946 10.732 13.403C10.5404 13.2113 10.3029 13.1155 10.0195 13.1155C9.7362 13.1155 9.4987 13.2113 9.30703 13.403C9.11536 13.5946 9.01953 13.8321 9.01953 14.1155C9.01953 14.3988 9.11536 14.6363 9.30703 14.828C9.4987 15.0196 9.7362 15.1155 10.0195 15.1155ZM9.01953 11.1155H11.0195V5.11548H9.01953V11.1155ZM10.0195 20.1155C8.6362 20.1155 7.3362 19.853 6.11953 19.328C4.90286 18.803 3.84453 18.0905 2.94453 17.1905C2.04453 16.2905 1.33203 15.2321 0.807031 14.0155C0.282031 12.7988 0.0195312 11.4988 0.0195312 10.1155C0.0195312 8.73215 0.282031 7.43215 0.807031 6.21548C1.33203 4.99881 2.04453 3.94048 2.94453 3.04048C3.84453 2.14048 4.90286 1.42798 6.11953 0.902979C7.3362 0.377979 8.6362 0.115479 10.0195 0.115479C11.4029 0.115479 12.7029 0.377979 13.9195 0.902979C15.1362 1.42798 16.1945 2.14048 17.0945 3.04048C17.9945 3.94048 18.707 4.99881 19.232 6.21548C19.757 7.43215 20.0195 8.73215 20.0195 10.1155C20.0195 11.4988 19.757 12.7988 19.232 14.0155C18.707 15.2321 17.9945 16.2905 17.0945 17.1905C16.1945 18.0905 15.1362 18.803 13.9195 19.328C12.7029 19.853 11.4029 20.1155 10.0195 20.1155ZM10.0195 18.1155C12.2529 18.1155 14.1445 17.3405 15.6945 15.7905C17.2445 14.2405 18.0195 12.3488 18.0195 10.1155C18.0195 7.88215 17.2445 5.99048 15.6945 4.44048C14.1445 2.89048 12.2529 2.11548 10.0195 2.11548C7.7862 2.11548 5.89453 2.89048 4.34453 4.44048C2.79453 5.99048 2.01953 7.88215 2.01953 10.1155C2.01953 12.3488 2.79453 14.2405 4.34453 15.7905C5.89453 17.3405 7.7862 18.1155 10.0195 18.1155Z" fill="#DB4324"/>
</svg>
