<svg width="39" height="40" viewBox="0 0 39 40" fill="none" xmlns="http://www.w3.org/2000/svg">
<path d="M11.801 39.3789H3.00098C2.20098 39.3789 1.50098 39.0789 0.900977 38.4789C0.300977 37.8789 0.000976562 37.1789 0.000976562 36.3789V27.5789C1.46764 27.4122 2.72598 26.8372 3.77598 25.8539C4.82598 24.8706 5.35098 23.6622 5.35098 22.2289C5.35098 20.7956 4.82598 19.5872 3.77598 18.6039C2.72598 17.6206 1.46764 17.0456 0.000976562 16.8789V8.07891C0.000976562 7.27891 0.300977 6.57891 0.900977 5.97891C1.50098 5.37891 2.20098 5.07891 3.00098 5.07891H11.851C12.2176 3.74557 12.876 2.62891 13.826 1.72891C14.776 0.828906 15.9176 0.378906 17.251 0.378906C18.5843 0.378906 19.726 0.828906 20.676 1.72891C21.626 2.62891 22.2843 3.74557 22.651 5.07891H31.301C32.101 5.07891 32.801 5.37891 33.401 5.97891C34.001 6.57891 34.301 7.27891 34.301 8.07891V16.7289C35.6343 17.0956 36.726 17.7872 37.576 18.8039C38.426 19.8206 38.851 20.9956 38.851 22.3289C38.851 23.6622 38.426 24.7789 37.576 25.6789C36.726 26.5789 35.6343 27.2122 34.301 27.5789V36.3789C34.301 37.1789 34.001 37.8789 33.401 38.4789C32.801 39.0789 32.101 39.3789 31.301 39.3789H22.501C22.3343 37.7789 21.7426 36.4872 20.726 35.5039C19.7093 34.5206 18.5176 34.0289 17.151 34.0289C15.7843 34.0289 14.5926 34.5206 13.576 35.5039C12.5593 36.4872 11.9676 37.7789 11.801 39.3789ZM3.00098 36.3789H9.50098C10.3343 34.3456 11.501 32.9456 13.001 32.1789C14.501 31.4122 15.8843 31.0289 17.151 31.0289C18.4176 31.0289 19.801 31.4122 21.301 32.1789C22.801 32.9456 23.9676 34.3456 24.801 36.3789H31.301V24.6289H33.551C34.2176 24.6289 34.7676 24.4122 35.201 23.9789C35.6343 23.5456 35.851 22.9956 35.851 22.3289C35.851 21.6622 35.6343 21.1122 35.201 20.6789C34.7676 20.2456 34.2176 20.0289 33.551 20.0289H31.301V8.07891H19.551V5.67891C19.551 5.01224 19.3343 4.46224 18.901 4.02891C18.4676 3.59557 17.9176 3.37891 17.251 3.37891C16.5843 3.37891 16.0343 3.59557 15.601 4.02891C15.1676 4.46224 14.951 5.01224 14.951 5.67891V8.07891H3.00098V14.5789C4.60098 15.1789 5.89264 16.1789 6.87598 17.5789C7.85931 18.9789 8.35098 20.5289 8.35098 22.2289C8.35098 23.9289 7.85931 25.4789 6.87598 26.8789C5.89264 28.2789 4.60098 29.2789 3.00098 29.8789V36.3789Z" fill="white"/>
</svg>
