<svg width="55" height="36" viewBox="0 0 55 36" fill="none" xmlns="http://www.w3.org/2000/svg">
<path d="M28.8673 6.094H29.2947V0H0V0.6028C3.29725 0.73425 5.4505 1.1748 5.4505 4.25095V30.9133C5.4505 33.9911 3.29725 34.4295 0 34.562V35.1648H19.9738V34.562C16.1062 34.3431 13.3364 33.9911 13.3364 30.9133V18.2903H18.9876C21.1854 18.2903 22.0649 19.9166 22.5918 22.8613H23.0049V12.9833H22.5918C22.0649 15.928 21.1854 17.5984 18.9876 17.5984H13.337V0.62645H22.3196C26.3197 0.62645 27.593 1.68135 28.8673 6.094ZM38.7591 18.3155H43.2207C51.4399 18.3155 55 14.0003 55 8.6372C55 3.89015 51.661 0 42.1658 0H30.1054V30.9133C30.1054 33.9911 27.9516 34.4295 24.6554 34.562V35.1648H44.5835V34.562C40.7159 34.3431 37.9461 33.9911 37.9461 30.9133V0.715H40.4954C44.9988 0.715 47.5283 4.76905 47.5283 9.6041C47.5283 15.1861 44.9026 17.6132 40.4085 17.6132H38.7591V18.3155Z" fill="#171717"/>
</svg>
