<svg width="48" height="24" viewBox="0 0 48 24" fill="none" xmlns="http://www.w3.org/2000/svg">
<path d="M0 24V21.35C0 20.05 0.7 19 2.1 18.2C3.5 17.4 5.3 17 7.5 17C7.93333 17 8.33333 17.0083 8.7 17.025C9.06667 17.0417 9.43333 17.0833 9.8 17.15C9.53333 17.7167 9.33333 18.2917 9.2 18.875C9.06667 19.4583 9 20.0833 9 20.75V24H0ZM12 24V20.75C12 18.5833 13.1083 16.8333 15.325 15.5C17.5417 14.1667 20.4333 13.5 24 13.5C27.6 13.5 30.5 14.1667 32.7 15.5C34.9 16.8333 36 18.5833 36 20.75V24H12ZM39 24V20.75C39 20.0833 38.9417 19.4583 38.825 18.875C38.7083 18.2917 38.5167 17.7167 38.25 17.15C38.6167 17.0833 38.9833 17.0417 39.35 17.025C39.7167 17.0083 40.1 17 40.5 17C42.7667 17 44.5833 17.4 45.95 18.2C47.3167 19 48 20.05 48 21.35V24H39ZM24 16.5C21.3333 16.5 19.1667 16.9 17.5 17.7C15.8333 18.5 15 19.5167 15 20.75V21H33V20.7C33 19.5 32.175 18.5 30.525 17.7C28.875 16.9 26.7 16.5 24 16.5ZM7.5 15.5C6.53333 15.5 5.70833 15.1583 5.025 14.475C4.34167 13.7917 4 12.9667 4 12C4 11.0333 4.34167 10.2083 5.025 9.525C5.70833 8.84167 6.53333 8.5 7.5 8.5C8.46667 8.5 9.29167 8.84167 9.975 9.525C10.6583 10.2083 11 11.0333 11 12C11 12.9667 10.6583 13.7917 9.975 14.475C9.29167 15.1583 8.46667 15.5 7.5 15.5ZM40.5 15.5C39.5333 15.5 38.7083 15.1583 38.025 14.475C37.3417 13.7917 37 12.9667 37 12C37 11.0333 37.3417 10.2083 38.025 9.525C38.7083 8.84167 39.5333 8.5 40.5 8.5C41.4667 8.5 42.2917 8.84167 42.975 9.525C43.6583 10.2083 44 11.0333 44 12C44 12.9667 43.6583 13.7917 42.975 14.475C42.2917 15.1583 41.4667 15.5 40.5 15.5ZM24 12C22.3333 12 20.9167 11.4167 19.75 10.25C18.5833 9.08333 18 7.66667 18 6C18 4.3 18.5833 2.875 19.75 1.725C20.9167 0.575 22.3333 0 24 0C25.7 0 27.125 0.575 28.275 1.725C29.425 2.875 30 4.3 30 6C30 7.66667 29.425 9.08333 28.275 10.25C27.125 11.4167 25.7 12 24 12ZM24 3C23.1667 3 22.4583 3.28333 21.875 3.85C21.2917 4.41667 21 5.13333 21 6C21 6.83333 21.2917 7.54167 21.875 8.125C22.4583 8.70833 23.1667 9 24 9C24.8667 9 25.5833 8.70833 26.15 8.125C26.7167 7.54167 27 6.83333 27 6C27 5.13333 26.7167 4.41667 26.15 3.85C25.5833 3.28333 24.8667 3 24 3Z" fill="#047857"/>
</svg>
