<svg width="300" height="32" viewBox="0 0 300 32" fill="none" xmlns="http://www.w3.org/2000/svg">
<path d="M12.7006 0.771088H21.2011V22.7952C21.2011 28.2409 16.5508 31.9037 10.4505 31.9037C4.25022 31.9037 0 28.5783 0 22.9879V20.9639H7.55038V22.7952C7.55038 24.2892 8.70043 25.3977 10.1505 25.3977C11.6506 25.3977 12.7506 24.3856 12.7506 22.7952L12.7006 0.771088ZM46.2024 31.1326L44.2021 25.9278H32.1517L30.1015 31.1326H21.6011L34.7018 0.771088H42.5022L55.1527 31.1326H46.2024ZM38.402 10.3133H38.3019L34.4517 20.0483H42.0521L38.402 10.3133ZM86.7542 20.9639C84.6042 27.4217 78.1039 31.9037 70.5535 31.9037C61.403 31.9037 53.8027 25.3013 53.8027 16C53.8027 6.69881 61.553 0 70.7035 0C78.1039 0 84.5043 4.38555 86.7043 10.7952H77.0538C75.6037 8.77109 73.2036 7.46989 70.6535 7.46989C66.4533 7.46989 62.7531 10.8916 62.7531 15.9518C62.7531 21.0122 66.4033 24.3856 70.6535 24.3856C73.2537 24.3856 75.7038 23.0844 77.1538 20.9639H86.7542ZM107.605 31.1326L98.6549 18.6988H98.455V31.1326H89.9546V0.771088H98.455V12.4338H98.6549L107.405 0.771088H116.856L105.405 14.6988L117.556 31.1326H107.605ZM164.758 0.771088H173.259V22.7952C173.259 28.2409 168.558 31.9037 162.508 31.9037C156.308 31.9037 152.058 28.5783 152.058 22.9879V20.9639H159.558V22.7952C159.558 24.2892 160.708 25.3977 162.158 25.3977C163.658 25.3977 164.758 24.3856 164.758 22.7952V0.771088ZM193.31 31.9037C183.859 31.9037 176.259 25.3013 176.259 16C176.259 6.69881 183.859 0 193.31 0C202.759 0 210.511 6.69881 210.511 16C210.511 25.3013 202.759 31.9037 193.31 31.9037ZM201.559 15.9518C201.559 10.7952 197.859 7.51809 193.36 7.51809C188.859 7.51809 185.259 10.8916 185.259 15.9518C185.259 21.0122 188.859 24.3374 193.36 24.3374C197.859 24.3374 201.559 21.0122 201.559 15.9518ZM234.812 31.1326L221.811 14.4097H221.56V31.1326H213.56V0.771088H220.862L234.013 17.5422H234.261V0.771088H242.262V31.1326H234.812ZM246.613 31.1326V0.771088H270.713V7.75905H255.063V12.3374H265.913V19.1809H255.063V24.1927H270.663V31.1808H246.613V31.1326ZM291.564 10.6506C290.814 8.28917 289.014 6.69881 285.614 6.69881C282.814 6.69881 281.415 8.00003 281.415 9.4458C281.415 10.988 283.064 11.7109 285.715 12.0964L288.014 12.4338C296.164 13.5422 299.965 15.8073 299.965 21.3976C299.965 28 293.664 32 286.015 32C278.713 32 273.264 28.0482 272.763 21.0122H280.815C281.363 22.9879 283.064 25.4458 286.865 25.4458C289.514 25.4458 291.515 24.1927 291.515 22.2652C291.515 20.8675 290.514 20.0001 286.364 19.4218L282.814 18.8916C276.515 17.976 273.014 15.0844 273.014 9.83133C273.014 4.38555 278.113 0.0963917 286.064 0.0963917C294.566 0.0963917 298.964 4.86748 299.515 10.747L291.564 10.6506ZM148.857 26.4579L144.407 22.1687L148.257 18.4579L143.007 13.3976L139.157 17.1085L133.257 11.4217C132.357 10.5542 131.857 9.97592 131.807 9.10846C131.807 7.95182 132.757 6.98797 133.957 6.98797C135.007 6.98797 135.607 7.3735 136.407 8.19278L137.307 9.06027L142.457 4.0964L141.757 3.42169C139.957 1.63856 137.507 0.0481958 133.657 0.0481958C127.506 0.0481958 123.806 4.57832 123.806 9.20484C123.806 11.3735 124.606 13.4458 126.806 15.5663L133.807 22.3132L133.107 22.9879C131.907 24.1447 131.257 24.9157 129.906 24.9639C128.306 25.0121 126.856 23.9518 126.806 22.3132C126.806 21.2531 127.306 20.5301 128.156 19.6627L128.356 19.47L123.506 14.7952L123.006 15.2771C121.206 16.9639 119.256 19.6145 119.256 23.1808C119.256 28 123.256 31.9037 129.556 31.9037C133.357 31.9037 136.057 30.2651 138.657 27.7591L139.057 27.3735L143.507 31.6626L148.857 26.4579Z" fill="#171717"/>
</svg>
