<svg width="272" height="43" viewBox="0 0 272 43" fill="none" xmlns="http://www.w3.org/2000/svg">
<path d="M41.4324 1.39489L38.6545 2.76857L38.685 3.17559C38.7054 3.47067 38.7563 3.5826 38.858 3.56225C38.9394 3.5419 39.2549 3.4605 39.5601 3.38927C40.0282 3.26716 40.1605 3.26716 40.4454 3.37909C41.3306 3.75558 41.5545 4.93593 41.5545 9.29099C41.5545 11.3159 41.4222 19.4562 41.3612 21.1962C41.351 21.5829 41.3103 22.9871 41.2696 24.2997C41.178 27.7084 41.0457 28.6242 40.6082 29.0211C40.3741 29.2348 39.5703 29.54 39.0106 29.6418C38.6342 29.7028 38.5833 29.7435 38.5426 29.9979C38.4815 30.4151 38.5731 30.5169 38.9801 30.466C40.191 30.293 46.4692 30.2116 46.7032 30.354C46.7643 30.3947 46.805 30.2625 46.805 30.0081C46.805 29.7741 46.7745 29.5909 46.7338 29.5807C46.6829 29.5807 46.5811 29.5604 46.4997 29.5502C46.4183 29.5298 46.0317 29.479 45.6348 29.4383C44.6478 29.3365 44.2917 29.1737 44.078 28.7056C43.9254 28.3698 43.905 27.9527 43.905 25.5716C43.905 23.2211 43.9864 20.1278 44.1187 17.8383C44.1289 17.5025 44.1492 17.1362 44.1492 17.0243C44.1594 16.8615 44.3425 16.7394 45.0141 16.4748C46.0927 16.0576 47.4562 15.6913 48.3517 15.5692C51.3636 15.1825 52.7271 16.4952 53.0832 20.1278C53.185 21.1148 53.185 25.8056 53.0934 26.9962C53.0527 27.4948 52.9509 28.146 52.8593 28.4411C52.605 29.2958 52.3404 29.5298 51.1092 30.0081C50.865 30.0997 50.8141 30.2625 50.9566 30.4863C51.0278 30.5881 51.1499 30.5881 51.5467 30.4965C52.025 30.3846 53.1951 30.354 57.0109 30.3133L58.7102 30.3032V29.9572V29.6214L57.7232 29.5705C56.6446 29.5095 56.0442 29.3263 55.8611 28.9804C55.7899 28.8379 55.7593 28.2172 55.7695 27.1692C55.8204 23.8927 55.8102 19.7513 55.739 19.0085C55.5151 16.6478 54.8537 15.1418 53.6836 14.3583C52.9815 13.8801 52.5032 13.7682 51.2313 13.7682C49.4709 13.7783 47.9039 14.2261 44.4341 15.7015L44.0475 15.8643L44.0983 14.0022C44.139 12.9745 44.1797 11.4278 44.2103 10.5629C44.2917 7.99872 44.3629 6.07557 44.4138 5.42435C44.5054 4.23383 44.5766 3.28751 44.6173 3.03313C44.6376 2.89067 44.7089 2.41243 44.7699 1.96471C44.831 1.517 44.9225 0.977702 44.9632 0.764019C45.0548 0.397705 45.0345 0.367178 44.7394 0.173846C44.5562 0.0720922 44.3731 -0.00931093 44.312 0.000864457C44.2611 0.0110398 42.9587 0.631739 41.4324 1.39489Z" fill="#FAFAFA"/>
<path d="M4.95517 2.57534C3.36781 2.98235 3.02185 5.17006 4.43623 5.80094C5.38254 6.21813 6.57306 5.72971 6.98008 4.77322C7.53972 3.44025 6.40008 2.20902 4.95517 2.57534Z" fill="#FAFAFA"/>
<path d="M221.343 10.5933C220.143 12.1399 218.464 13.6663 217.08 14.4905C216.764 14.6736 216.642 14.8161 216.612 15.0399C216.561 15.3452 216.571 15.3452 217.09 15.3452C217.385 15.3452 217.904 15.3757 218.25 15.4062L218.881 15.4775L218.85 21.3894C218.83 26.7213 218.85 27.3623 219.003 27.9525C219.4 29.4076 220.224 30.242 221.557 30.5065C223.165 30.8321 226.533 29.8553 228.303 28.5325C228.629 28.2883 228.731 28.1458 228.741 27.922C228.741 27.6879 228.71 27.6472 228.568 27.7083C226.431 28.5834 225.21 28.909 224.264 28.8581C222.982 28.7869 222.249 28.1764 221.862 26.8841C221.699 26.3448 221.689 25.8564 221.72 21.8066C221.73 19.3441 221.761 17.0547 221.771 16.7189C221.791 16.3831 221.811 15.9862 221.811 15.8438C221.822 15.6912 221.913 15.4673 222.015 15.335L222.208 15.0908H225.21C226.858 15.0908 228.242 15.0603 228.273 15.0298C228.313 14.9992 228.344 14.6838 228.364 14.348L228.385 13.7171L225.485 13.6764C223.887 13.6561 222.493 13.6052 222.381 13.5848C222.269 13.5543 222.117 13.5238 222.045 13.5238C221.944 13.5136 221.923 13.361 221.964 12.8726C222.056 11.8449 222.157 9.64697 222.117 9.64697C222.096 9.64697 221.75 10.0743 221.343 10.5933Z" fill="#FAFAFA"/>
<path d="M5.88922 12.669C4.66817 13.656 2.57204 14.8872 1.06609 15.4978C0.679421 15.6606 0.323283 15.8132 0.282581 15.8539C0.24188 15.8844 0.26223 16.0574 0.323283 16.2406C0.414861 16.4644 0.496264 16.556 0.608194 16.5153C0.689597 16.4746 1.03556 16.4237 1.37135 16.3932C3.32502 16.2101 3.57941 17.543 3.58958 27.9117C3.59976 30.4861 3.56923 33.03 3.52853 33.5591C3.35555 35.6756 2.87731 36.9678 1.65626 38.5756C0.974508 39.4608 0.435212 40.3969 0.201178 41.0787C-0.0939082 41.964 -0.0735574 42.2489 0.323283 42.6152C0.730298 42.9815 0.811701 42.9917 0.811701 42.6864C0.811701 41.852 1.37135 41.0889 2.80608 39.9391C3.9966 38.9826 5.3194 37.5478 5.67554 36.8152C6.29624 35.5636 6.28606 35.757 6.24536 25.2661C6.22501 20.0055 6.25553 15.3757 6.30641 14.989C6.43869 13.8697 6.50992 13.4729 6.61167 13.0964C6.75413 12.6181 6.74395 12.5164 6.53027 12.4045C6.38781 12.3231 6.24536 12.3841 5.88922 12.669Z" fill="#FAFAFA"/>
<path d="M157.055 13.3916C156.445 13.7579 155.224 14.46 154.359 14.9586C153.494 15.4572 152.721 15.9354 152.66 16.027C152.588 16.1186 152.527 16.3221 152.527 16.4747C152.527 16.7291 152.548 16.7495 152.812 16.6782C152.965 16.6375 153.382 16.5867 153.748 16.5765C154.257 16.5663 154.481 16.607 154.735 16.7596C155.509 17.2379 155.59 17.8077 155.539 22.468C155.499 26.6196 155.397 27.6066 154.929 28.6241C154.634 29.2754 154.267 29.5399 153.423 29.7129C152.853 29.835 152.833 29.8452 152.833 30.1708V30.5066L153.83 30.4557C154.969 30.4048 157.167 30.3336 160.515 30.242C161.807 30.2115 162.886 30.1606 162.937 30.1301C162.977 30.1098 163.008 29.8859 163.008 29.6315C163.008 29.3771 162.967 29.194 162.927 29.2245C162.876 29.255 161.99 29.2855 160.942 29.2957C159.243 29.3161 159.019 29.2957 158.846 29.1329C158.633 28.9498 158.48 28.5631 158.378 28.0136C158.053 26.121 158.134 18.5709 158.49 17.8789C158.683 17.5024 159.701 16.7393 160.566 16.3221C161.105 16.0677 161.36 16.0067 161.909 16.0067C162.479 16.0067 162.621 16.0474 162.845 16.2509C163.069 16.4544 163.232 16.8919 163.262 17.3295C163.283 17.6144 164.585 17.1565 165.074 16.6884C165.491 16.2916 165.654 15.9354 165.654 15.3961C165.654 14.5821 165.328 14.0835 164.534 13.6561C164.341 13.5544 164.107 13.4018 164.005 13.3305C163.863 13.2084 163.608 13.3305 162.072 14.2463C159.732 15.6505 158.429 16.3933 158.378 16.3425C158.358 16.3221 158.327 15.5182 158.327 14.5516C158.317 13.5951 158.276 12.7912 158.246 12.7709C158.205 12.7505 157.676 13.0253 157.055 13.3916Z" fill="#FAFAFA"/>
<path d="M137.103 13.4118C135.485 13.7374 133.043 14.8567 132.097 15.7013C131.099 16.6069 130.865 17.1563 131.069 18.1128L131.181 18.6013L131.496 18.4588C131.679 18.3876 132.117 18.1841 132.483 18.0111C132.85 17.8483 133.318 17.6346 133.531 17.543C133.745 17.4616 133.898 17.3395 133.867 17.2886C133.826 17.2378 133.765 16.9834 133.715 16.729C133.531 15.742 134.427 14.989 135.79 14.989C137.408 14.989 138.772 16.2202 139.138 18.0213C139.291 18.7742 139.24 22.2746 139.077 22.3763C139.016 22.417 138.711 22.4781 138.395 22.5086C135.495 22.8444 132.036 23.9332 131.13 24.7879C130.489 25.3882 130.245 26.304 130.296 27.9117C130.336 29.4787 130.876 30.3233 132.046 30.6693C133.318 31.0356 135.271 30.5777 137.836 29.2854L139.219 28.6037L139.311 28.8682C139.565 29.5398 139.891 30.0486 140.298 30.4251C140.878 30.9542 140.97 30.944 143.371 29.9773L145.253 29.2244L145.284 28.7665L145.314 28.2984L144.47 28.5833C143.157 29.031 142.618 28.97 142.282 28.3391C141.916 27.637 141.845 26.9756 141.896 25.0117C141.926 23.9739 141.977 22.9461 142.007 22.7223C142.028 22.4984 142.058 21.3079 142.069 20.0767C142.079 17.6244 141.967 16.79 141.499 15.8641C141.143 15.1823 140.054 14.2055 139.067 13.7171C138.232 13.2999 137.927 13.249 137.103 13.4118ZM139.128 24.9812C139.087 25.7546 139.057 26.6907 139.067 27.0672L139.077 27.7388L138.08 28.2068C135.353 29.4889 134.356 29.5805 133.552 28.6444C133.114 28.1356 132.799 27.1791 132.839 26.5075C132.88 25.8054 133.307 25.1542 134.06 24.6556C135.088 23.9637 136.442 23.6279 138.263 23.5974L139.199 23.5872L139.128 24.9812Z" fill="#FAFAFA"/>
<path d="M201.125 13.5747C198.622 14.2564 196.709 15.3655 195.885 16.6069C195.671 16.9325 195.63 17.1157 195.641 17.6346C195.661 18.6624 195.651 18.6624 196.994 18.0518C197.635 17.7567 198.235 17.4922 198.327 17.4617C198.469 17.4006 198.48 17.3396 198.368 16.9122C198.307 16.6476 198.266 16.322 198.296 16.1897C198.378 15.7725 198.968 15.2638 199.599 15.0806C201.268 14.6024 203.069 15.7318 203.679 17.6652C203.801 18.0315 203.832 18.6115 203.822 20.2192C203.811 21.369 203.791 22.3153 203.771 22.3357C203.72 22.3865 203.201 22.4781 202.132 22.6308C200.647 22.8343 198.022 23.5771 196.77 24.1367C195.305 24.7879 194.837 25.7444 194.898 27.9118C194.949 29.4076 195.417 30.2114 196.444 30.5981C197.767 31.0865 199.721 30.6591 202.458 29.2855C203.598 28.7156 203.842 28.6241 203.883 28.7665C204.208 29.7637 205.094 30.8118 205.612 30.8118C205.775 30.8118 206.793 30.4556 207.882 30.0181L209.866 29.2244L209.896 28.7563L209.927 28.2883L209.082 28.5834C207.953 28.9802 207.444 28.97 207.068 28.5732C206.905 28.4002 206.722 28.0339 206.65 27.7388C206.488 27.1079 206.467 25.0525 206.61 22.3153C206.844 17.5634 206.599 16.0982 205.368 14.928C204.686 14.2869 204.229 13.9613 203.486 13.6154C202.712 13.249 202.336 13.2389 201.125 13.5747ZM203.74 24.9304C203.699 25.6732 203.669 26.6093 203.669 27.0163V27.749L202.641 28.2272C200.118 29.4076 199.121 29.55 198.327 28.8174C197.798 28.3391 197.482 27.576 197.462 26.7314C197.452 26.1514 197.492 25.9988 197.757 25.5613C198.296 24.6862 199.792 23.8925 201.237 23.7195C201.502 23.689 201.736 23.6483 201.756 23.6381C201.776 23.6279 202.244 23.6076 202.794 23.5974L203.811 23.5771L203.74 24.9304Z" fill="#FAFAFA"/>
<path d="M22.179 13.6255C21.3141 13.7782 21.1207 13.829 20.5102 14.0326C19.2892 14.4396 17.6 15.508 16.8979 16.3118C15.3716 18.0824 14.7204 19.863 14.7306 22.2136C14.7509 26.1514 16.9692 28.9598 21.0088 30.1605C21.7821 30.3946 22.1586 30.4353 23.4509 30.4658C24.8042 30.4963 25.0891 30.4658 25.9235 30.2521C29.1796 29.4076 31.4996 26.9451 32.2119 23.5567C32.4256 22.5087 32.3442 20.3922 32.0491 19.4662C31.6014 18.0722 30.9909 17.0546 29.9835 16.0371C28.3453 14.3582 26.2288 13.5034 23.807 13.5238C23.166 13.534 22.4334 13.5747 22.179 13.6255ZM24.3362 14.8364C25.5165 15.1925 26.9207 16.2813 27.7449 17.482C30.5024 21.5318 29.6477 27.2606 26.0253 29.0209C24.387 29.8146 22.5046 29.6111 20.9885 28.4613C19.4825 27.3216 18.0579 24.6964 17.7222 22.4171C17.5899 21.5115 17.6509 19.6188 17.8341 18.9066C18.6888 15.6504 21.3751 13.9715 24.3362 14.8364Z" fill="#FAFAFA"/>
<path d="M241.767 13.6865C238.093 14.4496 235.58 16.8001 234.827 20.1682C234.562 21.3791 234.613 23.4447 234.949 24.6047C235.712 27.2808 237.819 29.2446 240.902 30.1706C241.726 30.4148 241.98 30.4453 243.496 30.4453C245.43 30.4555 246.183 30.3029 247.617 29.5804C249.937 28.4306 251.718 25.9987 252.145 23.3734C252.288 22.4373 252.268 20.7889 252.095 20.0359C251.321 16.7696 248.737 14.2868 245.45 13.6559C244.514 13.4728 242.693 13.4931 241.767 13.6865ZM244.025 14.7854C246.274 15.3552 248.167 17.5226 249.011 20.504C249.307 21.5419 249.327 23.7703 249.062 24.859C248.828 25.8054 248.187 27.0773 247.617 27.7285C246.05 29.5194 243.507 30.018 241.563 28.9089C238.185 26.9755 236.475 21.1349 238.246 17.5531C239.396 15.2331 241.624 14.1647 244.025 14.7854Z" fill="#FAFAFA"/>
<path d="M69.6606 14.0329C68.7041 14.5315 67.7069 14.969 66.496 15.3964C65.7532 15.6711 65.5802 15.7729 65.5701 15.9459C65.5599 16.0782 65.6209 16.1596 65.7227 16.1596C65.8143 16.1697 66.0687 16.1901 66.2925 16.2206C67.5746 16.3936 68.0732 16.7701 68.2869 17.7367C68.5006 18.7238 68.4599 25.063 68.2157 27.0981C68.0325 28.6651 67.6967 28.9806 65.7023 29.4283C65.4683 29.4791 65.4276 29.5402 65.448 29.7946L65.4683 30.0998L68.0732 30.11C69.4978 30.1202 70.8307 30.1304 71.0241 30.1507C72.1535 30.2423 73.9749 30.2932 73.9851 30.2321C73.9851 30.1812 74.0055 30.049 74.036 29.9269C74.0767 29.6928 74.0055 29.6521 73.3644 29.5504C72.4588 29.4079 72.3062 29.3672 71.9704 29.2044C71.4718 28.9704 71.2479 28.6244 71.1564 27.963C71.0749 27.3728 71.0749 22.0308 71.1665 19.4666C71.1971 18.622 71.2174 17.7876 71.2174 17.6045C71.2276 17.289 71.2683 17.2483 71.9806 16.9227C73.5374 16.2003 75.3283 15.7424 76.6409 15.7322C78.5335 15.722 79.5307 16.648 79.9174 18.8052C80.0496 19.4971 80.07 20.2501 80.0293 22.6209C80.0089 24.2388 79.9682 25.6837 79.9377 25.8262C79.9174 25.9686 79.8665 26.3858 79.836 26.7623C79.8054 27.1388 79.724 27.6883 79.663 27.9834C79.4798 28.8483 78.8591 29.3265 77.4651 29.6928C77.0683 29.7946 77.0275 29.8353 77.0275 30.11V30.4153L77.9739 30.3339C79.1644 30.2321 83.7942 30.2321 84.6387 30.3339L85.2696 30.4153V30.11C85.2696 29.7335 85.2391 29.7234 84.2623 29.4893C82.9293 29.1637 82.9089 29.1434 82.7868 28.2683C82.7563 28.0749 82.7258 25.8058 82.7258 23.2315C82.7054 16.9329 82.5731 16.0883 81.4131 14.9283C80.5381 14.0533 79.9988 13.8803 78.1468 13.8701C76.7019 13.8701 76.6511 13.8803 75.5216 14.2669C74.8907 14.4806 73.6697 15.0199 72.8048 15.4575L71.2276 16.2511L71.2174 15.6203C71.2174 14.7248 71.136 14.0227 71.0139 13.809C70.8613 13.514 70.5255 13.575 69.6606 14.0329Z" fill="#FAFAFA"/>
<path d="M265.677 13.6868C263.368 13.9615 261.597 15.0605 260.793 16.7089C260.111 18.0927 260.223 19.3239 261.109 20.3618C261.689 21.0436 262.431 21.5116 264.477 22.5088C265.443 22.9871 266.542 23.6078 266.919 23.8927C267.641 24.4422 268.343 25.3681 268.526 26.0092C268.781 26.9453 268.516 28.0748 267.906 28.553C267.153 29.1534 265.443 29.3772 264.243 29.0211C262.859 28.6141 261.17 27.2302 260.549 25.999C260.396 25.6836 260.233 25.4088 260.193 25.4088C259.511 25.2867 259.491 25.3071 259.725 26.0906C259.806 26.3653 259.867 26.5993 259.867 26.6197C259.857 26.6299 259.918 27.0267 259.979 27.4948C260.081 28.1358 260.081 28.492 259.999 28.899C259.938 29.1941 259.928 29.4688 259.969 29.5095C260.01 29.5502 260.427 29.7028 260.895 29.8453C263.144 30.5169 265.179 30.6186 266.746 30.1302C267.885 29.7741 269.605 28.9193 270.144 28.4309C271.304 27.393 271.508 25.0832 270.582 23.4857C269.88 22.2646 268.822 21.4913 265.932 20.0769C264.232 19.2527 263.927 19.0696 263.52 18.6117C262.96 17.991 262.828 17.4618 263.011 16.5766C263.378 14.8569 265.077 14.1854 266.949 15.0299C268.119 15.5692 269.239 16.5664 269.585 17.3906C269.707 17.6857 269.778 17.7366 270.093 17.7468C270.358 17.7569 270.46 17.7162 270.46 17.6043C270.46 17.3397 269.819 14.0734 269.758 14.0124C269.727 13.9717 269.381 13.9106 268.984 13.8801C268.598 13.8496 268.069 13.7885 267.814 13.758C267.224 13.6868 266.003 13.6461 265.677 13.6868Z" fill="#FAFAFA"/>
<path d="M123.224 14.0328C122.665 14.1447 121.433 14.1753 119.398 14.1244C118.564 14.104 117.811 14.1244 117.75 14.1651C117.679 14.2058 117.628 14.3686 117.628 14.5314C117.628 14.8468 117.557 14.8163 118.686 14.9893C119.215 15.0707 119.693 15.4472 119.846 15.9051C120.111 16.6784 119.602 18.6931 118.442 21.471C117.852 22.8651 116.244 26.0703 116.04 26.2433C115.949 26.3247 115.796 26.0296 115.389 24.9917C114.188 21.9289 112.784 17.411 112.601 16.0577C112.489 15.2946 112.571 15.2539 114.738 14.8774C114.911 14.8468 114.972 14.7451 115.002 14.4704C115.023 14.277 115.023 14.104 114.992 14.0837C114.962 14.0735 114.311 14.0939 113.558 14.1346C112.805 14.1753 111.024 14.2058 109.61 14.216L107.035 14.2261L107.066 14.5009C107.086 14.7349 107.228 14.857 107.859 15.1928C108.541 15.5693 108.663 15.6812 108.948 16.2205C110.159 18.4489 113.303 26.7928 114.229 30.2219L114.514 31.3208H114.88H115.237L115.684 30.171C115.928 29.5503 117.149 26.7826 118.391 24.0454C119.632 21.298 120.823 18.6728 121.026 18.1945C121.759 16.5258 122.431 15.5693 123.285 14.9791C123.763 14.6433 123.835 14.5518 123.835 14.2567C123.835 14.0735 123.804 13.9209 123.763 13.9311C123.713 13.9412 123.479 13.9819 123.224 14.0328Z" fill="#FAFAFA"/>
<path d="M179.798 14.053C179.717 14.1242 176.053 14.2463 173.886 14.2463H171.963V14.5109C171.963 14.7449 172.065 14.8365 172.624 15.1418C172.991 15.3351 173.377 15.5793 173.489 15.7014C174.385 16.6579 178.129 26.4568 179.289 30.8933C179.401 31.3105 179.411 31.3308 179.757 31.3003L180.113 31.2698L180.805 29.5908C181.192 28.6649 182.077 26.6298 182.8 25.0628C183.512 23.4958 184.621 21.0537 185.252 19.6393C186.738 16.3425 187.236 15.559 188.244 14.9179C188.61 14.6839 188.701 14.5719 188.712 14.3176L188.722 14.0021L187.948 14.0835C187.124 14.1751 185.985 14.1853 184.58 14.1344C184.102 14.1141 183.461 14.1039 183.146 14.1141L182.566 14.1242L182.525 14.4804C182.505 14.6839 182.525 14.8365 182.596 14.8467C184.082 14.9179 184.804 15.4369 184.804 16.4544C184.804 17.6958 183.695 20.8705 182.22 23.8519C181.385 25.5207 180.897 26.355 180.805 26.2635C180.622 26.0701 179.167 22.1119 178.495 19.9751C177.865 17.9705 177.559 16.78 177.488 16.0983C177.437 15.5183 177.447 15.4572 177.671 15.3148C177.926 15.1519 178.77 14.9586 179.371 14.9179C179.554 14.9077 179.757 14.8365 179.808 14.7653C179.91 14.6534 179.9 13.9512 179.798 14.053Z" fill="#FAFAFA"/>
</svg>
