<svg width="20" height="21" viewBox="0 0 20 21" fill="none" xmlns="http://www.w3.org/2000/svg">
<path d="M8.6 15.0904L15.65 8.04036L14.25 6.64036L8.6 12.2904L5.75 9.44036L4.35 10.8404L8.6 15.0904ZM10 20.4904C8.61667 20.4904 7.31667 20.2279 6.1 19.7029C4.88333 19.1779 3.825 18.4654 2.925 17.5654C2.025 16.6654 1.3125 15.607 0.7875 14.3904C0.2625 13.1737 0 11.8737 0 10.4904C0 9.10702 0.2625 7.80702 0.7875 6.59036C1.3125 5.37369 2.025 4.31536 2.925 3.41536C3.825 2.51536 4.88333 1.80286 6.1 1.27786C7.31667 0.752856 8.61667 0.490356 10 0.490356C11.3833 0.490356 12.6833 0.752856 13.9 1.27786C15.1167 1.80286 16.175 2.51536 17.075 3.41536C17.975 4.31536 18.6875 5.37369 19.2125 6.59036C19.7375 7.80702 20 9.10702 20 10.4904C20 11.8737 19.7375 13.1737 19.2125 14.3904C18.6875 15.607 17.975 16.6654 17.075 17.5654C16.175 18.4654 15.1167 19.1779 13.9 19.7029C12.6833 20.2279 11.3833 20.4904 10 20.4904Z" fill="#6EE7B7"/>
</svg>
