<?xml version="1.0" encoding="UTF-8"?>
<svg width="701px" height="128px" viewBox="0 0 701 128" version="1.1" xmlns="http://www.w3.org/2000/svg" xmlns:xlink="http://www.w3.org/1999/xlink">
    <title>mobiloud logo-02</title>
    <defs>
        <rect id="path-1" x="0" y="0" width="700.402466" height="127.204765"></rect>
        <linearGradient x1="-1.11022302e-14%" y1="50%" x2="100%" y2="50%" id="linearGradient-3">
            <stop stop-color="#42DDB1" offset="0%"></stop>
            <stop stop-color="#1B9D79" offset="100%"></stop>
        </linearGradient>
    </defs>
    <g id="✅-Jan-10" stroke="none" stroke-width="1" fill="none" fill-rule="evenodd" opacity="0.99">
        <g id="Logo-1" transform="translate(-212, -339)">
            <g id="mobiloud-logo-02" transform="translate(212, 339)">
                <mask id="mask-2" fill="white">
                    <use xlink:href="#path-1"></use>
                </mask>
                <g id="Clip" fill-rule="nonzero"></g>
                <g id="Group" mask="url(#mask-2)">
                    <g transform="translate(165.3185, 21.2047)" id="MobiLoud-Logo-White_6_" fill="#FFFFFF">
                        <path d="M7.26084006,10.4943706 C7.3308803,9.88735515 7.5643485,9.36205182 7.97291658,8.92430026 C8.38148467,8.48654869 8.95347503,8.26475171 9.70057095,8.26475171 L27.2748448,8.26475171 C28.5297325,8.26475171 29.3410277,8.906798 29.7145757,10.1908693 L43.5300216,56.2189788 L57.4446813,10.1908693 C57.917453,8.906798 58.781284,8.26475171 60.0361718,8.26475171 L77.4061402,8.26475171 C78.0131556,8.26475171 78.5676509,8.47487032 79.0579326,8.90094852 C79.5482143,9.32119004 79.8283767,9.85817738 79.8984169,10.500213 C81.0832644,22.3953818 82.2914594,34.1971669 83.528837,45.9055619 C84.7662145,57.6139568 85.9744096,69.415742 87.159257,81.3109107 L87.159257,81.561884 C87.159257,82.8809754 86.4121511,83.5405118 84.9237959,83.5405118 L70.5422084,83.5405118 C68.9838129,83.5405118 68.1725177,82.799266 68.1024775,81.3109107 L63.6841012,42.1292243 L52.255858,81.5677086 C52.1858178,81.9062364 51.9406891,82.3089779 51.5204476,82.7817496 C51.1002061,83.2545212 50.6799618,83.4938262 50.2772304,83.4938262 L36.9228877,83.4938262 C36.5143196,83.4938262 36.082404,83.2661875 35.6271425,82.8109259 C35.1718809,82.3556643 34.9267343,81.9412566 34.8917142,81.5677086 L23.4634889,42.228438 L19.0451125,81.3109107 C18.9750723,82.799266 18.1462571,83.5405118 16.5586782,83.5405118 L2.18293305,83.5405118 C0.729597982,83.5405118 0,82.799266 0,81.3109107 L7.26084006,10.4943706 Z M90.9297696,51.4037116 C90.9297696,48.2927571 91.3266515,45.304376 92.120441,42.4327256 C92.9142304,39.5610753 94.0348686,36.89955 95.4706936,34.4481413 C96.9123553,31.9967327 98.6341808,29.7671229 100.653675,27.7593024 C102.667332,25.7456452 104.908601,24.0354915 107.383356,22.6113397 C109.852275,21.1930246 112.519648,20.0957309 115.379624,19.3136148 C118.239601,18.5373353 121.228012,18.1462773 124.344803,18.1462773 C128.949949,18.1462773 133.274923,18.9984244 137.319747,20.7085739 C141.364571,22.4128867 144.889915,24.765076 147.884136,27.75346 C150.878356,30.741844 153.248047,34.2613653 154.993216,38.2945163 C156.738386,42.3335041 157.608076,46.6993534 157.608076,51.397887 C157.608076,54.5088414 157.211159,57.491381 156.417369,60.3455212 C155.62358,63.1996613 154.502942,65.8611866 153.067117,68.3301055 C151.625455,70.7990243 149.903629,73.0344813 147.884136,75.0481385 C145.870479,77.0617958 143.629209,78.78361 141.154454,80.2194352 C138.685536,81.6552603 136.035682,82.7642323 133.204889,83.5405118 C130.379933,84.3167913 127.420737,84.7078493 124.344803,84.7078493 C121.228012,84.7078493 118.239601,84.3167913 115.379624,83.5405118 C112.519648,82.7642323 109.852275,81.6552603 107.383356,80.2194352 C104.914437,78.78361 102.667332,77.0617958 100.653675,75.0481385 C98.6400175,73.0344813 96.9123553,70.7990243 95.4706936,68.3301055 C94.0290319,65.8611866 92.9142304,63.1996613 92.120441,60.3455212 C91.3266515,57.4972176 90.9297696,54.514666 90.9297696,51.4037116 Z M109.467058,51.4037116 C109.467058,53.6333262 109.811439,55.7228668 110.506005,57.6664837 C111.200571,59.6101006 112.181127,61.2910574 113.453525,62.7093725 C114.725923,64.1276876 116.260961,65.2541676 118.076171,66.0829772 C119.885544,66.9117868 121.928414,67.3261945 124.198886,67.3261945 C126.399317,67.3261945 128.38961,66.9117868 130.163963,66.0829772 C131.944152,65.2541676 133.450012,64.1335243 134.681553,62.7093725 C135.91893,61.2910574 136.864471,59.6101006 137.524016,57.6664837 C138.183562,55.7228668 138.51626,53.6391629 138.51626,51.4037116 C138.51626,49.2383005 138.183562,47.1779462 137.524016,45.2168192 C136.864471,43.2556922 135.913094,41.5338779 134.681553,40.0455226 C133.444175,38.5571673 131.938315,37.3839881 130.163963,36.5201583 C128.383773,35.6563285 126.399317,35.2302553 124.198886,35.2302553 C121.928414,35.2302553 119.891381,35.6621652 118.076171,36.5201583 C116.266798,37.3839881 114.725923,38.5571673 113.453525,40.0455226 C112.181127,41.5338779 111.200571,43.2556922 110.506005,45.2168192 C109.811439,47.1779462 109.467058,49.2441371 109.467058,51.4037116 Z M183.33036,75.4041679 C183.026852,76.0462036 182.77004,80.8439629 182.565756,81.3342446 C182.361472,81.8245264 182.133815,82.2272678 181.882838,82.5482856 C181.626023,82.8693034 181.316687,83.1144322 180.943139,83.2836961 C180.569592,83.4529601 180.061808,83.5346872 179.419773,83.5346872 L169.363137,83.5346872 C166.654914,83.5346872 165.300825,82.2331045 165.300825,79.6299418 L165.300825,3.9047454 C165.300825,3.33275001 165.411727,2.80744671 165.633521,2.33467502 C165.855315,1.86190333 166.141301,1.45334303 166.497339,1.12065185 C166.853377,0.787960661 167.261961,0.519469463 167.717222,0.332695466 C168.172484,0.145921468 168.621907,0.0525458627 169.065496,0.0525458627 L180.592953,0.0525458627 C181.877024,0.0525458627 182.89259,0.426078203 183.639686,1.16733751 C184.386782,1.90859682 184.754513,2.82495819 184.754513,3.9047454 L184.754513,25.8098331 C185.700057,24.7942494 190.060037,21.9226141 191.332435,21.0646211 C192.604833,20.206628 193.999797,19.5003852 195.523172,18.96341 C197.046547,18.420598 198.739194,18.1521019 200.601097,18.1521019 C205.206243,18.1521019 209.449507,19.0042667 213.325068,20.7144162 C217.200628,22.4245657 220.539221,24.7709184 223.329158,27.7593024 C226.124931,30.7476864 228.30787,34.2672077 229.877939,38.3003587 C231.453845,42.3393465 232.24179,46.705178 232.24179,51.4037116 C232.24179,56.0672248 231.453845,60.4272328 229.877939,64.4837305 C228.302033,68.5402282 226.119094,72.0597602 223.329158,75.0539809 C220.533385,78.0423649 217.200628,80.4003839 213.325068,82.1280434 C209.449507,83.8498663 205.206243,84.7136917 200.601097,84.7136917 C198.873438,84.7136917 197.250853,84.4160271 195.727478,83.8265216 C194.204102,83.2370162 192.779952,82.4840742 191.460861,81.573551 C190.14177,80.6630277 188.921891,79.6824592 187.801247,78.6318554 C186.68644,77.5870884 185.670873,76.6065377 184.754513,75.6901777 L183.33036,75.4041679 Z M213.95544,51.4037116 C213.95544,49.2383005 213.611094,47.1779462 212.916528,45.2168192 C212.221962,43.2556922 211.22971,41.5338779 209.945639,40.0455226 C208.661567,38.5571673 207.120692,37.3839881 205.322993,36.5201583 C203.53113,35.6563285 201.511614,35.2302553 199.282,35.2302553 C197.052386,35.2302553 194.957015,35.6621652 193.007562,36.5201583 C191.058108,37.3839881 189.377158,38.5571673 187.953006,40.0455226 C186.528855,41.5338779 185.402351,43.2556922 184.573542,45.2168192 C183.744732,47.1779462 183.33036,49.2383005 183.33036,51.4037116 L183.33036,52.1157882 C183.429584,54.2461792 183.914017,56.2364895 184.777847,58.0983929 C185.641677,59.9544596 186.785665,61.571227 188.20398,62.9370119 C189.628131,64.3027967 191.285732,65.3767529 193.182655,66.1530324 C195.079578,66.9293119 197.110747,67.3203699 199.276158,67.3203699 C201.511609,67.3203699 203.525287,66.9059622 205.31715,66.0771526 C207.109013,65.248343 208.649888,64.1276997 209.939796,62.7035479 C211.229704,61.2793961 212.21612,59.6042582 212.910686,57.6606413 C213.611088,55.7228611 213.95544,53.6333262 213.95544,51.4037116 Z M240.027911,29.1425945 C240.027911,28.0628073 240.331423,27.128938 240.944275,26.3526586 C241.55129,25.5763791 242.502667,25.185321 243.786738,25.185321 L255.419251,25.185321 C255.827819,25.185321 256.265577,25.2786967 256.738348,25.4654706 C257.21112,25.6522446 257.654714,25.9207408 258.057445,26.2767788 C258.466013,26.6328167 258.810395,27.0472244 259.096393,27.5199961 C259.38239,27.9927678 259.528302,28.535579 259.528302,29.1425945 L259.528302,79.6416088 C259.528302,80.9256801 259.172254,81.8945645 258.460178,82.5541102 C257.748102,83.2136559 256.732536,83.5405118 255.413445,83.5405118 L243.780896,83.5405118 C241.276957,83.5405118 240.022068,82.2389291 240.022068,79.6357664 L240.022068,29.1425945 L240.027911,29.1425945 Z M240.027911,4.49425654 C240.027911,3.07594143 240.331423,2.07202336 240.944275,1.47668124 C241.55129,0.887175801 242.502667,0.589511143 243.786738,0.589511143 L255.571011,0.589511143 C256.755858,0.589511143 257.713101,0.887175801 258.442687,1.47668124 C259.172273,2.06618668 259.534144,3.07594143 259.534144,4.49425654 L259.534144,14.3816067 C259.534144,14.7843381 259.440733,15.2279321 259.253959,15.7007038 C259.067185,16.1734755 258.804548,16.628735 258.466021,17.0664865 C258.127493,17.5042381 257.713085,17.8719465 257.222803,18.1579442 C256.732522,18.4439419 256.183863,18.5898534 255.571011,18.5898534 L243.786738,18.5898534 C241.2828,18.5898534 240.027911,17.1890534 240.027911,14.3816067 L240.027911,4.49425654 Z M269.608236,2.59733309 C269.608236,1.9903176 269.812543,1.46501428 270.215274,1.02726271 C270.623842,0.589511143 271.178325,0.367714166 271.890401,0.367714166 L286.925712,0.367714166 C287.503544,0.367714166 288.028853,0.572003219 288.501625,0.974734659 C288.974396,1.3774661 289.231209,1.92027735 289.266229,2.59733309 L289.266229,65.59854 L317.200605,65.59854 C317.80762,65.59854 318.332929,65.802829 318.776517,66.2055605 C319.214269,66.6082919 319.436066,67.168611 319.436066,67.8806869 L319.436066,81.2116792 C319.436066,81.7836746 319.243455,82.3089779 318.852397,82.7817496 C318.461339,83.2545212 317.912681,83.5054917 317.200605,83.5405118 L271.84954,83.5405118 C270.361184,83.5405118 269.614078,82.799266 269.614078,81.3109107 L269.614078,2.59733309 L269.608236,2.59733309 Z M324.782455,51.4037116 C324.782455,48.2927571 325.179337,45.304376 325.973127,42.4327256 C326.766916,39.5610753 327.887554,36.89955 329.323379,34.4481413 C330.765041,31.9967327 332.486867,29.7671229 334.50636,27.7593024 C336.520017,25.7456452 338.761322,24.0354915 341.236078,22.6113397 C343.704996,21.1930246 346.372369,20.0957309 349.232346,19.3136148 C352.092323,18.5373353 355.080698,18.1462773 358.197489,18.1462773 C362.802634,18.1462773 367.127608,18.9984244 371.172432,20.7085739 C375.217256,22.4128867 378.742637,24.765076 381.736857,27.75346 C384.731078,30.741844 387.100733,34.2613653 388.845902,38.2945163 C390.591071,42.3335041 391.460798,46.6993534 391.460798,51.397887 C391.460798,54.5088414 391.06388,57.491381 390.270091,60.3455212 C389.476301,63.1996613 388.355663,65.8611866 386.919838,68.3301055 C385.478176,70.7990243 383.756351,73.0344813 381.736857,75.0481385 C379.7232,77.0617958 377.481895,78.78361 375.00714,80.2194352 C372.538221,81.6552603 369.888368,82.7642323 367.057575,83.5405118 C364.232619,84.3167913 361.273423,84.7078493 358.197489,84.7078493 C355.080698,84.7078493 352.092323,84.3167913 349.232346,83.5405118 C346.372369,82.7642323 343.704996,81.6552603 341.236078,80.2194352 C338.767159,78.78361 336.520017,77.0617958 334.50636,75.0481385 C332.492703,73.0344813 330.765041,70.7990243 329.323379,68.3301055 C327.881718,65.8611866 326.766916,63.1996613 325.973127,60.3455212 C325.179337,57.4972176 324.782455,54.514666 324.782455,51.4037116 Z M343.319779,51.4037116 C343.319779,53.6333262 343.664125,55.7228668 344.358691,57.6664837 C345.053257,59.6101006 346.033848,61.2910574 347.306246,62.7093725 C348.578644,64.1276876 350.113683,65.2541676 351.928892,66.0829772 C353.738265,66.9117868 355.7811,67.3261945 358.051571,67.3261945 C360.252002,67.3261945 362.242296,66.9117868 364.016648,66.0829772 C365.796838,65.2541676 367.302733,64.1335243 368.534274,62.7093725 C369.765815,61.2852207 370.717192,59.6101006 371.376738,57.6664837 C372.036283,55.7228668 372.368946,53.6391629 372.368946,51.4037116 C372.368946,49.2383005 372.036283,47.1779462 371.376738,45.2168192 C370.717192,43.2556922 369.765815,41.5338779 368.534274,40.0455226 C367.296896,38.5571673 365.791001,37.3839881 364.016648,36.5201583 C362.236459,35.6563285 360.252002,35.2302553 358.051571,35.2302553 C355.7811,35.2302553 353.744102,35.6621652 351.928892,36.5201583 C350.119519,37.3839881 348.578644,38.5571673 347.306246,40.0455226 C346.033848,41.5338779 345.053257,43.2556922 344.358691,45.2168192 C343.664125,47.1779462 343.319779,49.2441371 343.319779,51.4037116 Z M459.037906,82.682518 C458.600154,83.056066 458.133211,83.2895342 457.642929,83.3945946 C457.152647,83.4938183 456.685775,83.5463542 456.248023,83.5463542 L448.578608,83.5463542 C447.971593,83.5463542 447.446248,83.4354586 447.00266,83.2195011 C446.564908,82.997707 446.191412,82.705879 445.887904,82.332331 C445.584396,81.958783 445.327548,81.5385337 445.123264,81.065762 C444.91898,80.5929903 444.749719,80.102715 444.615475,79.5949231 L443.039598,73.1045116 C442.531806,74.1492787 441.796361,75.3458146 440.827471,76.6765794 C439.858581,78.0073441 438.632842,79.2622277 437.144487,80.4295652 C435.656132,81.5969027 433.876005,82.5774712 431.809818,83.3712607 C429.743631,84.1650502 427.373904,84.5619321 424.700702,84.5619321 C420.842651,84.5619321 417.334797,83.8206863 414.188823,82.332331 C411.037012,80.8439757 408.35795,78.8186373 406.140009,76.2504948 C403.922067,73.6823522 402.206107,70.6822871 400.98624,67.2503147 C399.766372,63.8183424 399.159354,60.1645831 399.159354,56.2773492 L399.159354,23.0724252 C399.159354,21.7883539 399.439552,20.8194695 399.999874,20.1599238 C400.560196,19.5003781 401.447341,19.1735222 402.667208,19.1735222 L414.398935,19.1735222 C415.85227,19.1735222 416.856183,19.4186688 417.393158,19.9089505 C417.93597,20.3992322 418.204466,21.3564511 418.204466,22.7747662 L418.204466,55.7754027 C418.204466,57.2287379 418.537129,58.6061883 419.196674,59.9077696 C419.85622,61.2093509 420.725946,62.3591805 421.81157,63.3572541 C422.897194,64.3553277 424.122861,65.1374488 425.494483,65.7152808 C426.866104,66.2872762 428.261104,66.5790992 429.685255,66.5790992 C430.905123,66.5790992 432.165836,66.2931129 433.467417,65.7152808 C434.768998,65.1432855 435.971316,64.3728356 437.07445,63.4097821 C438.177583,62.4467287 439.08229,61.314407 439.794366,60.0128257 C440.506442,58.7112444 440.862454,57.333794 440.862454,55.8804588 L440.862454,22.9323504 C440.862454,22.360355 440.973391,21.7825336 441.195185,21.2105382 C441.416979,20.6385429 441.743805,20.1949489 442.187393,19.8914412 C442.625145,19.6229535 443.039552,19.4361845 443.43061,19.3311241 C443.821668,19.2319005 444.271127,19.1793646 444.778919,19.1793646 L456.259637,19.1793646 C457.712972,19.1793646 458.76359,19.5354068 459.411462,20.241646 C460.053498,20.9537219 460.37453,21.8992567 460.37453,23.0782676 L460.37453,79.799193 C460.37453,80.4412286 460.228618,81.030739 459.942621,81.573551 C459.656623,82.1163629 459.259705,82.5366123 458.751914,82.84012 L459.037906,82.682518 Z M515.583732,75.6843354 C514.667372,76.5948586 513.663502,77.5754271 512.560368,78.6260309 C511.457234,79.6707979 510.248986,80.6513486 508.929895,81.5677086 C507.610804,82.4782318 506.186689,83.2311738 504.663314,83.8206792 C503.139938,84.4101847 501.499792,84.7078493 499.737113,84.7078493 C495.131967,84.7078493 490.888738,83.8440239 487.013178,82.122201 C483.137618,80.4003782 479.799024,78.0423593 477.009088,75.0481385 C474.219151,72.0539178 472.030411,68.5343859 470.460342,64.4778881 C468.890273,60.4213904 468.096455,56.0614002 468.096455,51.397887 C468.096455,46.6993534 468.884437,42.3335041 470.460342,38.2945163 C472.036248,34.2555285 474.219151,30.741844 477.009088,27.75346 C479.804861,24.765076 483.137618,22.4128867 487.013178,20.7085739 C490.888738,19.004261 495.131967,18.1462773 499.737113,18.1462773 C501.599016,18.1462773 503.303328,18.4147556 504.844214,18.9575676 C506.385099,19.5003795 507.791795,20.1891072 509.058356,21.0354269 C510.330754,21.8817467 511.498091,22.8331288 512.560368,23.9012427 C513.628482,24.9635198 514.632352,26.002448 515.583732,27.0180317 L515.583732,3.85221735 C515.583732,2.77243014 515.916466,1.85606877 516.576012,1.11480946 C517.235557,0.373550152 518.227774,0 519.546865,0 L530.975073,0 C531.412825,0 531.879768,0.0933934174 532.37005,0.280167415 C532.860331,0.466941413 533.309791,0.729595929 533.718359,1.0681238 C534.126927,1.40665167 534.453753,1.80937528 534.710567,2.28214697 C534.967381,2.75491866 535.089966,3.28022196 535.089966,3.85221735 L535.089966,79.6357664 C535.089966,82.2389291 533.718316,83.5405118 530.975073,83.5405118 L521.017722,83.5405118 C520.340666,83.5405118 519.815322,83.4588025 519.441774,83.2895385 C519.068226,83.1202746 518.75889,82.875128 518.502076,82.5541102 C518.245261,82.2330924 518.017676,81.8303688 517.819229,81.340087 C517.614945,80.8498053 517.363933,80.2836444 517.054589,79.6416088 L515.583732,75.6843354 Z M486.376999,51.4037116 C486.376999,53.6333262 486.721309,55.7228668 487.415875,57.6664837 C488.110441,59.6101006 489.102729,61.2910574 490.3868,62.7093725 C491.670871,64.1276876 493.223407,65.2541676 495.03278,66.0829772 C496.842153,66.9117868 498.849936,67.3261945 501.050367,67.3261945 C503.215778,67.3261945 505.258684,66.9351365 507.173118,66.158857 C509.087551,65.3825775 510.750975,64.3086391 512.175127,62.9428543 C513.599279,61.5770694 514.73743,59.960302 515.601259,58.1042353 C516.465089,56.2481686 516.949523,54.2520216 517.048746,52.1216305 L517.048746,51.409554 C517.048746,49.2441428 516.640198,47.1837885 515.828899,45.2226616 C515.017599,43.2615346 513.891096,41.5397203 512.449434,40.051365 C511.007772,38.5630097 509.315162,37.3898305 507.371545,36.5260007 C505.422092,35.6621709 503.315002,35.2360977 501.050367,35.2360977 C498.849936,35.2360977 496.842153,35.6680076 495.03278,36.5260007 C493.223407,37.3898305 491.670871,38.5630097 490.3868,40.051365 C489.102729,41.5397203 488.110441,43.2615346 487.415875,45.2226616 C486.721309,47.1837885 486.376999,49.2441371 486.376999,51.4037116 Z" id="Vector"></path>
                    </g>
                </g>
                <g id="Vector" mask="url(#mask-2)" fill-rule="nonzero">
                    <g transform="translate(9.8187, 11.5818)">
                        <path d="M103.837928,20.2177806 C103.837928,19.2655515 103.842842,18.2985972 103.695587,17.3610933 C102.046366,6.94547414 94.0653153,0.0540836538 83.4926271,0.0344500641 C62.4208768,-0.00481711537 41.3589396,-0.0195423115 20.2920992,0.0393584576 C8.51685442,0.0688088422 0,8.75667304 0,20.5466437 C0,31.0162557 0,41.4809572 0,51.9505692 C0,62.5919748 -0.00412305389,73.2333837 0.0106021379,83.8747894 C0.0106021379,84.9546368 0.0400525158,86.0541181 0.22657162,87.1192404 C1.95923592,97.122554 9.9746484,103.905958 20.22829,103.925592 C41.3785736,103.969767 62.5337697,103.979579 83.6840534,103.920678 C95.2875045,103.886319 103.842842,95.154285 103.842842,83.545925 C103.842842,62.4349087 103.842842,41.328797 103.837928,20.2177806 Z" fill="#FFFFFF"></path>
                        <path d="M43.8475011,71.0736858 C42.7823788,72.9977777 40.7895691,74.0874426 38.7329506,74.0874426 C37.7758131,74.0874426 36.8039512,73.8518346 35.9106228,73.3560864 C33.0882944,71.795216 32.0673467,68.2366332 33.6282171,65.4143047 M33.5840406,38.5653698 C32.0133534,35.7479498 33.0195754,32.1893616 35.8369953,30.6186743 C38.6544152,29.047987 42.2130008,30.0542091 43.783688,32.8716291 M63.7805014,79.432685 C62.6957456,81.3027844 60.7372931,82.348277 58.7199418,82.348277 C57.7284456,82.348277 56.7173169,82.0930395 55.7994466,81.5629325 C53.0065686,79.9480697 52.0543418,76.3698471 53.6741129,73.5818775 M53.1440001,30.5106925 C51.4604198,27.7570814 52.3243017,24.1641328 55.0730042,22.475644 C57.8266153,20.7920636 61.4195637,21.655943 63.1080525,24.4046456" fill="none"></path>
                    </g>
                </g>
                <rect id="Rectangle" fill="#FFFFFF" mask="url(#mask-2)" x="25" y="20" width="73" height="87"></rect>
                <path d="M123.474675,25.7922841 C123.474675,24.6599668 123.480508,23.5101396 123.305406,22.3953324 C121.344279,10.0098827 111.853833,1.81517363 99.2816079,1.79182688 C74.2247097,1.74513338 49.1794784,1.72762332 24.128418,1.79766356 C10.1262056,1.83268368 -0.00137980806,12.1636206 -0.00137980806,26.1833433 C-0.00137980806,38.6329969 -0.00137980806,51.0768092 -0.00137980806,63.5264628 C-0.00137980806,76.1804007 -0.00628262567,88.834343 0.0112274355,101.488281 C0.0112274355,102.772352 0.0462475654,104.07977 0.268041676,105.346331 C2.32839224,117.241499 11.8597013,125.307796 24.0525405,125.331143 C49.2028256,125.383673 74.3589532,125.395349 99.5092384,125.325309 C113.307167,125.284452 123.480508,114.900989 123.480508,101.097224 C123.480508,75.9936336 123.480508,50.8958745 123.474675,25.7922841 Z M52.138683,86.2661998 C50.8721219,88.5541812 48.502428,89.8499254 46.0568561,89.8499254 C44.918702,89.8499254 43.763038,89.5697612 42.7007609,88.9802558 C39.3446658,87.1241892 38.1306339,82.8925954 39.9867005,79.5365003 C42.66574,74.6978867 44.0840529,69.1938883 44.0840529,63.619852 C44.0840529,58.0107958 42.6482276,52.4717793 39.934168,47.609819 C38.0664281,44.2595607 39.2629514,40.0279632 42.6132097,38.1602233 C45.963468,36.2924834 50.1950633,37.4890045 52.0628032,40.8392628 C55.9266901,47.7674104 57.9695323,55.6411006 57.9695323,63.619852 C57.9695323,71.5402362 55.9500399,79.3730721 52.138683,86.2661998 Z M75.84147,96.2060773 C74.5515622,98.4298551 72.222721,99.6730709 69.8238425,99.6730709 C68.6448317,99.6730709 67.4424759,99.3695596 66.3510154,98.7391974 C63.0299404,96.8189273 61.8976221,92.5639855 63.8237288,89.2487473 C68.2187544,81.661054 70.541757,72.9935729 70.541757,64.168502 C70.541757,54.9115164 68.0027956,45.8763272 63.1933655,38.03182 C61.1913818,34.7574384 62.218639,30.4849819 65.4871838,28.4771615 C68.7615654,26.4751778 73.0340263,27.502435 75.0418468,30.7709797 C81.1878782,40.7984084 84.4330743,52.3492106 84.4330743,64.168502 C84.4330743,75.427472 81.4621999,86.5113396 75.84147,96.2060773 Z" id="Vector" fill="url(#linearGradient-3)" fill-rule="nonzero" mask="url(#mask-2)"></path>
            </g>
        </g>
    </g>
</svg>