<?xml version="1.0" encoding="UTF-8"?>
<svg width="156px" height="156px" viewBox="0 0 156 156" version="1.1" xmlns="http://www.w3.org/2000/svg" xmlns:xlink="http://www.w3.org/1999/xlink">
    <title>Group 3</title>
    <defs>
        <linearGradient x1="-1.11022302e-14%" y1="50%" x2="100%" y2="50%" id="linearGradient-1">
            <stop stop-color="#42DDB1" offset="0%"></stop>
            <stop stop-color="#1B9D79" offset="100%"></stop>
        </linearGradient>
    </defs>
    <g id="✅-Jan-10" stroke="none" stroke-width="1" fill="none" fill-rule="evenodd" opacity="0.99">
        <g id="Logo-4" transform="translate(-520, -396)">
            <g id="clear-space-logo" transform="translate(400, 276)">
                <g id="Group-2" transform="translate(120, 118)">
                    <g id="Group-3" transform="translate(-0.0026, 2.2025)">
                        <rect id="Rectangle" fill="#FFFFFF" x="37.0025991" y="24.7974443" width="77" height="107"></rect>
                        <path d="M155.310748,30.239644 C155.310748,28.8153991 155.318086,27.3691301 155.09784,25.9669097 C152.631106,10.3883146 140.693887,0.0808926793 124.880362,0.0515268068 C93.3634356,-0.00720493803 61.8611841,-0.0292293492 30.3516008,0.0588682681 C12.739417,0.102917077 0.000794674352,13.0973167 0.000794674352,30.7315239 C0.000794674352,46.3908756 0.000794674352,62.0428802 0.000794674352,77.7022319 C0.000794674352,93.6185354 -0.00537216002,109.534844 0.0166522463,125.451148 C0.0166522463,127.066271 0.0607010685,128.71076 0.339676885,130.303859 C2.9312154,145.265771 14.9198328,155.411673 30.2561609,155.441039 C61.8905507,155.507112 93.5322891,155.521799 125.166679,155.433702 C142.521911,155.382311 155.318086,142.321843 155.318086,124.959271 C155.318086,93.383617 155.318086,61.8152978 155.310748,30.239644 Z M65.5833143,106.304597 C63.9902154,109.182453 61.0095805,110.812258 57.933505,110.812258 C56.5019185,110.812258 55.0483077,110.459864 53.7121603,109.718376 C49.4908157,107.383789 47.963789,102.061229 50.2983762,97.8398852 C53.6681105,91.753808 55.4520849,84.8308004 55.4520849,77.8196981 C55.4520849,70.7645473 53.6460831,63.7974934 50.2323,57.6820504 C47.8830299,53.4680478 49.3880342,48.1454842 53.6020372,45.7962143 C57.8160402,43.4469444 63.1386015,44.9519457 65.4878716,49.1659483 C70.3479239,57.8802711 72.9174402,67.7839109 72.9174402,77.8196981 C72.9174402,87.7820703 70.3772936,97.6343229 65.5833143,106.304597 Z M95.3970201,118.807117 C93.7745554,121.604216 90.8453056,123.167951 87.8279618,123.167951 C86.3449851,123.167951 84.8326447,122.78619 83.45979,121.993311 C79.2824941,119.577968 77.8582479,114.226042 80.2809326,110.056088 C85.8090589,100.512179 88.7309649,89.6100979 88.7309649,78.5097979 C88.7309649,66.8662295 85.5374229,55.5016397 79.4880526,45.6347067 C76.9699287,41.5161429 78.2620276,36.1421862 82.3732501,33.6167211 C86.4918143,31.0985974 91.865777,32.3906962 94.3912424,36.5019184 C102.121809,49.1145611 106.203663,63.6433247 106.203663,78.5097979 C106.203663,92.6714909 102.466855,106.612938 95.3970201,118.807117 Z" id="Vector" fill="url(#linearGradient-1)" fill-rule="nonzero" opacity="0.99"></path>
                    </g>
                </g>
            </g>
        </g>
    </g>
</svg>