<svg width="155" height="26" viewBox="0 0 155 26" fill="none" xmlns="http://www.w3.org/2000/svg">
<path fill-rule="evenodd" clip-rule="evenodd" d="M2.60522 3.79219C2.62474 3.61696 2.69306 3.46607 2.81018 3.33952C2.9273 3.21297 3.09323 3.14969 3.30795 3.14969H8.37347C8.7346 3.14969 8.96884 3.33465 9.0762 3.70457L13.0583 16.9634L17.0698 3.70457C17.2064 3.33465 17.4553 3.14969 17.8164 3.14969H22.8234C22.9991 3.14969 23.1577 3.21053 23.2992 3.33222C23.4407 3.4539 23.5212 3.60723 23.5408 3.79219C23.8824 7.21886 24.2313 10.6187 24.5875 13.9918C24.9438 17.365 25.2927 20.7648 25.6343 24.1915V24.2645C25.6343 24.6441 25.4196 24.834 24.9901 24.834H20.847C20.398 24.834 20.1637 24.6198 20.1442 24.1915L18.8705 12.904L15.5765 24.2645C15.5569 24.3618 15.4862 24.4786 15.3642 24.6149C15.2422 24.7512 15.1226 24.8194 15.0055 24.8194H11.1551C11.038 24.8194 10.9136 24.7537 10.7818 24.6222C10.65 24.4908 10.5793 24.3716 10.5695 24.2645L7.27545 12.9332L6.00175 24.1915C5.98223 24.6198 5.74311 24.834 5.28438 24.834H1.1412C0.721507 24.834 0.511665 24.6198 0.511665 24.1915L2.60522 3.79219ZM26.7233 15.5762C26.7233 14.6806 26.8379 13.819 27.0673 12.9916C27.2967 12.1641 27.6188 11.3975 28.0336 10.6917C28.4484 9.98595 28.9461 9.34346 29.5269 8.76424C30.1076 8.18501 30.7542 7.69098 31.4667 7.28211C32.1792 6.87325 32.9478 6.55687 33.7725 6.33297C34.5973 6.10907 35.4586 5.99712 36.3565 5.99712C37.6839 5.99712 38.9308 6.24292 40.0971 6.73453C41.2635 7.22614 42.2785 7.9027 43.1423 8.76424C44.0061 9.62577 44.6893 10.6382 45.1919 11.8015C45.6946 12.9648 45.9459 14.223 45.9459 15.5762C45.9459 16.4718 45.8312 17.3309 45.6018 18.1535C45.3725 18.9761 45.0504 19.7427 44.6356 20.4533C44.2208 21.1639 43.723 21.8089 43.1423 22.3881C42.5616 22.9673 41.915 23.4638 41.2025 23.8775C40.49 24.2913 39.7262 24.6101 38.9113 24.834C38.0963 25.0579 37.2447 25.1698 36.3565 25.1698C35.4586 25.1698 34.5973 25.0579 33.7725 24.834C32.9478 24.6101 32.1792 24.2913 31.4667 23.8775C30.7542 23.4638 30.1076 22.9673 29.5269 22.3881C28.9461 21.8089 28.4484 21.1639 28.0336 20.4533C27.6188 19.7427 27.2967 18.9761 27.0673 18.1535C26.8379 17.3309 26.7233 16.4718 26.7233 15.5762ZM32.067 15.5762C32.067 16.2187 32.167 16.8198 32.3671 17.3795C32.5672 17.9393 32.8502 18.4236 33.2162 18.8325C33.5822 19.2413 34.0263 19.565 34.5485 19.8035C35.0706 20.042 35.6587 20.1613 36.3126 20.1613C36.947 20.1613 37.5204 20.042 38.0328 19.8035C38.5453 19.565 38.9796 19.2413 39.3358 18.8325C39.6921 18.4236 39.9654 17.9393 40.1557 17.3795C40.346 16.8198 40.4412 16.2187 40.4412 15.5762C40.4412 14.9531 40.346 14.3593 40.1557 13.7947C39.9654 13.2301 39.6921 12.7336 39.3358 12.3053C38.9796 11.8769 38.5453 11.5387 38.0328 11.2904C37.5204 11.0422 36.947 10.9181 36.3126 10.9181C35.6587 10.9181 35.0706 11.0422 34.5485 11.2904C34.0263 11.5387 33.5822 11.8769 33.2162 12.3053C32.8502 12.7336 32.5672 13.2301 32.3671 13.7947C32.167 14.3593 32.067 14.9531 32.067 15.5762ZM53.3594 22.4904C53.2716 22.6754 53.1984 24.0576 53.1398 24.1988C53.0813 24.3399 53.0154 24.4567 52.9422 24.5492C52.869 24.6417 52.7787 24.7123 52.6713 24.761C52.564 24.8096 52.4176 24.834 52.2321 24.834H49.3334C48.5526 24.834 48.1622 24.4592 48.1622 23.7096V1.8939C48.1622 1.72841 48.1939 1.57752 48.2573 1.44123C48.3208 1.30494 48.4037 1.18813 48.5062 1.09078C48.6087 0.993431 48.7258 0.917987 48.8576 0.864446C48.9893 0.810904 49.1186 0.784133 49.2455 0.784133H52.5689C52.9398 0.784133 53.2326 0.891215 53.4473 1.10538C53.662 1.31955 53.7694 1.58239 53.7694 1.8939V8.20417C54.0426 7.91213 55.2993 7.08499 55.6653 6.83675C56.0313 6.58851 56.4339 6.38651 56.8731 6.23076C57.3123 6.075 57.8003 5.99712 58.3371 5.99712C59.6645 5.99712 60.887 6.24292 62.0045 6.73453C63.122 7.22614 64.0834 7.9027 64.8886 8.76424C65.6938 9.62577 66.3234 10.6382 66.7772 11.8015C67.2311 12.9648 67.458 14.223 67.458 15.5762C67.458 16.9196 67.2311 18.1754 66.7772 19.3435C66.3234 20.5117 65.6938 21.5266 64.8886 22.3881C64.0834 23.2496 63.122 23.9286 62.0045 24.4251C60.887 24.9216 59.6645 25.1698 58.3371 25.1698C57.8393 25.1698 57.3709 25.0846 56.9317 24.9143C56.4924 24.7439 56.0825 24.5273 55.7019 24.2645C55.3212 24.0016 54.9699 23.7193 54.6478 23.4176C54.3257 23.1158 54.0329 22.8335 53.7694 22.5706L53.3594 22.4904ZM62.1875 15.5762C62.1875 14.9531 62.0875 14.3593 61.8874 13.7947C61.6873 13.2301 61.4018 12.7336 61.0309 12.3053C60.66 11.8769 60.2159 11.5387 59.6987 11.2904C59.1814 11.0422 58.6006 10.9181 57.9565 10.9181C57.3123 10.9181 56.7096 11.0422 56.1484 11.2904C55.5872 11.5387 55.1016 11.8769 54.6917 12.3053C54.2818 12.7336 53.9572 13.2301 53.7181 13.7947C53.479 14.3593 53.3594 14.9531 53.3594 15.5762V15.7806C53.3887 16.3939 53.5278 16.9682 53.7767 17.5037C54.0256 18.0391 54.355 18.5039 54.7649 18.8982C55.1748 19.2924 55.6531 19.6015 56.1996 19.8254C56.7462 20.0493 57.3318 20.1613 57.9565 20.1613C58.6006 20.1613 59.1814 20.042 59.6987 19.8035C60.2159 19.565 60.66 19.2413 61.0309 18.8325C61.4018 18.4236 61.6873 17.9393 61.8874 17.3795C62.0875 16.8198 62.1875 16.2187 62.1875 15.5762ZM69.7035 9.16318C69.7035 8.85167 69.7914 8.58396 69.967 8.36006C70.1427 8.13616 70.416 8.02421 70.7869 8.02421H74.1395C74.2566 8.02421 74.3835 8.05098 74.5201 8.10452C74.6568 8.15806 74.7837 8.23594 74.9008 8.33816C75.0179 8.44037 75.118 8.55962 75.2009 8.69591C75.2839 8.8322 75.3254 8.98796 75.3254 9.16318V23.7096C75.3254 24.0795 75.2229 24.3594 75.0179 24.5492C74.813 24.7391 74.5201 24.834 74.1395 24.834H70.7869C70.0646 24.834 69.7035 24.4592 69.7035 23.7096V9.16318ZM69.7035 2.06343C69.7035 1.65457 69.7914 1.36496 69.967 1.1946C70.1427 1.02424 70.416 0.93906 70.7869 0.93906H74.1834C74.525 0.93906 74.8008 1.02424 75.0106 1.1946C75.2204 1.36496 75.3254 1.65457 75.3254 2.06343V4.91086C75.3254 5.02768 75.2985 5.15423 75.2448 5.29052C75.1912 5.42681 75.1155 5.55822 75.0179 5.68478C74.9203 5.81133 74.8008 5.91598 74.6592 5.99872C74.5177 6.08147 74.3591 6.12284 74.1834 6.12284H70.7869C70.0646 6.12284 69.7035 5.71885 69.7035 4.91086V2.06343ZM78.2297 1.51673C78.2297 1.3415 78.2883 1.19061 78.4054 1.06406C78.5225 0.937505 78.6836 0.874229 78.8885 0.874229H83.222C83.388 0.874229 83.5392 0.932638 83.6759 1.04946C83.8125 1.16627 83.8857 1.32203 83.8955 1.51673V19.6648H91.9476C92.1233 19.6648 92.2746 19.7232 92.4015 19.84C92.5283 19.9568 92.5918 20.1175 92.5918 20.3219V24.1623C92.5918 24.3278 92.5357 24.4786 92.4234 24.6149C92.3112 24.7512 92.1526 24.8242 91.9476 24.834H78.8739C78.4444 24.834 78.2297 24.6198 78.2297 24.1915V1.51673ZM94.1346 15.5762C94.1346 14.6806 94.2493 13.819 94.4786 12.9916C94.708 12.1641 95.0301 11.3975 95.4449 10.6917C95.8597 9.98595 96.3575 9.34346 96.9382 8.76424C97.5189 8.18501 98.1655 7.69098 98.878 7.28211C99.5905 6.87325 100.359 6.55687 101.184 6.33297C102.009 6.10907 102.87 5.99712 103.768 5.99712C105.095 5.99712 106.342 6.24292 107.508 6.73453C108.675 7.22614 109.69 7.9027 110.554 8.76424C111.417 9.62577 112.101 10.6382 112.603 11.8015C113.106 12.9648 113.357 14.223 113.357 15.5762C113.357 16.4718 113.243 17.3309 113.013 18.1535C112.784 18.9761 112.462 19.7427 112.047 20.4533C111.632 21.1639 111.134 21.8089 110.554 22.3881C109.973 22.9673 109.326 23.4638 108.614 23.8775C107.901 24.2913 107.138 24.6101 106.323 24.834C105.508 25.0579 104.656 25.1698 103.768 25.1698C102.87 25.1698 102.009 25.0579 101.184 24.834C100.359 24.6101 99.5905 24.2913 98.878 23.8775C98.1655 23.4638 97.5189 22.9673 96.9382 22.3881C96.3575 21.8089 95.8597 21.1639 95.4449 20.4533C95.0301 19.7427 94.708 18.9761 94.4786 18.1535C94.2493 17.3309 94.1346 16.4718 94.1346 15.5762ZM99.4783 15.5762C99.4783 16.2187 99.5783 16.8198 99.7784 17.3795C99.9785 17.9393 100.262 18.4236 100.628 18.8325C100.994 19.2413 101.438 19.565 101.96 19.8035C102.482 20.042 103.07 20.1613 103.724 20.1613C104.358 20.1613 104.932 20.042 105.444 19.8035C105.957 19.565 106.391 19.2413 106.747 18.8325C107.103 18.4236 107.377 17.9393 107.567 17.3795C107.757 16.8198 107.852 16.2187 107.852 15.5762C107.852 14.9531 107.757 14.3593 107.567 13.7947C107.377 13.2301 107.103 12.7336 106.747 12.3053C106.391 11.8769 105.957 11.5387 105.444 11.2904C104.932 11.0422 104.358 10.9181 103.724 10.9181C103.07 10.9181 102.482 11.0422 101.96 11.2904C101.438 11.5387 100.994 11.8769 100.628 12.3053C100.262 12.7336 99.9785 13.2301 99.7784 13.7947C99.5783 14.3593 99.4783 14.9531 99.4783 15.5762ZM132.834 24.5857C132.707 24.6928 132.573 24.761 132.432 24.7902C132.29 24.8194 132.156 24.834 132.029 24.834H129.818C129.643 24.834 129.491 24.8023 129.365 24.7391C129.238 24.6758 129.13 24.5906 129.042 24.4835C128.955 24.3764 128.881 24.2547 128.823 24.1185C128.764 23.9822 128.716 23.841 128.676 23.695L128.223 21.8259C128.076 22.1277 127.864 22.4708 127.586 22.8554C127.308 23.2399 126.954 23.6001 126.524 23.9359C126.095 24.2718 125.583 24.5541 124.987 24.7829C124.392 25.0116 123.709 25.126 122.938 25.126C121.825 25.126 120.815 24.9118 119.907 24.4835C118.999 24.0552 118.226 23.4711 117.587 22.7312C116.947 21.9914 116.452 21.1274 116.101 20.1394C115.749 19.1513 115.573 18.0975 115.573 16.978V7.41353C115.573 7.04361 115.654 6.76374 115.815 6.57391C115.976 6.38408 116.232 6.28917 116.584 6.28917H119.966C120.385 6.28917 120.673 6.35974 120.829 6.5009C120.985 6.64205 121.064 6.91706 121.064 7.32592V16.832C121.064 17.2506 121.159 17.6472 121.349 18.022C121.539 18.3968 121.791 18.7278 122.103 19.015C122.415 19.3022 122.769 19.5285 123.164 19.694C123.56 19.8595 123.962 19.9422 124.372 19.9422C124.724 19.9422 125.087 19.8595 125.463 19.694C125.839 19.5285 126.185 19.307 126.502 19.0296C126.82 18.7521 127.081 18.426 127.286 18.0512C127.491 17.6765 127.593 17.2798 127.593 16.8612V7.36973C127.593 7.20424 127.625 7.03875 127.688 6.87325C127.752 6.70776 127.847 6.58121 127.974 6.4936C128.101 6.41572 128.22 6.36218 128.332 6.33297C128.445 6.30377 128.574 6.28917 128.72 6.28917H132.029C132.449 6.28917 132.751 6.39138 132.937 6.59581C133.122 6.80024 133.215 7.07281 133.215 7.41353V23.7534C133.215 23.9384 133.173 24.1087 133.091 24.2645C133.008 24.4202 132.893 24.5419 132.746 24.6295L132.834 24.5857ZM149.134 22.5706C148.871 22.8335 148.581 23.1158 148.263 23.4176C147.946 23.7193 147.597 24.0016 147.217 24.2645C146.836 24.5273 146.426 24.7439 145.987 24.9143C145.548 25.0846 145.074 25.1698 144.567 25.1698C143.239 25.1698 142.017 24.9216 140.899 24.4251C139.782 23.9286 138.82 23.2496 138.015 22.3881C137.21 21.5266 136.58 20.5117 136.127 19.3435C135.673 18.1754 135.446 16.9196 135.446 15.5762C135.446 14.223 135.673 12.9648 136.127 11.8015C136.58 10.6382 137.21 9.62577 138.015 8.76424C138.82 7.9027 139.782 7.22614 140.899 6.73453C142.017 6.24292 143.239 5.99712 144.567 5.99712C145.104 5.99712 145.594 6.075 146.038 6.23076C146.482 6.38651 146.887 6.58608 147.253 6.82945C147.619 7.07282 147.956 7.34782 148.263 7.65447C148.571 7.96112 148.861 8.26046 149.134 8.55251V1.8793C149.134 1.56778 149.23 1.30495 149.42 1.09078C149.61 0.876613 149.896 0.769531 150.276 0.769531H153.57C153.697 0.769531 153.832 0.796302 153.973 0.849844C154.115 0.903385 154.244 0.978829 154.361 1.07618C154.478 1.17353 154.573 1.29034 154.647 1.42663C154.72 1.56292 154.756 1.71381 154.756 1.8793V23.7096C154.756 24.4592 154.361 24.834 153.57 24.834H150.701C150.506 24.834 150.354 24.8096 150.247 24.761C150.14 24.7123 150.049 24.6417 149.976 24.5492C149.903 24.4567 149.837 24.3399 149.779 24.1988C149.72 24.0576 149.647 23.8946 149.559 23.7096L149.134 22.5706ZM140.716 15.5762C140.716 16.2187 140.816 16.8198 141.016 17.3795C141.217 17.9393 141.502 18.4236 141.873 18.8325C142.244 19.2413 142.69 19.565 143.212 19.8035C143.735 20.042 144.313 20.1613 144.947 20.1613C145.572 20.1613 146.16 20.0493 146.711 19.8254C147.263 19.6015 147.744 19.2924 148.154 18.8982C148.563 18.5039 148.893 18.0391 149.142 17.5037C149.391 16.9682 149.53 16.3939 149.559 15.7806V15.5762C149.559 14.9531 149.442 14.3593 149.208 13.7947C148.973 13.2301 148.649 12.7336 148.234 12.3053C147.819 11.8769 147.331 11.5387 146.77 11.2904C146.209 11.0422 145.601 10.9181 144.947 10.9181C144.313 10.9181 143.735 11.0422 143.212 11.2904C142.69 11.5387 142.244 11.8769 141.873 12.3053C141.502 12.7336 141.217 13.2301 141.016 13.7947C140.816 14.3593 140.716 14.9531 140.716 15.5762Z" fill="white"/>
</svg>
