<svg width="25" height="25" viewBox="0 0 25 25" fill="none" xmlns="http://www.w3.org/2000/svg">
<mask id="mask0_5076_4437" style="mask-type:alpha" maskUnits="userSpaceOnUse" x="0" y="0" width="25" height="25">
<rect x="0.302734" y="0.0253906" width="24" height="24" fill="#D9D9D9"/>
</mask>
<g mask="url(#mask0_5076_4437)">
<path d="M16.2527 22.0254L12.0027 17.7754L13.4027 16.3754L16.2527 19.2254L21.9027 13.5754L23.3027 14.9754L16.2527 22.0254ZM12.3027 11.0254L20.3027 6.02539H4.30273L12.3027 11.0254ZM12.3027 13.0254L4.30273 8.02539V18.0254H9.45273L11.4527 20.0254H4.30273C3.75273 20.0254 3.2819 19.8296 2.89023 19.4379C2.49857 19.0462 2.30273 18.5754 2.30273 18.0254V6.02539C2.30273 5.47539 2.49857 5.00456 2.89023 4.61289C3.2819 4.22122 3.75273 4.02539 4.30273 4.02539H20.3027C20.8527 4.02539 21.3236 4.22122 21.7152 4.61289C22.1069 5.00456 22.3027 5.47539 22.3027 6.02539V10.3754L20.3027 12.3754V8.02539L12.3027 13.0254Z" fill="white"/>
</g>
</svg>
