<?xml version="1.0" encoding="UTF-8"?>
<svg xmlns="http://www.w3.org/2000/svg" xmlns:xlink="http://www.w3.org/1999/xlink" width="114px" height="18px" viewBox="0 0 114 18" version="1.1">
  <!-- Generator: Sketch 57.1 (83088) - https://sketch.com -->
  <title>MobiLoud Logo Black</title>
  <desc>Created with Sketch.</desc>
  <g id="Page-1" stroke="none" stroke-width="1" fill="none" fill-rule="evenodd">
    <g id="ML-Logo-Black-with-Margins" transform="translate(-2.000000, -3.000000)" fill="#000000">
      <path d="M3.54000696,5.2234498 C3.55436607,5.09455351 3.60462221,4.98356116 3.69077687,4.89046939 C3.77693154,4.79737763 3.89898215,4.75083245 4.05693237,4.75083245 L7.78310306,4.75083245 C8.04874662,4.75083245 8.22105336,4.8868876 8.30002847,5.15900198 L11.2292725,14.9121054 L14.1800551,5.15900198 C14.2805688,4.8868876 14.4636447,4.75083245 14.7292883,4.75083245 L18.4123819,4.75083245 C18.5416139,4.75083245 18.6582799,4.79558743 18.7623835,4.88509874 C18.866487,4.97461005 18.9257175,5.08739261 18.9400766,5.2234498 C19.191361,7.74408826 19.4480263,10.2449967 19.71008,12.7262502 C19.9721338,15.2075037 20.2287991,17.7084122 20.4800835,20.2290506 L20.4800835,20.2827571 C20.4800835,20.5620324 20.3221357,20.701668 20.0062352,20.701668 L16.9585291,20.701668 C16.6282696,20.701668 16.4559628,20.5441304 16.4416037,20.2290506 L15.5046764,11.9260231 L13.0815885,20.2827571 C13.0672294,20.3543662 13.0151784,20.4402958 12.925434,20.5405484 C12.8356896,20.6408011 12.7477413,20.6909267 12.6615866,20.6909267 L9.82926616,20.6909267 C9.74311149,20.6909267 9.65157353,20.6425913 9.55464953,20.5459191 C9.45772553,20.4492469 9.40567453,20.3615271 9.39849498,20.2827571 L6.9754071,11.9475057 L6.03847979,20.2290506 C6.02412068,20.5441304 5.84822421,20.701668 5.5107851,20.701668 L2.46307902,20.701668 C2.15435813,20.701668 2,20.5441304 2,20.2290506 L3.54000696,5.2234498 Z M21.2811128,13.8916816 C21.2811128,13.2328784 21.3654713,12.5991478 21.5341909,11.9904709 C21.7029104,11.381794 21.9398322,10.8178812 22.2449633,10.2987156 C22.5500944,9.77955005 22.9162462,9.30693743 23.3434298,8.8808636 C23.7706134,8.45478977 24.2462518,8.09137931 24.7703593,7.79062131 C25.2944669,7.48986331 25.8598484,7.2571374 26.4665208,7.09243659 C27.0731933,6.92773578 27.7067796,6.84538661 28.3672987,6.84538661 C29.3437182,6.84538661 30.2608927,7.02619674 31.1188496,7.38782243 C31.9768064,7.74944812 32.723469,8.24712353 33.3588597,8.8808636 C33.9942503,9.51460367 34.4968117,10.2593266 34.8665588,11.1150547 C35.2363059,11.9707828 35.4211767,12.8963159 35.4211767,13.8916816 C35.4211767,14.5504849 35.3368182,15.1824252 35.1680986,15.7875217 C34.9993791,16.3926181 34.7624573,16.9565309 34.4573262,17.479277 C34.1521951,18.002023 33.7860432,18.4764258 33.3588597,18.9024997 C32.9316761,19.3285735 32.4560377,19.6937741 31.9319302,19.9981126 C31.4078226,20.3024511 30.8460308,20.5369672 30.2465379,20.701668 C29.647045,20.8663688 29.0206382,20.9487179 28.3672987,20.9487179 C27.7067796,20.9487179 27.0731933,20.8663688 26.4665208,20.701668 C25.8598484,20.5369672 25.2944669,20.3024511 24.7703593,19.9981126 C24.2462518,19.6937741 23.7706134,19.3285735 23.3434298,18.9024997 C22.9162462,18.4764258 22.5500944,18.002023 22.2449633,17.479277 C21.9398322,16.9565309 21.7029104,16.3926181 21.5341909,15.7875217 C21.3654713,15.1824252 21.2811128,14.5504849 21.2811128,13.8916816 Z M25.2118998,13.8916816 C25.2118998,14.3643013 25.2854891,14.8064806 25.43267,15.2182326 C25.5798509,15.6299846 25.7880549,15.9862343 26.0572882,16.2869923 C26.3265216,16.5877503 26.6531864,16.8258468 27.0372927,17.001289 C27.4213989,17.1767311 27.8539606,17.2644509 28.3349908,17.2644509 C28.8016619,17.2644509 29.2234545,17.1767311 29.6003812,17.001289 C29.9773078,16.8258468 30.2967933,16.5877503 30.558847,16.2869923 C30.8209008,15.9862343 31.0219253,15.6299846 31.1619267,15.2182326 C31.301928,14.8064806 31.3719276,14.3643013 31.3719276,13.8916816 C31.3719276,13.4333837 31.301928,12.9965751 31.1619267,12.5812426 C31.0219253,12.1659101 30.8209008,11.8007095 30.558847,11.4856297 C30.2967933,11.1705499 29.9773078,10.9217122 29.6003812,10.7391091 C29.2234545,10.556506 28.8016619,10.4652058 28.3349908,10.4652058 C27.8539606,10.4652058 27.4213989,10.556506 27.0372927,10.7391091 C26.6531864,10.9217122 26.3265216,11.1705499 26.0572882,11.4856297 C25.7880549,11.8007095 25.5798509,12.1659101 25.43267,12.5812426 C25.2854891,12.9965751 25.2118998,13.4333837 25.2118998,13.8916816 Z M40.8745347,18.9777731 C40.8099187,19.1138303 40.7560728,20.1305882 40.7129955,20.2344213 C40.6699182,20.3382544 40.6214569,20.424184 40.5676102,20.4922126 C40.5137635,20.5602411 40.4473537,20.6121569 40.3683785,20.6479615 C40.2894034,20.683766 40.1817117,20.701668 40.0453002,20.701668 L37.9129828,20.701668 C37.3386184,20.701668 37.0514405,20.4259773 37.0514405,19.8745876 L37.0514405,3.82708036 C37.0514405,3.70534498 37.0747737,3.59435262 37.1214408,3.49409996 C37.1681079,3.39384729 37.2291332,3.30791772 37.3045185,3.23630867 C37.3799039,3.16469963 37.4660572,3.10920345 37.5629812,3.06981847 C37.6599052,3.0304335 37.7550329,3.0107413 37.8483672,3.0107413 L40.2929936,3.0107413 C40.5658167,3.0107413 40.7812001,3.08951007 40.9391504,3.24704998 C41.0971006,3.40458988 41.1760745,3.59793141 41.1760745,3.82708036 L41.1760745,8.46888199 C41.3771021,8.25405485 42.3014629,7.64561463 42.5706962,7.46301155 C42.8399295,7.28040848 43.1360817,7.13182194 43.4591617,7.01724746 C43.7822417,6.90267299 44.1412141,6.84538661 44.5360897,6.84538661 C45.5125092,6.84538661 46.4117351,7.02619674 47.2337942,7.38782243 C48.0558533,7.74944812 48.7630289,8.24712353 49.3553422,8.8808636 C49.9476556,9.51460367 50.41073,10.2593266 50.7445793,11.1150547 C51.0784286,11.9707828 51.2453508,12.8963159 51.2453508,13.8916816 C51.2453508,14.8798865 51.0784286,15.8036293 50.7445793,16.6629379 C50.41073,17.5222465 49.9476556,18.2687596 49.3553422,18.9024997 C48.7630289,19.5362397 48.0558533,20.0357053 47.2337942,20.4009115 C46.4117351,20.7661176 45.5125092,20.9487179 44.5360897,20.9487179 C44.1699324,20.9487179 43.8253189,20.886061 43.5022389,20.7607451 C43.1791589,20.6354293 42.8776221,20.4761016 42.5976194,20.2827571 C42.3176167,20.0894127 42.0591566,19.8817496 41.8222313,19.6597615 C41.5853059,19.4377735 41.3699225,19.2301104 41.1760745,19.0367659 L40.8745347,18.9777731 Z M47.3684102,13.8916816 C47.3684102,13.4333837 47.2948208,12.9965751 47.14764,12.5812426 C47.0004591,12.1659101 46.7904602,11.8007095 46.5176371,11.4856297 C46.244814,11.1705499 45.9181491,10.9217122 45.5376327,10.7391091 C45.1571162,10.556506 44.7299391,10.4652058 44.2560884,10.4652058 C43.7822378,10.4652058 43.3389069,10.556506 42.9260824,10.7391091 C42.513258,10.9217122 42.1560804,11.1705499 41.8545391,11.4856297 C41.5529978,11.8007095 41.3142811,12.1659101 41.138382,12.5812426 C40.9624829,12.9965751 40.8745347,13.4333837 40.8745347,13.8916816 L40.8745347,14.0420599 C40.8960733,14.4931969 40.9983805,14.9156839 41.1814591,15.3095337 C41.3645378,15.7033834 41.6068442,16.0453115 41.9083855,16.3353281 C42.2099268,16.6253448 42.5617198,16.8527001 42.9637749,17.0174009 C43.36583,17.1821017 43.7965969,17.2644509 44.2560884,17.2644509 C44.7299391,17.2644509 45.1571162,17.1767311 45.5376327,17.001289 C45.9181491,16.8258468 46.244814,16.5877503 46.5176371,16.2869923 C46.7904602,15.9862343 47.0004591,15.6299846 47.14764,15.2182326 C47.2948208,14.8064806 47.3684102,14.3643013 47.3684102,13.8916816 Z M52.8971531,9.17432399 C52.8971531,8.94517504 52.9617682,8.74825311 53.0910002,8.5835523 C53.2202322,8.41885149 53.4212567,8.33650233 53.6940798,8.33650233 L56.1602448,8.33650233 C56.2463995,8.33650233 56.3397323,8.35619452 56.4402461,8.39557949 C56.5407598,8.43496447 56.6340927,8.49225085 56.7202473,8.56744035 C56.806402,8.64262985 56.8799913,8.73034962 56.9410176,8.83060228 C57.0020438,8.93085495 57.0325564,9.0454277 57.0325564,9.17432399 L57.0325564,19.8745876 C57.0325564,20.146702 56.9571722,20.3525749 56.8064016,20.4922126 C56.6556309,20.6318502 56.4402475,20.701668 56.1602448,20.701668 L53.6940798,20.701668 C53.1627927,20.701668 52.8971531,20.4259773 52.8971531,19.8745876 L52.8971531,9.17432399 Z M52.8971531,3.95178499 C52.8971531,3.65102699 52.9617682,3.43799327 53.0910002,3.31267744 C53.2202322,3.18736161 53.4212567,3.12470463 53.6940798,3.12470463 L56.1925526,3.12470463 C56.4438371,3.12470463 56.6466565,3.18736161 56.8010169,3.31267744 C56.9553774,3.43799327 57.0325564,3.65102699 57.0325564,3.95178499 L57.0325564,6.04633915 C57.0325564,6.13227001 57.0128129,6.22536037 56.9733254,6.32561304 C56.9338378,6.4258657 56.8781971,6.52253647 56.8064016,6.61562823 C56.734606,6.70871999 56.6466578,6.78569856 56.5425542,6.84656625 C56.4384507,6.90743394 56.3217846,6.93786733 56.1925526,6.93786733 L53.6940798,6.93786733 C53.1627927,6.93786733 52.8971531,6.64069424 52.8971531,6.04633915 L52.8971531,3.95178499 Z M59.1689763,3.54963284 C59.1689763,3.42073656 59.212053,3.3097442 59.2982077,3.21665244 C59.3843624,3.12356068 59.5028232,3.07701549 59.6535939,3.07701549 L62.8413006,3.07701549 C62.9633531,3.07701549 63.0746345,3.11998028 63.1751483,3.20591113 C63.2756621,3.29184199 63.3295079,3.40641475 63.3366875,3.54963284 L63.3366875,16.8992466 L69.2597912,16.8992466 C69.3890232,16.8992466 69.5003046,16.9422114 69.5936388,17.0281422 C69.6869731,17.1140731 69.7336395,17.2322262 69.7336395,17.3826052 L69.7336395,20.207568 C69.7336395,20.3293034 69.6923576,20.4402958 69.6097928,20.5405484 C69.5272279,20.6408011 69.4105618,20.6945071 69.2597912,20.701668 L59.6428246,20.701668 C59.3269242,20.701668 59.1689763,20.5441304 59.1689763,20.2290506 L59.1689763,3.54963284 Z M70.8685164,13.8916816 C70.8685164,13.2328784 70.9528749,12.5991478 71.1215945,11.9904709 C71.290314,11.381794 71.5272358,10.8178812 71.8323669,10.2987156 C72.137498,9.77955005 72.5036499,9.30693743 72.9308334,8.8808636 C73.358017,8.45478977 73.8336554,8.09137931 74.3577629,7.79062131 C74.8818705,7.48986331 75.447252,7.2571374 76.0539245,7.09243659 C76.6605969,6.92773578 77.2941832,6.84538661 77.9547023,6.84538661 C78.9311218,6.84538661 79.8482963,7.02619674 80.7062532,7.38782243 C81.5642101,7.74944812 82.3108726,8.24712353 82.9462633,8.8808636 C83.581654,9.51460367 84.0842153,10.2593266 84.4539624,11.1150547 C84.8237095,11.9707828 85.0085803,12.8963159 85.0085803,13.8916816 C85.0085803,14.5504849 84.9242218,15.1824252 84.7555022,15.7875217 C84.5867827,16.3926181 84.3498609,16.9565309 84.0447298,17.479277 C83.7395987,18.002023 83.3734468,18.4764258 82.9462633,18.9024997 C82.5190797,19.3285735 82.0434413,19.6937741 81.5193338,19.9981126 C80.9952262,20.3024511 80.4334344,20.5369672 79.8339415,20.701668 C79.2344486,20.8663688 78.6080418,20.9487179 77.9547023,20.9487179 C77.2941832,20.9487179 76.6605969,20.8663688 76.0539245,20.701668 C75.447252,20.5369672 74.8818705,20.3024511 74.3577629,19.9981126 C73.8336554,19.6937741 73.358017,19.3285735 72.9308334,18.9024997 C72.5036499,18.4764258 72.137498,18.002023 71.8323669,17.479277 C71.5272358,16.9565309 71.290314,16.3926181 71.1215945,15.7875217 C70.9528749,15.1824252 70.8685164,14.5504849 70.8685164,13.8916816 Z M74.7993034,13.8916816 C74.7993034,14.3643013 74.8728927,14.8064806 75.0200736,15.2182326 C75.1672545,15.6299846 75.3754585,15.9862343 75.6446918,16.2869923 C75.9139252,16.5877503 76.24059,16.8258468 76.6246963,17.001289 C77.0088025,17.1767311 77.4413642,17.2644509 77.9223944,17.2644509 C78.3890655,17.2644509 78.8108581,17.1767311 79.1877848,17.001289 C79.5647114,16.8258468 79.8841969,16.5877503 80.1462506,16.2869923 C80.4083044,15.9862343 80.609329,15.6299846 80.7493303,15.2182326 C80.8893316,14.8064806 80.9593312,14.3643013 80.9593312,13.8916816 C80.9593312,13.4333837 80.8893316,12.9965751 80.7493303,12.5812426 C80.609329,12.1659101 80.4083044,11.8007095 80.1462506,11.4856297 C79.8841969,11.1705499 79.5647114,10.9217122 79.1877848,10.7391091 C78.8108581,10.556506 78.3890655,10.4652058 77.9223944,10.4652058 C77.4413642,10.4652058 77.0088025,10.556506 76.6246963,10.7391091 C76.24059,10.9217122 75.9139252,11.1705499 75.6446918,11.4856297 C75.3754585,11.8007095 75.1672545,12.1659101 75.0200736,12.5812426 C74.8728927,12.9965751 74.7993034,13.4333837 74.7993034,13.8916816 Z M99.3358246,20.5190658 C99.2424903,20.5978358 99.1437729,20.6479613 99.0396694,20.6694441 C98.9355658,20.6909268 98.8368484,20.701668 98.7435142,20.701668 L97.117353,20.701668 C96.988121,20.701668 96.8768395,20.6783954 96.7835053,20.6318495 C96.6901711,20.5853036 96.6111972,20.5226466 96.5465812,20.4438767 C96.4819652,20.3651067 96.4281193,20.2755968 96.385042,20.1753441 C96.3419647,20.0750914 96.3060674,19.9712599 96.2773492,19.8638463 L95.9435015,18.4889595 C95.8358082,18.7109475 95.6796552,18.9633656 95.4750379,19.2462214 C95.2704205,19.5290771 95.0101656,19.7940266 94.6942651,20.0410778 C94.3783647,20.288129 94.0014437,20.4957921 93.5634908,20.6640734 C93.1255379,20.8323547 92.6229765,20.916494 92.0557916,20.916494 C91.2373223,20.916494 90.4942495,20.7589565 89.8265508,20.4438767 C89.1588521,20.1287969 88.5898809,19.699149 88.11962,19.1549203 C87.6493591,18.6106915 87.2850021,17.9751708 87.0265381,17.2483389 C86.7680741,16.5215071 86.6388441,15.7463508 86.6388441,14.9228468 L86.6388441,7.88729304 C86.6388441,7.61517866 86.6980745,7.40930574 86.8165372,7.26966809 C86.9349999,7.13003045 87.1234604,7.06021268 87.3819244,7.06021268 L89.8696279,7.06021268 C90.1783488,7.06021268 90.3901425,7.11212846 90.5050154,7.21596158 C90.6198883,7.3197947 90.6773239,7.52208722 90.6773239,7.82284522 L90.6773239,14.8154337 C90.6773239,15.1233526 90.7473235,15.4151551 90.8873248,15.6908499 C91.0273262,15.9665448 91.2121969,16.2100119 91.4419427,16.4212586 C91.6716885,16.6325053 91.9319435,16.7989938 92.2227155,16.9207292 C92.5134875,17.0424646 92.8096397,17.1033313 93.111181,17.1033313 C93.369645,17.1033313 93.6370795,17.0424646 93.9134924,16.9207292 C94.1899052,16.7989938 94.4447756,16.6360857 94.6781112,16.4319999 C94.9114467,16.2279141 95.103497,15.9880274 95.2542676,15.7123326 C95.4050383,15.4366377 95.4804225,15.1448352 95.4804225,14.8369163 L95.4804225,7.85506913 C95.4804225,7.73333375 95.5037557,7.61160019 95.5504228,7.48986481 C95.5970899,7.36812943 95.6670896,7.27503907 95.7604238,7.21059093 C95.853758,7.15330369 95.9417062,7.1139193 96.0242711,7.09243659 C96.106836,7.07095387 96.2019637,7.06021268 96.309657,7.06021268 L98.7435142,7.06021268 C99.0522351,7.06021268 99.274798,7.13540105 99.4112095,7.28578005 C99.5476211,7.43615905 99.6158258,7.63666137 99.6158258,7.88729304 L99.6158258,19.9068115 C99.6158258,20.0428687 99.5853132,20.1681827 99.5242869,20.2827571 C99.4632607,20.3973316 99.3789022,20.4868416 99.2712089,20.5512897 L99.3358246,20.5190658 Z M111.326135,19.0367659 C111.132287,19.2301104 110.918699,19.4377735 110.685363,19.6597615 C110.452027,19.8817496 110.195362,20.0894127 109.91536,20.2827571 C109.635357,20.4761016 109.33382,20.6354293 109.01074,20.7607451 C108.68766,20.886061 108.339457,20.9487179 107.96612,20.9487179 C106.9897,20.9487179 106.090475,20.7661176 105.268415,20.4009115 C104.446356,20.0357053 103.739181,19.5362397 103.146867,18.9024997 C102.554554,18.2687596 102.09148,17.5222465 101.75763,16.6629379 C101.423781,15.8036293 101.256859,14.8798865 101.256859,13.8916816 C101.256859,12.8963159 101.423781,11.9707828 101.75763,11.1150547 C102.09148,10.2593266 102.554554,9.51460367 103.146867,8.8808636 C103.739181,8.24712353 104.446356,7.74944812 105.268415,7.38782243 C106.090475,7.02619674 106.9897,6.84538661 107.96612,6.84538661 C108.360996,6.84538661 108.721763,6.90267299 109.048433,7.01724746 C109.375102,7.13182194 109.673049,7.27861828 109.942283,7.4576409 C110.211516,7.63666352 110.459207,7.83895605 110.685363,8.06452454 C110.911519,8.29009304 111.125108,8.51028756 111.326135,8.7251147 L111.326135,3.81633906 C111.326135,3.58719011 111.396135,3.39384858 111.536136,3.23630867 C111.676137,3.07876877 111.886136,3 112.166139,3 L114.589227,3 C114.682561,3 114.781278,3.01969219 114.885382,3.05907717 C114.989486,3.09846214 115.084613,3.15395832 115.170768,3.22556737 C115.256923,3.29717642 115.326922,3.38310599 115.380769,3.48335865 C115.434616,3.58361132 115.461538,3.69460368 115.461538,3.81633906 L115.461538,19.8745876 C115.461538,20.4259773 115.170771,20.701668 114.589227,20.701668 L112.478448,20.701668 C112.334857,20.701668 112.223576,20.683766 112.1446,20.6479615 C112.065625,20.6121569 111.999215,20.5602411 111.945369,20.4922126 C111.891522,20.424184 111.843061,20.3382544 111.799983,20.2344213 C111.756906,20.1305882 111.70306,20.0106448 111.638444,19.8745876 L111.326135,19.0367659 Z M105.133799,13.8916816 C105.133799,14.3643013 105.207389,14.8064806 105.35457,15.2182326 C105.501751,15.6299846 105.711749,15.9862343 105.984573,16.2869923 C106.257396,16.5877503 106.585855,16.8258468 106.969962,17.001289 C107.354068,17.1767311 107.77945,17.2644509 108.246121,17.2644509 C108.705613,17.2644509 109.138175,17.1821017 109.543819,17.0174009 C109.949464,16.8527001 110.303052,16.6253448 110.604593,16.3353281 C110.906135,16.0453115 111.148441,15.7033834 111.33152,15.3095337 C111.514598,14.9156839 111.616906,14.4931969 111.638444,14.0420599 L111.638444,13.8916816 C111.638444,13.4333837 111.552291,12.9965751 111.379982,12.5812426 C111.207672,12.1659101 110.968956,11.8007095 110.663824,11.4856297 C110.358693,11.1705499 109.999721,10.9217122 109.586897,10.7391091 C109.174072,10.556506 108.727151,10.4652058 108.246121,10.4652058 C107.77945,10.4652058 107.354068,10.556506 106.969962,10.7391091 C106.585855,10.9217122 106.257396,11.1705499 105.984573,11.4856297 C105.711749,11.8007095 105.501751,12.1659101 105.35457,12.5812426 C105.207389,12.9965751 105.133799,13.4333837 105.133799,13.8916816 Z" id="MobiLoud-Logo-Black"></path>
    </g>
  </g>
</svg>
