<svg width="41" height="41" viewBox="0 0 41 41" fill="none" xmlns="http://www.w3.org/2000/svg">
<path d="M26.8496 11.8501C26.3829 10.7168 25.7163 9.83343 24.8496 9.2001C23.9829 8.56676 22.9496 8.2501 21.7496 8.2501C20.7163 8.2501 19.7996 8.4251 18.9996 8.7751C18.1996 9.1251 17.5163 9.63343 16.9496 10.3001L14.8496 8.2001C15.5496 7.4001 16.3579 6.76676 17.2746 6.3001C18.1913 5.83343 19.1663 5.53343 20.1996 5.4001V1.0001H23.1996V5.3501C24.5996 5.51676 25.8746 6.0251 27.0246 6.8751C28.1746 7.7251 29.0829 8.9501 29.7496 10.5501L26.8496 11.8501ZM38.2996 40.2001L28.6996 30.6001C27.9663 31.3001 27.1246 31.8168 26.1746 32.1501C25.2246 32.4834 24.2329 32.6834 23.1996 32.7501V37.0001H20.1996V32.7001C18.2996 32.4334 16.7163 31.6751 15.4496 30.4251C14.1829 29.1751 13.2829 27.6501 12.7496 25.8501L15.7496 24.8001C16.2163 26.5001 16.9746 27.7668 18.0246 28.6001C19.0746 29.4334 20.3996 29.8501 21.9996 29.8501C22.8663 29.8501 23.7079 29.7418 24.5246 29.5251C25.3413 29.3084 25.9996 28.9334 26.4996 28.4001L0.849609 2.7501L2.99961 0.600098L40.4496 38.0501L38.2996 40.2001Z" fill="white"/>
</svg>
