<svg width="270" height="100" viewBox="0 0 270 100" fill="none" xmlns="http://www.w3.org/2000/svg">
<g clip-path="url(#clip0_825_356)">
<mask id="mask0_825_356" style="mask-type:luminance" maskUnits="userSpaceOnUse" x="0" y="0" width="270" height="100">
<path d="M270 0H0V100H270V0Z" fill="white"/>
</mask>
<g mask="url(#mask0_825_356)">
<path d="M111.593 0L110.091 2.851C109.921 3.16 109.616 3.13 109.312 2.957L108.219 2.384L109.031 6.762C109.206 7.56 108.656 7.56 108.391 7.218L106.493 5.058L106.184 6.154C106.148 6.296 105.992 6.448 105.76 6.413L103.36 5.9L103.99 8.231C104.124 8.75 104.23 8.961 103.85 9.101L103.002 9.511L107.127 12.925C107.29 13.05 107.372 13.282 107.317 13.496L106.951 14.7C108.37 14.539 109.643 14.284 111.061 14.129C111.192 14.115 111.403 14.327 111.401 14.476L111.211 18.898H111.905L111.796 14.48C111.796 14.334 111.986 14.115 112.116 14.129C113.533 14.284 114.809 14.539 116.228 14.7L115.861 13.496C115.809 13.282 115.89 13.05 116.055 12.925L120.178 9.511L119.331 9.101C118.951 8.961 119.058 8.75 119.191 8.231L119.82 5.9L117.424 6.412C117.188 6.448 117.033 6.295 116.995 6.153L116.69 5.057L114.787 7.217C114.522 7.559 113.976 7.559 114.145 6.761L114.954 2.383L113.866 2.956C113.565 3.129 113.257 3.158 113.091 2.85L111.593 0Z" fill="black"/>
<path d="M24.2071 58.5331L9.32314 38.1601V58.5341H0.244141V23.3281H9.58714L23.8371 42.6991V23.3281H32.9691V58.5331H24.2071Z" fill="black"/>
<path d="M64.2669 58.5331L62.5249 53.4671H48.6429L46.9009 58.5331H36.6089L49.8569 23.3281H61.3109L74.5589 58.5331H64.2669ZM55.6109 32.3011L51.1239 45.5491H60.0439L55.6109 32.3011Z" fill="black"/>
<path d="M82.7919 58.5331V31.2451H72.9219V23.3281H101.688V31.2451H91.8709V58.5341L82.7919 58.5331Z" fill="black"/>
<path d="M107.069 58.5331V23.3281H116.148V58.5331H107.069Z" fill="black"/>
<path d="M121.743 40.957C121.743 30.243 129.818 22.748 140.586 22.748C151.354 22.748 159.377 30.243 159.377 40.957C159.377 51.672 151.354 59.166 140.586 59.166C129.818 59.166 121.743 51.672 121.743 40.957ZM150.139 40.957C150.139 35.205 146.393 30.77 140.586 30.77C134.78 30.77 130.98 35.204 130.98 40.957C130.98 46.658 134.78 51.145 140.586 51.145C146.393 51.145 150.139 46.658 150.139 40.957Z" fill="black"/>
<path d="M188.984 58.5331L174.1 38.1601V58.5341H165.024V23.3281H174.366L188.616 42.6991V23.3281H197.747V58.5331H188.984Z" fill="black"/>
<path d="M229.045 58.5331L227.303 53.4671H213.422L211.68 58.5331H201.389L214.637 23.3281H226.09L239.338 58.5331H229.045ZM220.389 32.3011L215.903 45.5491H224.823L220.389 32.3011Z" fill="black"/>
<path d="M242.818 58.5331V23.3281H251.898V50.6161H266.043V58.5331H242.818Z" fill="black"/>
<path d="M0.244141 81.7891C0.244141 71.0751 8.31914 63.5801 19.0871 63.5801C29.8541 63.5801 37.8771 71.0751 37.8771 81.7891C37.8771 92.5051 29.8541 100 19.0871 100C8.31914 100 0.244141 92.5051 0.244141 81.7891ZM28.6421 81.7891C28.6421 76.0371 24.8941 71.6021 19.0881 71.6021C13.2821 71.6021 9.48214 76.0371 9.48214 81.7891C9.48214 87.4901 13.2821 91.9761 19.0881 91.9761C24.8941 91.9761 28.6421 87.4901 28.6421 81.7891Z" fill="black"/>
<path d="M41.9409 99.3661V64.1611H61.8919C68.9119 64.1611 72.1839 68.6991 72.1839 73.1341C72.1839 77.5141 69.4929 80.4701 66.1669 81.2091C69.9149 81.7891 72.8699 85.3791 72.8699 89.8131C72.8699 94.9331 69.4389 99.3671 62.5239 99.3671L41.9409 99.3661ZM62.9469 74.8221C62.9469 73.1341 61.6799 72.0771 59.8329 72.0771H51.0189V77.5661H59.8329C61.6809 77.5661 62.9469 76.5641 62.9469 74.8221ZM63.6339 88.4401C63.6339 86.6981 62.3669 85.4841 60.1509 85.4841H51.0199V91.4481H60.1509C62.3139 91.4481 63.6339 90.3411 63.6339 88.4401Z" fill="black"/>
<path d="M74.77 94.4043L79.573 87.3323C82.107 89.8663 86.012 91.9763 90.868 91.9763C93.929 91.9763 95.829 90.9213 95.829 89.1803C95.829 84.5343 75.93 88.3883 75.93 74.8233C75.93 68.9123 80.892 63.6333 89.917 63.6333C95.565 63.6333 100.473 65.3223 104.221 68.5423L99.26 75.3523C96.303 72.8713 92.45 71.6573 88.967 71.6573C86.328 71.6573 85.167 72.5543 85.167 74.0853C85.167 78.4133 105.065 75.1423 105.065 88.2313C105.065 95.3033 99.84 100.002 90.392 100.002C83.267 100 78.306 97.7293 74.77 94.4043Z" fill="black"/>
<path d="M108.758 99.3661V64.1611H134.568V72.0771H117.836V77.5661H134.199V85.4841H117.836V91.4481H134.568V99.3661H108.758Z" fill="black"/>
<path d="M158.952 99.3661L153.04 87.5431H148.395V99.3661H139.316V64.1611H156.946C164.758 64.1611 169.191 69.3331 169.191 75.8781C169.191 82.0011 165.496 85.2741 162.171 86.4341L169.35 99.3671L158.952 99.3661ZM159.954 75.8251C159.954 73.3961 158.002 72.0771 155.574 72.0771H148.395V79.6251H155.574C158.002 79.6251 159.954 78.3061 159.954 75.8251Z" fill="black"/>
<path d="M182.65 99.3661L169.402 64.1611H179.694L188.403 89.5491L197.059 64.1611H207.351L194.103 99.3661H182.65Z" fill="black"/>
<path d="M209.409 99.3661V64.1611H235.219V72.0771H218.488V77.5661H234.85V85.4841H218.488V91.4481H235.219V99.3661H209.409Z" fill="black"/>
<path d="M259.602 99.3661L253.691 87.5431H249.045V99.3661H239.967V64.1611H257.596C265.408 64.1611 269.841 69.3331 269.841 75.8781C269.841 82.0011 266.148 85.2741 262.821 86.4341L270 99.3661H259.602ZM260.604 75.8251C260.604 73.3961 258.651 72.0771 256.223 72.0771H249.044V79.6251H256.223C258.651 79.6251 260.604 78.3061 260.604 75.8251Z" fill="black"/>
<path d="M0 8.96795C0 4.48195 3.303 1.41895 7.505 1.41895C10.087 1.41895 11.881 2.64495 13.042 4.30695L11.532 5.15995C10.7 3.91295 9.169 3.03695 7.505 3.03695C4.311 3.03695 1.882 5.46695 1.882 8.96795C1.882 12.4249 4.31 14.8989 7.505 14.8989C9.169 14.8989 10.7 14.0009 11.532 12.7749L13.063 13.6069C11.837 15.2919 10.086 16.5169 7.504 16.5169C3.303 16.5169 0 13.4529 0 8.96795Z" fill="black"/>
<path d="M25.5151 16.2542L24.2251 12.9932H16.9601L15.6681 16.2542H13.5901L19.4761 1.65918H21.7291L27.5941 16.2542H25.5151ZM20.5921 3.51918L17.5071 11.3972H23.6991L20.5921 3.51918Z" fill="black"/>
<path d="M39.6061 16.2542L31.0951 4.61318V16.2542H29.2791V1.65918H31.1391L39.5411 13.0592V1.65918H41.3571V16.2542H39.6061Z" fill="black"/>
<path d="M54.967 16.2542L53.677 12.9932H46.412L45.121 16.2542H43.042L48.929 1.65918H51.182L57.047 16.2542H54.967ZM50.044 3.51918L46.959 11.3972H53.151L50.044 3.51918Z" fill="black"/>
<path d="M58.73 16.2542V1.65918H63.719C68.271 1.65918 71.203 4.83218 71.203 8.96818C71.203 13.1252 68.271 16.2552 63.719 16.2552L58.73 16.2542ZM69.321 8.96818C69.321 5.81818 67.33 3.27918 63.719 3.27918H60.547V14.6352H63.719C67.264 14.6352 69.321 12.0972 69.321 8.96818Z" fill="black"/>
<path d="M83.436 16.2542L82.145 12.9932H74.88L73.589 16.2542H71.51L77.396 1.65918H79.649L85.514 16.2542H83.436ZM78.513 3.51918L75.428 11.3972H81.62L78.513 3.51918Z" fill="black"/>
<path d="M85.4479 6.40694L84.6169 5.72894C85.3169 5.26894 85.9519 4.39494 86.0389 3.69394C85.9949 3.71594 85.8419 3.73694 85.7329 3.73694C85.1419 3.73694 84.6829 3.25694 84.6829 2.62094C84.6829 1.98694 85.1849 1.43994 85.8419 1.43994C86.5859 1.43994 87.2199 2.03094 87.2199 3.10294C87.2199 4.43794 86.4549 5.68494 85.4479 6.40694Z" fill="black"/>
<path d="M89.0149 14.198L90.1089 12.798C91.0509 13.891 92.6259 14.899 94.6829 14.899C97.2869 14.899 98.1179 13.498 98.1179 12.36C98.1179 8.59597 89.4749 10.697 89.4749 5.48797C89.4749 3.08097 91.6189 1.41797 94.5079 1.41797C96.7179 1.41797 98.4469 2.18397 99.6729 3.47497L98.5769 4.80997C97.4839 3.58397 95.9519 3.05897 94.3539 3.05897C92.6249 3.05897 91.3549 4.00097 91.3549 5.37897C91.3549 8.66097 99.9989 6.77997 99.9989 12.228C99.9989 14.329 98.5549 16.517 94.6149 16.517C92.1009 16.517 90.2179 15.554 89.0149 14.198Z" fill="black"/>
</g>
</g>
<defs>
<clipPath id="clip0_825_356">
<rect width="270" height="100" fill="white"/>
</clipPath>
</defs>
</svg>
