<svg width="36" height="40" viewBox="0 0 36 40" fill="none" xmlns="http://www.w3.org/2000/svg">
<path d="M0.199219 15.65C0.199219 12.95 0.765886 10.3917 1.89922 7.975C3.03255 5.55833 4.64922 3.5 6.74922 1.8L8.79922 4.05C7.03255 5.48333 5.65755 7.20833 4.67422 9.225C3.69089 11.2417 3.19922 13.3833 3.19922 15.65H0.199219ZM32.8492 15.65C32.8492 13.3833 32.3826 11.2417 31.4492 9.225C30.5159 7.20833 29.1659 5.48333 27.3992 4.05L29.4492 1.8C31.5159 3.53333 33.0992 5.6 34.1992 8C35.2992 10.4 35.8492 12.95 35.8492 15.65H32.8492ZM1.99922 34V31H6.19922V15.7C6.19922 12.9 7.02422 10.4083 8.67422 8.225C10.3242 6.04167 12.4992 4.66667 15.1992 4.1V2.65C15.1992 1.88333 15.4742 1.25 16.0242 0.75C16.5742 0.25 17.2326 0 17.9992 0C18.7659 0 19.4242 0.25 19.9742 0.75C20.5242 1.25 20.7992 1.88333 20.7992 2.65V4.1C23.4992 4.66667 25.6825 6.04167 27.3492 8.225C29.0159 10.4083 29.8492 12.9 29.8492 15.7V31H33.9992V34H1.99922ZM17.9992 40C16.9326 40 15.9992 39.6083 15.1992 38.825C14.3992 38.0417 13.9992 37.1 13.9992 36H21.9992C21.9992 37.1 21.6076 38.0417 20.8242 38.825C20.0409 39.6083 19.0992 40 17.9992 40ZM9.19922 31H26.8492V15.7C26.8492 13.2333 25.9992 11.1333 24.2992 9.4C22.5992 7.66667 20.5159 6.8 18.0492 6.8C15.5826 6.8 13.4909 7.66667 11.7742 9.4C10.0576 11.1333 9.19922 13.2333 9.19922 15.7V31Z" fill="#047857"/>
</svg>
