<svg width="142" height="33" viewBox="0 0 142 33" fill="none" xmlns="http://www.w3.org/2000/svg">
<g clip-path="url(#clip0_4101_24035)">
<path d="M37.0712 7.70791C36.5507 6.19648 35.7861 4.66352 34.7197 3.4752C34.4863 3.21671 34.1812 2.88643 33.9155 2.66025C33.815 2.57404 33.5852 2.391 33.4524 2.391C33.093 2.18396 32.7364 1.97213 32.3827 1.75555C31.1296 1.19909 29.4855 0.84367 28.132 0.617694C25.2886 0.140113 22.0611 0 19.1746 0C16.2487 0 13.0751 0.154573 10.1851 0.635445C8.82443 0.86162 7.19812 1.21704 5.93082 1.76991C5.62217 1.94961 5.17341 2.2079 4.86456 2.391C4.72819 2.391 4.50202 2.5707 4.3979 2.66025C4.13229 2.88643 3.83067 3.21312 3.59726 3.4752C2.53101 4.67429 1.76632 6.1893 1.24576 7.70791C0.800589 9.00034 0.502711 10.3646 0.312337 11.7145C0.0897521 13.2905 0 14.9133 0 16.5001C0 18.0834 0.0897521 19.6952 0.315927 21.2641C0.513382 22.632 0.818539 24.007 1.26371 25.3138C1.78786 26.8324 2.54896 28.3475 3.61875 29.5501C3.84847 29.8088 4.15004 30.1317 4.40862 30.3578C4.50915 30.4441 4.73532 30.6271 4.86456 30.6271C5.18408 30.8172 5.60771 31.065 5.93082 31.2481C7.20894 31.808 8.82802 32.16 10.2031 32.386C13.0644 32.8601 16.2774 33 19.1747 33C22.0791 33 25.2922 32.8599 28.1535 32.386C29.5177 32.16 31.1153 31.8046 32.3826 31.2481L33.4524 30.6271C33.5887 30.6271 33.8149 30.4404 33.9154 30.3541C34.1811 30.1244 34.4862 29.7903 34.7197 29.5282C35.7824 28.3327 36.547 26.8035 37.0711 25.2919C37.5235 23.9924 37.825 22.621 38.0225 21.2604C38.2486 19.695 38.3384 18.0831 38.3384 16.4998C38.3384 14.9166 38.2486 13.3013 38.0225 11.7358C37.8287 10.3753 37.5236 9.00398 37.0712 7.70791ZM29.69 21.7847C29.3776 22.693 28.9182 23.5832 28.2826 24.2976C28.1462 24.4483 27.9667 24.6422 27.8122 24.7715C27.7511 24.8254 27.6182 24.933 27.5357 24.933C27.3813 25.0337 27.0905 25.2274 26.9398 25.3315C26.2002 25.712 25.2954 25.9454 24.4769 26.0927C22.8004 26.4013 20.8796 26.4876 19.1743 26.4876C17.4655 26.4876 15.5231 26.4014 13.8395 26.0927C13.0173 25.9455 12.127 25.7085 11.3803 25.3315C11.1901 25.2094 10.971 25.0586 10.7844 24.933C10.7019 24.933 10.5654 24.8218 10.5008 24.7678C10.3428 24.635 10.1597 24.4376 10.0233 24.2796C9.39146 23.5686 8.93911 22.6459 8.63036 21.7484C8.07031 20.1113 7.88721 18.23 7.88721 16.4996C7.88721 14.7584 8.08108 12.8844 8.6519 11.2366C8.94988 10.3318 9.39864 9.42716 10.0413 8.7235C10.1741 8.57287 10.3536 8.37547 10.5079 8.24612C10.569 8.19227 10.7018 8.08806 10.7844 8.08806C10.9904 7.95137 11.1951 7.81254 11.3983 7.67161C12.1271 7.29824 13.0533 7.0613 13.8575 6.91051C15.5268 6.59798 17.4762 6.51201 19.1744 6.51201C20.9048 6.51201 22.8005 6.6088 24.4984 6.92846C25.299 7.07925 26.2361 7.31619 26.9612 7.69315C27.0763 7.77213 27.4208 8.00569 27.5357 8.08806C27.6182 8.08806 27.7547 8.19576 27.8157 8.24961C27.9737 8.38245 28.1603 8.58349 28.2967 8.73787C28.9357 9.45957 29.3953 10.3428 29.7076 11.2546C30.2714 12.8845 30.4507 14.7766 30.4507 16.4996C30.451 18.252 30.2572 20.1296 29.69 21.7847ZM132.815 0.524252L122.795 14.364L112.485 0.524252H103.854L118.979 21.7128V32.3503H126.504V21.7128L141.342 0.524252H132.815Z" fill="#171717"/>
<path d="M110.979 25.0947V32.3718H84.5844V0.506287H92.181V25.0947H110.979ZM77.4724 0.473877H69.9836V20.8082L51.4731 0.473877H43.6719V32.3503H51.2901V11.596L69.9836 32.3503H77.4724V0.473877Z" fill="#171717"/>
</g>
<defs>
<clipPath id="clip0_4101_24035">
<rect width="141.342" height="33" fill="white"/>
</clipPath>
</defs>
</svg>
