<svg width="138" height="35" viewBox="0 0 138 35" fill="none" xmlns="http://www.w3.org/2000/svg">
<path fill-rule="evenodd" clip-rule="evenodd" d="M31.7327 0.151131C19.8477 2.11726 2.55178 19.3754 0.273059 31.5426C-0.330927 34.7679 -0.319363 34.7772 4.47359 34.7907C9.551 34.8046 9.20564 34.9664 9.64967 32.3659C11.6166 20.8462 22.2416 6.26537 31.38 2.54549C33.2348 1.79041 35.8542 2.31962 36.7346 3.62703C38.8784 6.81116 33.2687 14.5096 24.9794 19.7581C23.4111 20.7514 22.1749 21.4683 16.9218 24.4312C13.7986 26.1927 13.871 25.8076 15.8876 29.9226C16.667 31.5133 17.4394 33.0913 17.6044 33.4293C18.4944 35.2559 20.9905 35.1723 28.3366 33.0697L29.5955 32.7097L29.8876 33.1148C30.9056 34.5251 31.5307 34.7475 34.4651 34.744C36.0404 34.7421 37.0888 34.6727 37.6573 34.534C40.0004 33.9604 40.0999 33.9473 40.725 34.1343C44.1192 35.1484 45.8048 35.0774 48.5187 33.8063C50.0986 33.0662 50.0458 33.067 50.8143 33.7858C51.7564 34.6666 52.0053 34.7313 54.5057 34.741C56.7806 34.7498 57.8845 34.5401 58.8307 33.92C59.1468 33.713 59.1684 33.7165 59.1684 33.9701C59.1684 34.6939 59.3746 34.7541 61.9308 34.7799C65.3616 34.8142 65.0521 35.0331 66.4447 31.5834C69.1698 24.8324 70.3311 23.2876 71.9053 24.319C72.4487 24.6752 72.4048 25.0178 71.4917 27.5263C69.8902 31.9253 69.8297 32.7178 71.0026 33.8907C72.1593 35.0474 76.2045 35.109 78.3718 34.0036C78.8864 33.7411 78.9072 33.7407 79.0856 33.9932C79.8542 35.0825 83.4022 35.1426 84.9917 34.0934L85.4947 33.7616L86.4726 34.1817C91.4005 36.2989 95.7953 34.0734 97.2649 28.7165C98.6136 23.801 95.0217 19.8371 90.6246 21.3885C89.3218 21.8483 89.3148 21.9262 91.0474 16.7339C92.953 11.0248 93.0501 11.4442 89.8225 11.4442H87.5256L87.1001 11.8319C86.7486 12.1526 86.4649 12.831 85.4639 15.7464C80.1961 31.0881 79.0906 33.1865 76.8497 32.0918C76.0491 31.701 76.0773 31.4034 77.2236 28.1742C78.6138 24.2581 78.6616 23.2957 77.5165 22.2615C75.9485 20.8447 72.8808 20.6408 70.6873 21.8071C69.8701 22.2415 69.889 22.2407 69.889 21.8387C69.889 21.0281 69.6982 20.9672 67.1142 20.948C64.6135 20.9298 63.9802 21.0436 63.7027 21.562C63.6241 21.7096 62.8883 23.5717 62.068 25.7001C59.7901 31.6096 59.4397 32.1577 57.8502 32.2896C55.9877 32.4437 55.9896 32.2229 57.8991 26.4733C58.7633 23.8708 59.4501 21.5986 59.4251 21.424C59.3804 21.1091 59.358 21.1064 56.7274 21.0682L54.0752 21.0297L53.6847 21.4209C53.4704 21.636 53.117 22.2878 52.9 22.8698C49.6973 31.4504 48.7865 32.9178 46.9954 32.384C45.7589 32.0155 45.7496 32.1045 47.6071 26.5819C48.5479 23.7852 49.1481 21.7855 49.1234 21.5296L49.0829 21.1064L47.249 20.9992C45.0732 20.872 44.2699 20.9453 43.4436 21.3465L42.8292 21.6452L42.0768 21.318C40.6819 20.7117 37.4638 20.8154 35.1951 21.5396C31.6753 22.6639 29.3912 25.517 28.9071 29.3945C28.7941 30.3022 28.3832 30.5131 26.584 30.5874C24.7038 30.6653 23.9838 30.1018 22.6255 27.4912C21.9059 26.1079 21.8932 26.1352 23.6512 25.2533C30.9834 21.5751 41.1097 12.6629 42.2603 8.87558C43.8066 3.78429 38.1434 -0.909602 31.7327 0.151131ZM56.7116 13.28C55.0133 13.943 54.1341 15.6204 54.732 17.0558C55.8717 19.7913 60.2148 19.8568 61.4444 17.1568C62.5614 14.7042 59.4956 12.1927 56.7116 13.28ZM115.971 21.5828C114.135 23.3072 112.105 23.6503 110.866 22.4454C110.042 21.6433 108.889 21.1642 107.579 21.0782C100.282 20.5991 95.5162 31.3383 101.711 34.3008C106.798 36.7345 112.488 32.5135 112.488 26.306C112.488 24.9812 112.34 25.1288 113.96 24.8482C115.609 24.563 115.578 24.4004 114.543 27.8774C113.22 32.3208 113.558 34.0337 115.878 34.6511C117.445 35.0682 119.405 34.7988 121.501 33.8791C122.651 33.3742 123.04 33.3468 123.535 33.7357C125.816 35.53 130.185 35.148 132.438 32.9575C134.231 31.2153 136.134 27.1532 136.886 23.4622C137.404 20.9175 137.387 20.8952 134.878 20.8952C132.387 20.8952 132.646 20.5648 131.125 25.6916C129.225 32.093 128.481 33.2204 126.953 32.0182C126.488 31.6524 126.448 31.9272 127.567 27.7363C129.551 20.3004 129.612 21.0146 126.993 21.0035C124.505 20.9927 124.56 20.9441 123.727 23.8573C121.606 31.2708 121.117 32.3208 119.789 32.3208C118.431 32.3208 118.431 32.2807 119.894 26.654C121.528 20.3656 121.627 20.8952 118.813 20.8952H116.703L115.971 21.5828ZM41.0689 23.3608C42.9074 25.4484 39.0939 33.3938 36.7805 32.2953C35.0529 31.4751 36.0458 26.4763 38.4267 24.0045C39.61 22.7765 40.3874 22.5869 41.0689 23.3608ZM91.5115 23.0228C93.2752 23.8264 92.2569 28.794 89.8101 31.3233C86.1646 35.0913 85.5903 28.1588 89.2115 24.0989C90.2175 22.9708 90.7996 22.6986 91.5115 23.0228ZM109.343 23.1461C110.865 24.0739 109.828 28.7832 107.564 31.23C104.091 34.9826 103.164 28.7393 106.557 24.4466C107.69 23.0132 108.503 22.6339 109.343 23.1461Z" fill="#FAFAFA"/>
</svg>
