<svg width="24" height="24" viewBox="0 0 24 24" fill="none" xmlns="http://www.w3.org/2000/svg">
<path d="M12 24C8.675 24 5.84375 22.8313 3.50625 20.4938C1.16875 18.1563 0 15.325 0 12C0 8.675 1.16875 5.84375 3.50625 3.50625C5.84375 1.16875 8.675 0 12 0C14.125 0 15.9875 0.43125 17.5875 1.29375C19.1875 2.15625 20.575 3.3375 21.75 4.8375V0H24V9.525H14.475V7.275H20.775C19.825 5.775 18.6125 4.5625 17.1375 3.6375C15.6625 2.7125 13.95 2.25 12 2.25C9.275 2.25 6.96875 3.19375 5.08125 5.08125C3.19375 6.96875 2.25 9.275 2.25 12C2.25 14.725 3.19375 17.0312 5.08125 18.9187C6.96875 20.8062 9.275 21.75 12 21.75C14.075 21.75 15.975 21.1563 17.7 19.9688C19.425 18.7812 20.625 17.2125 21.3 15.2625H23.625C22.9 17.8875 21.4625 20 19.3125 21.6C17.1625 23.2 14.725 24 12 24Z" fill="white"/>
</svg>
