<svg width="213" height="34" viewBox="0 0 213 34" fill="none" xmlns="http://www.w3.org/2000/svg">
<path fill-rule="evenodd" clip-rule="evenodd" d="M59.6436 0.214251C58.6622 0.473239 58.0814 0.718452 56.3054 1.62381C53.4383 3.08572 52.5798 3.77011 50.7592 6.04811C50.2787 6.64874 49.6631 7.30999 49.3909 7.51773C48.771 7.98997 48.3616 8.54487 47.6315 9.90153C47.3157 10.4884 46.8539 11.3221 46.6054 11.7541C45.4444 13.7742 44.9022 16.0318 45.4141 16.7179C45.8527 17.3064 45.9563 17.6921 46.0461 19.0686C46.1067 20.001 46.2087 20.6556 46.3894 21.2755C46.6903 22.3065 46.6787 22.2895 46.9112 22.079C47.162 21.8525 47.6331 21.8751 47.9031 22.1263C48.377 22.5677 47.9296 23.586 47.3278 23.4362L47.076 23.3739L47.3416 23.6522C47.4876 23.8054 47.7378 24.007 47.8965 24.1013L48.1864 24.2721L48.285 23.9883C48.5181 23.3204 49.4455 23.4285 49.6251 24.1448C49.6973 24.4335 49.4356 24.9052 49.2625 24.7983C49.2008 24.7603 49.2995 24.9366 49.4818 25.1912C49.7728 25.5957 49.8257 25.6315 49.9095 25.4783C50.0505 25.2193 50.1778 25.1593 50.5905 25.1576C51.5505 25.1538 51.7747 26.3671 50.8705 26.6735L50.569 26.776L50.903 27.1689L51.2369 27.5612L51.3515 27.2394C51.6331 26.4504 52.8178 26.4393 53.0669 27.2229C53.2752 27.8786 52.8586 28.4346 52.1985 28.3817L51.7626 28.347L52.0706 28.7768C52.3853 29.2166 53.3937 30.1495 53.7612 30.3412C54.1976 30.5683 54.7961 30.7391 54.6842 30.6041C54.6264 30.5341 54.6076 30.3616 54.6423 30.2217C54.7046 29.9748 54.6925 29.9671 54.2511 29.9671C53.2956 29.9671 52.8614 29.518 53.0581 28.7339C53.3099 27.7288 54.8611 28.3035 54.752 29.3615C54.704 29.8244 54.7167 29.8773 54.8633 29.8205C54.9542 29.7852 55.2386 29.7312 55.4942 29.7009C56.0343 29.6365 56.1092 29.5648 56.1902 29.0408C56.3335 28.1112 57.6802 28.0913 58.0213 29.0143C58.2318 29.583 58.2616 29.6078 58.7658 29.6299C59.4061 29.658 59.5802 29.5505 59.6551 29.0821C59.7626 28.4087 60.507 28.3123 61.0911 28.8959C61.6708 29.4756 61.2454 30.0762 60.3776 29.9026C59.9764 29.8222 59.7929 30.1528 59.8618 30.83L59.9147 31.3496L60.3324 31.2868C61.0906 31.1733 61.6367 31.8009 61.3237 32.428L61.1804 32.7157L61.8356 32.7063C62.3988 32.6975 63.211 32.5575 62.8589 32.5294C62.7867 32.5234 62.736 32.3828 62.736 32.1878C62.736 31.7728 62.5619 31.6252 61.9965 31.5618C60.9854 31.4477 60.809 30.0519 61.7529 29.6354C62.0781 29.4921 62.2974 29.2832 63.0925 28.3597C63.5609 27.8153 64.6514 28.4126 64.6481 29.2122C64.6459 29.885 64.6459 29.885 63.891 29.9572L63.276 30.0161L63.2468 30.6294L63.2176 31.2433H63.7604C64.3544 31.2433 64.3153 31.289 64.4525 30.4366C64.5324 29.9395 64.7291 29.7704 65.2278 29.7704C65.8295 29.7704 65.996 29.6133 65.9579 29.0816C65.9254 28.6203 65.8913 28.5933 65.1661 28.4468C64.5555 28.3233 64.8729 26.9231 65.5116 26.9231C66.0268 26.9231 66.4671 26.4041 66.4671 25.7968C66.4671 24.9146 67.8948 25.0546 68.075 25.955C68.1577 26.3688 68.3054 26.5308 68.5991 26.5308C69.1529 26.5308 69.608 26.9964 69.7028 27.6599L69.759 28.0522L70.1993 28.0197C70.7542 27.9789 70.7575 27.9751 70.8054 27.2648L70.8451 26.6735L70.4533 26.6631C69.4135 26.6361 69.2779 25.156 70.315 25.156C70.8693 25.156 71.2049 25.4827 71.1636 25.9825L71.1305 26.3875L71.8976 26.4024C72.4095 26.4123 72.6762 26.3787 72.6994 26.3021C72.7186 26.2388 72.76 26.0674 72.7919 25.9214C72.8751 25.5411 73.4455 25.1361 73.8979 25.1361C74.5161 25.1361 74.8368 25.7919 74.4555 26.2773C74.3673 26.3897 74.5883 26.1781 74.9465 25.8073C75.7102 25.0171 75.7146 25.0033 75.2104 24.9229C74.547 24.8165 74.3431 24.185 74.8335 23.7569C75.3245 23.3287 76.2442 23.7811 76.0475 24.3536C76.0161 24.444 76.102 24.3851 76.2381 24.223C76.539 23.866 77.0234 23.0278 76.8426 23.1777C76.6382 23.3474 76.285 23.0455 76.285 22.7016C76.285 22.2597 77.1611 21.8442 77.2884 22.2261C77.3567 22.4322 77.754 21.2293 77.9034 20.3625C77.9838 19.8941 78.1717 18.8036 78.3211 17.9395C78.8049 15.1359 78.7068 12.082 78.0907 10.7727C77.7932 10.1396 74.3993 5.9908 73.0234 4.57738C71.8149 3.33644 71.443 3.1039 70.0015 2.68897C68.6784 2.30875 67.8563 1.93625 66.7283 1.20502C65.1407 0.17678 61.6394 -0.313094 59.6436 0.214251ZM1.99105 0.467178C1.71001 0.542671 1.32318 0.669961 1.13197 0.749861L0.783716 0.895336V1.5632C0.783716 1.93019 0.712633 2.62836 0.626119 3.11437C0.506544 3.78499 0.486707 4.23519 0.544566 4.97964C0.636039 6.15501 0.582587 8.78843 0.44648 9.83981C0.390825 10.2718 0.429399 10.576 0.639345 11.3618C1.0405 12.8606 1.0653 13.7919 0.736328 14.9942C0.418929 16.152 0.431602 17.2419 0.772695 18.2343C1.03168 18.9865 1.0405 20.0175 0.796392 21.016C0.470176 22.3506 0.358314 23.1546 0.443174 23.5524C0.487257 23.7596 0.526381 24.1387 0.530239 24.395L0.536852 24.8617H0.911006C1.4356 24.8617 1.85328 25.1064 2.02356 25.5147C2.30459 26.187 1.84832 26.8251 1.08679 26.8251C0.708223 26.8251 0.567709 27.078 0.606833 27.6874L0.63659 28.1503L1.02948 28.1768C1.73647 28.2236 1.86982 28.2881 2.023 28.6551C2.31781 29.3593 1.92768 29.9566 1.14244 30.0029C0.57873 30.036 0.616752 29.9825 0.572118 30.8014L0.534647 31.4885L1.05813 31.4549C1.73206 31.4108 2.24838 31.7414 1.65436 31.8357C1.47252 31.8649 2.2076 31.9211 3.28764 31.9608C4.36768 32.0004 5.5998 32.061 6.02521 32.0952C7.03636 32.1762 7.0562 31.8456 6.05 31.6836C5.49621 31.5949 5.20195 31.2576 5.20195 30.711C5.20195 30.2068 5.04491 30.0652 4.48725 30.0652C4.07673 30.0652 3.82766 30.3153 3.82766 30.7275C3.82766 31.5844 2.86389 31.9641 2.24893 31.3491C1.62405 30.7237 2.00758 29.8696 2.95647 29.7742L3.48381 29.7213L3.48822 29.2794C3.49648 28.4352 3.80782 28.1013 4.58865 28.1013C5.06474 28.1013 5.20195 27.9641 5.20195 27.4885C5.20195 26.9821 5.54635 26.6289 6.03843 26.6289C7.39344 26.6289 7.49869 28.2583 6.1525 28.3939C5.65601 28.444 5.64554 28.4517 5.58713 28.8132C5.42733 29.8001 6.59443 30.0889 6.85232 29.1262C7.01873 28.503 7.3466 28.1994 7.853 28.1994C8.4867 28.1994 8.74789 28.5564 8.85755 29.5742C8.88124 29.7979 8.92533 29.8194 9.35018 29.8194H9.81636L9.81746 29.2303C9.81856 28.9063 9.84336 28.5526 9.87256 28.444C9.9205 28.2644 9.88579 28.2495 9.48739 28.2815C8.91376 28.3272 8.63824 28.077 8.63824 27.5111C8.63824 26.8713 9.39481 26.5016 9.82462 26.9314C9.93704 27.0438 10.0434 27.1215 10.0605 27.1033C10.12 27.0405 10.3966 25.0981 10.5514 23.661C10.7179 22.112 10.9504 21.162 11.2017 21.0033C11.6811 20.7008 12.6713 21.5549 13.2526 22.7733C13.4764 23.2416 13.9067 24.0026 14.2098 24.4639C14.5129 24.9256 14.9956 25.6987 15.2832 26.182C15.5703 26.6653 15.8056 27.0075 15.8056 26.943C15.8056 26.7396 16.1968 26.8146 16.4481 27.0659C16.7517 27.3695 16.7512 27.5221 16.4437 27.8869C16.1384 28.2506 16.139 28.3189 16.4613 28.9851L16.7225 29.5252L16.7832 29.1323C16.9672 27.9349 18.6484 27.9249 18.6545 29.1212C18.6567 29.5571 18.7674 29.68 19.2138 29.7401C19.8403 29.8238 20.0271 29.6646 20.0271 29.048C20.0271 28.3784 20.2613 28.1365 21.0135 28.0291L21.5491 27.9525L21.5789 27.4411C21.6174 26.7678 21.8913 26.5308 22.6302 26.5308C23.1967 26.5308 23.281 26.468 23.459 25.9164C23.6039 25.4656 23.8458 25.324 24.3925 25.3681L24.8096 25.4017L24.4707 24.6159C23.9748 23.4687 23.562 22.4355 23.5615 22.3412C23.5615 22.2966 23.4287 22.0608 23.2672 21.8178C23.1058 21.5748 22.9735 21.4486 22.973 21.5373C22.9724 21.8525 22.3145 21.9247 22.0555 21.6381C21.7006 21.2463 22.0577 20.2302 22.4622 20.4804C22.5101 20.5101 22.4886 20.3041 22.4148 20.0225C22.2395 19.3557 22.2991 19.154 22.7663 18.83C23.5824 18.2647 25.1821 16.2947 25.8152 15.0758C26.1773 14.3787 26.3239 11.4577 26.0698 10.0029C25.6141 7.3954 24.2128 4.60218 22.3679 2.62725C20.9782 1.1389 20.236 1.00334 12.3693 0.801659C9.53588 0.728922 7.96156 0.644613 6.89199 0.507955C5.10387 0.279825 2.75864 0.259987 1.99105 0.467178ZM32.8399 0.623673C31.7946 0.775209 31.8673 0.518425 31.7968 4.3206C31.7626 6.14123 31.68 8.0032 31.6127 8.45891C31.4546 9.52737 31.5389 12.3057 31.7543 13.129C32.026 14.1671 32.0519 15.3623 31.8254 16.428C31.4353 18.2663 31.4562 19.7789 31.9037 22.0635C32.0095 22.6035 32.1087 23.1777 32.1241 23.3397C32.15 23.6053 32.1825 23.6312 32.4591 23.6053C32.7815 23.5745 33.2818 24.0175 33.2818 24.3333C33.2818 24.5619 32.8234 24.9598 32.5605 24.9598C32.3941 24.9598 32.3043 25.027 32.2657 25.1808C32.193 25.4712 32.0943 27.1215 32.1632 26.8989C32.3517 26.2883 33.3678 26.9755 33.3777 27.7199C33.386 28.3322 32.0238 28.7228 31.999 28.1156C31.9874 27.8395 31.7196 28.9179 31.7152 29.2579C31.7103 29.6288 31.7439 29.6458 32.571 29.6965L33.1854 29.734L33.1319 29.286C33.0372 28.4958 33.4455 28.1206 34.4159 28.1068C34.8991 28.1002 35.049 27.9668 35.049 27.542C35.049 26.5198 36.1924 26.5732 36.8443 27.6263C37.1859 28.179 38.0924 28.1971 38.0924 27.6511C38.0924 26.5749 39.6822 26.3853 40.0932 27.413C40.361 28.082 41.2565 28.2346 41.3154 27.6213C41.375 26.9981 41.2846 26.8587 40.7765 26.7892C39.5042 26.6146 39.6926 24.9598 40.9854 24.9598C41.7171 24.9598 41.8004 24.8138 41.9117 23.3397C42.0131 21.9858 41.9838 21.599 41.7634 21.4161C41.581 21.2645 41.591 20.9311 41.7871 20.6512C41.9772 20.3801 42.0235 18.0448 41.8836 15.8291C41.8163 14.77 41.8334 14.2266 41.9701 13.129C42.1899 11.3524 42.191 10.2173 41.9739 9.02593C41.7491 7.7905 41.8081 5.72355 42.1095 4.2925C42.223 3.75248 42.3448 2.76777 42.3795 2.10432L42.4429 0.898091L41.2251 0.975237C39.2849 1.09867 38.4208 1.06781 37.111 0.829211C35.6888 0.570222 33.8263 0.480403 32.8399 0.623673ZM82.0086 0.615408C81.1727 0.78072 81.1633 0.795047 80.9986 2.17926C80.8244 3.64172 81.0118 7.14909 81.3441 8.63414C81.4207 8.97799 81.6896 9.05513 83.1829 9.16038C84.5732 9.25847 86.3751 9.4899 86.4671 9.58248C86.5304 9.6453 86.3249 10.9033 86.1293 11.656C85.9078 12.5068 85.9337 13.6839 86.1893 14.3958C86.4572 15.1414 86.4555 15.9382 86.1849 17.0072C85.9138 18.0762 85.9155 19.2036 86.1893 20.4787C86.304 21.011 86.3976 21.5637 86.3976 21.7065C86.3976 21.955 86.4175 21.9649 86.8451 21.9307C87.357 21.8905 87.6226 22.0619 87.7036 22.4862C87.8232 23.1116 87.1856 23.7508 86.7013 23.4918C86.5883 23.4312 86.4957 23.3954 86.4957 23.4125C86.4957 23.5855 86.2781 25.1532 86.2334 25.2987C86.1789 25.4794 86.1849 25.4805 86.3425 25.3235C86.7498 24.9157 87.5758 25.297 87.5758 25.8921C87.5758 26.7182 86.331 26.7666 86.2924 25.9423C86.288 25.8426 86.2582 25.858 86.2015 25.9908C86.1546 26.0988 86.1139 26.7093 86.11 27.3474L86.1028 28.5085L86.3618 28.3052C86.5205 28.1801 86.7646 28.1013 86.9933 28.1013C87.3917 28.1013 87.4105 28.0765 87.5306 27.3981C87.6325 26.824 88.1114 26.4322 88.7131 26.4322C88.9589 26.4322 89.0763 26.2608 89.1865 25.7373C89.311 25.1499 90.4109 25.0617 90.7029 25.6161C91.0589 26.2922 90.7536 26.9231 90.0698 26.9231C89.603 26.9231 89.441 27.1116 89.441 27.6549C89.441 28.1062 89.1242 28.3415 88.4437 28.3955L87.821 28.4451L87.8056 28.8639C87.7857 29.3742 87.9582 29.5742 88.4172 29.5742C88.8547 29.5742 89.1468 29.2855 89.1468 28.8529C89.1468 28.3812 89.4168 28.1817 90.1508 28.1112C90.8076 28.0478 90.8082 28.0478 90.9619 27.2885C91.1719 26.2542 92.7903 26.4542 92.8156 27.5177L92.8283 28.0522L93.2702 28.0533C93.5132 28.0539 93.8174 28.0919 93.9458 28.1376C94.1668 28.2164 94.1767 28.2032 94.1309 27.8919C94.0306 27.2097 94.3486 26.8576 95.1112 26.8052L95.4303 26.7832V25.8718V24.9598H95.1052C94.1326 24.9598 94.0968 23.5657 95.0688 23.5442C95.5422 23.5331 95.5796 23.3651 95.551 21.3758C95.5328 20.1079 95.5741 19.5216 95.7653 18.3324C95.8959 17.5224 96.0298 16.4402 96.0634 15.9271C96.2734 12.7229 96.6431 9.9919 96.9027 9.7296C97.2173 9.4111 98.2356 9.15983 99.5295 9.08103C100.666 9.0116 100.595 9.12897 100.729 7.09068C100.791 6.14564 100.908 4.77631 100.99 4.04728C101.071 3.31826 101.163 2.47296 101.193 2.16934L101.248 1.6172L99.3454 1.62932C97.4873 1.64144 97.4135 1.63428 96.1665 1.31247C95.0561 1.02648 94.7817 0.990115 94.0554 1.0331C93.1198 1.08875 86.0863 0.765842 84.8845 0.612101C83.983 0.496383 82.6021 0.498588 82.0086 0.615408ZM135.355 0.66941C134.93 0.746004 134.268 0.93446 133.882 1.08765C132.829 1.50589 132.671 1.51581 131.593 1.23312C130.924 1.05679 130.312 0.970277 129.597 0.95044C129.03 0.93446 128.174 0.851253 127.694 0.765842C126.615 0.57408 125.524 0.570773 124.688 0.757576C124.337 0.835824 123.629 0.975788 123.115 1.06836L122.179 1.23643L121.304 0.963665C120.606 0.746004 120.326 0.704125 119.918 0.754821C119.031 0.86558 119.067 0.755372 119.103 3.26756C119.166 7.62463 119.138 8.96421 118.964 9.99906C118.738 11.3436 118.749 12.6677 118.993 13.6872C119.245 14.7364 119.239 15.0675 118.944 16.3195C118.667 17.5031 118.634 18.5909 118.809 20.7835C118.935 22.3589 118.911 22.2795 119.205 22.0734C119.703 21.7246 120.564 22.0553 120.564 22.5942C120.564 23.2802 119.965 23.6428 119.371 23.3171L118.994 23.1105V24.2341V25.3576L119.3 25.1989C119.931 24.8727 120.761 25.3086 120.761 25.9665C120.761 26.3997 120.911 26.5308 121.405 26.5308C122.224 26.5308 122.804 27.8417 122.142 28.196C121.586 28.4936 120.502 28.2159 120.456 27.764C120.45 27.7067 120.432 27.5078 120.417 27.3226C120.385 26.9391 120.157 26.727 119.774 26.727C119.629 26.727 119.394 26.6355 119.252 26.5236L118.994 26.3198V27.4224C118.994 28.4809 119 28.5184 119.172 28.363C119.82 27.7767 120.501 28.1321 120.823 29.2243C121.027 29.9142 121.961 29.729 122.088 28.973C122.177 28.4495 122.483 28.1431 123.007 28.0544C123.467 27.9767 123.648 27.769 123.746 27.2069C123.835 26.7 124.053 26.5468 124.738 26.5115L125.326 26.4812L125.348 25.9759C125.374 25.3907 125.286 25.2821 124.746 25.237C124.171 25.189 124.059 24.9251 124.468 24.5862C124.644 24.4407 124.787 24.266 124.787 24.1988C124.786 24.0462 124.665 24.0407 124.518 24.1872C124.361 24.3443 124.099 24.2175 124.099 23.9844C124.099 23.7635 124.435 23.542 124.646 23.6235C124.724 23.6533 124.786 23.7403 124.786 23.8169C124.786 23.8941 124.855 23.9833 124.938 24.0153C125.022 24.0473 125.134 24.1983 125.187 24.3509C125.291 24.6501 125.606 24.8049 126.344 24.9212C127.804 25.1504 127.559 26.9231 126.066 26.9231H125.768V27.5122C125.768 28.0721 125.78 28.1013 126.009 28.1013C126.749 28.1013 127.241 28.3046 127.241 28.6104C127.241 29.2689 127.602 29.6855 128.29 29.8205L128.602 29.8817L128.646 28.8689C128.671 28.3118 128.765 27.326 128.856 26.6779C128.97 25.8618 129.003 25.1824 128.964 24.4688C128.78 21.0965 128.779 20.9851 128.948 20.8446C129.234 20.6077 129.875 20.5614 131.021 20.6947C131.958 20.8038 132.382 20.8027 133.689 20.6859C134.544 20.6099 135.65 20.546 136.149 20.5443C137.008 20.5416 137.057 20.53 137.104 20.3206C137.47 18.6686 137.759 14.7468 137.545 14.3462C137.423 14.1197 136.765 14.0971 135.526 14.2762C134.84 14.3754 134.527 14.3666 133.433 14.2173C132.267 14.058 129.64 13.9715 129.008 14.0718L128.763 14.1109L128.679 11.9999C128.634 10.8388 128.59 9.68993 128.581 9.44692L128.566 9.00554L129.057 8.97909C129.327 8.96476 130.1 8.88376 130.775 8.79945C131.702 8.68318 132.724 8.65232 134.95 8.67326C138.203 8.70412 138.139 8.71459 138.139 8.15749C138.139 7.94093 138.406 6.29938 138.733 4.50905C139.377 0.983502 139.381 0.865029 138.875 0.653429C138.436 0.469933 136.409 0.479301 135.355 0.66941ZM143.735 0.672165C142.545 0.904704 142.211 1.58799 142.061 4.09633C141.963 5.73291 141.864 6.74352 141.62 8.5636C141.435 9.95278 141.467 10.9375 141.784 13.5709C142.037 15.6731 142.033 17.8123 141.774 20.0506C141.515 22.2917 141.521 22.851 141.82 23.9293C142.039 24.7239 142.065 25.0094 142.076 26.776C142.083 27.8561 142.108 28.6666 142.132 28.5768C142.156 28.4875 142.411 28.3184 142.7 28.2016C143.307 27.9547 143.564 27.7117 143.791 27.1673C143.995 26.6785 144.067 26.6322 144.641 26.63C145.826 26.6261 145.611 28.2848 144.413 28.3961L143.883 28.4451V29.0342V29.6232L144.357 29.6535C144.934 29.6905 145.068 29.5902 145.138 29.0722C145.213 28.514 145.523 28.217 146.111 28.1387C146.644 28.0677 146.779 27.9172 146.779 27.3899C146.779 26.8074 147.277 26.4548 147.927 26.5765C149.14 26.8041 148.939 28.3492 147.681 28.4699C147.401 28.4969 147.168 28.5465 147.165 28.5801C147.162 28.6137 147.151 28.8623 147.141 29.1323L147.122 29.6232L147.556 29.6541C148.213 29.7009 148.448 29.6144 148.448 29.3235C148.448 28.4848 149.255 27.8919 149.96 28.2131C150.219 28.3311 150.411 28.7421 150.411 29.1763C150.411 29.5202 150.579 29.6723 150.956 29.6723C151.316 29.6723 151.472 29.8266 151.825 30.5297C152.227 31.3326 152.731 31.3629 153.095 30.6046C153.442 29.8817 153.386 29.7164 152.807 29.7538C152.055 29.8023 151.57 28.9179 152.172 28.5955C152.454 28.4451 152.532 28.4661 152.9 28.789C153.084 28.951 153.306 29.0832 153.392 29.0832C153.479 29.0832 153.577 29.1923 153.61 29.3251C153.683 29.6139 153.941 29.7136 154.395 29.6282C155.097 29.4965 155.182 28.5046 154.507 28.3239C153.634 28.0908 153.343 27.6097 153.757 27.084C154.268 26.4344 155.221 27.0752 154.831 27.8048C154.746 27.9635 154.782 27.9944 155.121 28.0517C155.545 28.1233 155.912 27.9249 156.846 27.1166C157.561 26.4977 158.364 26.6548 158.364 27.4141C158.364 27.9448 158.756 28.1547 159.886 28.2291C160.176 28.2484 160.18 28.2423 160.18 27.758C160.18 26.8868 160.952 26.366 161.442 26.9066C161.87 27.3794 161.572 27.9861 160.735 28.3481C159.978 28.676 160.205 29.5511 161.058 29.5973C161.664 29.6304 161.653 29.6662 161.856 27.078C162.05 24.6104 161.94 24.2699 161.114 24.7857C160.957 24.8837 160.87 24.8766 160.649 24.7465C160.111 24.4313 157.781 24.3244 155.672 24.5184C153.717 24.698 152.938 24.6815 152.713 24.4561C152.285 24.028 152.259 20.3211 152.682 19.8985C152.903 19.6775 155.792 19.5844 157.093 19.7569L158.073 19.8864L159.029 19.4422C159.554 19.1976 160.106 18.9479 160.256 18.8873C160.62 18.7391 160.711 18.4553 160.772 17.2706C160.801 16.7206 160.873 15.8153 160.935 15.2587C161.031 14.3771 161.026 14.2266 160.894 14.0944C160.381 13.5814 156.569 13.4067 154.601 13.8062C152.229 14.2873 152.055 14.1148 152.04 11.2736C152.029 9.29649 151.955 9.39953 153.374 9.39182C154.657 9.3841 160.457 8.28643 160.836 7.9795C160.994 7.85276 161.06 7.59598 161.17 6.69503C161.246 6.07566 161.444 4.62532 161.61 3.47255C161.775 2.31922 161.882 1.34719 161.847 1.31247C161.812 1.27776 160.296 1.24745 158.478 1.2458C155.491 1.24304 155.056 1.22155 153.958 1.02318C152.202 0.705227 151.202 0.657287 150.313 0.846293C149.391 1.04301 148.073 1.04687 146.926 0.855661C145.982 0.698615 144.141 0.592815 143.735 0.672165ZM5.13197 1.23698C5.53588 1.43811 5.72379 1.69214 5.63672 1.91972C5.59264 2.03489 5.31161 2.07181 4.25857 2.09881C2.73881 2.13793 2.81375 2.09054 2.64127 3.11162C2.54815 3.661 2.55035 3.88197 2.65119 4.19441C2.85397 4.8248 2.67709 6.59309 2.35087 7.18876C2.20981 7.44665 1.84282 6.43439 1.76347 5.5687C1.72379 5.13669 1.60973 4.57518 1.50999 4.3206C1.18873 3.50286 1.58272 1.37419 2.10456 1.11079C2.46218 0.9295 4.70161 1.02373 5.13197 1.23698ZM84.2921 1.21053C85.0459 1.57036 84.6927 1.98144 83.5504 2.07346L82.8142 2.13242L82.7426 2.47627C82.7029 2.66528 82.6368 3.46043 82.5949 4.24345L82.5194 5.66734L82.261 5.6971C81.6411 5.76873 81.3705 2.12691 81.9474 1.47889C82.3717 1.00114 83.567 0.864478 84.2921 1.21053ZM196.949 1.16645C196.441 1.26398 195.711 1.2987 194.593 1.27831L192.973 1.2491L192.91 1.88721C192.614 4.83858 192.606 7.31054 192.887 8.83361C192.951 9.18297 193.2 9.26398 193.414 9.00554C193.547 8.84519 197.266 8.78127 197.508 8.93501C197.936 9.20722 197.981 11.1998 197.603 13.129C197.465 13.831 197.326 14.6261 197.293 14.8962C197.26 15.1662 197.165 15.8175 197.083 16.3437C196.897 17.5252 197.135 20.3255 197.43 20.4236C197.974 20.6049 197.904 21.6216 197.349 21.6216C197.197 21.6216 197.161 21.7395 197.103 22.4316C197.065 22.8769 197.012 23.3337 196.985 23.4466C196.942 23.6246 196.973 23.6456 197.221 23.6092C197.59 23.5552 197.833 23.7954 197.833 24.2153C197.833 24.7102 197.362 25.0386 197.071 24.7471C196.942 24.6181 196.971 24.9168 197.205 26.0889C197.28 26.4669 197.342 26.8201 197.343 26.8741C197.344 26.9281 197.387 26.9061 197.439 26.8251C197.627 26.5308 198.063 26.9083 198.181 27.467L198.284 27.9541L198.761 27.9844C199.287 28.0186 199.4 27.9299 199.402 27.483C199.406 26.8074 199.724 26.5308 200.496 26.5308C201.1 26.5308 201.43 26.8129 201.525 27.4108C201.659 28.2478 202.548 28.25 202.671 27.4141C202.698 27.2251 202.755 26.9661 202.795 26.8383C202.863 26.6261 202.849 26.6135 202.633 26.6906C201.692 27.0273 200.853 26.3264 201.268 25.55C201.707 24.7306 203.115 25.2133 203.005 26.1451L202.945 26.646L203.457 26.5787C203.739 26.5418 204.068 26.4487 204.19 26.3716C204.401 26.2377 204.425 26.1583 204.454 25.5141C204.474 25.07 204.744 24.94 205.564 24.9785L206.276 25.0127L206.27 24.5195C206.264 24.0197 206.013 22.4972 205.993 22.8377C205.958 23.4169 204.946 23.4582 204.653 22.8923C204.281 22.1721 205.245 21.5588 205.853 22.1296L206.08 22.3429V22.0497C206.08 21.8888 206.169 21.4177 206.277 21.0039C206.385 20.59 206.54 19.661 206.62 18.9397C206.723 18.004 206.857 17.3643 207.085 16.7041L207.405 15.78L207.382 13.4232C207.343 9.63648 207.511 8.88872 208.371 8.99672C211.045 9.33175 212.14 9.01546 212.026 7.94093C211.988 7.58441 212.021 6.85263 212.107 6.15777C212.334 4.33327 212.404 2.08779 212.244 1.78912C212.043 1.41386 211.021 1.30421 210.014 1.55052C208.977 1.804 207.87 1.77094 206.423 1.44307C204.97 1.11355 203.091 1.01932 201.518 1.19675C200.587 1.30145 200.287 1.29649 199.391 1.16149C198.17 0.97689 197.933 0.977441 196.949 1.16645ZM62.4214 1.22486C62.8109 1.69379 62.5707 2.37818 62.0169 2.37818C61.6053 2.37818 61.4598 2.2272 61.4598 1.8018C61.4598 1.23202 62.1056 0.84464 62.4214 1.22486ZM174.793 1.39788C170.281 2.0167 166.539 4.50079 165.77 7.38548C164.793 11.0587 167.666 16.0539 172.042 18.2922C172.592 18.5738 173.374 19.0152 173.779 19.2742C174.342 19.6334 174.699 19.7822 175.29 19.9046C178.189 20.503 179.423 21.9732 178.53 23.7651C177.955 24.919 177.049 25.2904 174.697 25.3361L172.916 25.3709L173.052 25.6315C173.237 25.9847 173.225 26.0701 172.969 26.306C172.266 26.9485 171.249 26.2288 171.877 25.534C172.026 25.3692 172.025 25.3516 171.853 25.2893C170.719 24.8777 169.608 24.1845 168.624 23.2747C167.097 21.8629 166.509 21.5455 166.328 22.0354C166.274 22.1814 166.292 22.2977 166.38 22.3864C166.546 22.5523 166.546 22.6096 166.38 22.8515C166.126 23.2207 166.075 25.3064 166.313 25.545C166.566 25.7974 166.564 25.8905 166.302 26.1522L166.091 26.3633L166.261 27.6004C166.355 28.2809 166.473 28.8799 166.522 28.9311C166.642 29.0557 166.636 29.4491 166.513 29.5252C166.328 29.6392 166.405 30.2404 166.636 30.4818C166.757 30.609 166.8 30.6394 166.731 30.5495C166.532 30.2916 167.065 29.7704 167.529 29.7704C168.21 29.7704 168.793 30.8278 168.286 31.1414C168.106 31.2527 168.717 31.4692 168.985 31.3893C169.51 31.2323 169.655 31.0631 169.655 30.6085C169.655 30.0993 169.601 30.0536 168.944 30.0068C168.214 29.955 168.062 29.7748 168.101 29.0121L168.133 28.3955H167.637C167.035 28.3961 166.906 28.2826 166.906 27.7492C166.906 26.5743 168.253 26.549 168.441 27.7205L168.502 28.1013H169.067C169.859 28.1013 170.077 28.293 170.144 29.0485L170.195 29.6232L170.77 29.6745C171.458 29.7357 171.659 29.9285 171.764 30.6261C171.848 31.1904 171.907 31.2361 172.432 31.1397C172.878 31.0581 173.189 30.76 173.189 30.4129C173.189 30.0586 173.54 29.826 174.157 29.7709L174.711 29.7213L174.679 29.2303C174.613 28.2247 173.386 28.1707 173.386 29.173C173.386 29.7676 172.826 30.0778 172.123 29.874C171.125 29.5841 171.373 28.2197 172.438 28.1481C173.007 28.1095 173.124 28.0208 173.276 27.5133C173.548 26.6041 174.614 26.5887 174.806 27.4913C174.89 27.8809 175.149 28.0588 175.76 28.1448C176.517 28.2517 176.747 28.5046 176.708 29.1868C176.69 29.4993 176.706 29.7852 176.744 29.8233C176.903 29.982 177.676 29.3841 177.917 28.9168C178.581 27.6246 180.352 28.2038 179.753 29.5174C179.631 29.7847 179.079 30.0249 178.817 29.9247C178.532 29.815 178.282 29.9561 178.393 30.1633C178.447 30.2641 178.491 30.4619 178.491 30.603C178.491 30.9876 178.923 31.3772 179.257 31.294C179.597 31.2086 179.576 31.2433 179.628 30.6895C179.7 29.9302 179.91 29.7268 180.661 29.6932L181.289 29.6646L181.256 29.1874C181.202 28.4121 181.612 28.0032 182.445 28.0032C182.846 28.0032 183.008 27.855 183.008 27.4852C183.008 26.3098 184.751 26.3473 184.869 27.5249L184.922 28.0522L185.392 28.1062C185.856 28.1597 185.869 28.1536 186.225 27.7139C186.423 27.4681 186.503 27.3331 186.401 27.4141C186.223 27.5552 186.218 27.5431 186.282 27.143L186.349 26.7242L185.964 26.7854C184.87 26.9606 184.282 26.0332 185.02 25.2948C185.673 24.6413 186.542 25.1725 186.542 26.2261C186.542 27.1937 187.705 25.9693 188.212 24.4688C188.523 23.5464 188.339 20.8793 187.857 19.3419C187.084 16.876 185.943 15.6356 183.694 14.8157C183.182 14.6283 181.901 14.1032 180.847 13.648C179.794 13.1929 178.718 12.7405 178.457 12.6435C177.136 12.1536 176.534 10.7358 177.141 9.54721C177.591 8.6661 178.258 8.53715 180.798 8.83912C182.531 9.04521 182.973 9.13724 184.53 9.61278C187.307 10.4619 187.594 10.2366 187.494 7.28685C187.42 5.1152 187.262 3.75468 187.052 3.46704C186.595 2.84602 184.997 2.34347 182.959 2.18036C181.43 2.05803 180.438 1.86517 179.77 1.56044C179.273 1.33341 176.032 1.22761 174.793 1.39788ZM59.7896 1.64034C60.1775 2.10817 57.9001 3.63345 56.1246 4.09467C54.8886 4.41593 54.3172 4.71129 53.8059 5.29429C53.0636 6.14068 52.2304 6.56553 52.2304 6.09825C52.2304 5.28382 53.7149 3.57008 54.644 3.31165C56.1704 2.88735 56.9573 2.5975 58.0097 2.0707C59.1862 1.48274 59.5796 1.38741 59.7896 1.64034ZM34.0064 1.84533C34.7531 2.18752 34.6903 2.77108 33.9067 2.77108C33.4708 2.77108 33.3915 3.07856 33.6268 3.85552C33.8174 4.48481 33.7227 5.41551 33.4394 5.69875C33.2659 5.87233 32.8889 5.69214 32.8889 5.43535C32.8889 5.33892 32.7754 4.9317 32.6366 4.53055C31.9219 2.46635 32.5732 1.18904 34.0064 1.84533ZM121.048 2.00513C121.692 2.31702 122.435 2.34402 123.347 2.08834C124.128 1.86902 124.431 1.8828 124.531 2.14344C124.79 2.81571 123.245 3.45987 121.677 3.33424C120.834 3.26646 120.619 3.67478 121.006 4.60218C121.356 5.43866 120.935 7.42295 120.447 7.2356C120.201 7.14137 120.073 6.72974 120.073 6.02386C120.073 5.65797 120.001 5.14661 119.913 4.88762C119.787 4.51787 119.763 4.17512 119.802 3.29677C119.87 1.75496 120.08 1.5373 121.048 2.00513ZM198.594 2.0156C199.353 2.50713 197.934 3.20585 196.169 3.2097L195.044 3.21246L194.918 3.83513C194.56 5.59846 193.807 5.47007 193.807 3.64613C193.807 2.51484 194.023 2.15501 194.797 1.99686C195.237 1.90705 198.45 1.92302 198.594 2.0156ZM149.065 2.04921C149.274 2.08338 149.478 2.18752 149.531 2.28616C149.824 2.83279 149.043 3.0747 146.779 3.13807C144.676 3.19758 144.763 3.15735 144.684 4.09467C144.615 4.90415 144.441 5.34112 144.101 5.56154C143.609 5.87949 143.603 5.86682 143.57 4.36634L143.539 2.9678L143.886 2.58372C144.094 2.35339 144.379 2.16107 144.597 2.10266C145.004 1.99466 148.483 1.95278 149.065 2.04921ZM171.264 3.9784C171.689 4.28809 171.45 4.63414 170.269 5.42158C168.895 6.33685 168.557 6.67464 168.093 7.59102C167.496 8.76914 167.114 8.6121 167.225 7.23339C167.312 6.14564 168.055 5.23312 169.45 4.50024C170.626 3.88252 170.99 3.77782 171.264 3.9784ZM194.473 6.55617C194.885 6.84546 194.626 7.67974 194.124 7.67974C193.579 7.67974 193.315 6.99369 193.709 6.5997C193.945 6.36385 194.179 6.35063 194.473 6.55617ZM82.5464 6.85097C82.8605 7.07084 82.8478 7.62078 82.5249 7.83293C81.9408 8.21535 81.3253 7.25544 81.8979 6.85483C82.1767 6.65921 82.2726 6.65866 82.5464 6.85097ZM14.3112 7.33699C15.4992 7.61747 16.0492 8.03791 16.5126 9.02042C17.0311 10.1208 16.9667 11.6334 16.3781 12.1602C16.2652 12.2611 15.9158 12.6799 15.6017 13.0915C14.0494 15.1248 11.9235 15.4301 11.3879 13.6965C11.0226 12.5135 10.779 7.95856 11.0661 7.66872C11.4574 7.27362 13.2604 7.08957 14.3112 7.33699ZM33.7893 7.54804C34.18 7.90126 33.9585 8.46552 33.429 8.46552C33.062 8.46552 32.8889 8.31233 32.8889 7.98722C32.8889 7.47585 33.4223 7.21576 33.7893 7.54804ZM144.268 7.83403C144.633 8.19827 144.379 8.75977 143.85 8.75977C143.4 8.75977 143.244 8.62091 143.244 8.21976C143.244 7.70068 143.891 7.45712 144.268 7.83403ZM50.3486 8.94162C50.4164 9.42102 50.2235 9.70756 49.0372 10.8868C47.7158 12.2005 47.616 12.2622 47.616 11.7701C47.616 10.5077 50.1932 7.84064 50.3486 8.94162ZM120.488 9.01435C120.721 9.52517 120.186 10.0117 119.686 9.74448C119.457 9.62215 119.404 9.07552 119.602 8.8777C119.829 8.65177 120.36 8.73388 120.488 9.01435ZM2.45282 9.15267C2.66938 9.36922 2.70354 9.65356 2.54759 9.94451C2.42086 10.1809 1.84833 10.2029 1.62571 9.98033C1.29619 9.65025 1.59099 8.95594 2.06048 8.95594C2.16848 8.95594 2.34481 9.04466 2.45282 9.15267ZM64.8244 9.59129C67.8397 10.2305 69.1237 12.7603 68.5831 16.9967C68.3015 19.2058 67.8541 20.2054 66.7013 21.2022C64.2905 23.2874 64.2877 23.2885 60.9688 23.0267C58.1679 22.8063 57.4113 22.0988 56.528 18.8725C56.2668 17.9192 56.2459 15.758 56.4872 14.6509C57.2162 11.3034 61.2763 8.83968 64.8244 9.59129ZM167.866 9.79628C168.325 10.1175 168.104 10.8218 167.544 10.8218C167.155 10.8218 167.004 10.6669 167.004 10.2674C167.004 9.96049 167.278 9.64364 167.544 9.64364C167.601 9.64364 167.746 9.71197 167.866 9.79628ZM37.9348 12.7443C38.1122 13.2061 37.9271 13.5709 37.516 13.5709C37.0498 13.5709 36.8024 13.1786 37.0162 12.7791C37.1474 12.5338 37.8439 12.5079 37.9348 12.7443ZM204.133 14.2239C204.555 14.6063 204.244 15.3381 203.659 15.3381C203.053 15.3381 202.713 14.6702 203.101 14.241C203.306 14.0139 203.89 14.0046 204.133 14.2239ZM74.0803 15.677C74.353 15.9497 74.4169 16.6093 74.1894 16.7978C73.71 17.1956 72.9468 16.8788 72.9468 16.2826C72.9468 15.5822 73.624 15.2207 74.0803 15.677ZM18.2599 15.7304C18.4804 15.9508 18.5002 16.0941 18.3602 16.4617C18.1586 16.9918 17.3816 16.9967 17.181 16.4688C16.9297 15.8092 17.7662 15.2372 18.2599 15.7304ZM149.8 15.7855C150.296 16.1321 149.975 16.9091 149.336 16.9091C148.911 16.9091 148.742 16.7675 148.742 16.4115C148.742 15.8087 149.334 15.4588 149.8 15.7855ZM176.037 15.8291C176.527 16.3189 175.959 17.1367 175.353 16.8127C175.038 16.6441 175.102 15.9327 175.447 15.7591C175.772 15.5954 175.807 15.5993 176.037 15.8291ZM37.7761 15.8836C38.3767 16.3041 37.6665 17.1664 37.0515 16.7636C36.6063 16.4721 36.8603 15.7304 37.4053 15.7304C37.4896 15.7304 37.656 15.7993 37.7761 15.8836ZM47.6899 15.9541C48.0051 16.1983 47.7554 16.7124 47.3218 16.7124C46.9906 16.7124 46.8308 16.5449 46.8308 16.1988C46.8308 15.7844 47.2981 15.6511 47.6899 15.9541ZM123.454 15.8847C123.782 16.2131 123.528 16.7124 123.032 16.7124C122.691 16.7124 122.528 16.5493 122.528 16.2071C122.528 15.7712 123.13 15.5618 123.454 15.8847ZM5.08679 16.1525C5.13913 16.4297 4.83717 16.8105 4.56495 16.8105C4.21449 16.8105 4.06185 16.4754 4.26849 16.1602C4.46411 15.8616 5.03058 15.8561 5.08679 16.1525ZM90.7222 16.0803C90.9107 16.3068 90.7294 16.7251 90.3954 16.8364C90.0207 16.9609 89.8339 16.8667 89.8339 16.5515C89.8339 16.0346 90.4246 15.7211 90.7222 16.0803ZM199.467 16.0743C199.636 16.5179 199.019 17.0849 198.631 16.8419C198.404 16.6992 198.377 16.3366 198.577 16.1151C198.785 15.8853 199.383 15.8577 199.467 16.0743ZM146.295 16.2253C146.553 16.3636 146.544 16.7785 146.281 16.8623C145.941 16.9697 145.61 16.8314 145.54 16.5531C145.443 16.168 145.854 15.9894 146.295 16.2253ZM92.269 17.2232C92.6046 17.5588 92.1323 18.4796 91.6248 18.4796C91.049 18.4796 90.8054 17.7797 91.2253 17.3323C91.4622 17.0805 92.0634 17.0177 92.269 17.2232ZM200.915 17.3587C201.164 18.0062 200.31 18.7832 199.852 18.3253C199.634 18.1071 199.661 17.6971 199.912 17.4304C200.17 17.156 200.819 17.1091 200.915 17.3587ZM6.4451 17.4552C6.54814 17.723 6.3123 18.0872 6.03568 18.0872C5.71387 18.0872 5.62791 17.858 5.83179 17.5461C6.01143 17.2722 6.35528 17.221 6.4451 17.4552ZM32.8697 17.4194C33.0614 17.6111 33.0151 18.1633 32.7975 18.2801C32.2029 18.598 31.5973 17.9197 32.0613 17.4557C32.2442 17.2733 32.7027 17.2524 32.8697 17.4194ZM145.054 17.4557C145.359 17.7616 145.169 18.3815 144.77 18.3815C144.353 18.3815 144.008 17.6508 144.292 17.367C144.414 17.2447 144.899 17.3009 145.054 17.4557ZM151 17.4519C151 17.631 150.763 17.7412 150.598 17.6387C150.513 17.5863 150.53 17.5296 150.661 17.4337C150.897 17.2612 151 17.2667 151 17.4519ZM19.4056 17.5544C19.4386 17.6398 19.3962 17.7786 19.3119 17.8624C19.1576 18.0172 18.849 17.977 18.849 17.8023C18.849 17.5097 19.3097 17.3047 19.4056 17.5544ZM36.1114 17.6695C36.1368 17.8475 36.0954 17.8905 35.9009 17.8905C35.6585 17.8905 35.4882 17.6613 35.5979 17.4833C35.7081 17.3053 36.0784 17.4398 36.1114 17.6695ZM39.151 17.5527C39.4871 17.788 39.4673 18.5495 39.1229 18.6361C38.601 18.7667 38.1387 18.1517 38.3729 17.6381C38.4996 17.3593 38.8242 17.324 39.151 17.5527ZM52.6817 17.6453C53.0157 18.155 52.2359 18.6675 51.7957 18.2272C51.589 18.0205 51.6017 17.8326 51.8381 17.5962C52.1114 17.3229 52.4845 17.3444 52.6817 17.6453ZM128.436 17.5621C128.64 17.7467 128.676 18.2812 128.498 18.4603C128.174 18.7832 127.437 18.3892 127.437 17.8933C127.437 17.4105 128.045 17.2089 128.436 17.5621ZM181.039 17.4954C181.3 17.6354 181.378 18.0613 181.194 18.3429C180.877 18.8256 179.964 18.5314 179.964 17.9467C179.964 17.4827 180.553 17.2353 181.039 17.4954ZM3.02314 17.7996C3.00385 17.858 2.946 17.9054 2.89475 17.9054C2.8435 17.9054 2.78565 17.858 2.76636 17.7996C2.74707 17.7417 2.80493 17.6943 2.89475 17.6943C2.98457 17.6943 3.04243 17.7417 3.02314 17.7996ZM147.368 17.8359C147.368 17.9136 147.32 18.0068 147.261 18.0431C147.123 18.1291 146.933 17.9395 147.019 17.8012C147.115 17.6453 147.368 17.6706 147.368 17.8359ZM34.7206 18.8851C34.7933 18.9452 34.8528 19.1469 34.8528 19.3326C34.8528 20.3713 33.5844 20.5531 33.4967 19.5265C33.4383 18.8416 34.1921 18.4465 34.7206 18.8851ZM37.9905 18.8912C38.2726 19.1937 38.2627 19.7927 37.9728 19.996C37.2355 20.5123 36.3285 19.5475 36.9589 18.9171C37.2658 18.6107 37.7188 18.5991 37.9905 18.8912ZM74.1497 19.0466C74.5481 19.3965 74.2384 20.0506 73.6752 20.0506C73.2846 20.0506 73.0443 19.8324 73.0465 19.4791C73.0498 18.8554 73.6593 18.6162 74.1497 19.0466ZM126.803 19.0152C127.065 19.2769 127.101 19.4676 126.943 19.7624C126.815 20.0015 126.054 20.0318 125.866 19.8054C125.788 19.71 125.782 19.6577 125.85 19.6577C125.908 19.6577 125.986 19.4924 126.023 19.2896C126.129 18.716 126.406 18.6184 126.803 19.0152ZM146.386 18.9639C146.386 19.2174 146.017 19.3309 145.823 19.1375C145.623 18.9375 145.746 18.7744 146.097 18.7744C146.317 18.7744 146.386 18.8196 146.386 18.9639ZM1.7034 19.0758C2.15856 19.434 1.93429 20.1487 1.36727 20.1487H1.07852V19.5106C1.07852 18.7881 1.21573 18.6923 1.7034 19.0758ZM41.311 19.0251C41.5761 19.2108 41.6036 19.7034 41.3683 20.0401C41.041 20.5074 40.0552 20.1922 40.058 19.6213C40.0607 18.9777 40.7649 18.6432 41.311 19.0251ZM179.469 19.0626C179.6 19.3067 179.6 19.6285 179.469 19.7095C179.179 19.888 178.704 19.1827 178.949 18.938C179.08 18.8074 179.37 18.8769 179.469 19.0626ZM205.522 18.9854C205.92 19.1948 206.002 19.5602 205.721 19.8709C205.508 20.1068 205.147 20.0991 204.902 19.8544C204.432 19.3844 204.937 18.6774 205.522 18.9854ZM8.32469 19.4362C8.38751 19.8528 7.73288 20.1338 7.46121 19.8065C7.29149 19.6015 7.42099 19.1761 7.68383 19.0741C7.95274 18.9694 8.28226 19.1557 8.32469 19.4362ZM77.4058 19.0301C77.6064 19.1072 77.6163 19.7844 77.4196 19.9481C77.1242 20.1927 76.8277 20.034 76.793 19.6125C76.7528 19.1166 77.0052 18.8763 77.4058 19.0301ZM181.909 19.2725C181.889 19.3304 181.832 19.3783 181.78 19.3783C181.729 19.3783 181.671 19.3304 181.652 19.2725C181.632 19.2147 181.69 19.1673 181.78 19.1673C181.87 19.1673 181.928 19.2147 181.909 19.2725ZM120.152 19.3827C120.479 19.7095 120.208 20.1487 119.681 20.1487C119.28 20.1487 119.092 20.0076 119.092 19.7067C119.092 19.4064 119.28 19.2653 119.681 19.2653C119.876 19.2653 120.087 19.3182 120.152 19.3827ZM21.4653 19.6103C21.5326 19.7855 21.338 20.0506 21.1413 20.0506C20.9137 20.0506 20.8592 19.742 21.0609 19.5949C21.2962 19.4229 21.3948 19.4268 21.4653 19.6103ZM149.331 19.9068C149.331 20.098 148.996 20.0908 148.834 19.8957C148.728 19.7679 148.73 19.7266 148.841 19.6571C149.012 19.5519 149.331 19.7139 149.331 19.9068ZM151.614 20.5526C152.013 21.0336 151.656 21.8178 151.038 21.8178C150.153 21.8178 149.892 20.6325 150.706 20.3129C150.962 20.2126 151.436 20.3377 151.614 20.5526ZM3.02259 20.5614C3.40556 20.9444 3.00386 21.7654 2.55145 21.5235C2.17289 21.3207 2.33269 20.4435 2.74762 20.4435C2.83413 20.4435 2.95757 20.4964 3.02259 20.5614ZM33.0295 20.5978C33.4405 21.0088 32.96 21.7505 32.398 21.5725C32.1704 21.5004 32.1136 20.7675 32.3197 20.5614C32.485 20.3961 32.846 20.4143 33.0295 20.5978ZM49.4747 20.7019C49.8599 21.1918 49.5871 21.7197 48.9484 21.7197C48.5126 21.7197 48.3037 21.5009 48.3037 21.0452C48.3037 20.3906 49.0559 20.1702 49.4747 20.7019ZM125.335 20.6881C125.758 21.3339 124.749 22.0745 124.197 21.5235C123.769 21.0948 124.133 20.4435 124.801 20.4435C125.091 20.4435 125.211 20.498 125.335 20.6881ZM148.211 20.6881C148.52 21.1593 148.066 21.8178 147.526 21.6822C147.079 21.5698 146.999 20.7906 147.407 20.5184C147.646 20.3586 148.051 20.444 148.211 20.6881ZM39.7665 20.7471C39.9505 21.0904 39.8028 21.4431 39.4898 21.4067C39.2033 21.3736 38.9945 20.9901 39.1058 20.7003C39.1939 20.4694 39.6348 20.5002 39.7665 20.7471ZM184.565 20.8419C184.686 21.0579 184.686 21.1328 184.568 21.3819C184.306 21.9302 183.597 21.7467 183.597 21.1306C183.597 20.541 184.283 20.3366 184.565 20.8419ZM200.957 20.8661C201.205 21.3841 200.596 21.8922 200.035 21.6359C199.748 21.5053 199.701 20.9455 199.956 20.6903C200.218 20.4286 200.797 20.53 200.957 20.8661ZM9.66923 20.9725C9.66923 21.2871 9.43945 21.4899 9.19148 21.3946C9.00247 21.3224 8.97878 20.9278 9.15291 20.7537C9.37387 20.5327 9.66923 20.6578 9.66923 20.9725ZM36.2762 20.9846C36.2762 21.3086 36.0695 21.383 35.9031 21.1196C35.7676 20.9041 35.8927 20.6176 36.1043 20.6584C36.2222 20.681 36.2762 20.7835 36.2762 20.9846ZM88.8073 20.8804C89.2504 21.3235 89.0283 21.8178 88.3864 21.8178C87.8089 21.8178 87.5168 21.3604 87.7334 20.795C87.8325 20.5371 88.5186 20.5917 88.8073 20.8804ZM92.2646 21.0893C92.2998 21.3554 92.1406 21.5626 91.9549 21.4915C91.7692 21.4205 91.7477 21.1212 91.9163 20.9526C92.075 20.7945 92.2337 20.8562 92.2646 21.0893ZM6.52775 21.2182C6.52775 21.2932 6.45116 21.4028 6.35748 21.4618C6.1569 21.5885 5.81802 21.3251 5.93594 21.1345C6.03237 20.9791 6.52775 21.0491 6.52775 21.2182ZM144.796 21.1505C144.977 21.3317 144.936 21.5213 144.696 21.61C144.368 21.7312 144.128 21.631 144.128 21.372C144.128 21.0755 144.573 20.9278 144.796 21.1505ZM204.138 21.5411C203.988 21.6916 203.877 21.5808 203.96 21.3637C204.009 21.2359 204.052 21.2232 204.139 21.3108C204.226 21.3979 204.226 21.453 204.138 21.5411ZM123.615 22.1049C123.939 22.4289 123.965 22.5898 123.758 22.9904C123.375 23.7315 122.233 23.4521 122.233 22.6173C122.233 21.8492 123.056 21.5444 123.615 22.1049ZM51.0501 22.1098C51.4617 22.5214 51.384 23.1088 50.8925 23.2956C50.1354 23.5833 49.5485 22.7237 50.1155 22.1572C50.4065 21.8663 50.7867 21.847 51.0501 22.1098ZM74.2191 22.0123C74.876 22.3633 74.5084 23.4907 73.7397 23.4836C72.9655 23.4769 72.6013 22.6603 73.117 22.0878C73.289 21.8971 73.9232 21.8536 74.2191 22.0123ZM5.08183 22.1671C5.30169 22.3209 5.38214 22.8196 5.2251 23.0548C4.8581 23.6048 3.82766 23.3359 3.82766 22.6901C3.82766 22.1258 4.57707 21.8134 5.08183 22.1671ZM21.5981 22.2107C22.0478 22.6598 21.694 23.3353 21.0091 23.3353C20.3181 23.3353 20.02 22.7909 20.4272 22.2729C20.6867 21.9428 21.2978 21.9103 21.5981 22.2107ZM34.5365 22.1671C35.0187 22.5049 34.7702 23.1926 34.1651 23.1926C33.7282 23.1926 33.5761 23.0493 33.5761 22.6383C33.5761 22.3093 33.8549 22.0145 34.1651 22.0145C34.2495 22.0145 34.4164 22.0828 34.5365 22.1671ZM41.2344 22.2107C41.4692 22.4454 41.4907 22.922 41.2763 23.1364C41.0537 23.3596 40.4806 23.3375 40.3544 23.1006C39.9648 22.3727 40.6768 21.653 41.2344 22.2107ZM143.343 22.2107C143.64 22.5077 143.604 23.0284 143.269 23.2923C142.724 23.7211 141.886 23.2973 142.009 22.6559C142.125 22.0558 142.922 21.7897 143.343 22.2107ZM149.864 22.1688C150.058 22.3622 150.065 22.8355 149.876 22.9926C149.576 23.2411 148.742 22.8218 148.742 22.4228C148.742 22.0216 149.537 21.8415 149.864 22.1688ZM199.051 22.2007C199.169 22.3313 199.21 22.5148 199.189 22.814C199.133 23.5927 198.029 23.418 198.029 22.6305C198.029 22.117 198.714 21.8288 199.051 22.2007ZM202.454 22.1159C202.719 22.2575 202.715 22.9011 202.448 23.143C202.005 23.5442 201.269 23.2317 201.269 22.6427C201.269 22.1203 201.92 21.8304 202.454 22.1159ZM1.68467 22.2751C2.10566 22.6559 1.73867 23.5849 1.16724 23.5849C0.854802 23.5849 0.724205 23.3794 0.612895 22.7115C0.522525 22.1688 1.24273 21.8756 1.68467 22.2751ZM70.9019 22.2751C71.3124 22.6465 70.9636 23.2907 70.3519 23.2907C69.629 23.2907 69.4802 22.7005 70.0968 22.2784C70.4037 22.0685 70.6726 22.0674 70.9019 22.2751ZM93.9012 22.2669C94.3938 22.7589 93.4989 23.3612 92.8994 22.9413C92.6415 22.7606 92.6272 22.6261 92.8338 22.3308C93.02 22.0652 93.6615 22.0272 93.9012 22.2669ZM7.90095 22.4035C7.93456 22.5093 7.91362 22.6862 7.85521 22.7959C7.63094 23.2141 7.14712 22.8884 7.3455 22.4531C7.4783 22.1616 7.81443 22.1319 7.90095 22.4035ZM18.2026 22.398C18.4666 22.6895 18.3757 23.2086 18.0318 23.3722C17.3772 23.6847 16.6443 22.8587 17.138 22.3649C17.3573 22.1456 17.9927 22.1655 18.2026 22.398ZM145.976 22.5931C146.009 22.9347 145.888 23.0901 145.588 23.0929C145.396 23.0945 145.305 22.7259 145.42 22.4156C145.554 22.0547 145.936 22.177 145.976 22.5931ZM37.5474 22.4674C38.0423 22.6575 37.9073 23.2907 37.3722 23.2907C36.9843 23.2907 36.8162 23.1414 36.8162 22.7964C36.8162 22.4134 37.0884 22.2917 37.5474 22.4674ZM126.56 22.7049C126.808 22.8377 126.804 23.1623 126.554 23.2416C126.242 23.3403 125.964 23.2058 125.964 22.9568C125.964 22.5931 126.18 22.5022 126.56 22.7049ZM88.6949 23.6153C89.0278 23.9481 89.1126 24.5322 88.8746 24.8529C88.4189 25.4656 87.6248 25.0551 87.6248 24.2065C87.6248 23.4775 88.2254 23.1458 88.6949 23.6153ZM52.6542 23.5998C53.3556 23.969 52.9578 25.1653 52.1836 25.016C51.5802 24.8997 51.3372 24.1999 51.7643 23.8109C52.1235 23.4841 52.3379 23.4334 52.6542 23.5998ZM69.0575 23.5976C69.7524 23.9145 69.5171 25.0579 68.7567 25.0579C67.9042 25.0579 67.6342 24.1228 68.3594 23.6808C68.7302 23.4543 68.7401 23.4532 69.0575 23.5976ZM72.4018 23.5833C73.1462 23.866 72.8305 25.0579 72.0106 25.0579C71.6623 25.0579 71.4237 24.8446 71.324 24.444C71.1476 23.7387 71.6838 23.3105 72.4018 23.5833ZM144.806 23.6296C145.609 24.0445 145.355 25.0579 144.449 25.0579C143.64 25.0579 143.459 23.8384 144.226 23.5568C144.458 23.4714 144.513 23.478 144.806 23.6296ZM200.999 23.7965C201.537 24.433 200.735 25.3736 200.041 24.919C199.847 24.7923 199.797 24.6766 199.797 24.3641C199.797 23.5883 200.53 23.2422 200.999 23.7965ZM6.27317 23.7277C6.84901 24.0252 6.8964 24.8755 6.34481 25.0138C5.59374 25.2028 5.01735 24.0522 5.69293 23.7117C5.99545 23.559 5.94475 23.5579 6.27317 23.7277ZM19.8557 23.8605C20.1136 24.0825 20.0855 24.7113 19.8089 24.9052C19.3179 25.2491 18.6528 24.9791 18.6528 24.4358C18.6528 23.7122 19.3141 23.3959 19.8557 23.8605ZM147.988 23.6979C148.586 24.0131 148.42 24.9598 147.767 24.9598C147.33 24.9598 147.073 24.7052 147.073 24.2726C147.073 23.7084 147.5 23.4411 147.988 23.6979ZM16.6856 23.8731C16.8344 24.1509 16.8102 24.6226 16.6399 24.7636C16.3225 25.027 15.5108 24.6507 15.5108 24.2401C15.5108 23.7304 16.452 23.4367 16.6856 23.8731ZM36.3831 23.9282C36.5864 24.2385 36.501 24.6099 36.1775 24.822C35.545 25.2364 34.9741 24.4209 35.4656 23.8059C35.6447 23.5822 36.2056 23.6571 36.3831 23.9282ZM181.184 23.8373C181.476 24.1294 181.371 24.6391 180.976 24.8468C180.491 25.1025 180.062 24.8755 180.062 24.3636C180.062 23.8032 180.802 23.456 181.184 23.8373ZM204.193 23.8059C204.673 24.3889 204.358 25.0981 203.646 25.0391C202.973 24.9829 203.086 23.6836 203.764 23.6836C203.945 23.6836 204.138 23.7387 204.193 23.8059ZM2.95371 24.0059C3.36368 24.2815 3.42981 24.5889 3.12398 24.8027C2.49635 25.2425 1.80259 24.6429 2.16187 23.9712C2.29632 23.7205 2.54594 23.7315 2.95371 24.0059ZM22.5283 23.9745C22.8049 24.2809 22.6975 24.9598 22.3718 24.9598C22.185 24.9598 21.8929 24.552 21.8929 24.2919C21.8929 23.8021 22.2225 23.6373 22.5283 23.9745ZM39.508 23.9685C39.7747 24.2638 39.6816 24.7752 39.3405 24.8882C38.5713 25.1427 37.9045 24.2407 38.6104 23.9001C38.9515 23.7354 39.3223 23.764 39.508 23.9685ZM121.981 23.936C122.462 24.4159 121.932 25.0375 121.104 24.9653C120.613 24.9218 120.432 24.2109 120.834 23.904C121.063 23.7293 121.795 23.7492 121.981 23.936ZM128.511 24.0952C128.65 24.3432 128.645 24.3757 128.424 24.611C128.039 25.0204 127.437 24.8226 127.437 24.2864C127.437 23.7161 128.222 23.5767 128.511 24.0952ZM151.239 23.936C151.466 24.163 151.443 24.8281 151.203 24.9559C150.602 25.2777 150.096 24.6573 150.373 23.9371C150.452 23.7321 151.035 23.7315 151.239 23.936ZM168.045 24.0247C168.452 24.2914 168.238 24.8804 167.686 25.0105C167.181 25.1295 166.669 24.2583 167.029 23.8919C167.179 23.7387 167.716 23.8087 168.045 24.0247ZM184.264 23.899C184.329 23.9641 184.382 24.142 184.382 24.2941C184.382 24.8198 183.607 24.8931 183.473 24.3801C183.36 23.9519 183.955 23.5905 184.264 23.899ZM187.689 23.9949C188.268 24.5382 187.587 25.2987 186.859 24.9223C186.17 24.5658 186.385 23.7817 187.171 23.7817C187.335 23.7817 187.561 23.8748 187.689 23.9949ZM9.74748 24.0026C9.99655 24.1883 10.0654 24.6969 9.86761 24.8948C9.51163 25.2507 8.73632 24.9548 8.73632 24.4622C8.73632 23.9354 9.3083 23.6753 9.74748 24.0026ZM55.9417 23.9977C56.1219 24.1773 56.0827 24.4413 55.8519 24.6033C55.4232 24.9036 54.9586 24.406 55.3251 24.039C55.5135 23.8505 55.7775 23.8329 55.9417 23.9977ZM92.07 24.1305C92.3075 24.2969 92.3582 24.6545 92.1709 24.8419C91.8689 25.1433 91.1101 24.8204 91.1101 24.39C91.1101 23.9861 91.654 23.839 92.07 24.1305ZM62.5718 24.5333C62.671 24.633 62.439 24.8617 62.239 24.8617C62.0334 24.8617 61.9111 24.7107 61.9998 24.5669C62.0676 24.4572 62.4715 24.4335 62.5718 24.5333ZM0.416173 25.4017C0.417275 25.6177 0.437113 25.6943 0.460808 25.572C0.483952 25.4502 0.4834 25.2733 0.458603 25.1797C0.434357 25.0854 0.415071 25.1857 0.416173 25.4017ZM8.31533 25.2788C8.97217 25.9963 8.40239 26.9237 7.48987 26.6223C7.11571 26.4988 6.96914 26.2801 6.96914 25.8453C6.96914 25.1686 7.86843 24.7901 8.31533 25.2788ZM169.518 25.1328C169.853 25.3571 169.951 26.0492 169.698 26.4107C169.311 26.9639 168.379 26.522 168.379 25.7847C168.379 25.2408 169.079 24.8402 169.518 25.1328ZM5.20361 25.426C5.65932 26.0051 5.14464 26.9044 4.42388 26.7892C3.97589 26.7171 3.72957 26.4156 3.72957 25.9379C3.72957 25.2 4.7479 24.8463 5.20361 25.426ZM18.2599 25.3521C18.6815 25.7737 18.3718 26.5308 17.7778 26.5308C17.2174 26.5308 16.7705 25.6778 17.138 25.3103C17.3623 25.086 18.018 25.1108 18.2599 25.3521ZM21.5001 25.3521C21.8549 25.7075 21.6846 26.447 21.2097 26.6124C20.7159 26.7848 20.1258 26.3341 20.1258 25.7852C20.1258 25.2645 21.1044 24.9565 21.5001 25.3521ZM54.482 25.4149C55.1014 26.2024 54.0654 27.0978 53.3551 26.3875C52.874 25.9065 53.2058 25.156 53.8995 25.156C54.1916 25.156 54.3249 25.2149 54.482 25.4149ZM64.1417 25.2689C64.6961 25.561 64.6503 26.3363 64.0668 26.5286C63.6502 26.6664 63.2556 26.5209 63.1267 26.182C62.8798 25.5318 63.5301 24.9471 64.1417 25.2689ZM93.9127 25.3968C94.1927 25.6767 94.2103 25.8415 94.0048 26.2393C93.5479 27.1232 92.5831 26.8229 92.5831 25.7968C92.5831 25.1422 93.4096 24.8937 93.9127 25.3968ZM143.343 25.3521C143.95 25.9605 143.274 26.9364 142.499 26.5688C142.099 26.3793 141.985 25.4662 142.336 25.2623C142.624 25.0942 143.13 25.14 143.343 25.3521ZM146.878 25.3047C147.248 25.7505 146.882 26.6454 146.276 26.7788C145.381 26.9749 144.736 26.0117 145.351 25.3968C145.644 25.1036 146.66 25.0424 146.878 25.3047ZM149.956 25.3593C150.386 25.6971 150.308 26.4267 149.815 26.6812C149.144 27.0284 148.644 26.7551 148.644 26.0415C148.644 25.4948 148.944 25.156 149.429 25.156C149.577 25.156 149.814 25.2474 149.956 25.3593ZM159.817 25.3549C160.366 25.8668 160.101 26.5573 159.335 26.6085C158.801 26.6443 158.462 26.382 158.462 25.9329C158.462 25.2794 159.335 24.9063 159.817 25.3549ZM34.6732 25.4166C35.1195 25.8205 34.7735 26.5308 34.1304 26.5308C33.6097 26.5308 33.478 26.4019 33.478 25.8921C33.478 25.2678 34.1938 24.9829 34.6732 25.4166ZM37.975 25.372C38.3387 25.7357 37.9778 26.5308 37.4488 26.5308C36.8327 26.5308 36.4889 25.8668 36.8807 25.4337C37.0691 25.2254 37.7877 25.1852 37.975 25.372ZM57.5105 25.4072C57.7717 25.5896 57.7981 25.9963 57.5661 26.2531C57.3545 26.4867 57.0895 26.4807 56.8454 26.236C56.35 25.7412 56.9391 25.0072 57.5105 25.4072ZM179.473 25.4508C179.724 25.7015 179.722 25.9467 179.466 26.2718C179.091 26.749 178.393 26.5132 178.393 25.9092C178.393 25.3125 179.054 25.0314 179.473 25.4508ZM199.224 25.4166C199.622 25.777 199.281 26.727 198.754 26.727C198.198 26.727 197.816 25.8486 198.191 25.4337C198.397 25.2067 198.982 25.1973 199.224 25.4166ZM206.258 25.7764C206.198 26.4895 206.069 26.6173 205.295 26.727C204.56 26.8306 204.553 26.8399 204.478 27.7376C204.407 28.5785 204.381 28.5454 204.953 28.3509C205.668 28.1084 206.221 28.3988 206.331 29.0744C206.363 29.2684 206.428 29.5152 206.476 29.6232C206.524 29.7312 206.583 29.9302 206.605 30.0652C206.628 30.2002 206.629 30.0497 206.609 29.7318C206.588 29.4133 206.563 28.6843 206.553 28.1117C206.542 27.5392 206.518 27.3061 206.498 27.5938C206.457 28.1889 206.237 28.1685 206.122 27.5585C206.055 27.2042 206.33 26.5898 206.506 26.6983C206.614 26.7655 206.525 25.8062 206.389 25.437C206.32 25.2529 206.295 25.3185 206.258 25.7764ZM123.883 25.4701C124.026 25.6128 124.038 26.1798 123.904 26.4311C123.688 26.8328 122.64 26.9226 122.286 26.5688C122.07 26.3528 122.085 25.588 122.307 25.4585C122.55 25.3174 123.739 25.3262 123.883 25.4701ZM152.92 25.5935C153.397 26.0707 153.229 26.6697 152.562 26.8658C152.122 26.9953 152.069 27.0686 151.936 27.7315C151.825 28.2782 150.572 28.5388 150.273 28.077C149.744 27.2582 150.109 26.5308 151.051 26.5308C151.56 26.5308 151.754 26.3908 151.832 25.9687C151.959 25.2948 152.451 25.1246 152.92 25.5935ZM182.686 25.5461C183.447 26.0106 182.997 26.9689 182.156 26.6724C181.924 26.5903 181.891 26.5236 181.872 26.0889C181.838 25.3361 182.079 25.1758 182.686 25.5461ZM156.407 25.653C156.668 25.9147 156.617 26.2399 156.284 26.4261C155.797 26.6989 155.227 26.3258 155.355 25.8167C155.454 25.4232 156.079 25.3262 156.407 25.653ZM24.9446 25.9169C25.111 26.6333 25.0195 26.7578 24.2784 26.8234L23.7092 26.8741L23.6502 27.4246C23.5664 28.2021 23.2535 28.4942 22.5046 28.4942C22.034 28.4942 21.7662 29.2122 22.1089 29.5544C22.5029 29.9489 23.464 29.55 23.464 28.9923C23.464 27.9156 25.0994 28.147 25.2251 29.2414L25.2802 29.7213L25.7668 29.6866C26.45 29.6381 26.6699 29.5323 26.8589 29.1609C27.076 28.7339 27.0667 28.7405 27.2601 28.8975C27.4226 29.0298 26.5195 27.8109 26.2335 27.5122C26.1106 27.3838 26.1089 27.3921 26.2203 27.5778C26.3982 27.8748 26.196 28.1013 25.7524 28.1013C25.1832 28.1013 25.0344 27.9624 25.0344 27.4301C25.0344 26.7551 25.3386 26.5297 25.7519 26.8989C25.8577 26.9931 25.7127 26.7281 25.4295 26.3098C24.836 25.432 24.8305 25.4276 24.9446 25.9169ZM3.54057 26.916C4.11585 27.4907 3.70753 28.3999 2.87767 28.3928C2.29577 28.3878 1.96239 28.0269 1.96239 27.4025C1.96239 26.6361 2.95481 26.3302 3.54057 26.916ZM128.312 26.8647C128.434 26.9942 128.556 27.2714 128.584 27.4802L128.635 27.8605L128.108 28.0792C127.385 28.379 127.258 28.3619 127.083 27.9442C126.706 27.0411 127.677 26.1881 128.312 26.8647ZM19.8844 26.9678C20.3434 27.4268 20.1483 27.9101 19.4259 28.1046C18.6038 28.3261 18.228 27.6015 18.8595 27.0119C19.2325 26.6636 19.5659 26.6493 19.8844 26.9678ZM55.9973 26.9303C56.6167 27.4174 56.1819 28.3388 55.3603 28.2793C54.8286 28.2412 54.6319 27.942 54.7856 27.4059C54.9669 26.7744 55.5223 26.5567 55.9973 26.9303ZM177.652 26.7881C177.904 26.8846 178.119 27.3899 178.048 27.7166C177.886 28.4539 176.626 28.2556 176.626 27.4929C176.626 26.9827 177.176 26.6052 177.652 26.7881ZM66.8104 26.9132C66.5398 26.9683 66.5134 27.0102 66.4864 27.4329C66.4511 27.9822 66.6302 28.1299 67.2766 28.0825L67.6854 28.0522L67.7124 27.6103C67.7527 26.9612 67.5069 26.7716 66.8104 26.9132ZM73.0449 27.1854C73.0449 27.3877 72.9694 27.6334 72.8729 27.7453C72.7787 27.855 72.9137 27.7739 73.1727 27.5651C73.8747 27.0003 73.9381 26.8251 73.441 26.8251C73.0504 26.8251 73.0449 26.83 73.0449 27.1854ZM181.454 26.9876C181.941 27.4284 181.424 28.3961 180.701 28.3961C179.81 28.3961 179.472 27.769 180.066 27.2146C180.491 26.8173 181.147 26.7099 181.454 26.9876ZM59.2782 27.0951C59.7846 27.537 59.5587 28.1994 58.9013 28.1994C58.4307 28.1994 58.1216 27.9299 58.1216 27.5194C58.1216 26.9656 58.8319 26.7055 59.2782 27.0951ZM62.6765 27.1766C62.8942 27.7442 62.4946 28.201 61.9227 28.0379C61.5105 27.92 61.457 27.6042 61.7921 27.2692C62.077 26.9843 62.5823 26.932 62.6765 27.1766ZM171.419 27.2113C171.744 27.818 171.481 28.298 170.825 28.298C170.107 28.298 169.854 27.5155 170.525 27.3678C170.687 27.3326 170.872 27.24 170.936 27.1623C171.099 26.9661 171.299 26.9865 171.419 27.2113ZM95.0798 27.9541C94.9189 28.1652 94.7338 28.298 94.5999 28.298C94.3927 28.298 94.3828 28.3355 94.3905 29.059L94.3993 29.8194H94.9145H95.4297V28.7151C95.4303 27.4709 95.4374 27.4858 95.0798 27.9541ZM42.1183 28.298C42.1183 28.352 42.0241 28.3961 41.9095 28.3961C41.6532 28.3961 41.6791 29.3477 41.9442 29.6464C42.0285 29.7417 42.1194 29.9081 42.1459 30.0161C42.1718 30.1241 42.1988 29.7593 42.2048 29.2061C42.2109 28.6523 42.1943 28.1994 42.1673 28.1994C42.1403 28.1994 42.1183 28.244 42.1183 28.298ZM68.0734 28.4148C68.0287 28.4853 68.0061 28.7708 68.0232 29.0496C68.0734 29.8519 67.9637 29.9671 67.1476 29.9671C66.3624 29.9671 66.3398 29.9908 66.445 30.7033L66.5172 31.1943L66.936 31.2246C67.1664 31.2411 67.3317 31.2923 67.3036 31.3381C67.2132 31.4846 67.6336 31.3265 67.7648 31.1645C67.8689 31.0356 67.8673 31.0234 67.7527 31.0923C67.6403 31.1601 67.6254 31.0984 67.6722 30.7512C67.751 30.1627 68.0183 29.8453 68.5655 29.691C69.2978 29.4844 69.6626 28.4848 69.0195 28.4462C68.8845 28.4385 68.6349 28.3988 68.4646 28.3592C68.2497 28.3085 68.1296 28.3255 68.0734 28.4148ZM185.358 28.6661L185.02 29.0342L185.389 28.6958C185.591 28.5096 185.757 28.3443 185.757 28.3277C185.757 28.2528 185.673 28.3233 185.358 28.6661ZM197.495 28.5933C197.462 28.7818 197.4 29.1372 197.356 29.383L197.276 29.8299L197.554 29.7891C197.823 29.75 197.833 29.7279 197.833 29.189C197.833 28.4787 197.591 28.0517 197.495 28.5933ZM35.1895 28.5261C35.1565 28.6115 35.157 28.725 35.1901 28.779C35.2997 28.9559 35.0325 29.7726 34.8297 29.8811C34.6076 29.9996 33.921 30.0283 33.6163 29.9307C33.4212 29.8684 33.4113 29.8988 33.4201 30.5027L33.429 31.1397L34.0863 31.2896C34.9978 31.4973 35.0837 31.4913 34.9432 31.229C34.6038 30.5942 34.9311 29.9147 35.6265 29.8095C36.3368 29.702 36.6685 29.0116 36.2282 28.557C36.0602 28.3834 35.2534 28.3592 35.1895 28.5261ZM38.5514 28.4694C38.5272 28.5101 38.4765 28.8193 38.4379 29.1571L38.3679 29.7704H39.0159H39.6634L39.6618 29.3042C39.6612 29.0474 39.6271 28.7851 39.5863 28.7212C39.4375 28.487 38.6539 28.2963 38.5514 28.4694ZM91.0495 29.0998L91.0374 29.7836L91.4424 29.7164C92.6663 29.5141 92.863 28.4743 91.6849 28.4357L91.0611 28.4159L91.0495 29.0998ZM183.444 28.6611C183.411 28.8121 183.367 28.9917 183.345 29.0595C183.229 29.4397 183.422 29.7704 183.762 29.7704C184.003 29.7704 184.079 29.8056 184.031 29.8932C183.993 29.9605 184.09 29.8833 184.245 29.7213C184.401 29.5593 184.639 29.3257 184.774 29.2017C184.91 29.0777 184.957 28.9895 184.878 29.0055C184.789 29.0237 184.716 28.9267 184.682 28.7394C184.598 28.2919 183.54 28.2253 183.444 28.6611ZM203.453 28.5162C202.898 28.7835 202.962 29.6635 203.538 29.6899C204.417 29.7301 204.341 29.7819 204.361 29.1323C204.385 28.3955 204.102 28.2032 203.453 28.5162ZM124.221 28.6077C123.794 29.0353 124.131 29.6216 124.851 29.7026C125.442 29.7687 125.469 29.7345 125.385 29.0342L125.326 28.5432L124.835 28.5145C124.537 28.4969 124.295 28.5338 124.221 28.6077ZM157.055 28.5597C157.019 28.5956 156.99 28.8804 156.99 29.1923V29.7588L157.603 29.7285L158.217 29.6982L158.182 29.2188C158.163 28.9554 158.103 28.6843 158.048 28.617C157.944 28.4892 157.17 28.4446 157.055 28.5597ZM199.96 28.568C199.935 28.6082 199.899 28.8623 199.88 29.1323L199.846 29.6232L200.41 29.6524L200.975 29.6822V29.2507C200.975 28.6672 200.212 28.1542 199.96 28.568ZM0.0668144 29.3422C-0.0345769 29.4436 -0.0158422 29.7704 0.0910595 29.7704C0.141755 29.7704 0.210635 29.7268 0.243698 29.6734C0.31919 29.5505 0.158838 29.2502 0.0668144 29.3422ZM118.858 29.8684C118.821 30.0988 118.814 30.3109 118.843 30.3401C118.872 30.3688 118.895 30.3115 118.895 30.2123C118.895 29.842 119.04 30.1947 119.09 30.6845L119.141 31.1943L119.565 31.2246C119.799 31.2416 120.053 31.2031 120.13 31.1391C120.304 30.9948 120.317 30.2713 120.147 30.214C120.08 30.1914 119.837 30.1252 119.609 30.0663C119.324 29.9935 119.15 29.8795 119.059 29.7042L118.925 29.4491L118.858 29.8684ZM142.066 30.0354C142.066 30.5457 142.219 31.0394 142.431 31.2124C142.529 31.2934 142.542 31.3243 142.459 31.2835C142.378 31.2438 142.419 31.3293 142.55 31.4731C142.68 31.6163 142.809 31.7343 142.835 31.7343C142.86 31.7343 142.805 31.6489 142.71 31.5442C142.544 31.3601 142.549 31.3535 142.912 31.3232C143.28 31.2929 143.288 31.2841 143.425 30.7171C143.589 30.0448 143.537 29.9709 142.898 29.9682C142.68 29.9676 142.404 29.8982 142.284 29.8139C142.07 29.664 142.066 29.6684 142.066 30.0354ZM17.0427 30.474C17.2152 31.3816 17.2543 31.4946 17.4483 31.6516C17.5474 31.7321 17.5833 31.7381 17.5403 31.6665C17.4317 31.4852 17.759 31.3601 18.126 31.4428C18.3079 31.4835 18.46 31.4885 18.4644 31.4538C18.5966 30.4162 18.3806 29.9671 17.7508 29.9671C17.4841 29.9671 17.1854 29.9241 17.0873 29.8718C16.9176 29.7808 16.916 29.8089 17.0427 30.474ZM27.3416 29.8415C26.9542 29.9368 26.9063 30.0508 26.9691 30.7259C27.0215 31.2879 27.0055 31.3877 26.8418 31.5078C26.6765 31.6285 26.7476 31.6411 27.4392 31.6158C28.091 31.5916 28.2288 31.5579 28.2558 31.4169C28.2999 31.186 27.7648 29.7676 27.6386 29.7819C27.5835 29.788 27.4496 29.815 27.3416 29.8415ZM86.04 30.6289L86.0538 31.499L86.4566 31.407C87.0655 31.2681 87.6165 31.4257 87.6546 31.7497C87.6794 31.9596 87.7488 32.0153 88.0475 32.0649C88.5478 32.1475 89.0487 32.1415 89.047 32.0533C89.0415 31.7811 88.5186 31.5375 87.9395 31.5375C87.6298 31.5375 87.3796 31.1033 87.3796 30.565C87.3796 30.2173 87.2837 30.1456 86.7613 30.1015C86.5448 30.0828 86.2902 29.9985 86.1965 29.9136C86.0351 29.7676 86.0262 29.8078 86.04 30.6289ZM93.6047 30.0112C92.6123 30.209 92.5842 30.2421 92.7423 31.0345C92.8029 31.3353 92.8151 31.3414 93.3655 31.3414C93.9568 31.3414 94.2522 31.5172 94.2522 31.8693C94.2522 32.0131 94.3365 32.034 94.8164 32.0092L95.3812 31.9795L95.411 31.6202L95.4408 31.2615L95.0435 31.3623C94.3563 31.5365 94.1122 31.2896 94.186 30.4961C94.2186 30.1511 94.2351 29.874 94.2241 29.8806C94.2125 29.8866 93.9337 29.9456 93.6047 30.0112ZM125.617 29.972C125.582 30.0294 125.58 30.1836 125.613 30.3153C125.796 31.0455 125.341 31.6362 124.595 31.6362C124.275 31.6362 124.099 31.7993 124.099 32.0974C124.099 32.3096 124.137 32.3233 124.725 32.3233H125.35L125.412 31.9343C125.477 31.532 126.021 31.2433 126.714 31.2433C126.962 31.2433 127.121 30.7551 126.999 30.3704C126.917 30.1115 125.741 29.7726 125.617 29.972ZM20.3572 30.4333C20.4944 31.4709 21.5381 31.7547 21.6229 30.7771C21.6863 30.0503 21.6103 29.9671 20.8856 29.9671H20.2955L20.3572 30.4333ZM37.608 30.0734C37.4769 30.1269 37.3055 30.1456 37.2273 30.1159C37.0124 30.0338 36.8162 30.2514 36.8162 30.5727C36.8162 30.9204 36.5848 31.3948 36.3511 31.5254C36.0811 31.6764 36.6691 31.7883 36.9826 31.645C37.1859 31.5524 37.2791 31.5607 37.4747 31.6891C37.6069 31.7761 37.7893 31.818 37.8797 31.7828C37.9701 31.7475 38.4126 31.7221 38.8633 31.726C39.8166 31.7354 40.7402 31.5442 41.4273 31.1959L41.9133 30.9496L41.7458 30.6564C41.3265 29.9241 39.9604 29.874 39.9549 30.5914C39.945 31.8902 38.3084 31.8908 38.1927 30.592C38.1381 29.9748 38.0483 29.8955 37.608 30.0734ZM89.7182 30.069C89.5507 30.1666 89.5242 30.8824 89.6791 31.1325C89.759 31.262 90.4853 31.283 90.5619 31.1584C90.5911 31.1116 90.644 30.8245 90.6798 30.5203L90.7448 29.9671L90.3139 29.9698C90.0769 29.9715 89.8091 30.0161 89.7182 30.069ZM148.776 30.1186C148.58 30.6294 148.789 31.0956 149.254 31.1854C149.595 31.251 149.755 31.2416 149.867 31.1485C150.052 30.9953 150.072 30.2321 149.896 30.0856C149.724 29.9434 148.833 29.9698 148.776 30.1186ZM155.738 30.0387C154.863 30.1175 155.349 31.2879 156.23 31.224L156.646 31.1943L156.676 30.7396C156.705 30.279 156.527 29.9461 156.271 29.9842C156.207 29.9935 155.967 30.0183 155.738 30.0387ZM175.615 30.0564C174.978 30.1247 174.862 30.2327 174.86 30.765C174.858 31.3215 175.768 31.6522 176.177 31.2433C176.384 31.0361 176.506 29.9616 176.32 29.9814C176.245 29.9891 175.928 30.0233 175.615 30.0564ZM181.592 30.1269C181.484 30.4096 181.65 31.2516 181.851 31.4389C182.036 31.6108 182.036 31.6208 181.862 31.7216C181.763 31.7795 181.73 31.828 181.788 31.8296C182.321 31.8445 183.31 30.4068 182.988 30.0845C182.8 29.8966 181.668 29.9307 181.592 30.1269ZM198.276 30.1263C197.986 30.4167 198.114 31.0648 198.501 31.2576C198.698 31.3568 198.775 31.4395 198.697 31.4698C198.627 31.4973 198.746 31.4957 198.962 31.4659C199.437 31.4003 199.37 31.4874 199.427 30.862C199.5 30.0734 198.785 29.6172 198.276 30.1263ZM201.459 30.1219C201.369 30.2305 201.36 30.3941 201.426 30.7319L201.515 31.1943H202.005H202.496V30.6052V30.0161L202.039 29.9946C201.73 29.9803 201.542 30.0216 201.459 30.1219ZM7.41107 30.2266C7.26064 30.3771 7.21655 30.8096 7.32345 31.0879C7.36093 31.1854 7.50199 31.2433 7.70312 31.2433C8.10703 31.2433 8.57432 31.5927 8.50819 31.8456C8.42168 32.1762 9.4962 32.1095 9.62239 31.7767C9.76291 31.4086 9.74472 31.3634 9.47471 31.4152C8.87684 31.5293 8.58258 31.2345 8.51921 30.4575C8.48725 30.0635 7.73178 29.9054 7.41107 30.2266ZM23.9009 30.306C23.7246 30.4823 23.6601 30.6537 23.6601 30.9441V31.3414H24.139C24.7247 31.3414 24.8531 31.2091 24.9016 30.5539L24.938 30.0652H24.5401C24.2486 30.0652 24.0778 30.1296 23.9009 30.306ZM56.7192 30.1341C56.3307 30.8124 56.5996 31.3414 57.3336 31.3414H57.9133L57.8946 30.7275L57.8758 30.1142L57.3204 30.085C57.0146 30.069 56.744 30.0911 56.7192 30.1341ZM122.822 30.1522C122.184 30.3286 122.62 31.2819 123.312 31.2235C123.633 31.1959 123.659 31.1689 123.688 30.83C123.743 30.1594 123.496 29.9665 122.822 30.1522ZM145.607 30.155C145.448 30.258 145.287 31.3414 145.41 31.4764C145.801 31.9073 146.712 31.2262 146.662 30.5396L146.631 30.1142L146.19 30.0883C145.947 30.0745 145.685 30.1043 145.607 30.155ZM158.581 30.6785L158.61 31.2923L159.015 31.3221C159.524 31.359 159.739 31.165 159.739 30.6669C159.739 30.1831 159.599 30.0652 159.027 30.0652H158.551L158.581 30.6785ZM204.607 30.5005C204.607 31.197 204.651 31.2433 205.308 31.2433C205.957 31.2433 206.155 31.0234 206.028 30.4454C205.959 30.1324 205.838 30.0823 205.122 30.0745L204.607 30.0685V30.5005ZM54.8815 30.8003C54.8815 30.8675 55.4827 31.1656 55.5279 31.121C55.5488 31.0995 55.4121 31.0086 55.2242 30.9187C55.0358 30.8289 54.8815 30.776 54.8815 30.8003ZM161.203 31.4395C161.17 31.6411 161.094 31.694 160.781 31.7343C160.375 31.7866 159.918 32.2252 160.27 32.2252C160.797 32.2252 161.37 31.7365 161.283 31.3607C161.256 31.2444 161.232 31.2681 161.203 31.4395ZM5.1722 31.6819L5.44772 31.9244L4.63769 31.9271C3.73013 31.931 3.69541 31.9101 4.14671 31.6351C4.56991 31.3766 4.83937 31.3893 5.1722 31.6819ZM23.1691 31.5375C23.0545 31.6119 23.0815 31.6334 23.292 31.6345C23.4403 31.6351 23.562 31.5916 23.562 31.5375C23.562 31.4136 23.3615 31.4136 23.1691 31.5375ZM128.174 31.6086C127.958 31.6753 127.671 31.7514 127.536 31.7773C126.841 31.9123 127.014 32.2252 127.783 32.2252C128.572 32.2252 128.661 32.1696 128.598 31.7172C128.568 31.4962 128.552 31.4924 128.174 31.6086ZM58.0257 31.7293C57.818 32.1178 57.8995 32.1911 58.7349 32.3713C59.1807 32.4672 59.6116 32.5685 59.6926 32.5961C59.8116 32.6369 59.816 32.6214 59.7169 32.5145C59.6496 32.4418 59.594 32.2638 59.594 32.1194C59.594 31.64 58.2522 31.3067 58.0257 31.7293ZM91.503 31.7233C91.0187 31.8572 91.109 32.3233 91.6193 32.3217C92.3147 32.3195 92.485 32.2407 92.485 31.9189C92.485 31.6169 92.1389 31.548 91.503 31.7233ZM156.981 31.7051C156.977 31.748 156.965 31.9045 156.954 32.0533L156.934 32.3233H157.606H158.279L158.248 32.0043C158.217 31.6852 158.217 31.6852 157.603 31.656C157.266 31.6395 156.986 31.6621 156.981 31.7051ZM173.899 31.6996C173.721 31.7739 173.484 32.2688 173.484 32.5636C173.484 32.8055 173.505 32.8143 174.098 32.8143H174.711L174.711 32.2495L174.71 31.6852L174.367 31.6659C174.178 31.6555 173.968 31.6704 173.899 31.6996ZM206.48 31.8191C206.366 32.0329 206.428 32.0847 206.639 31.9508C206.711 31.9056 206.724 31.8235 206.674 31.7431C206.61 31.6384 206.568 31.6549 206.48 31.8191ZM17.7938 31.802C17.8885 31.8263 18.0428 31.8263 18.1376 31.802C18.2318 31.7773 18.1547 31.7569 17.9657 31.7569C17.7767 31.7569 17.6995 31.7773 17.7938 31.802ZM64.9694 31.8401C64.8751 31.8952 64.798 32.0225 64.798 32.1233C64.798 32.2241 64.7423 32.3288 64.6751 32.3553C64.6073 32.3817 64.7291 32.3823 64.9451 32.3558C65.5683 32.2809 66.0968 32.0269 65.9634 31.8665C65.8351 31.7117 65.2184 31.6951 64.9694 31.8401ZM120.872 31.9426C120.824 32.071 120.803 32.2093 120.827 32.2495C120.886 32.3492 121.939 32.3437 121.939 32.244C121.939 31.8175 121.017 31.5574 120.872 31.9426ZM147.093 31.8522C146.87 32.0748 146.977 32.1266 147.653 32.1266C148.283 32.1266 148.328 32.1128 148.28 31.9304C148.22 31.7012 147.304 31.6406 147.093 31.8522ZM150.582 31.9205C150.53 32.1178 150.816 32.2252 151.392 32.2252C151.625 32.2252 151.655 32.1933 151.614 31.9795C151.551 31.6527 150.665 31.602 150.582 31.9205ZM154.177 31.8786C153.844 32.1112 153.817 32.4148 154.12 32.5294C154.568 32.7002 154.854 32.6071 154.889 32.2787C154.941 31.7739 154.6 31.5816 154.177 31.8786ZM170.745 31.8241C170.641 31.8902 170.704 31.9613 171.009 32.1167L171.411 32.3217L171.309 32.028C171.206 31.7321 171.005 31.6593 170.745 31.8241ZM176.794 31.7954C176.238 32.3509 177.271 33.1945 178.298 33.0243C178.593 32.9752 178.74 32.93 178.625 32.924C178.28 32.9047 177.98 32.5878 177.913 32.1696C177.851 31.7894 177.063 31.526 176.794 31.7954ZM180.099 31.9062C180.068 32.0004 179.998 32.2005 179.942 32.3509C179.807 32.7118 179.887 32.7702 180.336 32.6358C180.878 32.4732 181.693 31.8764 181.484 31.796C181.109 31.6522 180.156 31.7282 180.099 31.9062ZM203.074 31.8764C203.042 31.9602 202.943 32.034 202.854 32.0412C202.603 32.0599 203.531 32.2098 203.951 32.2175C204.286 32.2241 204.323 32.201 204.295 32.0043C204.255 31.7199 203.177 31.6075 203.074 31.8764Z" fill="#171717"/>
</svg>
