<?xml version="1.0" encoding="UTF-8" standalone="no"?>
<!DOCTYPE svg PUBLIC "-//W3C//DTD SVG 1.1//EN" "http://www.w3.org/Graphics/SVG/1.1/DTD/svg11.dtd">
<svg xmlns="http://www.w3.org/2000/svg" version="1.1" viewBox="0.00 0.00 2560.00 757.00">
<path fill="#000000" d="
  M 1568.80 692.00
  L 1948.48 692.00
  Q 1948.83 692.00 1948.83 692.35
  L 1948.82 737.83
  Q 1948.82 738.48 1948.17 738.48
  L 1505.46 738.48
  A 0.45 0.45 0.0 0 1 1505.01 738.03
  C 1504.91 693.19 1506.37 650.02 1518.75 607.54
  Q 1530.53 567.09 1556.56 531.05
  C 1577.11 502.60 1602.27 477.58 1629.15 454.08
  C 1662.14 425.24 1695.05 400.38 1731.37 372.85
  Q 1752.24 357.05 1778.03 335.79
  Q 1810.45 309.07 1833.86 284.43
  Q 1849.64 267.82 1861.43 249.14
  Q 1880.80 218.45 1881.58 179.98
  C 1882.32 143.86 1871.50 110.63 1843.31 88.01
  C 1813.17 63.83 1771.64 57.93 1733.97 59.80
  C 1716.03 60.68 1698.57 63.66 1681.97 69.65
  Q 1631.87 87.75 1607.20 137.23
  C 1596.16 159.37 1590.08 183.76 1586.51 208.39
  A 0.55 0.55 0.0 0 1 1585.97 208.86
  L 1525.97 208.86
  A 0.51 0.51 0.0 0 1 1525.46 208.36
  C 1524.01 117.42 1596.16 37.46 1683.15 17.88
  Q 1690.24 16.28 1705.87 13.66
  Q 1714.48 12.22 1722.51 12.09
  Q 1747.86 11.67 1778.28 13.13
  Q 1789.58 13.67 1798.18 15.12
  C 1832.46 20.91 1864.25 34.16 1890.39 55.88
  C 1927.94 87.10 1946.94 132.08 1945.30 180.81
  C 1944.20 213.40 1934.66 246.61 1916.80 274.27
  C 1903.24 295.27 1885.90 314.31 1867.99 331.05
  Q 1837.56 359.49 1804.21 385.43
  Q 1752.91 425.34 1712.86 457.96
  Q 1675.37 488.49 1645.34 517.41
  C 1623.56 538.38 1603.08 561.34 1588.71 587.53
  Q 1572.08 617.83 1569.22 654.50
  Q 1567.74 673.43 1568.27 691.49
  Q 1568.29 692.00 1568.80 692.00
  Z"
/>
<path fill="#000000" d="
  M 2199.19 79.28
  L 2039.02 122.78
  A 1.55 1.55 0.0 0 1 2037.10 121.63
  Q 2036.30 118.20 2036.26 114.50
  Q 2036.04 93.33 2036.14 72.23
  Q 2036.14 71.81 2036.54 71.70
  Q 2126.68 47.02 2216.22 22.72
  Q 2236.66 17.17 2257.32 12.06
  A 0.82 0.81 -15.3 0 1 2258.30 12.61
  Q 2259.18 15.52 2259.32 18.75
  Q 2260.03 34.62 2260.19 50.50
  Q 2260.70 101.92 2260.73 155.00
  Q 2260.85 423.53 2260.79 691.75
  A 0.25 0.25 0.0 0 0 2261.04 692.00
  L 2412.54 692.00
  Q 2413.09 692.00 2413.09 692.55
  L 2413.09 737.82
  Q 2413.09 738.48 2412.43 738.48
  L 2044.49 738.48
  A 0.99 0.98 90.0 0 1 2043.51 737.49
  L 2043.53 692.48
  Q 2043.54 692.00 2044.02 692.00
  L 2199.00 692.00
  Q 2199.51 692.00 2199.51 691.50
  L 2199.51 79.53
  Q 2199.51 79.20 2199.19 79.28
  Z"
/>
<path fill="#000000" d="
  M 107.81 315.17
  Q 109.65 313.94 110.96 312.41
  Q 119.30 302.66 128.14 291.94
  C 146.79 269.31 169.99 247.84 196.85 234.53
  Q 222.65 221.74 254.27 218.33
  C 295.32 213.90 333.43 224.37 360.27 256.80
  C 383.50 284.86 393.72 324.28 396.70 359.85
  Q 398.18 377.47 400.11 392.73
  A 0.11 0.11 0.0 0 1 400.00 392.86
  L 317.37 392.86
  A 0.33 0.33 0.0 0 1 317.04 392.55
  C 315.74 368.61 314.67 344.35 309.06 321.43
  C 304.23 301.72 294.09 286.13 271.61 285.37
  C 241.51 284.36 213.82 302.05 192.94 323.18
  C 158.33 358.24 135.92 405.85 124.01 453.15
  C 119.14 472.48 117.75 492.73 117.08 513.73
  Q 116.18 541.59 116.09 572.78
  Q 115.86 654.95 116.02 737.95
  A 0.53 0.53 0.0 0 1 115.49 738.48
  L 33.22 738.48
  A 0.83 0.83 0.0 0 1 32.39 737.65
  Q 32.43 620.49 32.29 503.25
  Q 32.23 453.47 30.83 397.96
  C 29.87 359.51 26.45 321.54 20.37 284.07
  Q 15.70 255.34 11.95 230.57
  A 1.34 1.33 72.0 0 1 12.65 229.19
  Q 14.11 228.41 16.25 228.25
  Q 25.90 227.55 36.24 227.52
  Q 63.84 227.43 90.97 227.49
  Q 91.47 227.50 91.58 227.99
  Q 92.78 233.52 93.64 238.23
  Q 100.54 276.38 107.13 314.88
  Q 107.25 315.55 107.81 315.17
  Z"
/>
<path fill="#000000" d="
  M 996.17 506.99
  Q 996.06 519.65 998.35 535.79
  Q 1000.62 551.83 1003.57 565.68
  Q 1010.03 596.04 1024.97 620.82
  Q 1052.48 666.46 1103.61 678.59
  C 1129.06 684.63 1156.72 683.50 1183.10 678.29
  C 1215.68 671.86 1247.50 659.87 1277.47 645.14
  Q 1294.44 636.80 1312.39 627.73
  Q 1312.93 627.46 1313.20 628.00
  L 1347.20 693.46
  Q 1347.32 693.69 1347.09 693.81
  C 1303.13 715.51 1255.64 733.30 1208.01 742.74
  Q 1198.75 744.57 1186.26 745.65
  Q 1146.42 749.09 1101.25 745.92
  Q 1081.17 744.51 1064.26 738.96
  Q 996.65 716.78 957.97 658.86
  C 933.76 622.61 920.47 578.42 915.66 534.82
  Q 909.10 475.35 918.24 419.94
  C 926.30 371.02 945.84 321.86 979.27 285.45
  Q 1019.97 241.14 1077.44 226.06
  C 1134.05 211.21 1195.36 214.99 1245.81 245.37
  C 1320.92 290.59 1349.77 381.57 1352.40 464.58
  Q 1353.03 484.74 1352.65 505.87
  A 0.36 0.36 0.0 0 1 1352.29 506.22
  L 996.95 506.22
  Q 996.17 506.22 996.17 506.99
  Z
  M 1107.45 287.86
  C 1050.96 301.95 1012.55 355.00 1001.44 410.90
  Q 998.85 423.93 996.34 438.69
  Q 996.24 439.25 996.81 439.25
  C 1083.14 439.29 1168.87 439.88 1254.93 438.36
  Q 1261.77 438.24 1268.45 437.87
  Q 1269.19 437.83 1269.18 437.08
  C 1268.77 396.32 1250.74 355.94 1223.62 325.88
  Q 1205.24 305.51 1182.75 294.47
  C 1177.36 291.82 1171.49 289.46 1165.54 288.38
  Q 1145.06 284.66 1120.60 285.98
  Q 1113.43 286.37 1107.45 287.86
  Z"
/>
<path fill="#000000" d="
  M 765.85 657.03
  Q 764.13 657.54 763.07 658.99
  Q 742.19 687.57 716.95 706.66
  C 678.18 735.99 633.32 748.18 585.02 747.31
  C 552.06 746.71 520.05 739.19 497.53 715.11
  Q 484.36 701.05 475.50 680.88
  Q 461.42 648.86 458.26 616.31
  Q 455.40 586.88 454.81 550.00
  Q 454.14 508.01 454.07 464.51
  Q 453.87 341.73 453.99 228.00
  Q 453.99 227.48 454.52 227.48
  L 536.74 227.47
  A 0.59 0.58 89.5 0 1 537.32 228.05
  Q 537.78 346.57 538.13 464.75
  Q 538.29 519.49 539.06 571.25
  C 539.30 587.07 539.68 603.31 541.41 619.11
  Q 542.44 628.51 544.62 635.39
  Q 548.17 646.58 554.77 656.75
  C 572.73 684.41 605.05 688.07 634.63 677.72
  C 671.61 664.78 702.23 634.49 721.43 600.15
  C 735.05 575.81 744.72 550.03 749.23 522.06
  Q 753.87 493.29 755.15 454.48
  Q 756.31 419.10 756.41 397.47
  Q 756.81 315.09 756.61 228.33
  A 0.86 0.86 0.0 0 1 757.47 227.47
  L 839.70 227.47
  A 0.29 0.28 -90.0 0 1 839.98 227.76
  Q 840.35 351.33 841.18 478.50
  C 841.45 520.02 841.94 560.37 844.17 601.50
  Q 846.63 647.04 854.98 690.50
  Q 859.66 714.88 864.18 737.11
  Q 864.43 738.35 863.17 738.34
  L 784.33 737.61
  A 0.51 0.50 84.4 0 1 783.84 737.20
  Q 777.56 704.79 770.76 670.33
  C 769.95 666.27 769.08 660.94 766.87 657.42
  Q 766.51 656.84 765.85 657.03
  Z"
/>
<path fill="#000000" d="
  M 2512.13 633.96
  C 2540.63 646.08 2550.00 675.55 2541.69 704.52
  C 2536.91 721.17 2524.35 733.07 2507.29 737.26
  C 2483.88 743.01 2460.30 736.98 2445.99 717.00
  C 2429.29 693.70 2432.42 659.86 2456.01 642.35
  C 2472.03 630.46 2493.58 626.08 2512.13 633.96
  Z
  M 2451.27 665.78
  C 2440.89 687.14 2449.76 709.84 2469.09 722.45
  Q 2487.44 734.42 2508.03 725.05
  C 2544.58 708.41 2543.10 655.56 2503.36 643.38
  Q 2481.05 636.53 2462.91 651.05
  Q 2455.59 656.91 2451.27 665.78
  Z"
/>
<path fill="#000000" d="
  M 2478.40 690.23
  A 0.29 0.28 4.4 0 0 2478.07 690.51
  L 2478.07 715.70
  Q 2478.07 716.22 2477.55 716.22
  L 2465.52 716.22
  A 0.45 0.45 0.0 0 1 2465.07 715.77
  L 2465.08 654.72
  A 0.38 0.38 0.0 0 1 2465.47 654.34
  Q 2478.51 654.97 2491.13 655.83
  C 2496.10 656.17 2505.24 656.90 2508.64 661.14
  C 2516.22 670.60 2512.74 684.33 2501.68 688.91
  A 1.47 1.46 58.9 0 0 2501.12 691.20
  Q 2510.43 702.46 2516.90 714.47
  A 1.62 1.61 65.0 0 1 2516.08 716.73
  C 2512.43 718.22 2505.27 714.11 2502.42 711.84
  Q 2500.30 710.15 2498.92 707.68
  C 2495.97 702.45 2491.51 695.04 2485.93 692.36
  Q 2482.75 690.83 2478.40 690.23
  Z
  M 2478.06 666.26
  L 2478.08 680.58
  A 0.25 0.25 0.0 0 0 2478.33 680.83
  L 2484.47 680.82
  A 15.97 6.55 -0.1 0 0 2500.43 674.24
  L 2500.43 672.52
  A 15.97 6.55 -0.1 0 0 2484.45 666.00
  L 2478.31 666.01
  A 0.25 0.25 0.0 0 0 2478.06 666.26
  Z"
/>
</svg>
