<svg width="40" height="38" viewBox="0 0 40 38" fill="none" xmlns="http://www.w3.org/2000/svg">
<path d="M3 36C2.2 36 1.5 35.7 0.9 35.1C0.3 34.5 0 33.8 0 33V3C0 2.2 0.3 1.5 0.9 0.9C1.5 0.3 2.2 0 3 0H33C33.8 0 34.5 0.3 35.1 0.9C35.7 1.5 36 2.2 36 3V16.7C35.5333 16.4333 35.05 16.225 34.55 16.075C34.05 15.925 33.5333 15.7833 33 15.65V3H3V31.15C4.96667 29.3167 7.19167 27.825 9.675 26.675C12.1583 25.525 14.85 24.9333 17.75 24.9C17.6167 25.3667 17.5167 25.85 17.45 26.35C17.3833 26.85 17.35 27.3667 17.35 27.9C15.25 27.9667 13.2167 28.3917 11.25 29.175C9.28333 29.9583 7.45 31.0833 5.75 32.55V33H18.3C18.5333 33.5667 18.7833 34.0917 19.05 34.575C19.3167 35.0583 19.6333 35.5333 20 36H3ZM18.1 20.95C18.3667 20.95 18.625 20.9417 18.875 20.925C19.125 20.9083 19.3833 20.8667 19.65 20.8C20.2833 19.9333 21.0083 19.1417 21.825 18.425C22.6417 17.7083 23.5333 17.1167 24.5 16.65C24.6667 16.25 24.7917 15.8333 24.875 15.4C24.9583 14.9667 25 14.5167 25 14.05C25 12.1167 24.3333 10.4833 23 9.15C21.6667 7.81667 20.0333 7.15 18.1 7.15C16.1667 7.15 14.5333 7.81667 13.2 9.15C11.8667 10.4833 11.2 12.1167 11.2 14.05C11.2 15.9833 11.8667 17.6167 13.2 18.95C14.5333 20.2833 16.1667 20.95 18.1 20.95ZM18.1 17.95C17.0333 17.95 16.1167 17.5667 15.35 16.8C14.5833 16.0333 14.2 15.1167 14.2 14.05C14.2 12.9833 14.5833 12.0667 15.35 11.3C16.1167 10.5333 17.0333 10.15 18.1 10.15C19.1667 10.15 20.0833 10.5333 20.85 11.3C21.6167 12.0667 22 12.9833 22 14.05C22 15.1167 21.6167 16.0333 20.85 16.8C20.0833 17.5667 19.1667 17.95 18.1 17.95ZM28.65 38L28.4 35.6C27.7333 35.4 27.05 35.1083 26.35 34.725C25.65 34.3417 25.0833 33.9167 24.65 33.45L22.55 34.45L20.8 31.75L22.7 30.25C22.5333 29.4833 22.45 28.7917 22.45 28.175C22.45 27.5583 22.5333 26.8667 22.7 26.1L20.8 24.6L22.55 21.85L24.65 22.85C25.0833 22.45 25.65 22.05 26.35 21.65C27.05 21.25 27.7333 20.95 28.4 20.75L28.65 18.3H31.65L31.95 20.75C32.6167 20.95 33.3 21.25 34 21.65C34.7 22.05 35.2667 22.45 35.7 22.85L37.8 21.85L39.55 24.6L37.65 26.1C37.8167 26.8667 37.9 27.5583 37.9 28.175C37.9 28.7917 37.8167 29.4833 37.65 30.25L39.55 31.75L37.8 34.45L35.7 33.45C35.2667 33.9167 34.7 34.3417 34 34.725C33.3 35.1083 32.6167 35.4 31.95 35.6L31.65 38H28.65ZM30.15 33.25C31.6167 33.25 32.8333 32.7667 33.8 31.8C34.7667 30.8333 35.25 29.6167 35.25 28.15C35.25 26.6833 34.7667 25.4667 33.8 24.5C32.8333 23.5333 31.6167 23.05 30.15 23.05C28.6833 23.05 27.4667 23.5333 26.5 24.5C25.5333 25.4667 25.05 26.6833 25.05 28.15C25.05 29.6167 25.5333 30.8333 26.5 31.8C27.4667 32.7667 28.6833 33.25 30.15 33.25Z" fill="#047857"/>
</svg>
