<svg width="41" height="41" viewBox="0 0 41 41" fill="none" xmlns="http://www.w3.org/2000/svg">
<path d="M15.9547 40.3275L14.9547 34.0275C14.3214 33.7942 13.6547 33.4775 12.9547 33.0775C12.2547 32.6775 11.638 32.2608 11.1047 31.8275L5.20469 34.5275L0.554688 26.3275L5.95469 22.3775C5.88802 22.0775 5.84635 21.7358 5.82969 21.3525C5.81302 20.9692 5.80469 20.6275 5.80469 20.3275C5.80469 20.0275 5.81302 19.6858 5.82969 19.3025C5.84635 18.9192 5.88802 18.5775 5.95469 18.2775L0.554688 14.3275L5.20469 6.12751L11.1047 8.82751C11.638 8.39418 12.2547 7.97751 12.9547 7.57751C13.6547 7.17751 14.3214 6.87752 14.9547 6.67752L15.9547 0.327515H25.1547L26.1547 6.62751C26.788 6.86085 27.463 7.16918 28.1797 7.55252C28.8964 7.93585 29.5047 8.36085 30.0047 8.82751L35.9047 6.12751L40.5547 14.3275L35.1547 18.1775C35.2214 18.5108 35.263 18.8692 35.2797 19.2525C35.2964 19.6358 35.3047 19.9942 35.3047 20.3275C35.3047 20.6608 35.2964 21.0108 35.2797 21.3775C35.263 21.7442 35.2214 22.0942 35.1547 22.4275L40.5547 26.3275L35.9047 34.5275L30.0047 31.8275C29.4714 32.2608 28.863 32.6858 28.1797 33.1025C27.4964 33.5192 26.8214 33.8275 26.1547 34.0275L25.1547 40.3275H15.9547ZM20.5547 26.8275C22.3547 26.8275 23.888 26.1942 25.1547 24.9275C26.4214 23.6608 27.0547 22.1275 27.0547 20.3275C27.0547 18.5275 26.4214 16.9942 25.1547 15.7275C23.888 14.4608 22.3547 13.8275 20.5547 13.8275C18.7547 13.8275 17.2214 14.4608 15.9547 15.7275C14.688 16.9942 14.0547 18.5275 14.0547 20.3275C14.0547 22.1275 14.688 23.6608 15.9547 24.9275C17.2214 26.1942 18.7547 26.8275 20.5547 26.8275ZM20.5547 23.8275C19.588 23.8275 18.763 23.4858 18.0797 22.8025C17.3964 22.1192 17.0547 21.2942 17.0547 20.3275C17.0547 19.3608 17.3964 18.5358 18.0797 17.8525C18.763 17.1692 19.588 16.8275 20.5547 16.8275C21.5214 16.8275 22.3464 17.1692 23.0297 17.8525C23.713 18.5358 24.0547 19.3608 24.0547 20.3275C24.0547 21.2942 23.713 22.1192 23.0297 22.8025C22.3464 23.4858 21.5214 23.8275 20.5547 23.8275ZM18.3547 37.3275H22.7547L23.4547 31.7275C24.5547 31.4608 25.5964 31.0442 26.5797 30.4775C27.563 29.9108 28.4547 29.2275 29.2547 28.4275L34.5547 30.7275L36.5547 27.1275L31.8547 23.6775C31.988 23.1108 32.0964 22.5525 32.1797 22.0025C32.263 21.4525 32.3047 20.8942 32.3047 20.3275C32.3047 19.7608 32.2714 19.2025 32.2047 18.6525C32.138 18.1025 32.0214 17.5442 31.8547 16.9775L36.5547 13.5275L34.5547 9.92752L29.2547 12.2275C28.488 11.3608 27.6214 10.6358 26.6547 10.0525C25.688 9.46918 24.6214 9.09418 23.4547 8.92752L22.7547 3.32751H18.3547L17.6547 8.92752C16.5214 9.16085 15.463 9.56085 14.4797 10.1275C13.4964 10.6942 12.6214 11.3942 11.8547 12.2275L6.55469 9.92752L4.55469 13.5275L9.25469 16.9775C9.12135 17.5442 9.01302 18.1025 8.92969 18.6525C8.84635 19.2025 8.80469 19.7608 8.80469 20.3275C8.80469 20.8942 8.84635 21.4525 8.92969 22.0025C9.01302 22.5525 9.12135 23.1108 9.25469 23.6775L4.55469 27.1275L6.55469 30.7275L11.8547 28.4275C12.6547 29.2275 13.5464 29.9108 14.5297 30.4775C15.513 31.0442 16.5547 31.4608 17.6547 31.7275L18.3547 37.3275Z" fill="#047857"/>
</svg>
