<svg width="41" height="40" viewBox="0 0 41 40" fill="none" xmlns="http://www.w3.org/2000/svg">
<path d="M20.9996 15.3L18.8996 13.2L22.5996 9.5H13.4996V6.5H22.5996L18.8996 2.8L20.9996 0.7L28.2996 8L20.9996 15.3ZM11.4996 40C10.4996 40 9.64961 39.65 8.94961 38.95C8.24961 38.25 7.89961 37.4 7.89961 36.4C7.89961 35.4 8.24961 34.55 8.94961 33.85C9.64961 33.15 10.4996 32.8 11.4996 32.8C12.4996 32.8 13.3496 33.15 14.0496 33.85C14.7496 34.55 15.0996 35.4 15.0996 36.4C15.0996 37.4 14.7496 38.25 14.0496 38.95C13.3496 39.65 12.4996 40 11.4996 40ZM31.6996 40C30.6996 40 29.8496 39.65 29.1496 38.95C28.4496 38.25 28.0996 37.4 28.0996 36.4C28.0996 35.4 28.4496 34.55 29.1496 33.85C29.8496 33.15 30.6996 32.8 31.6996 32.8C32.6996 32.8 33.5496 33.15 34.2496 33.85C34.9496 34.55 35.2996 35.4 35.2996 36.4C35.2996 37.4 34.9496 38.25 34.2496 38.95C33.5496 39.65 32.6996 40 31.6996 40ZM0.0996094 3V0H5.89961L14.3996 18.2H28.7996L36.7996 4.2H40.1496L32.0496 19.35C31.6829 19.9833 31.2079 20.4917 30.6246 20.875C30.0413 21.2583 29.3996 21.45 28.6996 21.45H13.5496L10.7496 26.65H35.2996V29.65H11.1996C9.93294 29.65 8.97461 29.15 8.32461 28.15C7.67461 27.15 7.63294 26.1333 8.19961 25.1L11.3996 19.2L3.99961 3H0.0996094Z" fill="#047857"/>
</svg>
