<svg width="32" height="40" viewBox="0 0 32 40" fill="none" xmlns="http://www.w3.org/2000/svg">
<path d="M3 40C2.2 40 1.5 39.7 0.9 39.1C0.3 38.5 0 37.8 0 37V11C0 10.2 0.3 9.5 0.9 8.9C1.5 8.3 2.2 8 3 8H8.5V7.5C8.5 5.4 9.225 3.625 10.675 2.175C12.125 0.725 13.9 0 16 0C18.1 0 19.875 0.725 21.325 2.175C22.775 3.625 23.5 5.4 23.5 7.5V8H29C29.8 8 30.5 8.3 31.1 8.9C31.7 9.5 32 10.2 32 11V37C32 37.8 31.7 38.5 31.1 39.1C30.5 39.7 29.8 40 29 40H3ZM3 37H29V11H23.5V15.5C23.5 15.9333 23.3583 16.2917 23.075 16.575C22.7917 16.8583 22.4333 17 22 17C21.5667 17 21.2083 16.8583 20.925 16.575C20.6417 16.2917 20.5 15.9333 20.5 15.5V11H11.5V15.5C11.5 15.9333 11.3583 16.2917 11.075 16.575C10.7917 16.8583 10.4333 17 10 17C9.56667 17 9.20833 16.8583 8.925 16.575C8.64167 16.2917 8.5 15.9333 8.5 15.5V11H3V37ZM11.5 8H20.5V7.5C20.5 6.23333 20.0667 5.16667 19.2 4.3C18.3333 3.43333 17.2667 3 16 3C14.7333 3 13.6667 3.43333 12.8 4.3C11.9333 5.16667 11.5 6.23333 11.5 7.5V8Z" fill="#047857"/>
</svg>
