
<svg xmlns="http://www.w3.org/2000/svg" id="Full_Color" data-name="Full Color" width="78" height="64" viewBox="0 0 724.3 600"><defs><style>.cls-1{fill:#002e47}.cls-4{fill:#ff9d28}.cls-5{fill:#e54747}.cls-6{fill:#fff}.cls-7{opacity:.4}</style></defs><path d="M652.88 266.32C617.74 412.32 479.12 541 362.18 600c-116.95-59-255.57-187.68-290.7-333.68C47.99 168.59 56.32 64.78 71.05 0h582.27c14.73 64.78 23.05 168.59-.43 266.32Z" class="cls-1"/><path d="m362.18 578.71-1.27-.68c-58.57-31.25-116.9-76.97-164.23-128.75-54.8-59.95-91.74-124.75-106.81-187.38-17.29-71.95-18.74-161.96-3.89-240.78l.42-2.2h551.56l.42 2.2c14.86 78.82 13.4 168.83-3.89 240.78-15.07 62.63-52.01 127.42-106.81 187.37-47.33 51.78-105.66 97.5-164.23 128.75l-1.27.68ZM90.88 24.32C76.6 101.9 78.16 190.06 95.12 260.63c14.86 61.74 51.36 125.72 105.54 184.99 46.58 50.96 103.9 96 161.51 126.95 57.61-30.95 114.92-75.99 161.51-126.95 54.19-59.28 90.68-123.25 105.54-184.99 16.96-70.58 18.52-158.74 4.24-236.32H90.88Z" class="cls-6"/><path d="M0 332.52 37.46 213.6h86.89L86.89 332.52H0z" class="cls-5"/><g class="cls-7"><path d="m35.14 359.55 37.45-118.92 51.76-27.03-37.46 118.92-51.75 27.03z" class="cls-1"/></g><path d="m724.32 267.65-37.45 118.92h-86.89l37.45-118.92h86.89z" class="cls-5"/><g class="cls-7"><path d="m689.19 240.63-37.46 118.92-51.75 27.02 37.45-118.92 51.76-27.02z" class="cls-1"/></g><path d="m689.19 240.63-37.46 118.92H35.14l37.45-118.92h616.6z" class="cls-4"/><path d="M175.03 312.41c-.79 6.43-3.53 11.43-8.22 15.01-4.7 3.58-10.86 5.37-18.47 5.37-3.19 0-6.16-.36-8.91-1.07-2.75-.71-5.07-1.74-6.96-3.11l1.86-15.21c2.25 1.53 4.88 2.82 7.89 3.86 3.02 1.05 5.8 1.57 8.35 1.57 2.14 0 3.82-.45 5.03-1.35 1.21-.9 1.92-2.17 2.12-3.83.1-.78.01-1.51-.25-2.19-.26-.68-.68-1.36-1.23-2.04-.55-.68-2.08-2.18-4.58-4.5-3.06-2.72-5.18-5.51-6.37-8.34-1.19-2.84-1.58-5.95-1.16-9.34.46-3.8 1.83-7.21 4.1-10.23 2.27-3.03 5.24-5.38 8.9-7.04 3.67-1.67 7.64-2.5 11.93-2.5 6.92 0 12.96 1.55 18.12 4.65l-7.45 12.9c-4.64-2.55-8.7-3.82-12.18-3.82-1.85 0-3.33.41-4.43 1.22-1.1.81-1.74 2-1.94 3.56-.17 1.42.15 2.75.97 3.97.82 1.23 2.46 2.88 4.94 4.93 3.11 2.52 5.32 5.17 6.63 7.95 1.31 2.78 1.75 5.97 1.31 9.56ZM227.55 331.92h-16.99l8.6-25.9h-15.04l-8.69 25.9h-16.99l21.2-63.54h16.99l-7.75 23.55H224l7.75-23.55h17.04l-21.25 63.54ZM285.7 267.38c7.53 0 13.13 2.15 16.79 6.45 3.66 4.3 5.02 10.31 4.08 18.01-.94 7.71-3.24 14.75-6.91 21.14-3.66 6.39-8.24 11.28-13.73 14.69s-11.58 5.11-18.27 5.11c-7.79 0-13.55-2.16-17.26-6.48-3.72-4.32-5.11-10.31-4.17-17.99.94-7.68 3.29-14.73 7.06-21.16 3.77-6.43 8.43-11.34 13.99-14.71 5.56-3.37 11.69-5.06 18.42-5.06Zm3.68 24.64c.4-3.3.02-5.89-1.14-7.76s-3.06-2.8-5.7-2.8c-2.87 0-5.65 1.22-8.36 3.65-2.7 2.43-5.03 5.78-6.99 10.04-1.96 4.26-3.21 8.62-3.75 13.08-.86 7.01 1.61 10.52 7.41 10.52 2.75 0 5.46-1.2 8.11-3.61 2.65-2.41 4.91-5.65 6.75-9.73 1.85-4.08 3.07-8.55 3.66-13.38ZM328.73 308.8l-7.74 23.12H304l21.2-63.54h16.82c7.3 0 12.71 1.45 16.24 4.35 3.53 2.9 4.93 7.26 4.22 13.08-.55 4.52-2.06 8.46-4.53 11.82-2.47 3.36-5.84 5.93-10.11 7.69l7.68 26.6h-17.43l-6.19-23.12h-3.17Zm4.32-12.91h2.22c2.75 0 5.04-.79 6.85-2.37 1.82-1.58 2.9-3.79 3.24-6.63.22-1.8-.11-3.17-1-4.11-.89-.94-2.28-1.41-4.19-1.41h-2.3l-4.82 14.51ZM384.64 331.92h-16.99l16.35-49.5h-13.78l4.72-14.04h44.68l-4.8 14.04H401l-16.35 49.5ZM407.94 331.92l21.2-63.54h16.99l-16.55 49.67h20.19l-4.65 13.86h-37.18ZM454.2 331.92l21.2-63.54h17.25l-21.2 63.54H454.2ZM527.51 312.41c-.79 6.43-3.53 11.43-8.22 15.01-4.7 3.58-10.86 5.37-18.47 5.37-3.19 0-6.16-.36-8.91-1.07-2.75-.71-5.07-1.74-6.96-3.11l1.86-15.21c2.25 1.53 4.88 2.82 7.89 3.86 3.02 1.05 5.8 1.57 8.35 1.57 2.14 0 3.82-.45 5.03-1.35 1.21-.9 1.92-2.17 2.12-3.83.1-.78.01-1.51-.25-2.19-.26-.68-.68-1.36-1.23-2.04-.55-.68-2.08-2.18-4.58-4.5-3.06-2.72-5.18-5.51-6.37-8.34-1.19-2.84-1.58-5.95-1.16-9.34.46-3.8 1.83-7.21 4.1-10.23 2.27-3.03 5.24-5.38 8.9-7.04 3.67-1.67 7.64-2.5 11.93-2.5 6.92 0 12.96 1.55 18.12 4.65l-7.45 12.9c-4.64-2.55-8.7-3.82-12.18-3.82-1.85 0-3.33.41-4.43 1.22-1.1.81-1.74 2-1.94 3.56-.17 1.42.15 2.75.97 3.97.82 1.23 2.46 2.88 4.94 4.93 3.11 2.52 5.32 5.17 6.63 7.95 1.31 2.78 1.75 5.97 1.31 9.56ZM556.89 331.92H539.9l16.35-49.5h-13.78l4.72-14.04h44.68l-4.8 14.04h-13.82l-16.35 49.5Z" class="cls-1"/><path d="m106.34 116.36 46.4.01h28.21V88.01l-74.61 28.35z" class="cls-4"/><path d="M180.95 88.01v100.13l35.24-113.52-35.24 13.39z" style="fill:#68c5ed"/><path d="M180.95 116.37h-28.21l28.21 71.77v-71.77z" style="fill:#044d80"/><path d="m106.34 116.36 53.64 18.42-7.24-18.41-46.4-.01z" class="cls-5"/><path d="M277.26 161.78c-.41.41-1.09.93-2.04 1.55s-2.2 1.24-3.73 1.87c-1.53.62-3.41 1.16-5.62 1.61-2.22.45-4.75.67-7.61.67-5.52 0-10.29-.9-14.31-2.7-4.02-1.8-7.34-4.3-9.96-7.52-2.62-3.22-4.55-7.02-5.77-11.41-1.23-4.39-1.84-9.21-1.84-14.46s.66-10.11 1.99-14.57c1.33-4.46 3.32-8.31 5.98-11.56 2.66-3.25 5.98-5.79 9.96-7.62 3.99-1.83 8.67-2.75 14.05-2.75 2.66 0 5.06.24 7.2.73 2.15.48 4.02 1.05 5.62 1.71 1.6.66 2.93 1.35 3.99 2.07 1.06.73 1.86 1.33 2.4 1.81a8.1 8.1 0 0 1 1.58 1.97c.44.76.66 1.59.66 2.49 0 1.38-.51 2.77-1.53 4.15a30.88 30.88 0 0 1-3.37 3.84c-.82-.83-1.74-1.67-2.76-2.54-1.02-.86-2.16-1.62-3.42-2.28-1.26-.66-2.69-1.21-4.29-1.66-1.6-.45-3.39-.67-5.37-.67-3.47 0-6.39.71-8.74 2.13-2.35 1.42-4.24 3.27-5.67 5.55-1.43 2.28-2.45 4.89-3.07 7.83a44.04 44.04 0 0 0-.92 8.97c0 3.25.31 6.36.92 9.33.61 2.97 1.67 5.6 3.17 7.88 1.5 2.28 3.46 4.11 5.88 5.5 2.42 1.38 5.43 2.07 9.04 2.07 1.91 0 3.66-.24 5.26-.73 1.6-.48 3.01-1.07 4.24-1.76 1.23-.69 2.3-1.41 3.22-2.18.92-.76 1.69-1.42 2.3-1.97.41.48.88 1.07 1.43 1.76.54.69 1.06 1.42 1.53 2.18.48.76.89 1.52 1.23 2.28.34.76.51 1.45.51 2.07 0 .9-.17 1.66-.51 2.28-.34.62-.89 1.31-1.64 2.07M329.93 153.83c0 5.49.79 9.49 2.36 12-1.23.49-2.38.83-3.44 1.04-1.06.21-2.18.31-3.34.31-2.47 0-4.34-.49-5.6-1.46-1.27-.97-2.07-2.36-2.42-4.17-1.51 1.6-3.5 2.96-5.96 4.07-2.47 1.11-5.48 1.67-9.05 1.67-1.85 0-3.7-.26-5.55-.78-1.85-.52-3.53-1.37-5.04-2.55-1.51-1.18-2.74-2.76-3.7-4.73-.96-1.98-1.44-4.38-1.44-7.23 0-3.54.84-6.41 2.52-8.63 1.68-2.22 3.79-3.97 6.32-5.25 2.54-1.28 5.28-2.16 8.23-2.65 2.95-.49 5.65-.8 8.12-.94.82-.07 1.63-.1 2.42-.1h2.21v-1.9c0-2.67-.7-4.57-2.11-5.7-1.41-1.12-3.69-1.69-6.84-1.69-2.95 0-5.57.49-7.86 1.46-2.3.97-4.54 2.09-6.73 3.34-.96-1.18-1.73-2.49-2.31-3.91-.58-1.42-.87-2.49-.87-3.18 0-.97.53-1.91 1.59-2.82 1.06-.9 2.52-1.72 4.37-2.45 1.85-.73 3.97-1.32 6.37-1.77 2.4-.45 4.93-.68 7.61-.68 3.7 0 6.84.38 9.41 1.15 2.57.77 4.66 1.95 6.27 3.55 1.61 1.6 2.76 3.6 3.44 6 .68 2.4 1.03 5.2 1.03 8.4v19.61Zm-13.16-12.1h-1.44c-.48 0-.96.04-1.44.1-1.71.14-3.41.35-5.09.63-1.68.28-3.17.77-4.47 1.46-1.3.7-2.36 1.6-3.19 2.71-.82 1.11-1.23 2.54-1.23 4.28 0 1.95.55 3.6 1.64 4.95 1.1 1.36 2.95 2.03 5.55 2.03 1.3 0 2.54-.17 3.7-.52 1.16-.35 2.19-.8 3.08-1.36.89-.56 1.59-1.16 2.11-1.83.51-.66.77-1.27.77-1.82v-10.64ZM355.53 121.18c1.09-1.32 2.8-2.66 5.12-4.02 2.32-1.36 5.26-2.03 8.81-2.03 2.53 0 4.94.43 7.23 1.3 2.29.87 4.32 2.28 6.1 4.22 1.78 1.95 3.19 4.52 4.25 7.72s1.59 7.13 1.59 11.79c0 5.42-.62 9.89-1.85 13.4s-2.82 6.29-4.76 8.35c-1.95 2.05-4.12 3.49-6.51 4.33-2.39.83-4.78 1.25-7.17 1.25-1.98 0-3.71-.23-5.18-.68-1.47-.45-2.72-.96-3.74-1.51-1.02-.56-1.81-1.11-2.36-1.67-.55-.56-.89-.94-1.02-1.15v25.64h-13.98v-71.54c.34-.07.76-.14 1.24-.21.42-.07.9-.12 1.45-.16.55-.03 1.21-.05 1.97-.05 2.28 0 4.21.38 5.8 1.15 1.59.77 2.59 2.05 3.01 3.86m18.51 19.3c0-2.09-.17-4.03-.51-5.84-.34-1.81-.9-3.37-1.69-4.69a8.226 8.226 0 0 0-3.17-3.08c-1.33-.73-2.95-1.09-4.85-1.09-2.86 0-4.86.56-5.98 1.67-1.12 1.11-1.69 2.33-1.69 3.65v22.12c.54.56 1.51 1.22 2.91 1.98 1.4.77 3.02 1.15 4.86 1.15 3.48 0 6.03-1.39 7.67-4.17 1.64-2.78 2.45-6.68 2.45-11.68M399.42 158.42c-.48-1.39-.79-2.85-.93-4.38-.14-1.53-.21-3.06-.21-4.59v-48.4c.48-.07.99-.14 1.54-.21.48-.07.99-.12 1.54-.16.55-.03 1.1-.05 1.64-.05 1.1 0 2.19.1 3.29.31s2.09.63 2.98 1.25c.89.63 1.61 1.48 2.16 2.56s.82 2.49.82 4.22v7.41h14.39v10.54h-14.39v22.25c0 4.85 1.95 7.28 5.86 7.28.96 0 1.87-.16 2.72-.47.86-.31 1.63-.66 2.31-1.04.68-.38 1.29-.78 1.8-1.2.51-.42.87-.73 1.08-.94 1.03 1.53 1.82 2.86 2.36 3.97.55 1.12.82 2.17.82 3.15 0 .91-.36 1.81-1.08 2.69-.72.88-1.73 1.69-3.03 2.42-1.3.74-2.88 1.33-4.73 1.79-1.85.46-3.87.69-6.07.69-4.25 0-7.56-.84-9.92-2.5-2.36-1.67-4.03-3.86-4.99-6.57M462.08 157.06c1.72 0 3.23-.19 4.54-.57 1.31-.38 2.48-.85 3.51-1.41 1.03-.56 1.93-1.16 2.68-1.83.76-.66 1.44-1.27 2.06-1.83.82 1.04 1.68 2.38 2.58 4.02.89 1.64 1.34 2.97 1.34 4.02 0 1.53-.86 2.92-2.57 4.17-1.44 1.11-3.48 2.07-6.12 2.87-2.64.8-5.74 1.2-9.3 1.2-3.22 0-6.39-.42-9.51-1.25-3.12-.83-5.9-2.29-8.33-4.38-2.43-2.09-4.4-4.88-5.91-8.4-1.51-3.51-2.26-7.94-2.26-13.3 0-4.38.67-8.15 2-11.32 1.34-3.16 3.12-5.79 5.35-7.88 2.23-2.09 4.74-3.62 7.56-4.59 2.81-.97 5.69-1.46 8.64-1.46 3.84 0 7.09.61 9.77 1.83 2.67 1.22 4.85 2.85 6.53 4.9 1.68 2.05 2.89 4.4 3.65 7.04.75 2.64 1.13 5.42 1.13 8.35v1.46c0 .56-.02 1.15-.05 1.77-.03.63-.07 1.24-.1 1.83-.04.59-.09 1.06-.15 1.41h-30.33c.27 3.83 1.44 7.01 3.51 9.55 2.06 2.54 5.33 3.81 9.8 3.81m4.69-21.18c0-3.34-.64-6.05-1.91-8.14-1.28-2.09-3.57-3.13-6.88-3.13-2.83 0-5.08.99-6.77 2.97-1.69 1.98-2.53 4.75-2.53 8.29h18.1ZM503.74 121.44c.41-.62.96-1.31 1.64-2.07.68-.76 1.52-1.45 2.52-2.07.99-.62 2.09-1.14 3.29-1.55 1.2-.41 2.48-.62 3.86-.62.82 0 1.7.07 2.62.21.93.14 1.78.4 2.57.78.79.38 1.42.9 1.9 1.55.48.66.72 1.47.72 2.43 0 1.52-.38 3.26-1.13 5.23-.76 1.97-1.51 3.65-2.26 5.04-1.17-.97-2.33-1.72-3.5-2.24-1.17-.52-2.54-.78-4.11-.78-2.12 0-3.91.63-5.35 1.88-1.44 1.26-2.16 2.75-2.16 4.5v33.77h-13.98v-50.9c.34-.07.75-.14 1.23-.21.41-.07.89-.12 1.44-.16.55-.03 1.2-.05 1.95-.05 2.19 0 4.09.43 5.71 1.29 1.61.86 2.62 2.19 3.03 3.98M543.5 121.44c.41-.62.96-1.31 1.65-2.07.68-.76 1.52-1.45 2.52-2.07.99-.62 2.09-1.14 3.29-1.55 1.2-.41 2.48-.62 3.86-.62.82 0 1.7.07 2.62.21.93.14 1.78.4 2.57.78.79.38 1.42.9 1.9 1.55.48.66.72 1.47.72 2.43 0 1.52-.38 3.26-1.13 5.23-.76 1.97-1.51 3.65-2.26 5.04-1.17-.97-2.33-1.72-3.5-2.24-1.17-.52-2.54-.78-4.11-.78-2.12 0-3.91.63-5.35 1.88-1.44 1.26-2.16 2.75-2.16 4.5v33.77h-13.98v-50.9c.34-.07.75-.14 1.23-.21.41-.07.89-.12 1.44-.16.55-.03 1.2-.05 1.95-.05 2.19 0 4.1.43 5.71 1.29 1.61.86 2.62 2.19 3.03 3.98M610.22 153.83c0 5.49.79 9.49 2.36 12-1.23.49-2.38.83-3.44 1.04-1.06.21-2.18.31-3.34.31-2.47 0-4.34-.49-5.6-1.46-1.27-.97-2.07-2.36-2.42-4.17-1.51 1.6-3.5 2.96-5.96 4.07-2.47 1.11-5.48 1.67-9.05 1.67-1.85 0-3.7-.26-5.55-.78-1.85-.52-3.53-1.37-5.04-2.55-1.51-1.18-2.74-2.76-3.7-4.73-.96-1.98-1.44-4.38-1.44-7.23 0-3.54.84-6.41 2.52-8.63 1.68-2.22 3.79-3.97 6.32-5.25 2.53-1.28 5.28-2.16 8.22-2.65 2.95-.49 5.65-.8 8.12-.94.82-.07 1.63-.1 2.42-.1h2.21v-1.9c0-2.67-.7-4.57-2.11-5.7-1.41-1.12-3.69-1.69-6.84-1.69-2.95 0-5.57.49-7.86 1.46-2.3.97-4.54 2.09-6.73 3.34-.96-1.18-1.73-2.49-2.31-3.91-.58-1.42-.87-2.49-.87-3.18 0-.97.53-1.91 1.59-2.82 1.06-.9 2.52-1.72 4.37-2.45 1.85-.73 3.97-1.32 6.37-1.77 2.4-.45 4.94-.68 7.61-.68 3.7 0 6.84.38 9.41 1.15 2.57.77 4.66 1.95 6.27 3.55 1.61 1.6 2.76 3.6 3.44 6 .68 2.4 1.03 5.2 1.03 8.4v19.61Zm-13.16-12.1h-1.44c-.48 0-.96.04-1.44.1-1.71.14-3.41.35-5.09.63-1.68.28-3.17.77-4.47 1.46-1.3.7-2.36 1.6-3.19 2.71-.82 1.11-1.23 2.54-1.23 4.28 0 1.95.55 3.6 1.65 4.95 1.1 1.36 2.95 2.03 5.55 2.03 1.3 0 2.54-.17 3.7-.52 1.16-.35 2.19-.8 3.08-1.36.89-.56 1.59-1.16 2.11-1.83.51-.66.77-1.27.77-1.82v-10.64ZM321.5 458.97H283v-9.44l12.96-13.1c3.7-3.87 6.12-6.51 7.26-7.93 1.14-1.42 1.93-2.63 2.38-3.65.45-1.02.67-2.08.67-3.19 0-1.38-.45-2.47-1.34-3.27-.9-.8-2.15-1.2-3.77-1.2s-3.36.48-5.06 1.43c-1.71.96-3.64 2.37-5.79 4.23l-7.88-9.22c2.73-2.44 5.03-4.19 6.9-5.24a24.42 24.42 0 0 1 6.08-2.41c2.19-.56 4.65-.83 7.39-.83 3.44 0 6.5.6 9.2 1.81 2.7 1.21 4.79 2.93 6.28 5.17 1.49 2.24 2.23 4.75 2.23 7.53 0 2.08-.26 4-.78 5.77-.52 1.77-1.32 3.5-2.41 5.21s-2.53 3.5-4.34 5.39c-1.8 1.89-5.64 5.47-11.52 10.74v.36h20.07v11.83ZM364.55 432.52c0 9.39-1.57 16.26-4.72 20.63-3.15 4.37-7.96 6.55-14.44 6.55s-11.12-2.28-14.34-6.84c-3.22-4.56-4.83-11.34-4.83-20.34s1.57-16.36 4.72-20.76c3.14-4.4 7.96-6.6 14.44-6.6s11.09 2.29 14.32 6.88c3.23 4.58 4.84 11.41 4.84 20.49Zm-24.06 0c0 6 .37 10.12 1.12 12.38.75 2.25 2.01 3.38 3.77 3.38s3.05-1.16 3.79-3.48c.74-2.32 1.11-6.41 1.11-12.27s-.38-10-1.12-12.36c-.75-2.36-2.01-3.54-3.77-3.54s-3.02 1.14-3.77 3.41c-.75 2.27-1.12 6.44-1.12 12.48ZM406.3 458.97h-38.5v-9.44l12.96-13.1c3.7-3.87 6.12-6.51 7.26-7.93 1.14-1.42 1.93-2.63 2.38-3.65.45-1.02.67-2.08.67-3.19 0-1.38-.45-2.47-1.34-3.27-.9-.8-2.15-1.2-3.77-1.2s-3.36.48-5.06 1.43c-1.71.96-3.64 2.37-5.79 4.23l-7.88-9.22c2.73-2.44 5.03-4.19 6.9-5.24a24.42 24.42 0 0 1 6.08-2.41c2.19-.56 4.65-.83 7.39-.83 3.44 0 6.5.6 9.2 1.81 2.7 1.21 4.79 2.93 6.28 5.17 1.49 2.24 2.23 4.75 2.23 7.53 0 2.08-.26 4-.78 5.77-.52 1.77-1.32 3.5-2.41 5.21s-2.53 3.5-4.34 5.39c-1.8 1.89-5.64 5.47-11.52 10.74v.36h20.07v11.83ZM447.38 417.42c0 3.29-1 6.12-3.01 8.47-2.01 2.36-4.91 4.07-8.71 5.13v.22c8.85 1.11 13.28 5.3 13.28 12.56 0 4.94-1.95 8.82-5.86 11.65s-9.33 4.25-16.28 4.25c-2.85 0-5.5-.21-7.93-.62-2.43-.41-5.06-1.16-7.89-2.25v-11.9c2.32 1.19 4.69 2.06 7.09 2.63 2.41.57 4.63.85 6.66.85 3.14 0 5.44-.44 6.88-1.33 1.44-.88 2.16-2.27 2.16-4.16 0-1.45-.38-2.57-1.12-3.36s-1.96-1.38-3.63-1.78-3.85-.6-6.53-.6h-3.27V426.4h3.34c7.28 0 10.92-1.86 10.92-5.59 0-1.4-.54-2.44-1.62-3.12s-2.52-1.02-4.34-1.02c-3.39 0-6.9 1.14-10.52 3.41l-5.95-9.58c2.81-1.94 5.68-3.31 8.62-4.14 2.94-.82 6.31-1.23 10.11-1.23 5.49 0 9.8 1.09 12.92 3.27s4.68 5.18 4.68 9Z" class="cls-6"/></svg>
