<?xml version="1.0" encoding="UTF-8"?>
<svg width="16.7233389px" height="16.0030285px" viewBox="0 0 16.7233389 16.0030285" version="1.1" xmlns="http://www.w3.org/2000/svg" xmlns:xlink="http://www.w3.org/1999/xlink">
    <title>Star</title>
    <g id="Page-1" stroke="none" stroke-width="1" fill="none" fill-rule="evenodd">
        <g id="Home" transform="translate(-497.6384, -685.2593)" fill="#FAFF00" stroke="#000000" stroke-width="0.5">
            <g id="Group-3" transform="translate(402, 684)">
                <g id="5-stars" transform="translate(94, 0)">
                    <path d="M9.75913979,1.54927943 C9.94091426,1.48763793 10.1462042,1.49534104 10.3319243,1.5869994 L12.4820717,5.5941144 C12.6641492,5.96304374 13.0161062,6.21875546 13.4232439,6.27791603 L17.4694528,6.8658646 C17.6744071,6.8956462 17.847887,7.00568254 17.962683,7.15951206 C18.0774789,7.31334158 18.1335909,7.51096427 18.1038093,7.7159186 L14.9572485,10.9990969 C14.6626409,11.2862684 14.5282053,11.7000186 14.5977527,12.1055112 L15.2889277,16.1353706 C15.3239381,16.3394968 15.2728956,16.5384891 15.1620689,16.6952025 C15.0512423,16.8519159 14.8806315,16.9663503 14.6765053,17.0013607 L10.5816764,15.0233615 C10.2175214,14.8319138 9.78247862,14.8319138 9.41832359,15.0233615 L5.79928435,16.926003 C5.61596763,17.0223783 5.41094168,17.035326 5.22765108,16.9783506 C5.04436048,16.9213753 4.88280524,16.794477 4.78642994,16.6111603 L5.40224725,12.1055112 C5.47179467,11.7000186 5.33735907,11.2862684 5.04275146,10.9990969 L2.11488721,8.14513463 C1.96658087,8.00057168 1.89091039,7.80958146 1.88845724,7.6176554 C1.88600408,7.42572934 1.95676825,7.23286743 2.10133121,7.08456109 L6.57675612,6.27791603 C6.98389382,6.21875546 7.33585081,5.96304374 7.51792832,5.5941144 L9.32744794,1.92762718 C9.4191063,1.74190706 9.57736533,1.61092093 9.75913979,1.54927943 Z" id="Star"></path>
                </g>
            </g>
        </g>
    </g>
</svg>