<svg width="45" height="42" viewBox="0 0 45 42" fill="none" xmlns="http://www.w3.org/2000/svg">
<path d="M9.9 25.6499C8.3 23.6499 7.06667 21.3999 6.2 18.8999C5.33333 16.3999 4.9 13.7666 4.9 10.9999C4.9 10.0666 4.93333 9.10824 5 8.1249C5.06667 7.14157 5.21667 6.13324 5.45 5.0999L1.75 8.7499L0 6.9999L6.65 0.399902L13.3 6.9999L11.55 8.7499L7.9 5.1499C7.7 6.11657 7.56667 7.11657 7.5 8.1499C7.43333 9.18324 7.4 10.1332 7.4 10.9999C7.4 13.3999 7.78333 15.6999 8.55 17.8999C9.31667 20.0999 10.3667 22.0832 11.7 23.8499L9.9 25.6499ZM27.7 41.6999L14.1 36.4499L15.5 32.6499C15.7333 32.0499 16.0667 31.5249 16.5 31.0749C16.9333 30.6249 17.4667 30.3332 18.1 30.1999L22.05 29.3999L15.4 14.5499C14.8333 13.2832 14.8 12.0082 15.3 10.7249C15.8 9.44157 16.6833 8.51657 17.95 7.9499C19.2167 7.38324 20.4917 7.34157 21.775 7.8249C23.0583 8.30824 23.9833 9.18323 24.55 10.4499L28.05 18.2999L29.25 17.7999C29.3833 17.7332 29.5333 17.6999 29.7 17.6999H30.2L38.4 17.9999C39.2667 18.0332 40.0333 18.3332 40.7 18.8999C41.3667 19.4666 41.8167 20.1832 42.05 21.0499L44.85 31.7499C45.1167 32.7166 45.025 33.6332 44.575 34.4999C44.125 35.3666 43.45 35.9999 42.55 36.3999L30.85 41.5999C30.35 41.8332 29.825 41.9582 29.275 41.9749C28.725 41.9916 28.2 41.8999 27.7 41.6999ZM29.25 38.9999L42.1 33.2999L39 21.0499L28.8 20.5999L26.3 21.7499L21.8 11.6999C21.5333 11.1332 21.1667 10.7499 20.7 10.5499C20.2333 10.3499 19.7167 10.3832 19.15 10.6499C18.5833 10.9166 18.2083 11.2832 18.025 11.7499C17.8417 12.2166 17.8833 12.7332 18.15 13.2999L26.25 31.5499L18.55 33.1499L18 34.6999L29.25 38.9999Z" fill="#047857"/>
</svg>
