<svg width="23" height="22" viewBox="0 0 23 22" fill="none" xmlns="http://www.w3.org/2000/svg">
<path d="M21 10L20.375 8.625L19 8L20.375 7.375L21 6L21.625 7.375L23 8L21.625 8.625L21 10ZM18 6L17.05 3.95L15 3L17.05 2.05L18 0L18.95 2.05L21 3L18.95 3.95L18 6ZM8 22C7.45 22 6.97933 21.8043 6.588 21.413C6.196 21.021 6 20.55 6 20H10C10 20.55 9.80433 21.021 9.413 21.413C9.021 21.8043 8.55 22 8 22ZM4 19V17H12V19H4ZM4.25 16C3.1 15.3167 2.18767 14.4 1.513 13.25C0.837667 12.1 0.5 10.85 0.5 9.5C0.5 7.41667 1.22933 5.646 2.688 4.188C4.146 2.72933 5.91667 2 8 2C10.0833 2 11.854 2.72933 13.312 4.188C14.7707 5.646 15.5 7.41667 15.5 9.5C15.5 10.85 15.1627 12.1 14.488 13.25C13.8127 14.4 12.9 15.3167 11.75 16H4.25ZM4.85 14H11.15C11.9 13.4667 12.479 12.8083 12.887 12.025C13.2957 11.2417 13.5 10.4 13.5 9.5C13.5 7.96667 12.9667 6.66667 11.9 5.6C10.8333 4.53333 9.53333 4 8 4C6.46667 4 5.16667 4.53333 4.1 5.6C3.03333 6.66667 2.5 7.96667 2.5 9.5C2.5 10.4 2.70433 11.2417 3.113 12.025C3.521 12.8083 4.1 13.4667 4.85 14Z" fill="#047857"/>
</svg>
