<svg width="45" height="31" viewBox="0 0 45 31" fill="none" xmlns="http://www.w3.org/2000/svg">
<path d="M22.4122 23.9326C24.7749 23.9326 26.7812 23.1057 28.4312 21.4517C30.0812 19.7978 30.9062 17.7895 30.9062 15.4267C30.9062 13.064 30.0793 11.0576 28.4254 9.40762C26.7715 7.75762 24.7631 6.93262 22.4004 6.93262C20.0376 6.93262 18.0313 7.75958 16.3813 9.41352C14.7313 11.0674 13.9062 13.0757 13.9062 15.4385C13.9062 17.8012 14.7332 19.8076 16.3872 21.4576C18.0411 23.1076 20.0494 23.9326 22.4122 23.9326ZM22.3945 21.0326C20.8357 21.0326 19.5146 20.487 18.4312 19.3959C17.3479 18.3047 16.8062 16.9797 16.8062 15.4209C16.8062 13.862 17.3518 12.541 18.443 11.4576C19.5342 10.3743 20.8592 9.83262 22.418 9.83262C23.9768 9.83262 25.2979 10.3782 26.3813 11.4694C27.4646 12.5606 28.0063 13.8856 28.0063 15.4444C28.0063 17.0032 27.4607 18.3243 26.3695 19.4076C25.2783 20.491 23.9533 21.0326 22.3945 21.0326ZM22.4062 30.4326C17.5396 30.4326 13.1396 29.0493 9.20625 26.2826C5.27292 23.516 2.33958 19.8993 0.40625 15.4326C2.33958 10.966 5.27292 7.34928 9.20625 4.58262C13.1396 1.81595 17.5396 0.432617 22.4062 0.432617C27.2729 0.432617 31.6729 1.81595 35.6063 4.58262C39.5396 7.34928 42.4729 10.966 44.4062 15.4326C42.4729 19.8993 39.5396 23.516 35.6063 26.2826C31.6729 29.0493 27.2729 30.4326 22.4062 30.4326ZM22.3978 27.4326C26.4368 27.4326 30.1479 26.341 33.5312 24.1576C36.9146 21.9743 39.4896 19.066 41.2563 15.4326C39.4896 11.7993 36.9174 8.89095 33.5397 6.70762C30.162 4.52428 26.4536 3.43262 22.4147 3.43262C18.3757 3.43262 14.6646 4.52428 11.2812 6.70762C7.89792 8.89095 5.30625 11.7993 3.50625 15.4326C5.30625 19.066 7.8951 21.9743 11.2728 24.1576C14.6505 26.341 18.3589 27.4326 22.3978 27.4326Z" fill="#047857"/>
</svg>
