<?xml version="1.0" encoding="utf-8"?>
<!-- Generator: Adobe Illustrator 27.7.0, SVG Export Plug-In . SVG Version: 6.00 Build 0)  -->
<svg version="1.1" id="Layer_1" xmlns="http://www.w3.org/2000/svg" xmlns:xlink="http://www.w3.org/1999/xlink" x="0px" y="0px"
	 viewBox="0 0 1284.129 405.04" enable-background="new 0 0 1284.129 405.04" xml:space="preserve">
<g>
	<g>
		<path fill-rule="evenodd" clip-rule="evenodd" fill="#D11F44" d="M27.012,116.905c25.142-49.849,78.434-93.891,150.833-96.932
			c-0.677,0.216-0.216,16.517-0.191,15.839c-65.25,6.523-104.677,38.003-131.83,82.623c-0.339,0.209,44.651,23.681,45.068,23.787
			c17.373-25.193,37.568-44.745,73.044-51.831c-0.33,0.313,2.814,14.9,3.041,15.213c-53.582,10.934-88.119,62.718-69.824,129.258
			c-0.158-0.158-15.372,7.233-15.025,7.508c-9.416-23.646-9.852-61.672,1.253-83.874c-0.079-0.731-45.068-23.552-45.068-23.786
			c-23.066,38.095-16.576,114.496,6.955,147.377c-0.609,0.036-13.04,8.257-14.467,9.108
			C-3.849,229.489,1.799,166.895,27.012,116.905z"/>
		<path fill-rule="evenodd" clip-rule="evenodd" fill="#D11F44" d="M198.631,19.459c49.279,0,95.786,26.223,123.859,56.412
			c47.05,50.598,66.177,143.617,23.785,215.324c-0.209-0.418-12.38-9.108-12.518-8.761c22.553-35.626,28.207-105.69,7.51-147.723
			c-1.069-0.418-46.059,21.751-46.059,22.62c6.956,16.953,11.301,53.901-1.513,85.04c-0.226-0.275-14.135-7.667-13.77-7.508
			c23.027-62.286-18.762-118.704-70.485-129.33c-0.295,0.072,1.304-15.699,1.442-16.012c33.332,6.833,56.073,25.648,77.806,52.702
			c0.653-0.105,44.337-22.273,43.816-22.533c-26.817-45.795-67.64-77.581-133.952-83.877
			C198.552,30.388,198.631,24.885,198.631,19.459z"/>
		<path fill-rule="evenodd" clip-rule="evenodd" fill="#D11F44" d="M308.718,113.429c-0.033,0-13.073,9.999-12.517,10.014
			c-23.217-27.278-51.712-47.839-97.648-52.396c-0.275-0.087-1.579,49.772-1.251,49.892c20.969,2.488,42.702,12.92,57.918,34.654
			c-0.104,0.089-16.275,7.302-15.649,7.389c-14.102-14.866-25.808-25.767-49.78-25.767c-26.722,0-43.082,13.076-52.803,26.638
			c-0.278-0.087-14.276-7.735-14.347-7.824c8.696-14.78,31.733-33.194,56.351-36.08c0-17.11,0.784-31.974,0.784-49.085
			c-46.525,3.133-75.272,24.046-96.394,52.58c-0.73-0.018-14.204-9.146-13.771-8.761c25.668-36.643,70.68-65.785,132.699-61.343
			C251.218,56.843,285.222,84.511,308.718,113.429z"/>
		<path fill-rule="evenodd" clip-rule="evenodd" fill="#68331F" d="M902.458,157.244c-10.014,0-21.283,0-31.297,0
			c-9.108-28.167-36.769-53.748-80.469-53.83c-54.729-0.102-89.189,43.469-93.892,87.631
			c-7.421,69.679,45.133,112.112,96.556,111.601c23.945-0.239,52.594-9.26,78.706-52.762c10.432,0,20.864,0,31.297,0
			c-17.701,54.734-62.614,89.086-125.188,83.876c-62.685-5.22-109.641-57.225-112.667-123.935
			c-3.051-67.155,43.481-135.205,124.562-135.205C874.641,74.621,902.458,149.942,902.458,157.244z"/>
		<polygon fill-rule="evenodd" clip-rule="evenodd" fill="#68331F" points="443.92,80.879 480.225,80.879 646.637,329.91 
			610.422,330.002 544.072,229.856 476.47,330.002 440.166,330.002 524.042,203.566 		"/>
		<polygon fill-rule="evenodd" clip-rule="evenodd" fill="#68331F" points="641.719,80.879 577.872,174.77 561.597,149.734 
			605.413,80.879 		"/>
		<polygon fill-rule="evenodd" clip-rule="evenodd" fill="#68331F" points="938.412,82.132 973.468,80.879 1048.964,292.103 
			1048.578,330.002 1031.055,330.002 		"/>
		<polygon fill-rule="evenodd" clip-rule="evenodd" fill="#68331F" points="1190.04,80.879 1097.401,330.002 1079.874,330.002 
			1079.813,292.516 1157.489,80.879 		"/>
		<polygon fill-rule="evenodd" clip-rule="evenodd" fill="#68331F" points="1275.168,80.879 1275.168,330.002 1245.86,329.9 
			1245.126,80.879 		"/>
		<path fill-rule="evenodd" clip-rule="evenodd" fill="#D11F44" d="M47.441,155.594c4.755,1.923,9.921,3.833,15.213,5.216
			c-11.15,34.292-4.77,80.028,11.964,104.097c13.786-9.999,29.657-17.915,42.565-28.797c-8.222-15.944-11.671-42.577-3.757-61.34
			c0.089,0.385,14.433,6.036,15.024,6.26c-10.316,45.096,14.643,75.079,50.073,82.623c0,5.425,0,10.85,0,16.275
			c-24.224-2.898-38.908-15.337-52.58-28.79c-14.141,9.225-28.146,18.588-42.562,27.537c20.238,25.246,43.706,46.941,83.599,52.529
			c-0.225,0.769-0.764,15.409,0,15.648C85.302,333.037,17.803,253.674,47.441,155.594z"/>
		<path fill-rule="evenodd" clip-rule="evenodd" fill="#D11F44" d="M212.323,346.276c0.298-0.728-1.441-15.944-1.25-16.275
			c37.904-6.745,64.438-24.858,82.623-51.327c-0.443-0.285-40.869-27.018-41.311-27.537c-14.41,13.132-28.676,26.407-53.832,28.79
			c0-5.425,0-10.85,0-16.275c35.517-7.044,60.473-39.452,51.015-83.282c0.122-0.555,15.213-5.652,15.335-5.601
			c6.426,18.381,4.71,48.153-5.008,61.34c0.105,0.551,42.486,28.588,42.565,28.797c18.193-21.614,22.1-70.65,12.518-105.159
			c0.227-0.242,14.136-5.023,13.772-5.007C360.788,243.91,295.601,336.93,212.323,346.276z"/>
		<path fill-rule="evenodd" clip-rule="evenodd" fill="#D11F44" d="M187.623,382.581c-65.2,0-117.784-33.126-144.529-73.979
			c-0.227-0.172,11.599-8.746,11.737-8.695c28.589,35.261,65.673,61.774,124.892,66.404c0-17.527,0-35.056,0-52.579
			c-33.288-2.186-54.976-14.661-71.304-33.803c0.313-0.015,11.685-10.015,11.685-10.015s11.937,11.207,20.865,16.276
			c23.712,13.473,64.32,15.362,90.343,3.718c12.837-5.746,26.952-18.257,26.952-18.257s9.997,10.468,10.397,10.433
			c-16.795,17.839-38.831,29.539-71.359,31.648c0,17.523,0,35.052,0,52.579c59.828-4.436,93.313-32.377,123.989-65.965
			c-0.277,0.387,13.04,7.824,13.718,8.379C306.877,347.775,252.822,382.581,187.623,382.581z"/>
	</g>
</g>
</svg>
